<?xml version="1.0" encoding="UTF-8"?>
<svg id="Capa_1" data-name="Capa 1" xmlns="http://www.w3.org/2000/svg" viewBox="0 0 1371 1371">
  <defs>
    <style>
      .cls-1 {
        fill: #fffb61;
      }
    </style>
  </defs>
  <circle class="cls-1" cx="685.5" cy="685.5" r="685.5"/>
  <path d="M517.82,1125.54v-49c45.38-1.61,71.59-4.42,78.62-8.45s11.55-15.3,13.56-33.81c3.2-25.36,4.81-81.31,4.81-167.88,0-37.44-.61-72.05-1.81-103.86l-1.8-70.66c0-23.34-2.52-37.73-7.53-43.17-5.03-5.44-18.58-8.55-40.67-9.36l-45.19-1.81v-46c96.7-7.34,176.36-24.67,238.95-52l15.05,12.08c-6,76.92-9,188.88-9,335.86,0,84.97,1.39,136.31,4.19,154.03,2,12.48,5.69,20.53,11.08,24.16,5.38,3.62,31.62,7.25,78.73,10.88v49c-72.41-2.67-128.41-4-168-4-21.2,0-78.2,1.33-171,4ZM685.12,250.54c25.78,0,47.84,9.17,66.19,27.52s27.52,40.59,27.52,66.78-9.17,47.86-27.52,66.2-40.59,27.5-66.78,27.5-47.86-9.16-66.2-27.5-27.5-40.41-27.5-66.2,9.16-48.44,27.5-66.78,40.61-27.52,66.8-27.52Z"/>
</svg>