<?xml version="1.0" encoding="UTF-8"?>
<svg id="Capa_1" data-name="Capa 1" xmlns="http://www.w3.org/2000/svg" viewBox="0 0 5064 3924">
  <defs>
    <style>
      .cls-1 {
        fill: #ff7300;
      }

      .cls-2 {
        fill: #f24c4c;
      }

      .cls-3 {
        fill: #ffcfae;
      }

      .cls-4 {
        fill: #fff;
      }

      .cls-5 {
        fill: #ffb0b0;
      }

      .cls-6 {
        fill: #c5ffb0;
      }

      .cls-7 {
        fill: #0093f7;
      }

      .cls-8 {
        fill: #6d6d6d;
      }

      .cls-9 {
        fill: #07d86a;
      }

      .cls-10 {
        fill: #545454;
      }

      .cls-11 {
        fill: #b0e9ff;
      }
    </style>
  </defs>
  <rect class="cls-4" y="0" width="5064" height="3924" rx="108.79" ry="108.79"/>
  <rect class="cls-1" x="100.88" y="383.13" width="1533.25" height="808"/>
  <rect class="cls-3" x="1633.94" y="383" width="3322.9" height="808"/>
  <rect class="cls-6" x="1633.94" y="1259.71" width="3322.9" height="808"/>
  <rect class="cls-11" x="1636.94" y="2136" width="3322.9" height="808"/>
  <rect class="cls-5" x="1636.94" y="3012" width="3322.9" height="808"/>
  <rect class="cls-9" x="100.88" y="1259.71" width="1533.25" height="808"/>
  <rect class="cls-7" x="104.1" y="2136" width="1533.25" height="808"/>
  <rect class="cls-2" x="104.1" y="3012" width="1533.25" height="808"/>
  <g>
    <path class="cls-4" d="M244.57,728.39l49.11-134.81h29.47l49.11,134.81h-27.54l-36.4-105.15-36.59,105.15h-27.16ZM266.15,697.77l6.93-20.22h68.56l6.74,20.22h-82.24Z"/>
    <path class="cls-4" d="M389.98,728.39v-134.81h50.27c11.04,0,20.16,1.86,27.35,5.58,7.19,3.73,12.55,8.73,16.08,15.02,3.53,6.29,5.3,13.48,5.3,21.57,0,7.32-1.73,14.16-5.2,20.51-3.47,6.36-8.73,11.53-15.79,15.5-7.06,3.98-16.31,5.97-27.73,5.97h-24.27v50.65h-26ZM415.98,656.75h22.73c8.47,0,14.54-1.93,18.2-5.78,3.66-3.85,5.49-8.99,5.49-15.41s-1.83-11.65-5.49-15.31-9.73-5.49-18.2-5.49h-22.73v41.98Z"/>
    <path class="cls-4" d="M508.23,728.39v-134.81h50.27c11.04,0,20.16,1.86,27.35,5.58,7.19,3.73,12.55,8.73,16.08,15.02,3.53,6.29,5.3,13.48,5.3,21.57,0,7.32-1.73,14.16-5.2,20.51-3.47,6.36-8.73,11.53-15.79,15.5-7.06,3.98-16.31,5.97-27.73,5.97h-24.27v50.65h-26ZM534.23,656.75h22.73c8.47,0,14.54-1.93,18.2-5.78,3.66-3.85,5.49-8.99,5.49-15.41s-1.83-11.65-5.49-15.31-9.73-5.49-18.2-5.49h-22.73v41.98Z"/>
    <path class="cls-4" d="M626.48,728.39v-134.81h26v114.59h59.13v20.22h-85.13Z"/>
    <path class="cls-4" d="M733.95,728.39v-134.81h26v134.81h-26Z"/>
    <path class="cls-4" d="M846.8,730.7c-13.36,0-24.91-2.92-34.67-8.76-9.76-5.84-17.24-13.99-22.44-24.46-5.2-10.46-7.8-22.56-7.8-36.3s2.6-25.87,7.8-36.4c5.2-10.53,12.68-18.74,22.44-24.65,9.76-5.9,21.31-8.86,34.67-8.86,16.3,0,29.69,4.04,40.16,12.13,10.46,8.09,16.91,19.52,19.36,34.28h-28.5c-1.67-7.19-5.14-12.81-10.4-16.85-5.27-4.04-12.2-6.07-20.8-6.07-8.09,0-14.96,1.9-20.61,5.68-5.65,3.79-9.98,9.12-13,15.98-3.02,6.87-4.53,15.12-4.53,24.75s1.51,17.72,4.53,24.65c3.02,6.93,7.35,12.26,13,15.98,5.65,3.73,12.52,5.58,20.61,5.58,8.6,0,15.53-1.89,20.8-5.68,5.26-3.79,8.73-9.08,10.4-15.89h28.5c-2.44,14-8.89,24.97-19.36,32.93-10.47,7.96-23.85,11.94-40.16,11.94Z"/>
    <path class="cls-4" d="M918.26,728.39l49.11-134.81h29.47l49.11,134.81h-27.54l-36.4-105.15-36.59,105.15h-27.16ZM939.83,697.77l6.93-20.22h68.56l6.74,20.22h-82.24Z"/>
    <path class="cls-4" d="M1080.81,728.39v-113.82h-39.29v-20.99h104.58v20.99h-39.29v113.82h-26Z"/>
    <path class="cls-4" d="M1164.39,728.39v-134.81h26v134.81h-26Z"/>
    <path class="cls-4" d="M1278.78,730.7c-12.97,0-24.43-2.95-34.38-8.86-9.95-5.9-17.78-14.09-23.5-24.56-5.71-10.46-8.57-22.56-8.57-36.3s2.86-25.84,8.57-36.3c5.71-10.46,13.54-18.65,23.5-24.56,9.95-5.9,21.41-8.86,34.38-8.86s24.87,2.96,34.96,8.86c10.08,5.91,17.91,14.09,23.5,24.56,5.58,10.47,8.38,22.57,8.38,36.3s-2.79,25.84-8.38,36.3c-5.59,10.47-13.42,18.65-23.5,24.56-10.08,5.91-21.73,8.86-34.96,8.86ZM1278.78,707.4c8.34,0,15.5-1.89,21.47-5.68,5.97-3.79,10.59-9.15,13.87-16.08,3.27-6.93,4.91-15.15,4.91-24.65s-1.64-17.88-4.91-24.75c-3.27-6.87-7.9-12.16-13.87-15.89-5.97-3.72-13.13-5.58-21.47-5.58s-14.93,1.86-20.9,5.58c-5.97,3.73-10.63,9.02-13.96,15.89-3.34,6.87-5.01,15.12-5.01,24.75s1.67,17.72,5.01,24.65c3.34,6.93,7.99,12.3,13.96,16.08,5.97,3.79,12.93,5.68,20.9,5.68Z"/>
    <path class="cls-4" d="M1367.76,728.39v-134.81h26l62.01,93.02v-93.02h26v134.81h-26l-62.01-92.83v92.83h-26Z"/>
    <path class="cls-4" d="M588.73,959.5v-134.81h26v114.59h59.13v20.22h-85.13Z"/>
    <path class="cls-4" d="M687.34,959.5l49.11-134.81h29.47l49.11,134.81h-27.54l-36.4-105.15-36.59,105.15h-27.16ZM708.91,928.88l6.93-20.22h68.56l6.74,20.22h-82.24Z"/>
    <path class="cls-4" d="M851.62,959.5v-47.38l-45.64-87.44h29.47l31.97,66.83h-5.2l31.58-66.83h29.08l-45.26,87.44v47.38h-26Z"/>
    <path class="cls-4" d="M939.06,959.5v-134.81h88.78v20.99h-62.78v35.24h57.01v20.22h-57.01v37.36h62.78v20.99h-88.78Z"/>
    <path class="cls-4" d="M1051.33,959.5v-134.81h50.46c10.79,0,19.74,1.86,26.87,5.58,7.13,3.73,12.42,8.7,15.89,14.93,3.47,6.23,5.2,13.13,5.2,20.7s-1.7,13.9-5.1,20.13c-3.4,6.23-8.67,11.24-15.79,15.02-7.13,3.79-16.27,5.68-27.44,5.68h-24.07v52.77h-26ZM1077.33,887.86h22.73c7.96,0,13.8-1.93,17.53-5.78,3.72-3.85,5.59-8.92,5.59-15.21s-1.83-11.27-5.49-14.93c-3.66-3.66-9.53-5.49-17.62-5.49h-22.73v41.41ZM1121.25,959.5l-27.73-59.32h28.12l29.27,59.32h-29.66Z"/>
  </g>
  <g>
    <path class="cls-4" d="M344.44,1604.97v-113.82h-39.29v-20.99h104.58v20.99h-39.29v113.82h-26Z"/>
    <path class="cls-4" d="M428.02,1604.97v-134.81h50.46c10.79,0,19.74,1.86,26.87,5.58,7.13,3.73,12.42,8.7,15.89,14.93,3.47,6.23,5.2,13.13,5.2,20.7s-1.7,13.9-5.1,20.13c-3.4,6.23-8.67,11.24-15.79,15.02-7.13,3.79-16.27,5.68-27.44,5.68h-24.07v52.77h-26ZM454.02,1533.33h22.73c7.96,0,13.8-1.93,17.53-5.78,3.72-3.85,5.59-8.92,5.59-15.21s-1.83-11.27-5.49-14.93c-3.66-3.66-9.53-5.49-17.62-5.49h-22.73v41.41ZM497.93,1604.97l-27.73-59.32h28.12l29.27,59.32h-29.66Z"/>
    <path class="cls-4" d="M540.68,1604.97l49.11-134.81h29.47l49.11,134.81h-27.54l-36.4-105.15-36.59,105.15h-27.16ZM562.25,1574.35l6.93-20.22h68.56l6.74,20.22h-82.24Z"/>
    <path class="cls-4" d="M686.09,1604.97v-134.81h26l62.01,93.02v-93.02h26v134.81h-26l-62.01-92.83v92.83h-26Z"/>
    <path class="cls-4" d="M872.9,1607.28c-9.76,0-18.46-1.67-26.1-5.01-7.64-3.34-13.64-8.22-18.01-14.64-4.37-6.42-6.68-14.19-6.93-23.3h27.54c.13,3.98,1.16,7.58,3.08,10.79,1.93,3.21,4.59,5.75,7.99,7.61,3.4,1.86,7.48,2.79,12.23,2.79,4.11,0,7.67-.67,10.69-2.02,3.02-1.35,5.39-3.24,7.13-5.68,1.73-2.44,2.6-5.33,2.6-8.67,0-3.85-.96-7.06-2.89-9.63-1.93-2.57-4.53-4.75-7.8-6.55-3.27-1.8-7.06-3.43-11.36-4.91-4.3-1.47-8.76-2.99-13.38-4.53-10.79-3.59-18.94-8.28-24.46-14.06-5.52-5.78-8.28-13.42-8.28-22.92,0-8.09,1.93-15.02,5.78-20.8,3.85-5.78,9.24-10.21,16.18-13.29,6.93-3.08,14.83-4.62,23.69-4.62s17.11,1.57,23.98,4.72c6.87,3.15,12.33,7.67,16.37,13.58,4.04,5.91,6.19,12.84,6.45,20.8h-27.93c-.13-2.95-1-5.74-2.6-8.38-1.61-2.63-3.82-4.75-6.64-6.36-2.83-1.6-6.16-2.41-10.02-2.41-3.34-.13-6.39.38-9.15,1.54-2.76,1.16-4.91,2.86-6.45,5.1-1.54,2.25-2.31,5.04-2.31,8.38s.77,5.91,2.31,8.09c1.54,2.18,3.72,4.08,6.55,5.68,2.82,1.61,6.16,3.08,10.02,4.43,3.85,1.35,8.02,2.73,12.52,4.14,6.8,2.31,13,5.04,18.58,8.19,5.59,3.15,10.04,7.22,13.39,12.23,3.34,5.01,5.01,11.62,5.01,19.84,0,7.06-1.83,13.61-5.49,19.64-3.66,6.04-9.02,10.91-16.08,14.64-7.06,3.72-15.79,5.58-26.19,5.58Z"/>
    <path class="cls-4" d="M942.81,1604.97v-134.81h50.27c11.04,0,20.16,1.86,27.35,5.58,7.19,3.73,12.55,8.73,16.08,15.02,3.53,6.29,5.3,13.48,5.3,21.57,0,7.32-1.73,14.16-5.2,20.51-3.47,6.36-8.73,11.53-15.79,15.5-7.06,3.98-16.31,5.97-27.73,5.97h-24.27v50.65h-26ZM968.81,1533.33h22.73c8.47,0,14.54-1.93,18.2-5.78,3.66-3.85,5.49-8.99,5.49-15.41s-1.83-11.65-5.49-15.31-9.73-5.49-18.2-5.49h-22.73v41.98Z"/>
    <path class="cls-4" d="M1123.07,1607.28c-12.97,0-24.43-2.95-34.38-8.86-9.95-5.9-17.78-14.09-23.5-24.56-5.71-10.46-8.57-22.56-8.57-36.3s2.86-25.84,8.57-36.3c5.71-10.46,13.54-18.65,23.5-24.56,9.95-5.9,21.41-8.86,34.38-8.86s24.87,2.96,34.96,8.86c10.08,5.91,17.91,14.09,23.5,24.56,5.58,10.47,8.38,22.57,8.38,36.3s-2.79,25.84-8.38,36.3c-5.59,10.47-13.42,18.65-23.5,24.56-10.08,5.91-21.73,8.86-34.96,8.86ZM1123.07,1583.98c8.34,0,15.5-1.89,21.47-5.68,5.97-3.79,10.59-9.15,13.87-16.08,3.27-6.93,4.91-15.15,4.91-24.65s-1.64-17.88-4.91-24.75c-3.27-6.87-7.9-12.16-13.87-15.89-5.97-3.72-13.13-5.58-21.47-5.58s-14.93,1.86-20.9,5.58c-5.97,3.73-10.63,9.02-13.96,15.89-3.34,6.87-5.01,15.12-5.01,24.75s1.67,17.72,5.01,24.65c3.34,6.93,7.99,12.3,13.96,16.08,5.97,3.79,12.93,5.68,20.9,5.68Z"/>
    <path class="cls-4" d="M1212.05,1604.97v-134.81h50.46c10.79,0,19.74,1.86,26.87,5.58,7.13,3.73,12.42,8.7,15.89,14.93,3.47,6.23,5.2,13.13,5.2,20.7s-1.7,13.9-5.1,20.13c-3.4,6.23-8.67,11.24-15.79,15.02-7.13,3.79-16.27,5.68-27.44,5.68h-24.07v52.77h-26ZM1238.05,1533.33h22.73c7.96,0,13.8-1.93,17.53-5.78,3.72-3.85,5.59-8.92,5.59-15.21s-1.83-11.27-5.49-14.93c-3.66-3.66-9.53-5.49-17.62-5.49h-22.73v41.41ZM1281.96,1604.97l-27.73-59.32h28.12l29.27,59.32h-29.66Z"/>
    <path class="cls-4" d="M1364.97,1604.97v-113.82h-39.29v-20.99h104.58v20.99h-39.29v113.82h-26Z"/>
    <path class="cls-4" d="M588.73,1836.08v-134.81h26v114.59h59.13v20.22h-85.13Z"/>
    <path class="cls-4" d="M687.34,1836.08l49.11-134.81h29.47l49.11,134.81h-27.54l-36.4-105.15-36.59,105.15h-27.16ZM708.91,1805.46l6.93-20.22h68.56l6.74,20.22h-82.24Z"/>
    <path class="cls-4" d="M851.62,1836.08v-47.38l-45.64-87.44h29.47l31.97,66.83h-5.2l31.58-66.83h29.08l-45.26,87.44v47.38h-26Z"/>
    <path class="cls-4" d="M939.06,1836.08v-134.81h88.78v20.99h-62.78v35.24h57.01v20.22h-57.01v37.36h62.78v20.99h-88.78Z"/>
    <path class="cls-4" d="M1051.33,1836.08v-134.81h50.46c10.79,0,19.74,1.86,26.87,5.58,7.13,3.73,12.42,8.7,15.89,14.93,3.47,6.23,5.2,13.13,5.2,20.7s-1.7,13.9-5.1,20.13c-3.4,6.23-8.67,11.24-15.79,15.02-7.13,3.79-16.27,5.68-27.44,5.68h-24.07v52.77h-26ZM1077.33,1764.44h22.73c7.96,0,13.8-1.93,17.53-5.78,3.72-3.85,5.59-8.92,5.59-15.21s-1.83-11.27-5.49-14.93c-3.66-3.66-9.53-5.49-17.62-5.49h-22.73v41.41ZM1121.25,1836.08l-27.73-59.32h28.12l29.27,59.32h-29.66Z"/>
  </g>
  <g>
    <path class="cls-4" d="M429.4,2481.26v-134.81h26v134.81h-26Z"/>
    <path class="cls-4" d="M481.79,2481.26v-134.81h26l62.01,93.02v-93.02h26v134.81h-26l-62.01-92.83v92.83h-26Z"/>
    <path class="cls-4" d="M653.58,2481.26v-113.82h-39.29v-20.99h104.58v20.99h-39.29v113.82h-26Z"/>
    <path class="cls-4" d="M737.16,2481.26v-134.81h88.78v20.99h-62.78v35.24h57.01v20.22h-57.01v37.36h62.78v20.99h-88.78Z"/>
    <path class="cls-4" d="M849.44,2481.26v-134.81h50.46c10.79,0,19.74,1.86,26.87,5.58,7.13,3.73,12.42,8.7,15.89,14.93,3.47,6.23,5.2,13.13,5.2,20.7s-1.7,13.9-5.1,20.13c-3.4,6.23-8.67,11.24-15.79,15.02-7.13,3.79-16.27,5.68-27.44,5.68h-24.07v52.77h-26ZM875.44,2409.62h22.73c7.96,0,13.8-1.93,17.53-5.78,3.72-3.85,5.59-8.92,5.59-15.21s-1.83-11.27-5.49-14.93c-3.66-3.66-9.53-5.49-17.62-5.49h-22.73v41.41ZM919.35,2481.26l-27.73-59.32h28.12l29.27,59.32h-29.66Z"/>
    <path class="cls-4" d="M970.96,2481.26v-134.81h26l62.01,93.02v-93.02h26v134.81h-26l-62.01-92.83v92.83h-26Z"/>
    <path class="cls-4" d="M1111.36,2481.26v-134.81h88.78v20.99h-62.78v35.24h57.01v20.22h-57.01v37.36h62.78v20.99h-88.78Z"/>
    <path class="cls-4" d="M1255.03,2481.26v-113.82h-39.29v-20.99h104.58v20.99h-39.29v113.82h-26Z"/>
    <path class="cls-4" d="M591.94,2712.37v-134.81h26v114.59h59.13v20.22h-85.13Z"/>
    <path class="cls-4" d="M690.55,2712.37l49.11-134.81h29.47l49.11,134.81h-27.54l-36.4-105.15-36.59,105.15h-27.16ZM712.12,2681.75l6.93-20.22h68.56l6.74,20.22h-82.24Z"/>
    <path class="cls-4" d="M854.83,2712.37v-47.38l-45.64-87.44h29.47l31.97,66.83h-5.2l31.58-66.83h29.08l-45.26,87.44v47.38h-26Z"/>
    <path class="cls-4" d="M942.27,2712.37v-134.81h88.78v20.99h-62.78v35.24h57.01v20.22h-57.01v37.36h62.78v20.99h-88.78Z"/>
    <path class="cls-4" d="M1054.55,2712.37v-134.81h50.46c10.79,0,19.74,1.86,26.87,5.58,7.13,3.73,12.42,8.7,15.89,14.93,3.47,6.23,5.2,13.13,5.2,20.7s-1.7,13.9-5.1,20.13c-3.4,6.23-8.67,11.24-15.79,15.02-7.13,3.79-16.27,5.68-27.44,5.68h-24.07v52.77h-26ZM1080.55,2640.72h22.73c7.96,0,13.8-1.93,17.53-5.78,3.72-3.85,5.59-8.92,5.59-15.21s-1.83-11.27-5.49-14.93c-3.66-3.66-9.53-5.49-17.62-5.49h-22.73v41.41ZM1124.46,2712.37l-27.73-59.32h28.12l29.27,59.32h-29.66Z"/>
  </g>
  <g>
    <path class="cls-4" d="M671,3357.26v-134.81h26v114.59h59.13v20.22h-85.13Z"/>
    <path class="cls-4" d="M778.47,3357.26v-134.81h26v134.81h-26Z"/>
    <path class="cls-4" d="M830.85,3357.26v-134.81h26l62.01,93.02v-93.02h26v134.81h-26l-62.01-92.83v92.83h-26Z"/>
    <path class="cls-4" d="M971.25,3357.26v-134.81h26v53.35l48.73-53.35h32.16l-49.69,53.35,51.04,81.47h-31.58l-37.94-61.24-12.71,13.48v47.76h-26Z"/>
    <path class="cls-4" d="M591.94,3588.37v-134.81h26v114.59h59.13v20.22h-85.13Z"/>
    <path class="cls-4" d="M690.55,3588.37l49.11-134.81h29.47l49.11,134.81h-27.54l-36.4-105.15-36.59,105.15h-27.16ZM712.12,3557.75l6.93-20.22h68.56l6.74,20.22h-82.24Z"/>
    <path class="cls-4" d="M854.83,3588.37v-47.38l-45.64-87.44h29.47l31.97,66.83h-5.2l31.58-66.83h29.08l-45.26,87.44v47.38h-26Z"/>
    <path class="cls-4" d="M942.27,3588.37v-134.81h88.78v20.99h-62.78v35.24h57.01v20.22h-57.01v37.36h62.78v20.99h-88.78Z"/>
    <path class="cls-4" d="M1054.55,3588.37v-134.81h50.46c10.79,0,19.74,1.86,26.87,5.58,7.13,3.73,12.42,8.7,15.89,14.93,3.47,6.23,5.2,13.13,5.2,20.7s-1.7,13.9-5.1,20.13c-3.4,6.23-8.67,11.24-15.79,15.02-7.13,3.79-16.27,5.68-27.44,5.68h-24.07v52.77h-26ZM1080.55,3516.72h22.73c7.96,0,13.8-1.93,17.53-5.78,3.72-3.85,5.59-8.92,5.59-15.21s-1.83-11.27-5.49-14.93c-3.66-3.66-9.53-5.49-17.62-5.49h-22.73v41.41ZM1124.46,3588.37l-27.73-59.32h28.12l29.27,59.32h-29.66Z"/>
  </g>
  <g>
    <path d="M1983.82,214.8v-95.91h-33.11v-17.69h88.12v17.69h-33.11v95.91h-21.91Z"/>
    <path d="M2101.48,216.75c-11.25,0-20.99-2.46-29.21-7.38-8.22-4.92-14.53-11.79-18.91-20.61-4.38-8.82-6.57-19.01-6.57-30.59s2.19-21.8,6.57-30.67c4.38-8.87,10.68-15.8,18.91-20.77,8.22-4.98,17.96-7.47,29.21-7.47,13.74,0,25.02,3.41,33.84,10.22,8.82,6.82,14.25,16.45,16.31,28.89h-24.02c-1.41-6.06-4.33-10.79-8.76-14.2-4.44-3.41-10.28-5.11-17.53-5.11-6.82,0-12.61,1.6-17.37,4.79-4.76,3.19-8.41,7.68-10.95,13.47-2.54,5.79-3.81,12.74-3.81,20.85s1.27,14.93,3.81,20.77c2.54,5.84,6.19,10.33,10.95,13.47,4.76,3.14,10.55,4.71,17.37,4.71,7.25,0,13.09-1.59,17.53-4.79,4.44-3.19,7.36-7.65,8.76-13.39h24.02c-2.06,11.79-7.49,21.04-16.31,27.75-8.82,6.71-20.1,10.06-33.84,10.06Z"/>
    <path d="M2170.29,214.8v-113.6h42.36c9.3,0,16.98,1.57,23.04,4.71,6.06,3.14,10.58,7.36,13.55,12.66,2.97,5.3,4.46,11.36,4.46,18.18,0,6.17-1.46,11.93-4.38,17.28-2.92,5.36-7.36,9.71-13.31,13.06-5.95,3.35-13.74,5.03-23.37,5.03h-20.45v42.68h-21.91ZM2192.2,154.43h19.15c7.14,0,12.25-1.62,15.34-4.87,3.08-3.25,4.62-7.57,4.62-12.98s-1.54-9.82-4.62-12.9c-3.08-3.08-8.2-4.63-15.34-4.63h-19.15v35.38Z"/>
    <path d="M2250.46,233.31l40.57-144.93h21.26l-40.57,144.93h-21.26Z"/>
    <path d="M2334.85,214.8v-113.6h21.91v113.6h-21.91Z"/>
    <path d="M2378.99,214.8v-113.6h42.36c9.3,0,16.98,1.57,23.04,4.71,6.06,3.14,10.58,7.36,13.55,12.66,2.97,5.3,4.46,11.36,4.46,18.18,0,6.17-1.46,11.93-4.38,17.28-2.92,5.36-7.36,9.71-13.31,13.06-5.95,3.35-13.74,5.03-23.37,5.03h-20.45v42.68h-21.91ZM2400.9,154.43h19.15c7.14,0,12.25-1.62,15.34-4.87,3.08-3.25,4.62-7.57,4.62-12.98s-1.54-9.82-4.62-12.9c-3.08-3.08-8.2-4.63-15.34-4.63h-19.15v35.38Z"/>
    <path d="M2516.78,214.8v-113.6h21.91v96.56h49.82v17.04h-71.73Z"/>
    <path d="M2599.87,214.8l41.38-113.6h24.83l41.38,113.6h-23.21l-30.67-88.61-30.83,88.61h-22.88ZM2618.05,189l5.84-17.04h57.78l5.68,17.04h-69.3Z"/>
    <path d="M2738.31,214.8v-39.92l-38.46-73.68h24.83l26.94,56.32h-4.38l26.62-56.32h24.51l-38.14,73.68v39.92h-21.91Z"/>
    <path d="M2811.99,214.8v-113.6h74.82v17.69h-52.91v29.7h48.04v17.04h-48.04v31.48h52.91v17.69h-74.82Z"/>
    <path d="M2906.6,214.8v-113.6h42.52c9.09,0,16.63,1.57,22.64,4.71,6,3.14,10.47,7.33,13.39,12.58,2.92,5.25,4.38,11.06,4.38,17.45s-1.43,11.71-4.3,16.96c-2.87,5.25-7.3,9.47-13.31,12.66-6,3.19-13.71,4.79-23.13,4.79h-20.29v44.47h-21.91ZM2928.51,154.43h19.15c6.71,0,11.63-1.62,14.77-4.87,3.14-3.25,4.71-7.52,4.71-12.82s-1.54-9.49-4.63-12.58c-3.08-3.08-8.03-4.62-14.85-4.62h-19.15v34.89ZM2965.51,214.8l-23.37-49.99h23.69l24.67,49.99h-24.99Z"/>
    <path d="M3048.12,216.75c-8.22,0-15.55-1.41-21.99-4.22-6.44-2.81-11.5-6.92-15.17-12.33-3.68-5.41-5.63-11.95-5.84-19.64h23.21c.11,3.35.97,6.39,2.6,9.09,1.62,2.71,3.87,4.84,6.74,6.41,2.87,1.57,6.3,2.35,10.31,2.35,3.46,0,6.46-.57,9.01-1.7,2.54-1.14,4.54-2.73,6-4.79,1.46-2.05,2.19-4.49,2.19-7.3,0-3.25-.81-5.95-2.43-8.11-1.62-2.16-3.81-4-6.57-5.52-2.76-1.51-5.95-2.89-9.58-4.14-3.63-1.24-7.38-2.52-11.28-3.81-9.09-3.03-15.96-6.98-20.61-11.85-4.65-4.87-6.98-11.3-6.98-19.31,0-6.82,1.62-12.66,4.87-17.53,3.25-4.87,7.79-8.6,13.63-11.2,5.84-2.6,12.5-3.9,19.96-3.9s14.42,1.33,20.21,3.98c5.79,2.65,10.39,6.47,13.79,11.44,3.41,4.98,5.22,10.82,5.44,17.53h-23.53c-.11-2.49-.84-4.84-2.19-7.06-1.35-2.22-3.22-4-5.6-5.36-2.38-1.35-5.19-2.03-8.44-2.03-2.81-.11-5.38.32-7.71,1.3-2.33.97-4.14,2.41-5.44,4.3-1.3,1.89-1.95,4.25-1.95,7.06s.65,4.98,1.95,6.82c1.3,1.84,3.14,3.44,5.52,4.79,2.38,1.35,5.19,2.6,8.44,3.73,3.25,1.14,6.76,2.3,10.55,3.49,5.73,1.95,10.96,4.25,15.66,6.9,4.71,2.65,8.46,6.09,11.28,10.31,2.81,4.22,4.22,9.79,4.22,16.72,0,5.95-1.54,11.47-4.62,16.55-3.08,5.09-7.6,9.2-13.55,12.33-5.95,3.14-13.31,4.71-22.07,4.71Z"/>
  </g>
  <g>
    <path class="cls-8" d="M1781.54,641v-105h35.25c7.4,0,13.5,1.2,18.3,3.6s8.37,5.6,10.73,9.6c2.35,4,3.52,8.45,3.52,13.35,0,5.4-1.18,9.9-3.52,13.5-2.35,3.6-5.4,6.35-9.15,8.25-3.75,1.9-7.68,3.1-11.78,3.6l1.95-1.5c4.5.1,8.62,1.3,12.38,3.6,3.75,2.3,6.77,5.38,9.08,9.23,2.3,3.85,3.45,8.23,3.45,13.12,0,5.2-1.27,9.98-3.82,14.32-2.55,4.35-6.33,7.83-11.33,10.43-5,2.6-11.25,3.9-18.75,3.9h-36.3ZM1792.04,582.5h24.45c7.1,0,12.55-1.7,16.35-5.1,3.8-3.4,5.7-8,5.7-13.8s-1.85-10.12-5.55-13.58c-3.7-3.45-9.35-5.17-16.95-5.17h-24v37.65ZM1792.04,632.15h25.05c7.6,0,13.47-1.8,17.62-5.4,4.15-3.6,6.23-8.55,6.23-14.85s-2.18-11.32-6.52-15.07c-4.35-3.75-10.28-5.62-17.78-5.62h-24.6v40.95Z"/>
    <path class="cls-8" d="M1923.14,642.8c-9.8,0-18.38-2.27-25.73-6.82-7.35-4.55-13.05-10.9-17.1-19.05-4.05-8.15-6.08-17.62-6.08-28.42s2.07-20.12,6.23-28.27c4.15-8.15,10-14.52,17.55-19.12,7.55-4.6,16.47-6.9,26.77-6.9,11.6,0,21.27,2.8,29.03,8.4,7.75,5.6,12.77,13.4,15.07,23.4h-12.3c-1.5-6.8-5-12.2-10.5-16.2-5.5-4-12.6-6-21.3-6-8,0-14.98,1.8-20.92,5.4-5.95,3.6-10.58,8.73-13.88,15.38-3.3,6.65-4.95,14.62-4.95,23.92s1.62,17.3,4.88,24c3.25,6.7,7.75,11.85,13.5,15.45,5.75,3.6,12.38,5.4,19.88,5.4,11.7,0,20.55-3.5,26.55-10.5,6-7,9.4-16.65,10.2-28.95h-31.65v-8.55h42.45v55.65h-9.6l-1.05-18.6c-2.5,4.3-5.45,7.98-8.85,11.02-3.4,3.05-7.38,5.38-11.93,6.98-4.55,1.6-9.97,2.4-16.27,2.4Z"/>
    <path class="cls-8" d="M1999.19,641v-105h32.85c8.2,0,14.95,1.35,20.25,4.05,5.3,2.7,9.2,6.3,11.7,10.8,2.5,4.5,3.75,9.7,3.75,15.6s-1.25,10.7-3.75,15.3c-2.5,4.6-6.38,8.25-11.62,10.95-5.25,2.7-12.03,4.05-20.33,4.05h-22.35v44.25h-10.5ZM2009.69,587.75h22.5c8.9,0,15.25-1.92,19.05-5.77,3.8-3.85,5.7-9.08,5.7-15.68s-1.9-12.2-5.7-15.9c-3.8-3.7-10.15-5.55-19.05-5.55h-22.5v42.9Z"/>
    <path class="cls-8" d="M2069.24,659.45l8.85-31.8h11.25l-12.6,31.8h-7.5Z"/>
    <path class="cls-8" d="M2162.09,641v-105h29.7c12.3,0,22.43,2.1,30.38,6.3,7.95,4.2,13.85,10.25,17.7,18.15,3.85,7.9,5.77,17.35,5.77,28.35s-1.93,20.1-5.77,27.9c-3.85,7.8-9.75,13.8-17.7,18-7.95,4.2-18.07,6.3-30.38,6.3h-29.7ZM2172.59,632.3h19.2c10.5,0,18.9-1.75,25.2-5.25,6.3-3.5,10.85-8.5,13.65-15,2.8-6.5,4.2-14.25,4.2-23.25s-1.4-16.95-4.2-23.55c-2.8-6.6-7.35-11.67-13.65-15.23-6.3-3.55-14.7-5.32-25.2-5.32h-19.2v87.6Z"/>
    <path class="cls-8" d="M2272.34,641v-105h10.5v105h-10.5ZM2280.44,591.95v-8.7h62.25v8.7h-62.25ZM2339.69,641v-105h10.5v105h-10.5Z"/>
    <path class="cls-8" d="M2426.24,642.8c-10.1,0-18.88-2.27-26.33-6.82-7.45-4.55-13.15-10.9-17.1-19.05-3.95-8.15-5.92-17.62-5.92-28.42s1.97-20.27,5.92-28.42c3.95-8.15,9.65-14.5,17.1-19.05,7.45-4.55,16.22-6.82,26.33-6.82,11.8,0,21.35,2.77,28.65,8.32,7.3,5.55,12,13.38,14.1,23.48h-11.55c-1.7-6.8-5.13-12.27-10.27-16.42-5.15-4.15-12.13-6.23-20.92-6.23-7.8,0-14.58,1.8-20.33,5.4-5.75,3.6-10.23,8.77-13.42,15.52-3.2,6.75-4.8,14.83-4.8,24.23s1.6,17.48,4.8,24.23c3.2,6.75,7.67,11.92,13.42,15.52,5.75,3.6,12.52,5.4,20.33,5.4,8.8,0,15.8-2.05,21-6.15,5.2-4.1,8.6-9.5,10.2-16.2h11.55c-2.1,9.9-6.8,17.62-14.1,23.18-7.3,5.55-16.85,8.32-28.65,8.32Z"/>
    <path class="cls-8" d="M2495.54,641v-105h32.85c8.2,0,14.95,1.35,20.25,4.05,5.3,2.7,9.2,6.3,11.7,10.8,2.5,4.5,3.75,9.7,3.75,15.6s-1.25,10.7-3.75,15.3c-2.5,4.6-6.38,8.25-11.62,10.95-5.25,2.7-12.03,4.05-20.32,4.05h-22.35v44.25h-10.5ZM2506.04,587.75h22.5c8.9,0,15.25-1.92,19.05-5.77,3.8-3.85,5.7-9.08,5.7-15.68s-1.9-12.2-5.7-15.9c-3.8-3.7-10.15-5.55-19.05-5.55h-22.5v42.9Z"/>
    <path class="cls-8" d="M2565.59,659.45l8.85-31.8h11.25l-12.6,31.8h-7.5Z"/>
    <path class="cls-8" d="M2658.44,641v-105h29.7c12.3,0,22.42,2.1,30.38,6.3,7.95,4.2,13.85,10.25,17.7,18.15,3.85,7.9,5.78,17.35,5.78,28.35s-1.93,20.1-5.78,27.9c-3.85,7.8-9.75,13.8-17.7,18-7.95,4.2-18.08,6.3-30.38,6.3h-29.7ZM2668.94,632.3h19.2c10.5,0,18.9-1.75,25.2-5.25,6.3-3.5,10.85-8.5,13.65-15,2.8-6.5,4.2-14.25,4.2-23.25s-1.4-16.95-4.2-23.55c-2.8-6.6-7.35-11.67-13.65-15.23-6.3-3.55-14.7-5.32-25.2-5.32h-19.2v87.6Z"/>
    <path class="cls-8" d="M2768.69,641v-105h10.65l57.9,87.45v-87.45h10.5v105h-10.5l-58.05-87.6v87.6h-10.5Z"/>
    <path class="cls-8" d="M2911.34,642.8c-7.7,0-14.38-1.4-20.03-4.2-5.65-2.8-9.97-6.72-12.97-11.77-3-5.05-4.5-10.82-4.5-17.33h10.95c0,4.4,1,8.45,3,12.15,2,3.7,4.95,6.68,8.85,8.93,3.9,2.25,8.8,3.38,14.7,3.38,5.2,0,9.57-.87,13.12-2.62,3.55-1.75,6.27-4.07,8.17-6.98,1.9-2.9,2.85-6.2,2.85-9.9,0-4.4-.93-7.95-2.77-10.65-1.85-2.7-4.38-4.88-7.58-6.52-3.2-1.65-6.85-3.12-10.95-4.42-4.1-1.3-8.35-2.65-12.75-4.05-8.2-2.8-14.17-6.27-17.92-10.42-3.75-4.15-5.68-9.42-5.78-15.83,0-5.5,1.28-10.37,3.83-14.62,2.55-4.25,6.27-7.6,11.17-10.05,4.9-2.45,10.7-3.67,17.4-3.67s12.17,1.23,17.02,3.67c4.85,2.45,8.62,5.85,11.33,10.2,2.7,4.35,4.05,9.33,4.05,14.92h-10.8c0-3.2-.83-6.32-2.47-9.38-1.65-3.05-4.1-5.55-7.35-7.5-3.25-1.95-7.38-2.92-12.38-2.92-4.1,0-7.72.73-10.88,2.17-3.15,1.45-5.62,3.55-7.42,6.3-1.8,2.75-2.7,5.98-2.7,9.68s.8,6.55,2.4,8.85c1.6,2.3,3.85,4.2,6.75,5.7,2.9,1.5,6.3,2.88,10.2,4.12,3.9,1.25,8.25,2.68,13.05,4.27,4.9,1.7,9.25,3.75,13.05,6.15,3.8,2.4,6.8,5.47,9,9.22,2.2,3.75,3.3,8.48,3.3,14.18,0,4.9-1.27,9.58-3.82,14.02-2.55,4.45-6.43,8.05-11.62,10.8-5.2,2.75-11.7,4.12-19.5,4.12Z"/>
    <path class="cls-8" d="M2960.98,659.45l8.85-31.8h11.25l-12.6,31.8h-7.5Z"/>
    <path class="cls-8" d="M3053.83,641v-105h62.7v8.7h-52.2v39.3h45v8.7h-45v48.3h-10.5Z"/>
    <path class="cls-8" d="M3165.58,641v-96.3h-31.5v-8.7h73.5v8.7h-31.5v96.3h-10.5Z"/>
    <path class="cls-8" d="M3231.43,641v-105h32.85c8.2,0,14.95,1.35,20.25,4.05,5.3,2.7,9.2,6.3,11.7,10.8,2.5,4.5,3.75,9.7,3.75,15.6s-1.25,10.7-3.75,15.3c-2.5,4.6-6.38,8.25-11.62,10.95-5.25,2.7-12.03,4.05-20.33,4.05h-22.35v44.25h-10.5ZM3241.93,587.75h22.5c8.9,0,15.25-1.92,19.05-5.77,3.8-3.85,5.7-9.08,5.7-15.68s-1.9-12.2-5.7-15.9c-3.8-3.7-10.15-5.55-19.05-5.55h-22.5v42.9Z"/>
    <path class="cls-8" d="M3301.48,659.45l8.85-31.8h11.25l-12.6,31.8h-7.5Z"/>
    <path class="cls-8" d="M3394.33,641v-105h10.5v105h-10.5ZM3402.43,591.95v-8.7h62.25v8.7h-62.25ZM3461.68,641v-105h10.5v105h-10.5Z"/>
    <path class="cls-8" d="M3527.53,641v-96.3h-31.5v-8.7h73.5v8.7h-31.5v96.3h-10.5Z"/>
    <path class="cls-8" d="M3617.82,641v-96.3h-31.5v-8.7h73.5v8.7h-31.5v96.3h-10.5Z"/>
    <path class="cls-8" d="M3683.67,641v-105h32.85c8.2,0,14.95,1.35,20.25,4.05,5.3,2.7,9.2,6.3,11.7,10.8,2.5,4.5,3.75,9.7,3.75,15.6s-1.25,10.7-3.75,15.3c-2.5,4.6-6.38,8.25-11.62,10.95-5.25,2.7-12.03,4.05-20.33,4.05h-22.35v44.25h-10.5ZM3694.17,587.75h22.5c8.9,0,15.25-1.92,19.05-5.77,3.8-3.85,5.7-9.08,5.7-15.68s-1.9-12.2-5.7-15.9c-3.8-3.7-10.15-5.55-19.05-5.55h-22.5v42.9Z"/>
    <path class="cls-8" d="M3753.72,659.45l8.85-31.8h11.25l-12.6,31.8h-7.5Z"/>
    <path class="cls-8" d="M3846.57,641v-105h10.5v105h-10.5ZM3854.67,591.95v-8.7h62.25v8.7h-62.25ZM3913.92,641v-105h10.5v105h-10.5Z"/>
    <path class="cls-8" d="M3979.77,641v-96.3h-31.5v-8.7h73.5v8.7h-31.5v96.3h-10.5Z"/>
    <path class="cls-8" d="M4070.07,641v-96.3h-31.5v-8.7h73.5v8.7h-31.5v96.3h-10.5Z"/>
    <path class="cls-8" d="M4135.91,641v-105h32.85c8.2,0,14.95,1.35,20.25,4.05,5.3,2.7,9.2,6.3,11.7,10.8,2.5,4.5,3.75,9.7,3.75,15.6s-1.25,10.7-3.75,15.3c-2.5,4.6-6.38,8.25-11.62,10.95-5.25,2.7-12.03,4.05-20.33,4.05h-22.35v44.25h-10.5ZM4146.41,587.75h22.5c8.9,0,15.25-1.92,19.05-5.77,3.8-3.85,5.7-9.08,5.7-15.68s-1.9-12.2-5.7-15.9c-3.8-3.7-10.15-5.55-19.05-5.55h-22.5v42.9Z"/>
    <path class="cls-8" d="M4262.21,642.8c-7.7,0-14.38-1.4-20.03-4.2-5.65-2.8-9.97-6.72-12.97-11.77-3-5.05-4.5-10.82-4.5-17.33h10.95c0,4.4,1,8.45,3,12.15,2,3.7,4.95,6.68,8.85,8.93,3.9,2.25,8.8,3.38,14.7,3.38,5.2,0,9.57-.87,13.12-2.62,3.55-1.75,6.27-4.07,8.17-6.98,1.9-2.9,2.85-6.2,2.85-9.9,0-4.4-.93-7.95-2.77-10.65-1.85-2.7-4.38-4.88-7.58-6.52-3.2-1.65-6.85-3.12-10.95-4.42-4.1-1.3-8.35-2.65-12.75-4.05-8.2-2.8-14.17-6.27-17.92-10.42-3.75-4.15-5.68-9.42-5.78-15.83,0-5.5,1.28-10.37,3.83-14.62,2.55-4.25,6.27-7.6,11.17-10.05,4.9-2.45,10.7-3.67,17.4-3.67s12.17,1.23,17.02,3.67c4.85,2.45,8.62,5.85,11.33,10.2,2.7,4.35,4.05,9.33,4.05,14.92h-10.8c0-3.2-.83-6.32-2.47-9.38-1.65-3.05-4.1-5.55-7.35-7.5-3.25-1.95-7.38-2.92-12.38-2.92-4.1,0-7.72.73-10.88,2.17-3.15,1.45-5.62,3.55-7.42,6.3-1.8,2.75-2.7,5.98-2.7,9.68s.8,6.55,2.4,8.85c1.6,2.3,3.85,4.2,6.75,5.7,2.9,1.5,6.3,2.88,10.2,4.12,3.9,1.25,8.25,2.68,13.05,4.27,4.9,1.7,9.25,3.75,13.05,6.15,3.8,2.4,6.8,5.47,9,9.22,2.2,3.75,3.3,8.48,3.3,14.18,0,4.9-1.27,9.58-3.82,14.02-2.55,4.45-6.43,8.05-11.62,10.8-5.2,2.75-11.7,4.12-19.5,4.12Z"/>
    <path class="cls-8" d="M4311.86,659.45l8.85-31.8h11.25l-12.6,31.8h-7.5Z"/>
    <path class="cls-8" d="M4404.71,641v-105h10.5v105h-10.5Z"/>
    <path class="cls-8" d="M4446.11,641v-105h12.15l38.4,75.75,38.7-75.75h12.15v105h-10.5v-85.8l-36.3,71.1h-7.8l-36.3-70.8v85.5h-10.5Z"/>
    <path class="cls-8" d="M4571.66,641l38.7-105h10.8l38.7,105h-11.1l-33-91.2-33.15,91.2h-10.95ZM4589.36,612.65l3.15-8.7h46.35l3.15,8.7h-52.65Z"/>
    <path class="cls-8" d="M4683.86,641v-105h32.85c8.2,0,14.95,1.35,20.25,4.05,5.3,2.7,9.2,6.3,11.7,10.8,2.5,4.5,3.75,9.7,3.75,15.6s-1.25,10.7-3.75,15.3c-2.5,4.6-6.38,8.25-11.62,10.95-5.25,2.7-12.03,4.05-20.33,4.05h-22.35v44.25h-10.5ZM4694.36,587.75h22.5c8.9,0,15.25-1.92,19.05-5.77,3.8-3.85,5.7-9.08,5.7-15.68s-1.9-12.2-5.7-15.9c-3.8-3.7-10.15-5.55-19.05-5.55h-22.5v42.9Z"/>
    <path class="cls-8" d="M4753.91,659.45l8.85-31.8h11.25l-12.6,31.8h-7.5Z"/>
    <path class="cls-8" d="M1936.19,841v-105h10.5v105h-10.5Z"/>
    <path class="cls-8" d="M1977.59,841v-105h32.4c8.1,0,14.72,1.35,19.88,4.05,5.15,2.7,8.92,6.33,11.32,10.88,2.4,4.55,3.6,9.73,3.6,15.53s-1.23,10.72-3.67,15.38c-2.45,4.65-6.3,8.35-11.55,11.1-5.25,2.75-11.98,4.12-20.17,4.12h-21.3v43.95h-10.5ZM1988.09,788.5h21.15c8.6,0,14.87-2.05,18.82-6.15,3.95-4.1,5.93-9.4,5.93-15.9s-1.93-11.97-5.77-15.83c-3.85-3.85-10.23-5.77-19.12-5.77h-21v43.65ZM2033.54,841l-23.55-47.25h11.85l24.15,47.25h-12.45Z"/>
    <path class="cls-8" d="M2118.29,842.8c-10.1,0-18.88-2.27-26.33-6.82-7.45-4.55-13.15-10.9-17.1-19.05-3.95-8.15-5.92-17.62-5.92-28.42s1.97-20.27,5.92-28.42c3.95-8.15,9.65-14.5,17.1-19.05,7.45-4.55,16.22-6.82,26.33-6.82,11.8,0,21.35,2.77,28.65,8.32,7.3,5.55,12,13.38,14.1,23.48h-11.55c-1.7-6.8-5.13-12.27-10.27-16.42-5.15-4.15-12.13-6.23-20.92-6.23-7.8,0-14.58,1.8-20.33,5.4-5.75,3.6-10.23,8.77-13.42,15.52-3.2,6.75-4.8,14.83-4.8,24.23s1.6,17.48,4.8,24.23c3.2,6.75,7.67,11.92,13.42,15.52,5.75,3.6,12.52,5.4,20.33,5.4,8.8,0,15.8-2.05,21-6.15,5.2-4.1,8.6-9.5,10.2-16.2h11.55c-2.1,9.9-6.8,17.62-14.1,23.18-7.3,5.55-16.85,8.32-28.65,8.32Z"/>
    <path class="cls-8" d="M2176.04,859.45l8.85-31.8h11.25l-12.6,31.8h-7.5Z"/>
    <path class="cls-8" d="M2268.88,841v-105h10.5v96.45h49.65v8.55h-60.15Z"/>
    <path class="cls-8" d="M2354.38,841v-105h29.7c12.3,0,22.43,2.1,30.38,6.3,7.95,4.2,13.85,10.25,17.7,18.15,3.85,7.9,5.77,17.35,5.77,28.35s-1.93,20.1-5.77,27.9c-3.85,7.8-9.75,13.8-17.7,18-7.95,4.2-18.07,6.3-30.38,6.3h-29.7ZM2364.88,832.3h19.2c10.5,0,18.9-1.75,25.2-5.25,6.3-3.5,10.85-8.5,13.65-15,2.8-6.5,4.2-14.25,4.2-23.25s-1.4-16.95-4.2-23.55c-2.8-6.6-7.35-11.67-13.65-15.23-6.3-3.55-14.7-5.32-25.2-5.32h-19.2v87.6Z"/>
    <path class="cls-8" d="M2450.08,841l38.7-105h10.8l38.7,105h-11.1l-33-91.2-33.15,91.2h-10.95ZM2467.78,812.65l3.15-8.7h46.35l3.15,8.7h-52.65Z"/>
    <path class="cls-8" d="M2562.29,841v-105h32.85c8.2,0,14.95,1.35,20.25,4.05,5.3,2.7,9.2,6.3,11.7,10.8,2.5,4.5,3.75,9.7,3.75,15.6s-1.25,10.7-3.75,15.3c-2.5,4.6-6.38,8.25-11.62,10.95-5.25,2.7-12.03,4.05-20.33,4.05h-22.35v44.25h-10.5ZM2572.79,787.75h22.5c8.9,0,15.25-1.92,19.05-5.77,3.8-3.85,5.7-9.08,5.7-15.68s-1.9-12.2-5.7-15.9c-3.8-3.7-10.15-5.55-19.05-5.55h-22.5v42.9Z"/>
    <path class="cls-8" d="M2632.34,859.45l8.85-31.8h11.25l-12.6,31.8h-7.5Z"/>
    <path class="cls-8" d="M2725.18,841v-105h10.65l57.9,87.45v-87.45h10.5v105h-10.5l-58.05-87.6v87.6h-10.5Z"/>
    <path class="cls-8" d="M2859.58,841v-96.3h-31.5v-8.7h73.5v8.7h-31.5v96.3h-10.5Z"/>
    <path class="cls-8" d="M2949.88,841v-96.3h-31.5v-8.7h73.5v8.7h-31.5v96.3h-10.5Z"/>
    <path class="cls-8" d="M3015.73,841v-105h32.85c8.2,0,14.95,1.35,20.25,4.05,5.3,2.7,9.2,6.3,11.7,10.8,2.5,4.5,3.75,9.7,3.75,15.6s-1.25,10.7-3.75,15.3c-2.5,4.6-6.38,8.25-11.62,10.95-5.25,2.7-12.03,4.05-20.33,4.05h-22.35v44.25h-10.5ZM3026.23,787.75h22.5c8.9,0,15.25-1.92,19.05-5.77,3.8-3.85,5.7-9.08,5.7-15.68s-1.9-12.2-5.7-15.9c-3.8-3.7-10.15-5.55-19.05-5.55h-22.5v42.9Z"/>
    <path class="cls-8" d="M3085.78,859.45l8.85-31.8h11.25l-12.6,31.8h-7.5Z"/>
    <path class="cls-8" d="M3178.63,841v-105h10.65l57.9,87.45v-87.45h10.5v105h-10.5l-58.05-87.6v87.6h-10.5Z"/>
    <path class="cls-8" d="M3313.03,841v-96.3h-31.5v-8.7h73.5v8.7h-31.5v96.3h-10.5Z"/>
    <path class="cls-8" d="M3378.88,841v-105h32.85c8.2,0,14.95,1.35,20.25,4.05,5.3,2.7,9.2,6.3,11.7,10.8,2.5,4.5,3.75,9.7,3.75,15.6s-1.25,10.7-3.75,15.3c-2.5,4.6-6.38,8.25-11.62,10.95-5.25,2.7-12.03,4.05-20.33,4.05h-22.35v44.25h-10.5ZM3389.38,787.75h22.5c8.9,0,15.25-1.92,19.05-5.77,3.8-3.85,5.7-9.08,5.7-15.68s-1.9-12.2-5.7-15.9c-3.8-3.7-10.15-5.55-19.05-5.55h-22.5v42.9Z"/>
    <path class="cls-8" d="M3448.93,859.45l8.85-31.8h11.25l-12.6,31.8h-7.5Z"/>
    <path class="cls-8" d="M3588.12,842.8c-10.1,0-18.93-2.27-26.47-6.82-7.55-4.55-13.45-10.9-17.7-19.05-4.25-8.15-6.38-17.62-6.38-28.42s2.12-20.12,6.38-28.27c4.25-8.15,10.15-14.52,17.7-19.12,7.55-4.6,16.37-6.9,26.47-6.9s19.07,2.3,26.62,6.9c7.55,4.6,13.45,10.98,17.7,19.12,4.25,8.15,6.38,17.58,6.38,28.27s-2.13,20.28-6.38,28.42c-4.25,8.15-10.15,14.5-17.7,19.05-7.55,4.55-16.42,6.82-26.62,6.82ZM3588.12,833.65c7.9,0,14.85-1.8,20.85-5.4s10.67-8.77,14.02-15.52c3.35-6.75,5.03-14.82,5.03-24.23s-1.68-17.45-5.03-24.15c-3.35-6.7-8.02-11.85-14.02-15.45s-12.95-5.4-20.85-5.4-14.7,1.8-20.7,5.4-10.68,8.75-14.02,15.45c-3.35,6.7-5.03,14.75-5.03,24.15s1.67,17.48,5.03,24.23c3.35,6.75,8.02,11.92,14.02,15.52s12.9,5.4,20.7,5.4Z"/>
    <path class="cls-8" d="M3697.92,842.8c-7.7,0-14.38-1.4-20.03-4.2-5.65-2.8-9.97-6.72-12.97-11.77-3-5.05-4.5-10.82-4.5-17.33h10.95c0,4.4,1,8.45,3,12.15,2,3.7,4.95,6.68,8.85,8.93,3.9,2.25,8.8,3.38,14.7,3.38,5.2,0,9.57-.87,13.12-2.62,3.55-1.75,6.27-4.07,8.17-6.98,1.9-2.9,2.85-6.2,2.85-9.9,0-4.4-.93-7.95-2.77-10.65-1.85-2.7-4.38-4.88-7.58-6.52-3.2-1.65-6.85-3.12-10.95-4.42-4.1-1.3-8.35-2.65-12.75-4.05-8.2-2.8-14.17-6.27-17.92-10.42-3.75-4.15-5.68-9.42-5.78-15.83,0-5.5,1.28-10.37,3.83-14.62,2.55-4.25,6.27-7.6,11.17-10.05,4.9-2.45,10.7-3.67,17.4-3.67s12.17,1.23,17.02,3.67c4.85,2.45,8.62,5.85,11.33,10.2,2.7,4.35,4.05,9.33,4.05,14.92h-10.8c0-3.2-.83-6.32-2.47-9.38-1.65-3.05-4.1-5.55-7.35-7.5-3.25-1.95-7.38-2.92-12.38-2.92-4.1,0-7.72.73-10.88,2.17-3.15,1.45-5.62,3.55-7.42,6.3-1.8,2.75-2.7,5.98-2.7,9.68s.8,6.55,2.4,8.85c1.6,2.3,3.85,4.2,6.75,5.7,2.9,1.5,6.3,2.88,10.2,4.12,3.9,1.25,8.25,2.68,13.05,4.27,4.9,1.7,9.25,3.75,13.05,6.15,3.8,2.4,6.8,5.47,9,9.22,2.2,3.75,3.3,8.48,3.3,14.18,0,4.9-1.27,9.58-3.82,14.02-2.55,4.45-6.43,8.05-11.62,10.8-5.2,2.75-11.7,4.12-19.5,4.12Z"/>
    <path class="cls-8" d="M3759.12,841v-105h32.85c8.2,0,14.95,1.35,20.25,4.05,5.3,2.7,9.2,6.3,11.7,10.8,2.5,4.5,3.75,9.7,3.75,15.6s-1.25,10.7-3.75,15.3c-2.5,4.6-6.38,8.25-11.62,10.95-5.25,2.7-12.03,4.05-20.33,4.05h-22.35v44.25h-10.5ZM3769.62,787.75h22.5c8.9,0,15.25-1.92,19.05-5.77,3.8-3.85,5.7-9.08,5.7-15.68s-1.9-12.2-5.7-15.9c-3.8-3.7-10.15-5.55-19.05-5.55h-22.5v42.9Z"/>
    <path class="cls-8" d="M3852.72,841v-105h62.7v8.7h-52.2v39.3h45v8.7h-45v48.3h-10.5Z"/>
    <path class="cls-8" d="M3919.47,859.45l8.85-31.8h11.25l-12.6,31.8h-7.5Z"/>
    <path class="cls-8" d="M4012.32,841v-105h32.85c8.2,0,14.95,1.35,20.25,4.05,5.3,2.7,9.2,6.3,11.7,10.8,2.5,4.5,3.75,9.7,3.75,15.6s-1.25,10.7-3.75,15.3c-2.5,4.6-6.38,8.25-11.62,10.95-5.25,2.7-12.03,4.05-20.33,4.05h-22.35v44.25h-10.5ZM4022.82,787.75h22.5c8.9,0,15.25-1.92,19.05-5.77,3.8-3.85,5.7-9.08,5.7-15.68s-1.9-12.2-5.7-15.9c-3.8-3.7-10.15-5.55-19.05-5.55h-22.5v42.9Z"/>
    <path class="cls-8" d="M4152.27,842.8c-10.1,0-18.93-2.27-26.47-6.82-7.55-4.55-13.45-10.9-17.7-19.05-4.25-8.15-6.38-17.62-6.38-28.42s2.12-20.12,6.38-28.27c4.25-8.15,10.15-14.52,17.7-19.12,7.55-4.6,16.37-6.9,26.47-6.9s19.07,2.3,26.62,6.9c7.55,4.6,13.45,10.98,17.7,19.12,4.25,8.15,6.38,17.58,6.38,28.27s-2.13,20.28-6.38,28.42c-4.25,8.15-10.15,14.5-17.7,19.05-7.55,4.55-16.42,6.82-26.62,6.82ZM4152.27,833.65c7.9,0,14.85-1.8,20.85-5.4s10.67-8.77,14.02-15.52c3.35-6.75,5.03-14.82,5.03-24.23s-1.68-17.45-5.03-24.15c-3.35-6.7-8.02-11.85-14.02-15.45s-12.95-5.4-20.85-5.4-14.7,1.8-20.7,5.4-10.68,8.75-14.02,15.45c-3.35,6.7-5.03,14.75-5.03,24.15s1.67,17.48,5.03,24.23c3.35,6.75,8.02,11.92,14.02,15.52s12.9,5.4,20.7,5.4Z"/>
    <path class="cls-8" d="M4229.37,841v-105h32.85c8.2,0,14.95,1.35,20.25,4.05,5.3,2.7,9.2,6.3,11.7,10.8,2.5,4.5,3.75,9.7,3.75,15.6s-1.25,10.7-3.75,15.3c-2.5,4.6-6.38,8.25-11.62,10.95-5.25,2.7-12.03,4.05-20.33,4.05h-22.35v44.25h-10.5ZM4239.87,787.75h22.5c8.9,0,15.25-1.92,19.05-5.77,3.8-3.85,5.7-9.08,5.7-15.68s-1.9-12.2-5.7-15.9c-3.8-3.7-10.15-5.55-19.05-5.55h-22.5v42.9Z"/>
    <path class="cls-8" d="M4299.42,859.45l8.85-31.8h11.25l-12.6,31.8h-7.5Z"/>
    <path class="cls-8" d="M4392.26,841v-105h32.4c8.1,0,14.72,1.35,19.88,4.05,5.15,2.7,8.93,6.33,11.33,10.88,2.4,4.55,3.6,9.73,3.6,15.53s-1.23,10.72-3.68,15.38c-2.45,4.65-6.3,8.35-11.55,11.1-5.25,2.75-11.98,4.12-20.17,4.12h-21.3v43.95h-10.5ZM4402.76,788.5h21.15c8.6,0,14.87-2.05,18.83-6.15,3.95-4.1,5.92-9.4,5.92-15.9s-1.93-11.97-5.77-15.83c-3.85-3.85-10.23-5.77-19.12-5.77h-21v43.65ZM4448.21,841l-23.55-47.25h11.85l24.15,47.25h-12.45Z"/>
    <path class="cls-8" d="M4487.81,841v-105h10.5v105h-10.5Z"/>
    <path class="cls-8" d="M4529.21,841v-105h32.85c8.2,0,14.95,1.35,20.25,4.05,5.3,2.7,9.2,6.3,11.7,10.8,2.5,4.5,3.75,9.7,3.75,15.6s-1.25,10.7-3.75,15.3c-2.5,4.6-6.38,8.25-11.62,10.95-5.25,2.7-12.03,4.05-20.33,4.05h-22.35v44.25h-10.5ZM4539.71,787.75h22.5c8.9,0,15.25-1.92,19.05-5.77,3.8-3.85,5.7-9.08,5.7-15.68s-1.9-12.2-5.7-15.9c-3.8-3.7-10.15-5.55-19.05-5.55h-22.5v42.9Z"/>
    <path class="cls-8" d="M4599.26,859.45l8.85-31.8h11.25l-12.6,31.8h-7.5Z"/>
    <path class="cls-8" d="M1774.65,1042.8c-7.7,0-14.38-1.4-20.02-4.2-5.65-2.8-9.98-6.72-12.98-11.77-3-5.05-4.5-10.82-4.5-17.33h10.95c0,4.4,1,8.45,3,12.15,2,3.7,4.95,6.68,8.85,8.93,3.9,2.25,8.8,3.38,14.7,3.38,5.2,0,9.57-.87,13.12-2.62,3.55-1.75,6.27-4.07,8.18-6.98,1.9-2.9,2.85-6.2,2.85-9.9,0-4.4-.93-7.95-2.77-10.65-1.85-2.7-4.38-4.88-7.57-6.52-3.2-1.65-6.85-3.12-10.95-4.42-4.1-1.3-8.35-2.65-12.75-4.05-8.2-2.8-14.17-6.27-17.92-10.42-3.75-4.15-5.68-9.42-5.78-15.83,0-5.5,1.28-10.37,3.83-14.62,2.55-4.25,6.27-7.6,11.17-10.05,4.9-2.45,10.7-3.67,17.4-3.67s12.17,1.23,17.02,3.67c4.85,2.45,8.62,5.85,11.32,10.2,2.7,4.35,4.05,9.33,4.05,14.92h-10.8c0-3.2-.82-6.32-2.47-9.38-1.65-3.05-4.1-5.55-7.35-7.5-3.25-1.95-7.38-2.92-12.38-2.92-4.1,0-7.73.73-10.88,2.17-3.15,1.45-5.62,3.55-7.43,6.3-1.8,2.75-2.7,5.98-2.7,9.68s.8,6.55,2.4,8.85c1.6,2.3,3.85,4.2,6.75,5.7,2.9,1.5,6.3,2.88,10.2,4.12,3.9,1.25,8.25,2.68,13.05,4.27,4.9,1.7,9.25,3.75,13.05,6.15,3.8,2.4,6.8,5.47,9,9.22,2.2,3.75,3.3,8.48,3.3,14.18,0,4.9-1.27,9.58-3.83,14.02-2.55,4.45-6.43,8.05-11.62,10.8-5.2,2.75-11.7,4.12-19.5,4.12Z"/>
    <path class="cls-8" d="M1835.85,1041v-105h12.15l38.4,75.75,38.7-75.75h12.15v105h-10.5v-85.8l-36.3,71.1h-7.8l-36.3-70.8v85.5h-10.5Z"/>
    <path class="cls-8" d="M1992.6,1041v-96.3h-31.5v-8.7h73.5v8.7h-31.5v96.3h-10.5Z"/>
    <path class="cls-8" d="M2058.44,1041v-105h32.85c8.2,0,14.95,1.35,20.25,4.05,5.3,2.7,9.2,6.3,11.7,10.8,2.5,4.5,3.75,9.7,3.75,15.6s-1.25,10.7-3.75,15.3c-2.5,4.6-6.38,8.25-11.62,10.95-5.25,2.7-12.03,4.05-20.33,4.05h-22.35v44.25h-10.5ZM2068.94,987.75h22.5c8.9,0,15.25-1.92,19.05-5.77,3.8-3.85,5.7-9.08,5.7-15.68s-1.9-12.2-5.7-15.9c-3.8-3.7-10.15-5.55-19.05-5.55h-22.5v42.9Z"/>
    <path class="cls-8" d="M2128.49,1059.45l8.85-31.8h11.25l-12.6,31.8h-7.5Z"/>
    <path class="cls-8" d="M2254.04,1042.8c-7.7,0-14.38-1.4-20.02-4.2-5.65-2.8-9.98-6.72-12.98-11.77-3-5.05-4.5-10.82-4.5-17.33h10.95c0,4.4,1,8.45,3,12.15,2,3.7,4.95,6.68,8.85,8.93,3.9,2.25,8.8,3.38,14.7,3.38,5.2,0,9.57-.87,13.12-2.62,3.55-1.75,6.27-4.07,8.18-6.98,1.9-2.9,2.85-6.2,2.85-9.9,0-4.4-.93-7.95-2.77-10.65-1.85-2.7-4.38-4.88-7.57-6.52-3.2-1.65-6.85-3.12-10.95-4.42-4.1-1.3-8.35-2.65-12.75-4.05-8.2-2.8-14.17-6.27-17.92-10.42-3.75-4.15-5.68-9.42-5.78-15.83,0-5.5,1.28-10.37,3.83-14.62,2.55-4.25,6.27-7.6,11.17-10.05,4.9-2.45,10.7-3.67,17.4-3.67s12.17,1.23,17.02,3.67c4.85,2.45,8.62,5.85,11.32,10.2,2.7,4.35,4.05,9.33,4.05,14.92h-10.8c0-3.2-.82-6.32-2.47-9.38-1.65-3.05-4.1-5.55-7.35-7.5-3.25-1.95-7.38-2.92-12.38-2.92-4.1,0-7.73.73-10.88,2.17-3.15,1.45-5.62,3.55-7.43,6.3-1.8,2.75-2.7,5.98-2.7,9.68s.8,6.55,2.4,8.85c1.6,2.3,3.85,4.2,6.75,5.7,2.9,1.5,6.3,2.88,10.2,4.12,3.9,1.25,8.25,2.68,13.05,4.27,4.9,1.7,9.25,3.75,13.05,6.15,3.8,2.4,6.8,5.47,9,9.22,2.2,3.75,3.3,8.48,3.3,14.18,0,4.9-1.27,9.58-3.83,14.02-2.55,4.45-6.43,8.05-11.62,10.8-5.2,2.75-11.7,4.12-19.5,4.12Z"/>
    <path class="cls-8" d="M2315.24,1041v-105h10.65l57.9,87.45v-87.45h10.5v105h-10.5l-58.05-87.6v87.6h-10.5Z"/>
    <path class="cls-8" d="M2425.19,1041v-105h12.15l38.4,75.75,38.7-75.75h12.15v105h-10.5v-85.8l-36.3,71.1h-7.8l-36.3-70.8v85.5h-10.5Z"/>
    <path class="cls-8" d="M2557.49,1041v-105h32.85c8.2,0,14.95,1.35,20.25,4.05,5.3,2.7,9.2,6.3,11.7,10.8,2.5,4.5,3.75,9.7,3.75,15.6s-1.25,10.7-3.75,15.3c-2.5,4.6-6.38,8.25-11.62,10.95-5.25,2.7-12.03,4.05-20.33,4.05h-22.35v44.25h-10.5ZM2567.99,987.75h22.5c8.9,0,15.25-1.92,19.05-5.77,3.8-3.85,5.7-9.08,5.7-15.68s-1.9-12.2-5.7-15.9c-3.8-3.7-10.15-5.55-19.05-5.55h-22.5v42.9Z"/>
    <path class="cls-8" d="M2627.54,1059.45l8.85-31.8h11.25l-12.6,31.8h-7.5Z"/>
    <path class="cls-8" d="M2753.09,1042.8c-7.7,0-14.38-1.4-20.03-4.2-5.65-2.8-9.97-6.72-12.97-11.77-3-5.05-4.5-10.82-4.5-17.33h10.95c0,4.4,1,8.45,3,12.15,2,3.7,4.95,6.68,8.85,8.93,3.9,2.25,8.8,3.38,14.7,3.38,5.2,0,9.57-.87,13.12-2.62,3.55-1.75,6.27-4.07,8.17-6.98,1.9-2.9,2.85-6.2,2.85-9.9,0-4.4-.93-7.95-2.77-10.65-1.85-2.7-4.38-4.88-7.58-6.52-3.2-1.65-6.85-3.12-10.95-4.42-4.1-1.3-8.35-2.65-12.75-4.05-8.2-2.8-14.17-6.27-17.92-10.42-3.75-4.15-5.68-9.42-5.78-15.83,0-5.5,1.28-10.37,3.83-14.62,2.55-4.25,6.27-7.6,11.17-10.05,4.9-2.45,10.7-3.67,17.4-3.67s12.17,1.23,17.02,3.67c4.85,2.45,8.62,5.85,11.33,10.2,2.7,4.35,4.05,9.33,4.05,14.92h-10.8c0-3.2-.83-6.32-2.47-9.38-1.65-3.05-4.1-5.55-7.35-7.5-3.25-1.95-7.38-2.92-12.38-2.92-4.1,0-7.72.73-10.88,2.17-3.15,1.45-5.62,3.55-7.42,6.3-1.8,2.75-2.7,5.98-2.7,9.68s.8,6.55,2.4,8.85c1.6,2.3,3.85,4.2,6.75,5.7,2.9,1.5,6.3,2.88,10.2,4.12,3.9,1.25,8.25,2.68,13.05,4.27,4.9,1.7,9.25,3.75,13.05,6.15,3.8,2.4,6.8,5.47,9,9.22,2.2,3.75,3.3,8.48,3.3,14.18,0,4.9-1.27,9.58-3.82,14.02-2.55,4.45-6.43,8.05-11.62,10.8-5.2,2.75-11.7,4.12-19.5,4.12Z"/>
    <path class="cls-8" d="M2846.99,1042.8c-7.7,0-14.38-1.4-20.03-4.2-5.65-2.8-9.97-6.72-12.97-11.77-3-5.05-4.5-10.82-4.5-17.33h10.95c0,4.4,1,8.45,3,12.15,2,3.7,4.95,6.68,8.85,8.93,3.9,2.25,8.8,3.38,14.7,3.38,5.2,0,9.57-.87,13.12-2.62,3.55-1.75,6.27-4.07,8.17-6.98,1.9-2.9,2.85-6.2,2.85-9.9,0-4.4-.93-7.95-2.77-10.65-1.85-2.7-4.38-4.88-7.58-6.52-3.2-1.65-6.85-3.12-10.95-4.42-4.1-1.3-8.35-2.65-12.75-4.05-8.2-2.8-14.17-6.27-17.92-10.42-3.75-4.15-5.68-9.42-5.78-15.83,0-5.5,1.28-10.37,3.83-14.62,2.55-4.25,6.27-7.6,11.17-10.05,4.9-2.45,10.7-3.67,17.4-3.67s12.17,1.23,17.02,3.67c4.85,2.45,8.62,5.85,11.33,10.2,2.7,4.35,4.05,9.33,4.05,14.92h-10.8c0-3.2-.83-6.32-2.47-9.38-1.65-3.05-4.1-5.55-7.35-7.5-3.25-1.95-7.38-2.92-12.38-2.92-4.1,0-7.72.73-10.88,2.17-3.15,1.45-5.62,3.55-7.42,6.3-1.8,2.75-2.7,5.98-2.7,9.68s.8,6.55,2.4,8.85c1.6,2.3,3.85,4.2,6.75,5.7,2.9,1.5,6.3,2.88,10.2,4.12,3.9,1.25,8.25,2.68,13.05,4.27,4.9,1.7,9.25,3.75,13.05,6.15,3.8,2.4,6.8,5.47,9,9.22,2.2,3.75,3.3,8.48,3.3,14.18,0,4.9-1.27,9.58-3.82,14.02-2.55,4.45-6.43,8.05-11.62,10.8-5.2,2.75-11.7,4.12-19.5,4.12Z"/>
    <path class="cls-8" d="M2908.18,1041v-105h10.5v105h-10.5ZM2916.28,991.95v-8.7h62.25v8.7h-62.25ZM2975.53,1041v-105h10.5v105h-10.5Z"/>
    <path class="cls-8" d="M3005.38,1059.45l8.85-31.8h11.25l-12.6,31.8h-7.5Z"/>
    <path class="cls-8" d="M3122.68,1041v-96.3h-31.5v-8.7h73.5v8.7h-31.5v96.3h-10.5Z"/>
    <path class="cls-8" d="M3206.38,1042.8c-7.1,0-13.3-1.65-18.6-4.95-5.3-3.3-9.48-7.92-12.53-13.88-3.05-5.95-4.58-12.92-4.58-20.93s1.5-14.95,4.5-20.85c3-5.9,7.22-10.47,12.68-13.73,5.45-3.25,11.67-4.88,18.67-4.88,7.4,0,13.62,1.65,18.67,4.95,5.05,3.3,8.9,7.6,11.55,12.9,2.65,5.3,3.98,11.1,3.98,17.4v3.07c0,1.05-.05,2.28-.15,3.68h-61.95v-8.85h52.05c-.3-7.7-2.73-13.65-7.27-17.85-4.55-4.2-10.28-6.3-17.17-6.3-4.5,0-8.68,1.03-12.53,3.07-3.85,2.05-6.95,5.08-9.3,9.08-2.35,4-3.53,8.95-3.53,14.85v3.9c0,6.8,1.2,12.45,3.6,16.95,2.4,4.5,5.55,7.85,9.45,10.05,3.9,2.2,8.05,3.3,12.45,3.3,5.7,0,10.4-1.27,14.1-3.82,3.7-2.55,6.35-6.08,7.95-10.58h10.2c-1.1,4.4-3.1,8.4-6,12-2.9,3.6-6.55,6.4-10.95,8.4-4.4,2-9.5,3-15.3,3Z"/>
    <path class="cls-8" d="M3265.63,1041v-108h10.5v108h-10.5Z"/>
    <path class="cls-8" d="M3304.93,1041v-75.6h9.45l.6,13.5c2.4-4.9,5.87-8.67,10.43-11.32,4.55-2.65,9.62-3.98,15.22-3.98s10.85,1.15,15.15,3.45c4.3,2.3,7.65,5.78,10.05,10.43,2.4,4.65,3.6,10.63,3.6,17.92v45.6h-10.5v-44.4c0-8.1-1.75-14.1-5.25-18-3.5-3.9-8.5-5.85-15-5.85-4.4,0-8.38,1.08-11.92,3.23-3.55,2.15-6.33,5.25-8.33,9.3-2,4.05-3,9.13-3,15.23v40.5h-10.5Z"/>
    <path class="cls-8" d="M3429.13,1042.8c-7.1,0-13.3-1.65-18.6-4.95-5.3-3.3-9.48-7.92-12.53-13.88-3.05-5.95-4.58-12.92-4.58-20.93s1.5-14.95,4.5-20.85c3-5.9,7.22-10.47,12.68-13.73,5.45-3.25,11.67-4.88,18.67-4.88,7.4,0,13.62,1.65,18.67,4.95,5.05,3.3,8.9,7.6,11.55,12.9,2.65,5.3,3.98,11.1,3.98,17.4v3.07c0,1.05-.05,2.28-.15,3.68h-61.95v-8.85h52.05c-.3-7.7-2.73-13.65-7.27-17.85-4.55-4.2-10.28-6.3-17.17-6.3-4.5,0-8.68,1.03-12.53,3.07-3.85,2.05-6.95,5.08-9.3,9.08-2.35,4-3.53,8.95-3.53,14.85v3.9c0,6.8,1.2,12.45,3.6,16.95,2.4,4.5,5.55,7.85,9.45,10.05,3.9,2.2,8.05,3.3,12.45,3.3,5.7,0,10.4-1.27,14.1-3.82,3.7-2.55,6.35-6.08,7.95-10.58h10.2c-1.1,4.4-3.1,8.4-6,12-2.9,3.6-6.55,6.4-10.95,8.4-4.4,2-9.5,3-15.3,3Z"/>
    <path class="cls-8" d="M3513.88,1041c-4.3,0-8-.67-11.1-2.02-3.1-1.35-5.48-3.62-7.12-6.83-1.65-3.2-2.48-7.5-2.48-12.9v-44.85h-13.2v-9h13.2l1.5-17.7h9v17.7h22.5v9h-22.5v44.85c0,5,1.02,8.38,3.08,10.12,2.05,1.75,5.57,2.62,10.58,2.62h7.8v9h-11.25Z"/>
    <path class="cls-8" d="M3548.68,1059.45l8.85-31.8h11.25l-12.6,31.8h-7.5Z"/>
    <path class="cls-8" d="M3665.97,1041v-96.3h-31.5v-8.7h73.5v8.7h-31.5v96.3h-10.5Z"/>
    <path class="cls-8" d="M3731.82,1041v-105h10.5v96.45h49.65v8.55h-60.15Z"/>
    <path class="cls-8" d="M3845.52,1042.8c-7.7,0-14.38-1.4-20.03-4.2-5.65-2.8-9.97-6.72-12.97-11.77-3-5.05-4.5-10.82-4.5-17.33h10.95c0,4.4,1,8.45,3,12.15,2,3.7,4.95,6.68,8.85,8.93,3.9,2.25,8.8,3.38,14.7,3.38,5.2,0,9.57-.87,13.12-2.62,3.55-1.75,6.27-4.07,8.17-6.98,1.9-2.9,2.85-6.2,2.85-9.9,0-4.4-.93-7.95-2.77-10.65-1.85-2.7-4.38-4.88-7.58-6.52-3.2-1.65-6.85-3.12-10.95-4.42-4.1-1.3-8.35-2.65-12.75-4.05-8.2-2.8-14.17-6.27-17.92-10.42-3.75-4.15-5.68-9.42-5.78-15.83,0-5.5,1.28-10.37,3.83-14.62,2.55-4.25,6.27-7.6,11.17-10.05,4.9-2.45,10.7-3.67,17.4-3.67s12.17,1.23,17.02,3.67c4.85,2.45,8.62,5.85,11.33,10.2,2.7,4.35,4.05,9.33,4.05,14.92h-10.8c0-3.2-.83-6.32-2.47-9.38-1.65-3.05-4.1-5.55-7.35-7.5-3.25-1.95-7.38-2.92-12.38-2.92-4.1,0-7.72.73-10.88,2.17-3.15,1.45-5.62,3.55-7.42,6.3-1.8,2.75-2.7,5.98-2.7,9.68s.8,6.55,2.4,8.85c1.6,2.3,3.85,4.2,6.75,5.7,2.9,1.5,6.3,2.88,10.2,4.12,3.9,1.25,8.25,2.68,13.05,4.27,4.9,1.7,9.25,3.75,13.05,6.15,3.8,2.4,6.8,5.47,9,9.22,2.2,3.75,3.3,8.48,3.3,14.18,0,4.9-1.27,9.58-3.82,14.02-2.55,4.45-6.43,8.05-11.62,10.8-5.2,2.75-11.7,4.12-19.5,4.12Z"/>
    <path class="cls-8" d="M3899.52,1054.5l37.8-127.5h10.5l-37.8,127.5h-10.5Z"/>
    <path class="cls-8" d="M4004.37,1042.8c-7.7,0-14.38-1.4-20.03-4.2-5.65-2.8-9.97-6.72-12.97-11.77-3-5.05-4.5-10.82-4.5-17.33h10.95c0,4.4,1,8.45,3,12.15,2,3.7,4.95,6.68,8.85,8.93,3.9,2.25,8.8,3.38,14.7,3.38,5.2,0,9.57-.87,13.12-2.62,3.55-1.75,6.27-4.07,8.17-6.98,1.9-2.9,2.85-6.2,2.85-9.9,0-4.4-.93-7.95-2.77-10.65-1.85-2.7-4.38-4.88-7.58-6.52-3.2-1.65-6.85-3.12-10.95-4.42-4.1-1.3-8.35-2.65-12.75-4.05-8.2-2.8-14.17-6.27-17.92-10.42-3.75-4.15-5.68-9.42-5.78-15.83,0-5.5,1.28-10.37,3.83-14.62,2.55-4.25,6.27-7.6,11.17-10.05,4.9-2.45,10.7-3.67,17.4-3.67s12.17,1.23,17.02,3.67c4.85,2.45,8.62,5.85,11.33,10.2,2.7,4.35,4.05,9.33,4.05,14.92h-10.8c0-3.2-.83-6.32-2.47-9.38-1.65-3.05-4.1-5.55-7.35-7.5-3.25-1.95-7.38-2.92-12.38-2.92-4.1,0-7.72.73-10.88,2.17-3.15,1.45-5.62,3.55-7.42,6.3-1.8,2.75-2.7,5.98-2.7,9.68s.8,6.55,2.4,8.85c1.6,2.3,3.85,4.2,6.75,5.7,2.9,1.5,6.3,2.88,10.2,4.12,3.9,1.25,8.25,2.68,13.05,4.27,4.9,1.7,9.25,3.75,13.05,6.15,3.8,2.4,6.8,5.47,9,9.22,2.2,3.75,3.3,8.48,3.3,14.18,0,4.9-1.27,9.58-3.82,14.02-2.55,4.45-6.43,8.05-11.62,10.8-5.2,2.75-11.7,4.12-19.5,4.12Z"/>
    <path class="cls-8" d="M4098.27,1042.8c-7.7,0-14.38-1.4-20.03-4.2-5.65-2.8-9.97-6.72-12.97-11.77-3-5.05-4.5-10.82-4.5-17.33h10.95c0,4.4,1,8.45,3,12.15,2,3.7,4.95,6.68,8.85,8.93,3.9,2.25,8.8,3.38,14.7,3.38,5.2,0,9.57-.87,13.12-2.62,3.55-1.75,6.27-4.07,8.17-6.98,1.9-2.9,2.85-6.2,2.85-9.9,0-4.4-.93-7.95-2.77-10.65-1.85-2.7-4.38-4.88-7.58-6.52-3.2-1.65-6.85-3.12-10.95-4.42-4.1-1.3-8.35-2.65-12.75-4.05-8.2-2.8-14.17-6.27-17.92-10.42-3.75-4.15-5.68-9.42-5.78-15.83,0-5.5,1.28-10.37,3.83-14.62,2.55-4.25,6.27-7.6,11.17-10.05,4.9-2.45,10.7-3.67,17.4-3.67s12.17,1.23,17.02,3.67c4.85,2.45,8.62,5.85,11.33,10.2,2.7,4.35,4.05,9.33,4.05,14.92h-10.8c0-3.2-.83-6.32-2.47-9.38-1.65-3.05-4.1-5.55-7.35-7.5-3.25-1.95-7.38-2.92-12.38-2.92-4.1,0-7.72.73-10.88,2.17-3.15,1.45-5.62,3.55-7.42,6.3-1.8,2.75-2.7,5.98-2.7,9.68s.8,6.55,2.4,8.85c1.6,2.3,3.85,4.2,6.75,5.7,2.9,1.5,6.3,2.88,10.2,4.12,3.9,1.25,8.25,2.68,13.05,4.27,4.9,1.7,9.25,3.75,13.05,6.15,3.8,2.4,6.8,5.47,9,9.22,2.2,3.75,3.3,8.48,3.3,14.18,0,4.9-1.27,9.58-3.82,14.02-2.55,4.45-6.43,8.05-11.62,10.8-5.2,2.75-11.7,4.12-19.5,4.12Z"/>
    <path class="cls-8" d="M4159.46,1041v-105h10.5v96.45h49.65v8.55h-60.15Z"/>
    <path class="cls-8" d="M4233.41,1059.45l8.85-31.8h11.25l-12.6,31.8h-7.5Z"/>
    <path class="cls-8" d="M4320.56,1041l31.8-52.8-31.65-52.2h11.7l26.55,43.65,25.5-43.65h11.85l-31.95,52.65,31.8,52.35h-11.7l-26.7-43.95-25.35,43.95h-11.85Z"/>
    <path class="cls-8" d="M4421.51,1041v-105h12.15l38.4,75.75,38.7-75.75h12.15v105h-10.5v-85.8l-36.3,71.1h-7.8l-36.3-70.8v85.5h-10.5Z"/>
    <path class="cls-8" d="M4553.81,1041v-105h32.85c8.2,0,14.95,1.35,20.25,4.05,5.3,2.7,9.2,6.3,11.7,10.8,2.5,4.5,3.75,9.7,3.75,15.6s-1.25,10.7-3.75,15.3c-2.5,4.6-6.38,8.25-11.62,10.95-5.25,2.7-12.03,4.05-20.33,4.05h-22.35v44.25h-10.5ZM4564.31,987.75h22.5c8.9,0,15.25-1.92,19.05-5.77,3.8-3.85,5.7-9.08,5.7-15.68s-1.9-12.2-5.7-15.9c-3.8-3.7-10.15-5.55-19.05-5.55h-22.5v42.9Z"/>
    <path class="cls-8" d="M4647.41,1041v-105h32.85c8.2,0,14.95,1.35,20.25,4.05,5.3,2.7,9.2,6.3,11.7,10.8,2.5,4.5,3.75,9.7,3.75,15.6s-1.25,10.7-3.75,15.3c-2.5,4.6-6.38,8.25-11.62,10.95-5.25,2.7-12.03,4.05-20.33,4.05h-22.35v44.25h-10.5ZM4657.91,987.75h22.5c8.9,0,15.25-1.92,19.05-5.77,3.8-3.85,5.7-9.08,5.7-15.68s-1.9-12.2-5.7-15.9c-3.8-3.7-10.15-5.55-19.05-5.55h-22.5v42.9Z"/>
    <path class="cls-8" d="M4732.9,1041.75c-2.2,0-4.03-.75-5.47-2.25-1.45-1.5-2.17-3.35-2.17-5.55s.72-4.02,2.17-5.48c1.45-1.45,3.32-2.18,5.62-2.18,2.1,0,3.87.73,5.33,2.18,1.45,1.45,2.17,3.33,2.17,5.62,0,2.1-.73,3.9-2.17,5.4-1.45,1.5-3.28,2.25-5.48,2.25Z"/>
    <path class="cls-8" d="M4768.6,1041.75c-2.2,0-4.03-.75-5.47-2.25-1.45-1.5-2.17-3.35-2.17-5.55s.72-4.02,2.17-5.48c1.45-1.45,3.32-2.18,5.62-2.18,2.1,0,3.87.73,5.33,2.18,1.45,1.45,2.17,3.33,2.17,5.62,0,2.1-.73,3.9-2.17,5.4-1.45,1.5-3.28,2.25-5.48,2.25Z"/>
    <path class="cls-8" d="M4804.3,1041.75c-2.2,0-4.03-.75-5.47-2.25-1.45-1.5-2.17-3.35-2.17-5.55s.72-4.02,2.17-5.48c1.45-1.45,3.32-2.18,5.62-2.18,2.1,0,3.87.73,5.33,2.18,1.45,1.45,2.17,3.33,2.17,5.62,0,2.1-.73,3.9-2.17,5.4-1.45,1.5-3.28,2.25-5.48,2.25Z"/>
  </g>
  <g>
    <path class="cls-8" d="M1805.46,1718v-105h29.7c12.3,0,22.43,2.1,30.38,6.3,7.95,4.2,13.85,10.25,17.7,18.15,3.85,7.9,5.77,17.35,5.77,28.35s-1.93,20.1-5.77,27.9c-3.85,7.8-9.75,13.8-17.7,18-7.95,4.2-18.07,6.3-30.38,6.3h-29.7ZM1815.96,1709.3h19.2c10.5,0,18.9-1.75,25.2-5.25,6.3-3.5,10.85-8.5,13.65-15,2.8-6.5,4.2-14.25,4.2-23.25s-1.4-16.95-4.2-23.55c-2.8-6.6-7.35-11.67-13.65-15.23-6.3-3.55-14.7-5.32-25.2-5.32h-19.2v87.6Z"/>
    <path class="cls-8" d="M1960.86,1719.8c-10.1,0-18.88-2.27-26.33-6.82-7.45-4.55-13.15-10.9-17.1-19.05-3.95-8.15-5.92-17.62-5.92-28.42s1.97-20.27,5.92-28.42c3.95-8.15,9.65-14.5,17.1-19.05,7.45-4.55,16.22-6.82,26.33-6.82,11.8,0,21.35,2.77,28.65,8.32,7.3,5.55,12,13.38,14.1,23.48h-11.55c-1.7-6.8-5.13-12.27-10.27-16.42-5.15-4.15-12.13-6.23-20.92-6.23-7.8,0-14.58,1.8-20.33,5.4-5.75,3.6-10.23,8.77-13.42,15.52-3.2,6.75-4.8,14.83-4.8,24.23s1.6,17.48,4.8,24.23c3.2,6.75,7.67,11.92,13.42,15.52,5.75,3.6,12.52,5.4,20.33,5.4,8.8,0,15.8-2.05,21-6.15,5.2-4.1,8.6-9.5,10.2-16.2h11.55c-2.1,9.9-6.8,17.62-14.1,23.18-7.3,5.55-16.85,8.32-28.65,8.32Z"/>
    <path class="cls-8" d="M2075.31,1719.8c-10.1,0-18.88-2.27-26.33-6.82-7.45-4.55-13.15-10.9-17.1-19.05-3.95-8.15-5.92-17.62-5.92-28.42s1.97-20.27,5.92-28.42c3.95-8.15,9.65-14.5,17.1-19.05,7.45-4.55,16.22-6.82,26.33-6.82,11.8,0,21.35,2.77,28.65,8.32,7.3,5.55,12,13.38,14.1,23.48h-11.55c-1.7-6.8-5.13-12.27-10.27-16.42-5.15-4.15-12.13-6.23-20.92-6.23-7.8,0-14.58,1.8-20.33,5.4-5.75,3.6-10.23,8.77-13.42,15.52-3.2,6.75-4.8,14.83-4.8,24.23s1.6,17.48,4.8,24.23c3.2,6.75,7.67,11.92,13.42,15.52,5.75,3.6,12.52,5.4,20.33,5.4,8.8,0,15.8-2.05,21-6.15,5.2-4.1,8.6-9.5,10.2-16.2h11.55c-2.1,9.9-6.8,17.62-14.1,23.18-7.3,5.55-16.85,8.32-28.65,8.32Z"/>
    <path class="cls-8" d="M2144.61,1718v-105h32.85c8.2,0,14.95,1.35,20.25,4.05,5.3,2.7,9.2,6.3,11.7,10.8,2.5,4.5,3.75,9.7,3.75,15.6s-1.25,10.7-3.75,15.3c-2.5,4.6-6.38,8.25-11.62,10.95-5.25,2.7-12.03,4.05-20.33,4.05h-22.35v44.25h-10.5ZM2155.11,1664.75h22.5c8.9,0,15.25-1.92,19.05-5.77,3.8-3.85,5.7-9.08,5.7-15.68s-1.9-12.2-5.7-15.9c-3.8-3.7-10.15-5.55-19.05-5.55h-22.5v42.9Z"/>
    <path class="cls-8" d="M2214.66,1736.45l8.85-31.8h11.25l-12.6,31.8h-7.5Z"/>
    <path class="cls-8" d="M2353.86,1719.8c-10.1,0-18.93-2.27-26.47-6.82-7.55-4.55-13.45-10.9-17.7-19.05-4.25-8.15-6.38-17.62-6.38-28.42s2.12-20.12,6.38-28.27c4.25-8.15,10.15-14.52,17.7-19.12,7.55-4.6,16.37-6.9,26.47-6.9s19.07,2.3,26.62,6.9c7.55,4.6,13.45,10.98,17.7,19.12,4.25,8.15,6.38,17.58,6.38,28.27s-2.13,20.28-6.38,28.42c-4.25,8.15-10.15,14.5-17.7,19.05-7.55,4.55-16.42,6.82-26.62,6.82ZM2353.86,1710.65c7.9,0,14.85-1.8,20.85-5.4s10.67-8.77,14.02-15.52c3.35-6.75,5.03-14.82,5.03-24.23s-1.68-17.45-5.03-24.15c-3.35-6.7-8.02-11.85-14.02-15.45s-12.95-5.4-20.85-5.4-14.7,1.8-20.7,5.4-10.68,8.75-14.02,15.45c-3.35,6.7-5.03,14.75-5.03,24.15s1.67,17.48,5.03,24.23c3.35,6.75,8.02,11.92,14.02,15.52s12.9,5.4,20.7,5.4ZM2382.21,1732.25l-35.25-55.2h13.35l35.25,55.2h-13.35Z"/>
    <path class="cls-8" d="M2467.86,1719.8c-7.1,0-13.53-1.4-19.27-4.2-5.75-2.8-10.33-7.17-13.73-13.12-3.4-5.95-5.1-13.52-5.1-22.73v-66.75h10.5v66.9c0,7.2,1.17,13.05,3.52,17.55,2.35,4.5,5.62,7.8,9.83,9.9,4.2,2.1,9,3.15,14.4,3.15s10.3-1.05,14.4-3.15c4.1-2.1,7.3-5.4,9.6-9.9,2.3-4.5,3.45-10.35,3.45-17.55v-66.9h10.5v66.75c0,9.2-1.7,16.78-5.1,22.73-3.4,5.95-7.98,10.33-13.73,13.12-5.75,2.8-12.18,4.2-19.27,4.2Z"/>
    <path class="cls-8" d="M2535.66,1718v-105h10.5v105h-10.5Z"/>
    <path class="cls-8" d="M2622.21,1719.8c-10.1,0-18.88-2.27-26.32-6.82-7.45-4.55-13.15-10.9-17.1-19.05-3.95-8.15-5.92-17.62-5.92-28.42s1.97-20.27,5.92-28.42c3.95-8.15,9.65-14.5,17.1-19.05,7.45-4.55,16.22-6.82,26.32-6.82,11.8,0,21.35,2.77,28.65,8.32,7.3,5.55,12,13.38,14.1,23.48h-11.55c-1.7-6.8-5.13-12.27-10.27-16.42-5.15-4.15-12.13-6.23-20.93-6.23-7.8,0-14.58,1.8-20.32,5.4-5.75,3.6-10.23,8.77-13.43,15.52-3.2,6.75-4.8,14.83-4.8,24.23s1.6,17.48,4.8,24.23c3.2,6.75,7.67,11.92,13.43,15.52,5.75,3.6,12.52,5.4,20.32,5.4,8.8,0,15.8-2.05,21-6.15,5.2-4.1,8.6-9.5,10.2-16.2h11.55c-2.1,9.9-6.8,17.62-14.1,23.18-7.3,5.55-16.85,8.32-28.65,8.32Z"/>
    <path class="cls-8" d="M2679.96,1736.45l8.85-31.8h11.25l-12.6,31.8h-7.5Z"/>
    <path class="cls-8" d="M2772.81,1718v-105h32.4c8.1,0,14.72,1.35,19.88,4.05,5.15,2.7,8.93,6.33,11.33,10.88,2.4,4.55,3.6,9.73,3.6,15.53s-1.23,10.72-3.68,15.38c-2.45,4.65-6.3,8.35-11.55,11.1-5.25,2.75-11.98,4.12-20.17,4.12h-21.3v43.95h-10.5ZM2783.31,1665.5h21.15c8.6,0,14.87-2.05,18.83-6.15,3.95-4.1,5.92-9.4,5.92-15.9s-1.93-11.97-5.77-15.83c-3.85-3.85-10.23-5.77-19.12-5.77h-21v43.65ZM2828.76,1718l-23.55-47.25h11.85l24.15,47.25h-12.45Z"/>
    <path class="cls-8" d="M2868.36,1718v-105h29.7c12.3,0,22.42,2.1,30.38,6.3,7.95,4.2,13.85,10.25,17.7,18.15,3.85,7.9,5.78,17.35,5.78,28.35s-1.93,20.1-5.78,27.9c-3.85,7.8-9.75,13.8-17.7,18-7.95,4.2-18.08,6.3-30.38,6.3h-29.7ZM2878.86,1709.3h19.2c10.5,0,18.9-1.75,25.2-5.25,6.3-3.5,10.85-8.5,13.65-15,2.8-6.5,4.2-14.25,4.2-23.25s-1.4-16.95-4.2-23.55c-2.8-6.6-7.35-11.67-13.65-15.23-6.3-3.55-14.7-5.32-25.2-5.32h-19.2v87.6Z"/>
    <path class="cls-8" d="M2978.61,1718v-105h32.85c8.2,0,14.95,1.35,20.25,4.05,5.3,2.7,9.2,6.3,11.7,10.8,2.5,4.5,3.75,9.7,3.75,15.6s-1.25,10.7-3.75,15.3c-2.5,4.6-6.38,8.25-11.62,10.95-5.25,2.7-12.03,4.05-20.33,4.05h-22.35v44.25h-10.5ZM2989.11,1664.75h22.5c8.9,0,15.25-1.92,19.05-5.77,3.8-3.85,5.7-9.08,5.7-15.68s-1.9-12.2-5.7-15.9c-3.8-3.7-10.15-5.55-19.05-5.55h-22.5v42.9Z"/>
    <path class="cls-8" d="M3048.66,1736.45l8.85-31.8h11.25l-12.6,31.8h-7.5Z"/>
    <path class="cls-8" d="M3141.5,1718v-105h32.4c8.1,0,14.72,1.35,19.88,4.05,5.15,2.7,8.93,6.33,11.33,10.88,2.4,4.55,3.6,9.73,3.6,15.53s-1.23,10.72-3.68,15.38c-2.45,4.65-6.3,8.35-11.55,11.1-5.25,2.75-11.98,4.12-20.17,4.12h-21.3v43.95h-10.5ZM3152,1665.5h21.15c8.6,0,14.87-2.05,18.83-6.15,3.95-4.1,5.92-9.4,5.92-15.9s-1.93-11.97-5.77-15.83c-3.85-3.85-10.23-5.77-19.12-5.77h-21v43.65ZM3197.45,1718l-23.55-47.25h11.85l24.15,47.25h-12.45Z"/>
    <path class="cls-8" d="M3269.75,1719.8c-7.7,0-14.38-1.4-20.03-4.2-5.65-2.8-9.97-6.72-12.97-11.77-3-5.05-4.5-10.82-4.5-17.33h10.95c0,4.4,1,8.45,3,12.15,2,3.7,4.95,6.68,8.85,8.93,3.9,2.25,8.8,3.38,14.7,3.38,5.2,0,9.57-.87,13.12-2.62,3.55-1.75,6.27-4.07,8.17-6.98,1.9-2.9,2.85-6.2,2.85-9.9,0-4.4-.93-7.95-2.77-10.65-1.85-2.7-4.38-4.88-7.58-6.52-3.2-1.65-6.85-3.12-10.95-4.42-4.1-1.3-8.35-2.65-12.75-4.05-8.2-2.8-14.17-6.27-17.92-10.42-3.75-4.15-5.68-9.42-5.78-15.83,0-5.5,1.28-10.37,3.83-14.62,2.55-4.25,6.27-7.6,11.17-10.05,4.9-2.45,10.7-3.67,17.4-3.67s12.17,1.23,17.02,3.67c4.85,2.45,8.62,5.85,11.33,10.2,2.7,4.35,4.05,9.33,4.05,14.92h-10.8c0-3.2-.83-6.32-2.47-9.38-1.65-3.05-4.1-5.55-7.35-7.5-3.25-1.95-7.38-2.92-12.38-2.92-4.1,0-7.72.73-10.88,2.17-3.15,1.45-5.62,3.55-7.42,6.3-1.8,2.75-2.7,5.98-2.7,9.68s.8,6.55,2.4,8.85c1.6,2.3,3.85,4.2,6.75,5.7,2.9,1.5,6.3,2.88,10.2,4.12,3.9,1.25,8.25,2.68,13.05,4.27,4.9,1.7,9.25,3.75,13.05,6.15,3.8,2.4,6.8,5.47,9,9.22,2.2,3.75,3.3,8.48,3.3,14.18,0,4.9-1.27,9.58-3.82,14.02-2.55,4.45-6.43,8.05-11.62,10.8-5.2,2.75-11.7,4.12-19.5,4.12Z"/>
    <path class="cls-8" d="M3359.75,1718l-39.75-105h11.4l34.35,93.6,34.8-93.6h11.1l-39.9,105h-12Z"/>
    <path class="cls-8" d="M3434.6,1718v-105h32.85c8.2,0,14.95,1.35,20.25,4.05,5.3,2.7,9.2,6.3,11.7,10.8,2.5,4.5,3.75,9.7,3.75,15.6s-1.25,10.7-3.75,15.3c-2.5,4.6-6.38,8.25-11.62,10.95-5.25,2.7-12.03,4.05-20.33,4.05h-22.35v44.25h-10.5ZM3445.1,1664.75h22.5c8.9,0,15.25-1.92,19.05-5.77,3.8-3.85,5.7-9.08,5.7-15.68s-1.9-12.2-5.7-15.9c-3.8-3.7-10.15-5.55-19.05-5.55h-22.5v42.9Z"/>
    <path class="cls-8" d="M3504.65,1736.45l8.85-31.8h11.25l-12.6,31.8h-7.5Z"/>
    <path class="cls-8" d="M3630.2,1719.8c-7.7,0-14.38-1.4-20.03-4.2-5.65-2.8-9.97-6.72-12.97-11.77-3-5.05-4.5-10.82-4.5-17.33h10.95c0,4.4,1,8.45,3,12.15,2,3.7,4.95,6.68,8.85,8.93,3.9,2.25,8.8,3.38,14.7,3.38,5.2,0,9.57-.87,13.12-2.62,3.55-1.75,6.27-4.07,8.17-6.98,1.9-2.9,2.85-6.2,2.85-9.9,0-4.4-.93-7.95-2.77-10.65-1.85-2.7-4.38-4.88-7.58-6.52-3.2-1.65-6.85-3.12-10.95-4.42-4.1-1.3-8.35-2.65-12.75-4.05-8.2-2.8-14.17-6.27-17.92-10.42-3.75-4.15-5.68-9.42-5.78-15.83,0-5.5,1.28-10.37,3.83-14.62,2.55-4.25,6.27-7.6,11.17-10.05,4.9-2.45,10.7-3.67,17.4-3.67s12.17,1.23,17.02,3.67c4.85,2.45,8.62,5.85,11.33,10.2,2.7,4.35,4.05,9.33,4.05,14.92h-10.8c0-3.2-.83-6.32-2.47-9.38-1.65-3.05-4.1-5.55-7.35-7.5-3.25-1.95-7.38-2.92-12.38-2.92-4.1,0-7.72.73-10.88,2.17-3.15,1.45-5.62,3.55-7.42,6.3-1.8,2.75-2.7,5.98-2.7,9.68s.8,6.55,2.4,8.85c1.6,2.3,3.85,4.2,6.75,5.7,2.9,1.5,6.3,2.88,10.2,4.12,3.9,1.25,8.25,2.68,13.05,4.27,4.9,1.7,9.25,3.75,13.05,6.15,3.8,2.4,6.8,5.47,9,9.22,2.2,3.75,3.3,8.48,3.3,14.18,0,4.9-1.27,9.58-3.82,14.02-2.55,4.45-6.43,8.05-11.62,10.8-5.2,2.75-11.7,4.12-19.5,4.12Z"/>
    <path class="cls-8" d="M3736.55,1719.8c-10.1,0-18.88-2.27-26.32-6.82-7.45-4.55-13.15-10.9-17.1-19.05-3.95-8.15-5.92-17.62-5.92-28.42s1.97-20.27,5.92-28.42c3.95-8.15,9.65-14.5,17.1-19.05,7.45-4.55,16.22-6.82,26.32-6.82,11.8,0,21.35,2.77,28.65,8.32,7.3,5.55,12,13.38,14.1,23.48h-11.55c-1.7-6.8-5.13-12.27-10.27-16.42-5.15-4.15-12.13-6.23-20.93-6.23-7.8,0-14.58,1.8-20.32,5.4-5.75,3.6-10.23,8.77-13.43,15.52-3.2,6.75-4.8,14.83-4.8,24.23s1.6,17.48,4.8,24.23c3.2,6.75,7.67,11.92,13.43,15.52,5.75,3.6,12.52,5.4,20.32,5.4,8.8,0,15.8-2.05,21-6.15,5.2-4.1,8.6-9.5,10.2-16.2h11.55c-2.1,9.9-6.8,17.62-14.1,23.18-7.3,5.55-16.85,8.32-28.65,8.32Z"/>
    <path class="cls-8" d="M3827.3,1718v-96.3h-31.5v-8.7h73.5v8.7h-31.5v96.3h-10.5Z"/>
    <path class="cls-8" d="M3893.15,1718v-105h32.85c8.2,0,14.95,1.35,20.25,4.05,5.3,2.7,9.2,6.3,11.7,10.8,2.5,4.5,3.75,9.7,3.75,15.6s-1.25,10.7-3.75,15.3c-2.5,4.6-6.38,8.25-11.62,10.95-5.25,2.7-12.03,4.05-20.33,4.05h-22.35v44.25h-10.5ZM3903.65,1664.75h22.5c8.9,0,15.25-1.92,19.05-5.77,3.8-3.85,5.7-9.08,5.7-15.68s-1.9-12.2-5.7-15.9c-3.8-3.7-10.15-5.55-19.05-5.55h-22.5v42.9Z"/>
    <path class="cls-8" d="M3963.2,1736.45l8.85-31.8h11.25l-12.6,31.8h-7.5Z"/>
    <path class="cls-8" d="M4080.5,1718v-96.3h-31.5v-8.7h73.5v8.7h-31.5v96.3h-10.5Z"/>
    <path class="cls-8" d="M4185.5,1719.8c-10.1,0-18.88-2.27-26.32-6.82-7.45-4.55-13.15-10.9-17.1-19.05-3.95-8.15-5.92-17.62-5.92-28.42s1.97-20.27,5.92-28.42c3.95-8.15,9.65-14.5,17.1-19.05,7.45-4.55,16.22-6.82,26.32-6.82,11.8,0,21.35,2.77,28.65,8.32,7.3,5.55,12,13.38,14.1,23.48h-11.55c-1.7-6.8-5.13-12.27-10.27-16.42-5.15-4.15-12.13-6.23-20.93-6.23-7.8,0-14.58,1.8-20.32,5.4-5.75,3.6-10.23,8.77-13.43,15.52-3.2,6.75-4.8,14.83-4.8,24.23s1.6,17.48,4.8,24.23c3.2,6.75,7.67,11.92,13.43,15.52,5.75,3.6,12.52,5.4,20.32,5.4,8.8,0,15.8-2.05,21-6.15,5.2-4.1,8.6-9.5,10.2-16.2h11.55c-2.1,9.9-6.8,17.62-14.1,23.18-7.3,5.55-16.85,8.32-28.65,8.32Z"/>
    <path class="cls-8" d="M4254.79,1718v-105h32.85c8.2,0,14.95,1.35,20.25,4.05,5.3,2.7,9.2,6.3,11.7,10.8,2.5,4.5,3.75,9.7,3.75,15.6s-1.25,10.7-3.75,15.3c-2.5,4.6-6.38,8.25-11.62,10.95-5.25,2.7-12.03,4.05-20.33,4.05h-22.35v44.25h-10.5ZM4265.29,1664.75h22.5c8.9,0,15.25-1.92,19.05-5.77,3.8-3.85,5.7-9.08,5.7-15.68s-1.9-12.2-5.7-15.9c-3.8-3.7-10.15-5.55-19.05-5.55h-22.5v42.9Z"/>
    <path class="cls-8" d="M4324.85,1736.45l8.85-31.8h11.25l-12.6,31.8h-7.5Z"/>
    <path class="cls-8" d="M4454.59,1719.8c-7.1,0-13.53-1.4-19.27-4.2-5.75-2.8-10.33-7.17-13.73-13.12-3.4-5.95-5.1-13.52-5.1-22.73v-66.75h10.5v66.9c0,7.2,1.17,13.05,3.53,17.55,2.35,4.5,5.62,7.8,9.82,9.9,4.2,2.1,9,3.15,14.4,3.15s10.3-1.05,14.4-3.15c4.1-2.1,7.3-5.4,9.6-9.9,2.3-4.5,3.45-10.35,3.45-17.55v-66.9h10.5v66.75c0,9.2-1.7,16.78-5.1,22.73-3.4,5.95-7.98,10.33-13.72,13.12-5.75,2.8-12.18,4.2-19.28,4.2Z"/>
    <path class="cls-8" d="M4522.39,1718v-105h29.7c12.3,0,22.42,2.1,30.38,6.3,7.95,4.2,13.85,10.25,17.7,18.15,3.85,7.9,5.78,17.35,5.78,28.35s-1.93,20.1-5.78,27.9c-3.85,7.8-9.75,13.8-17.7,18-7.95,4.2-18.08,6.3-30.38,6.3h-29.7ZM4532.89,1709.3h19.2c10.5,0,18.9-1.75,25.2-5.25,6.3-3.5,10.85-8.5,13.65-15,2.8-6.5,4.2-14.25,4.2-23.25s-1.4-16.95-4.2-23.55c-2.8-6.6-7.35-11.67-13.65-15.23-6.3-3.55-14.7-5.32-25.2-5.32h-19.2v87.6Z"/>
    <path class="cls-8" d="M4632.64,1718v-105h32.85c8.2,0,14.95,1.35,20.25,4.05,5.3,2.7,9.2,6.3,11.7,10.8,2.5,4.5,3.75,9.7,3.75,15.6s-1.25,10.7-3.75,15.3c-2.5,4.6-6.38,8.25-11.62,10.95-5.25,2.7-12.03,4.05-20.33,4.05h-22.35v44.25h-10.5ZM4643.14,1664.75h22.5c8.9,0,15.25-1.92,19.05-5.77,3.8-3.85,5.7-9.08,5.7-15.68s-1.9-12.2-5.7-15.9c-3.8-3.7-10.15-5.55-19.05-5.55h-22.5v42.9Z"/>
    <path class="cls-8" d="M4718.14,1718.75c-2.2,0-4.03-.75-5.47-2.25-1.45-1.5-2.17-3.35-2.17-5.55s.72-4.02,2.17-5.48c1.45-1.45,3.32-2.18,5.62-2.18,2.1,0,3.87.73,5.33,2.18,1.45,1.45,2.17,3.33,2.17,5.62,0,2.1-.73,3.9-2.17,5.4-1.45,1.5-3.28,2.25-5.48,2.25Z"/>
    <path class="cls-8" d="M4753.84,1718.75c-2.2,0-4.03-.75-5.47-2.25-1.45-1.5-2.17-3.35-2.17-5.55s.72-4.02,2.17-5.48c1.45-1.45,3.32-2.18,5.62-2.18,2.1,0,3.87.73,5.33,2.18,1.45,1.45,2.17,3.33,2.17,5.62,0,2.1-.73,3.9-2.17,5.4-1.45,1.5-3.28,2.25-5.48,2.25Z"/>
    <path class="cls-8" d="M4789.54,1718.75c-2.2,0-4.03-.75-5.47-2.25-1.45-1.5-2.17-3.35-2.17-5.55s.72-4.02,2.17-5.48c1.45-1.45,3.32-2.18,5.62-2.18,2.1,0,3.87.73,5.33,2.18,1.45,1.45,2.17,3.33,2.17,5.62,0,2.1-.73,3.9-2.17,5.4-1.45,1.5-3.28,2.25-5.48,2.25Z"/>
  </g>
  <g>
    <path class="cls-8" d="M1813.27,2594v-105h10.5v105h-10.5Z"/>
    <path class="cls-8" d="M1854.67,2594v-105h32.85c8.2,0,14.95,1.35,20.25,4.05,5.3,2.7,9.2,6.3,11.7,10.8,2.5,4.5,3.75,9.7,3.75,15.6s-1.25,10.7-3.75,15.3c-2.5,4.6-6.38,8.25-11.62,10.95-5.25,2.7-12.03,4.05-20.33,4.05h-22.35v44.25h-10.5ZM1865.17,2540.75h22.5c8.9,0,15.25-1.92,19.05-5.78,3.8-3.85,5.7-9.08,5.7-15.67s-1.9-12.2-5.7-15.9c-3.8-3.7-10.15-5.55-19.05-5.55h-22.5v42.9Z"/>
    <path class="cls-8" d="M1969.42,2594l-28.8-75.6h10.95l24,65.4,24-65.4h10.8l-28.95,75.6h-12Z"/>
    <path class="cls-8" d="M2077.72,2594v-23.55h-53.7v-7.95l51.6-73.5h12.45v72.3h16.05v9.15h-16.05v23.55h-10.35ZM2035.87,2561.3h42.3v-60.6l-42.3,60.6Z"/>
    <path class="cls-8" d="M2115.82,2612.45l8.85-31.8h11.25l-12.6,31.8h-7.5Z"/>
    <path class="cls-8" d="M2208.66,2594v-105h10.5v105h-10.5Z"/>
    <path class="cls-8" d="M2250.06,2594v-105h32.85c8.2,0,14.95,1.35,20.25,4.05,5.3,2.7,9.2,6.3,11.7,10.8,2.5,4.5,3.75,9.7,3.75,15.6s-1.25,10.7-3.75,15.3c-2.5,4.6-6.38,8.25-11.62,10.95-5.25,2.7-12.03,4.05-20.33,4.05h-22.35v44.25h-10.5ZM2260.56,2540.75h22.5c8.9,0,15.25-1.92,19.05-5.78,3.8-3.85,5.7-9.08,5.7-15.67s-1.9-12.2-5.7-15.9c-3.8-3.7-10.15-5.55-19.05-5.55h-22.5v42.9Z"/>
    <path class="cls-8" d="M2364.81,2594l-28.8-75.6h10.95l24,65.4,24-65.4h10.8l-28.95,75.6h-12Z"/>
    <path class="cls-8" d="M2465.91,2595.8c-7.5,0-13.8-1.42-18.9-4.28-5.1-2.85-9.2-6.62-12.3-11.32-3.1-4.7-5.35-10.05-6.75-16.05-1.4-6-2.1-12.1-2.1-18.3,0-11.6,1.6-21.8,4.8-30.6,3.2-8.8,7.77-15.67,13.73-20.62,5.95-4.95,13.12-7.42,21.52-7.42,6.4,0,11.92,1.25,16.58,3.75,4.65,2.5,8.37,5.85,11.17,10.05,2.8,4.2,4.5,8.95,5.1,14.25h-9.75c-1-6-3.55-10.62-7.65-13.88-4.1-3.25-9.25-4.88-15.45-4.88-5.6,0-10.63,1.7-15.08,5.1-4.45,3.4-8,8.65-10.65,15.75-2.65,7.1-4.18,16.1-4.57,27v1.65c1.7-3.4,4-6.55,6.9-9.45,2.9-2.9,6.42-5.22,10.57-6.97,4.15-1.75,8.82-2.62,14.03-2.62,5.9,0,11.5,1.4,16.8,4.2,5.3,2.8,9.57,6.73,12.83,11.78,3.25,5.05,4.88,10.98,4.88,17.78,0,5.8-1.4,11.38-4.2,16.72-2.8,5.35-6.88,9.75-12.23,13.2-5.35,3.45-11.77,5.17-19.27,5.17ZM2465.16,2586.5c4.9,0,9.3-1.1,13.2-3.3,3.9-2.2,6.95-5.2,9.15-9,2.2-3.8,3.3-8.1,3.3-12.9,0-5.1-1.1-9.53-3.3-13.28-2.2-3.75-5.25-6.65-9.15-8.7-3.9-2.05-8.3-3.08-13.2-3.08s-9.33,1.12-13.27,3.38c-3.95,2.25-7.08,5.3-9.38,9.15-2.3,3.85-3.45,8.08-3.45,12.68s1.15,9.1,3.45,12.9c2.3,3.8,5.42,6.78,9.38,8.92,3.95,2.15,8.37,3.23,13.27,3.23Z"/>
    <path class="cls-8" d="M2519.16,2612.45l8.85-31.8h11.25l-12.6,31.8h-7.5Z"/>
    <path class="cls-8" d="M2612.01,2594v-105h10.5v105h-10.5Z"/>
    <path class="cls-8" d="M2698.56,2595.8c-10.1,0-18.88-2.27-26.32-6.83-7.45-4.55-13.15-10.9-17.1-19.05-3.95-8.15-5.92-17.62-5.92-28.42s1.97-20.27,5.92-28.42c3.95-8.15,9.65-14.5,17.1-19.05,7.45-4.55,16.22-6.82,26.32-6.82,11.8,0,21.35,2.77,28.65,8.32,7.3,5.55,12,13.38,14.1,23.48h-11.55c-1.7-6.8-5.13-12.27-10.27-16.42-5.15-4.15-12.13-6.23-20.93-6.23-7.8,0-14.58,1.8-20.32,5.4-5.75,3.6-10.23,8.77-13.43,15.52-3.2,6.75-4.8,14.83-4.8,24.23s1.6,17.47,4.8,24.22c3.2,6.75,7.67,11.92,13.43,15.53,5.75,3.6,12.52,5.4,20.32,5.4,8.8,0,15.8-2.05,21-6.15,5.2-4.1,8.6-9.5,10.2-16.2h11.55c-2.1,9.9-6.8,17.62-14.1,23.17-7.3,5.55-16.85,8.33-28.65,8.33Z"/>
    <path class="cls-8" d="M2767.86,2594v-105h12.15l38.4,75.75,38.7-75.75h12.15v105h-10.5v-85.8l-36.3,71.1h-7.8l-36.3-70.8v85.5h-10.5Z"/>
    <path class="cls-8" d="M2900.16,2594v-105h32.85c8.2,0,14.95,1.35,20.25,4.05,5.3,2.7,9.2,6.3,11.7,10.8,2.5,4.5,3.75,9.7,3.75,15.6s-1.25,10.7-3.75,15.3c-2.5,4.6-6.38,8.25-11.62,10.95-5.25,2.7-12.03,4.05-20.33,4.05h-22.35v44.25h-10.5ZM2910.66,2540.75h22.5c8.9,0,15.25-1.92,19.05-5.78,3.8-3.85,5.7-9.08,5.7-15.67s-1.9-12.2-5.7-15.9c-3.8-3.7-10.15-5.55-19.05-5.55h-22.5v42.9Z"/>
    <path class="cls-8" d="M2970.21,2612.45l8.85-31.8h11.25l-12.6,31.8h-7.5Z"/>
    <path class="cls-8" d="M3063.05,2594v-105h10.65l57.9,87.45v-87.45h10.5v105h-10.5l-58.05-87.6v87.6h-10.5Z"/>
    <path class="cls-8" d="M3173,2594v-105h29.7c12.3,0,22.42,2.1,30.38,6.3,7.95,4.2,13.85,10.25,17.7,18.15,3.85,7.9,5.78,17.35,5.78,28.35s-1.93,20.1-5.78,27.9c-3.85,7.8-9.75,13.8-17.7,18-7.95,4.2-18.08,6.3-30.38,6.3h-29.7ZM3183.5,2585.3h19.2c10.5,0,18.9-1.75,25.2-5.25,6.3-3.5,10.85-8.5,13.65-15,2.8-6.5,4.2-14.25,4.2-23.25s-1.4-16.95-4.2-23.55c-2.8-6.6-7.35-11.67-13.65-15.23-6.3-3.55-14.7-5.32-25.2-5.32h-19.2v87.6Z"/>
    <path class="cls-8" d="M3283.25,2594v-105h32.85c8.2,0,14.95,1.35,20.25,4.05,5.3,2.7,9.2,6.3,11.7,10.8,2.5,4.5,3.75,9.7,3.75,15.6s-1.25,10.7-3.75,15.3c-2.5,4.6-6.38,8.25-11.62,10.95-5.25,2.7-12.03,4.05-20.33,4.05h-22.35v44.25h-10.5ZM3293.75,2540.75h22.5c8.9,0,15.25-1.92,19.05-5.78,3.8-3.85,5.7-9.08,5.7-15.67s-1.9-12.2-5.7-15.9c-3.8-3.7-10.15-5.55-19.05-5.55h-22.5v42.9Z"/>
    <path class="cls-8" d="M3353.31,2612.45l8.85-31.8h11.25l-12.6,31.8h-7.5Z"/>
    <path class="cls-8" d="M3446.15,2594v-105h63.75v8.7h-53.25v39.15h48.75v8.7h-48.75v39.75h53.25v8.7h-63.75Z"/>
    <path class="cls-8" d="M3583.1,2595.8c-10.1,0-18.88-2.27-26.32-6.83-7.45-4.55-13.15-10.9-17.1-19.05-3.95-8.15-5.92-17.62-5.92-28.42s1.97-20.27,5.92-28.42c3.95-8.15,9.65-14.5,17.1-19.05,7.45-4.55,16.22-6.82,26.32-6.82,11.8,0,21.35,2.77,28.65,8.32,7.3,5.55,12,13.38,14.1,23.48h-11.55c-1.7-6.8-5.13-12.27-10.27-16.42-5.15-4.15-12.13-6.23-20.93-6.23-7.8,0-14.58,1.8-20.32,5.4-5.75,3.6-10.23,8.77-13.43,15.52-3.2,6.75-4.8,14.83-4.8,24.23s1.6,17.47,4.8,24.22c3.2,6.75,7.67,11.92,13.43,15.53,5.75,3.6,12.52,5.4,20.32,5.4,8.8,0,15.8-2.05,21-6.15,5.2-4.1,8.6-9.5,10.2-16.2h11.55c-2.1,9.9-6.8,17.62-14.1,23.17-7.3,5.55-16.85,8.33-28.65,8.33Z"/>
    <path class="cls-8" d="M3652.4,2594v-105h10.65l57.9,87.45v-87.45h10.5v105h-10.5l-58.05-87.6v87.6h-10.5Z"/>
    <path class="cls-8" d="M3750.8,2612.45l8.85-31.8h11.25l-12.6,31.8h-7.5Z"/>
    <path class="cls-8" d="M3843.65,2594v-105h10.5v105h-10.5Z"/>
    <path class="cls-8" d="M3929.75,2595.8c-9.8,0-18.38-2.27-25.73-6.83-7.35-4.55-13.05-10.9-17.1-19.05-4.05-8.15-6.08-17.62-6.08-28.42s2.07-20.12,6.22-28.28c4.15-8.15,10-14.52,17.55-19.12,7.55-4.6,16.47-6.9,26.77-6.9,11.6,0,21.27,2.8,29.03,8.4,7.75,5.6,12.77,13.4,15.08,23.4h-12.3c-1.5-6.8-5-12.2-10.5-16.2-5.5-4-12.6-6-21.3-6-8,0-14.98,1.8-20.92,5.4-5.95,3.6-10.58,8.73-13.88,15.38-3.3,6.65-4.95,14.62-4.95,23.92s1.62,17.3,4.88,24c3.25,6.7,7.75,11.85,13.5,15.45,5.75,3.6,12.38,5.4,19.88,5.4,11.7,0,20.55-3.5,26.55-10.5,6-7,9.4-16.65,10.2-28.95h-31.65v-8.55h42.45v55.65h-9.6l-1.05-18.6c-2.5,4.3-5.45,7.98-8.85,11.03-3.4,3.05-7.38,5.38-11.92,6.97-4.55,1.6-9.97,2.4-16.27,2.4Z"/>
    <path class="cls-8" d="M4005.8,2594v-105h12.15l38.4,75.75,38.7-75.75h12.15v105h-10.5v-85.8l-36.3,71.1h-7.8l-36.3-70.8v85.5h-10.5Z"/>
    <path class="cls-8" d="M4138.1,2594v-105h32.85c8.2,0,14.95,1.35,20.25,4.05,5.3,2.7,9.2,6.3,11.7,10.8,2.5,4.5,3.75,9.7,3.75,15.6s-1.25,10.7-3.75,15.3c-2.5,4.6-6.38,8.25-11.62,10.95-5.25,2.7-12.03,4.05-20.33,4.05h-22.35v44.25h-10.5ZM4148.6,2540.75h22.5c8.9,0,15.25-1.92,19.05-5.78,3.8-3.85,5.7-9.08,5.7-15.67s-1.9-12.2-5.7-15.9c-3.8-3.7-10.15-5.55-19.05-5.55h-22.5v42.9Z"/>
    <path class="cls-8" d="M4208.15,2612.45l8.85-31.8h11.25l-12.6,31.8h-7.5Z"/>
    <path class="cls-8" d="M4300.99,2594v-105h10.5v105h-10.5Z"/>
    <path class="cls-8" d="M4342.39,2594v-105h32.85c8.2,0,14.95,1.35,20.25,4.05,5.3,2.7,9.2,6.3,11.7,10.8,2.5,4.5,3.75,9.7,3.75,15.6s-1.25,10.7-3.75,15.3c-2.5,4.6-6.38,8.25-11.62,10.95-5.25,2.7-12.03,4.05-20.33,4.05h-22.35v44.25h-10.5ZM4352.89,2540.75h22.5c8.9,0,15.25-1.92,19.05-5.78,3.8-3.85,5.7-9.08,5.7-15.67s-1.9-12.2-5.7-15.9c-3.8-3.7-10.15-5.55-19.05-5.55h-22.5v42.9Z"/>
    <path class="cls-8" d="M4462.84,2595.8c-6.1,0-11.4-1-15.9-3s-8.15-4.88-10.95-8.62c-2.8-3.75-4.5-8.22-5.1-13.42h10.95c.5,2.9,1.62,5.53,3.38,7.88,1.75,2.35,4.12,4.27,7.12,5.77s6.55,2.25,10.65,2.25c3.8,0,6.92-.57,9.38-1.72,2.45-1.15,4.3-2.72,5.55-4.72,1.25-2,1.88-4.15,1.88-6.45,0-3.3-.75-5.85-2.25-7.65s-3.7-3.2-6.6-4.2c-2.9-1-6.5-1.85-10.8-2.55-3.2-.6-6.38-1.37-9.52-2.33-3.15-.95-5.95-2.25-8.4-3.9-2.45-1.65-4.38-3.7-5.77-6.15-1.4-2.45-2.1-5.33-2.1-8.62,0-4.3,1.05-8.07,3.15-11.33,2.1-3.25,5.17-5.8,9.22-7.65,4.05-1.85,8.72-2.78,14.03-2.78,7.8,0,14.15,1.93,19.05,5.78,4.9,3.85,7.8,9.48,8.7,16.88h-10.65c-.4-4.1-2.1-7.37-5.1-9.83-3-2.45-7.05-3.67-12.15-3.67s-8.83,1.05-11.47,3.15c-2.65,2.1-3.98,4.9-3.98,8.4,0,2.1.7,3.97,2.1,5.62,1.4,1.65,3.45,3.08,6.15,4.28,2.7,1.2,6.1,2.15,10.2,2.85,4.7.9,9.1,2.08,13.2,3.53,4.1,1.45,7.42,3.65,9.97,6.6,2.55,2.95,3.83,7.12,3.83,12.53,0,4.5-1.12,8.5-3.38,12-2.25,3.5-5.47,6.22-9.67,8.17s-9.1,2.92-14.7,2.92Z"/>
    <path class="cls-8" d="M4549.09,2595.8c-7.1,0-13.3-1.65-18.6-4.95-5.3-3.3-9.48-7.92-12.53-13.88-3.05-5.95-4.58-12.92-4.58-20.92s1.5-14.95,4.5-20.85c3-5.9,7.22-10.47,12.68-13.73,5.45-3.25,11.67-4.88,18.67-4.88,7.4,0,13.62,1.65,18.67,4.95,5.05,3.3,8.9,7.6,11.55,12.9,2.65,5.3,3.98,11.1,3.98,17.4v3.08c0,1.05-.05,2.28-.15,3.67h-61.95v-8.85h52.05c-.3-7.7-2.73-13.65-7.27-17.85-4.55-4.2-10.28-6.3-17.17-6.3-4.5,0-8.68,1.03-12.53,3.08-3.85,2.05-6.95,5.08-9.3,9.08-2.35,4-3.53,8.95-3.53,14.85v3.9c0,6.8,1.2,12.45,3.6,16.95,2.4,4.5,5.55,7.85,9.45,10.05,3.9,2.2,8.05,3.3,12.45,3.3,5.7,0,10.4-1.28,14.1-3.83,3.7-2.55,6.35-6.08,7.95-10.58h10.2c-1.1,4.4-3.1,8.4-6,12-2.9,3.6-6.55,6.4-10.95,8.4-4.4,2-9.5,3-15.3,3Z"/>
    <path class="cls-8" d="M4641.34,2595.8c-6.9,0-13.1-1.65-18.6-4.95-5.5-3.3-9.85-7.92-13.05-13.88-3.2-5.95-4.8-12.77-4.8-20.47,0-8.2,1.6-15.25,4.8-21.15,3.2-5.9,7.57-10.5,13.12-13.8,5.55-3.3,11.72-4.95,18.52-4.95,9,0,16.42,2.28,22.28,6.83,5.85,4.55,9.52,10.58,11.02,18.08h-10.5c-1.1-5.1-3.73-9.02-7.88-11.78-4.15-2.75-9.13-4.12-14.92-4.12-4.5,0-8.73,1.15-12.67,3.45-3.95,2.3-7.1,5.68-9.45,10.12-2.35,4.45-3.52,10.18-3.52,17.17,0,5,.7,9.43,2.1,13.28,1.4,3.85,3.3,7.05,5.7,9.6,2.4,2.55,5.15,4.48,8.25,5.78,3.1,1.3,6.3,1.95,9.6,1.95,3.7,0,7.17-.65,10.42-1.95,3.25-1.3,5.95-3.12,8.1-5.48,2.15-2.35,3.57-5.22,4.27-8.62h10.5c-1.5,7.3-5.2,13.28-11.1,17.93-5.9,4.65-13.3,6.97-22.2,6.97Z"/>
    <path class="cls-8" d="M4703.59,2594.75c-2.2,0-4.03-.75-5.47-2.25-1.45-1.5-2.17-3.35-2.17-5.55s.72-4.02,2.17-5.48,3.32-2.17,5.62-2.17c2.1,0,3.87.73,5.33,2.17,1.45,1.45,2.17,3.33,2.17,5.62,0,2.1-.73,3.9-2.17,5.4-1.45,1.5-3.28,2.25-5.48,2.25Z"/>
    <path class="cls-8" d="M4739.29,2594.75c-2.2,0-4.03-.75-5.47-2.25-1.45-1.5-2.17-3.35-2.17-5.55s.72-4.02,2.17-5.48,3.32-2.17,5.62-2.17c2.1,0,3.87.73,5.33,2.17,1.45,1.45,2.17,3.33,2.17,5.62,0,2.1-.73,3.9-2.17,5.4-1.45,1.5-3.28,2.25-5.48,2.25Z"/>
    <path class="cls-8" d="M4774.99,2594.75c-2.2,0-4.03-.75-5.47-2.25-1.45-1.5-2.17-3.35-2.17-5.55s.72-4.02,2.17-5.48,3.32-2.17,5.62-2.17c2.1,0,3.87.73,5.33,2.17,1.45,1.45,2.17,3.33,2.17,5.62,0,2.1-.73,3.9-2.17,5.4-1.45,1.5-3.28,2.25-5.48,2.25Z"/>
  </g>
  <g>
    <path class="cls-10" d="M2322.81,3470l38.7-105h10.8l38.7,105h-11.1l-33-91.2-33.15,91.2h-10.95ZM2340.51,3441.65l3.15-8.7h46.35l3.15,8.7h-52.65Z"/>
    <path class="cls-10" d="M2435.02,3470v-105h32.4c8.1,0,14.72,1.35,19.88,4.05,5.15,2.7,8.92,6.33,11.32,10.88,2.4,4.55,3.6,9.73,3.6,15.53s-1.23,10.72-3.67,15.38c-2.45,4.65-6.3,8.35-11.55,11.1-5.25,2.75-11.98,4.12-20.17,4.12h-21.3v43.95h-10.5ZM2445.52,3417.5h21.15c8.6,0,14.87-2.05,18.82-6.15,3.95-4.1,5.93-9.4,5.93-15.9s-1.93-11.97-5.77-15.83c-3.85-3.85-10.23-5.77-19.12-5.77h-21v43.65ZM2490.96,3470l-23.55-47.25h11.85l24.15,47.25h-12.45Z"/>
    <path class="cls-10" d="M2530.56,3470v-105h32.85c8.2,0,14.95,1.35,20.25,4.05,5.3,2.7,9.2,6.3,11.7,10.8,2.5,4.5,3.75,9.7,3.75,15.6s-1.25,10.7-3.75,15.3c-2.5,4.6-6.38,8.25-11.62,10.95-5.25,2.7-12.03,4.05-20.33,4.05h-22.35v44.25h-10.5ZM2541.06,3416.75h22.5c8.9,0,15.25-1.92,19.05-5.77,3.8-3.85,5.7-9.08,5.7-15.68s-1.9-12.2-5.7-15.9c-3.8-3.7-10.15-5.55-19.05-5.55h-22.5v42.9Z"/>
    <path class="cls-10" d="M2600.61,3488.45l8.85-31.8h11.25l-12.6,31.8h-7.5Z"/>
    <path class="cls-10" d="M2717.91,3470v-96.3h-31.5v-8.7h73.5v8.7h-31.5v96.3h-10.5Z"/>
    <path class="cls-10" d="M2802.51,3471.8c-5.7,0-10.7-1.12-15-3.38-4.3-2.25-7.65-5.72-10.05-10.42-2.4-4.7-3.6-10.65-3.6-17.85v-45.75h10.5v44.55c0,8.1,1.75,14.08,5.25,17.92,3.5,3.85,8.45,5.77,14.85,5.77,4.5,0,8.5-1.07,12-3.22,3.5-2.15,6.27-5.25,8.32-9.3,2.05-4.05,3.08-9.08,3.08-15.08v-40.65h10.5v75.6h-9.45l-.75-13.5c-2.3,4.8-5.73,8.55-10.27,11.25-4.55,2.7-9.67,4.05-15.38,4.05Z"/>
    <path class="cls-10" d="M2867.31,3470v-75.6h9.45l.6,13.5c2.4-4.9,5.87-8.67,10.43-11.32,4.55-2.65,9.62-3.97,15.22-3.97s10.85,1.15,15.15,3.45c4.3,2.3,7.65,5.78,10.05,10.43,2.4,4.65,3.6,10.63,3.6,17.92v45.6h-10.5v-44.4c0-8.1-1.75-14.1-5.25-18-3.5-3.9-8.5-5.85-15-5.85-4.4,0-8.38,1.08-11.92,3.23-3.55,2.15-6.33,5.25-8.33,9.3-2,4.05-3,9.13-3,15.23v40.5h-10.5Z"/>
    <path class="cls-10" d="M2959.26,3470v-75.6h9.45l.6,13.5c2.4-4.9,5.87-8.67,10.43-11.32,4.55-2.65,9.62-3.97,15.22-3.97s10.85,1.15,15.15,3.45c4.3,2.3,7.65,5.78,10.05,10.43,2.4,4.65,3.6,10.63,3.6,17.92v45.6h-10.5v-44.4c0-8.1-1.75-14.1-5.25-18-3.5-3.9-8.5-5.85-15-5.85-4.4,0-8.38,1.08-11.92,3.23-3.55,2.15-6.33,5.25-8.33,9.3-2,4.05-3,9.13-3,15.23v40.5h-10.5Z"/>
    <path class="cls-10" d="M3083.46,3471.8c-7.1,0-13.3-1.65-18.6-4.95-5.3-3.3-9.48-7.92-12.53-13.88-3.05-5.95-4.58-12.92-4.58-20.93s1.5-14.95,4.5-20.85c3-5.9,7.22-10.47,12.68-13.72,5.45-3.25,11.67-4.88,18.67-4.88,7.4,0,13.62,1.65,18.67,4.95,5.05,3.3,8.9,7.6,11.55,12.9,2.65,5.3,3.98,11.1,3.98,17.4v3.07c0,1.05-.05,2.28-.15,3.68h-61.95v-8.85h52.05c-.3-7.7-2.73-13.65-7.27-17.85-4.55-4.2-10.28-6.3-17.17-6.3-4.5,0-8.68,1.03-12.53,3.07-3.85,2.05-6.95,5.08-9.3,9.08-2.35,4-3.53,8.95-3.53,14.85v3.9c0,6.8,1.2,12.45,3.6,16.95,2.4,4.5,5.55,7.85,9.45,10.05,3.9,2.2,8.05,3.3,12.45,3.3,5.7,0,10.4-1.28,14.1-3.82,3.7-2.55,6.35-6.08,7.95-10.58h10.2c-1.1,4.4-3.1,8.4-6,12-2.9,3.6-6.55,6.4-10.95,8.4-4.4,2-9.5,3-15.3,3Z"/>
    <path class="cls-10" d="M3142.71,3470v-108h10.5v108h-10.5Z"/>
    <path class="cls-10" d="M3188.46,3376.55c-2.1,0-3.88-.72-5.33-2.17-1.45-1.45-2.17-3.27-2.17-5.48s.72-4,2.17-5.4c1.45-1.4,3.23-2.1,5.33-2.1s3.9.7,5.4,2.1c1.5,1.4,2.25,3.2,2.25,5.4s-.75,4.03-2.25,5.48c-1.5,1.45-3.3,2.17-5.4,2.17ZM3183.21,3470v-75.6h10.5v75.6h-10.5Z"/>
    <path class="cls-10" d="M3224.15,3470v-75.6h9.45l.6,13.5c2.4-4.9,5.87-8.67,10.43-11.32,4.55-2.65,9.62-3.97,15.22-3.97s10.85,1.15,15.15,3.45c4.3,2.3,7.65,5.78,10.05,10.43,2.4,4.65,3.6,10.63,3.6,17.92v45.6h-10.5v-44.4c0-8.1-1.75-14.1-5.25-18-3.5-3.9-8.5-5.85-15-5.85-4.4,0-8.38,1.08-11.92,3.23-3.55,2.15-6.33,5.25-8.33,9.3-2,4.05-3,9.13-3,15.23v40.5h-10.5Z"/>
    <path class="cls-10" d="M3345.2,3504.8c-6.7,0-12.63-.9-17.78-2.7-5.15-1.8-9.2-4.5-12.15-8.1-2.95-3.6-4.42-8.05-4.42-13.35,0-2.1.4-4.38,1.2-6.82.8-2.45,2.27-4.92,4.42-7.43,2.15-2.5,5.22-4.8,9.23-6.9l8.55,3.75c-5.3,2.6-8.75,5.38-10.35,8.33-1.6,2.95-2.4,5.62-2.4,8.03,0,3.6,1.02,6.6,3.08,9,2.05,2.4,4.85,4.22,8.4,5.47,3.55,1.25,7.62,1.88,12.23,1.88s8.57-.68,11.92-2.03c3.35-1.35,5.95-3.25,7.8-5.7,1.85-2.45,2.78-5.28,2.78-8.48,0-3.7-1.45-6.83-4.35-9.38-2.9-2.55-8.25-4.02-16.05-4.42-5.9-.4-10.85-.92-14.85-1.58-4-.65-7.28-1.45-9.83-2.4-2.55-.95-4.65-2-6.3-3.15-1.65-1.15-3.23-2.33-4.73-3.53v-3.6l14.4-13.5,9.6,3.45-14.1,12.45.9-3.9c1.2.8,2.3,1.55,3.3,2.25,1,.7,2.37,1.28,4.12,1.72,1.75.45,4.2.9,7.35,1.35,3.15.45,7.42.88,12.83,1.28,6.9.5,12.42,1.7,16.58,3.6,4.15,1.9,7.15,4.45,9,7.65,1.85,3.2,2.77,6.95,2.77,11.25s-1.18,8.38-3.52,12.22c-2.35,3.85-5.95,7.03-10.8,9.53-4.85,2.5-11.12,3.75-18.82,3.75ZM3345.05,3446c-6.3,0-11.65-1.2-16.05-3.6-4.4-2.4-7.75-5.62-10.05-9.67-2.3-4.05-3.45-8.53-3.45-13.43s1.17-9.5,3.52-13.5c2.35-4,5.7-7.2,10.05-9.6,4.35-2.4,9.67-3.6,15.97-3.6s11.65,1.2,16.05,3.6c4.4,2.4,7.7,5.6,9.9,9.6,2.2,4,3.3,8.5,3.3,13.5s-1.1,9.38-3.3,13.43c-2.2,4.05-5.5,7.27-9.9,9.67-4.4,2.4-9.75,3.6-16.05,3.6ZM3345.05,3437c5.9,0,10.5-1.5,13.8-4.5s4.95-7.4,4.95-13.2-1.65-10.2-4.95-13.2-7.9-4.5-13.8-4.5-10.42,1.5-13.88,4.5-5.17,7.4-5.17,13.2,1.7,10.2,5.1,13.2c3.4,3,8.05,4.5,13.95,4.5ZM3357.35,3403.85l-3.6-9.45h30.45v8.55l-26.85.9Z"/>
    <path class="cls-10" d="M3395.75,3488.45l8.85-31.8h11.25l-12.6,31.8h-7.5Z"/>
    <path class="cls-10" d="M3488.6,3470v-105h32.85c8.2,0,14.95,1.35,20.25,4.05,5.3,2.7,9.2,6.3,11.7,10.8,2.5,4.5,3.75,9.7,3.75,15.6s-1.25,10.7-3.75,15.3c-2.5,4.6-6.38,8.25-11.62,10.95-5.25,2.7-12.03,4.05-20.33,4.05h-22.35v44.25h-10.5ZM3499.1,3416.75h22.5c8.9,0,15.25-1.92,19.05-5.77,3.8-3.85,5.7-9.08,5.7-15.68s-1.9-12.2-5.7-15.9c-3.8-3.7-10.15-5.55-19.05-5.55h-22.5v42.9Z"/>
    <path class="cls-10" d="M3582.2,3470v-105h32.85c8.2,0,14.95,1.35,20.25,4.05,5.3,2.7,9.2,6.3,11.7,10.8,2.5,4.5,3.75,9.7,3.75,15.6s-1.25,10.7-3.75,15.3c-2.5,4.6-6.38,8.25-11.62,10.95-5.25,2.7-12.03,4.05-20.33,4.05h-22.35v44.25h-10.5ZM3592.7,3416.75h22.5c8.9,0,15.25-1.92,19.05-5.77,3.8-3.85,5.7-9.08,5.7-15.68s-1.9-12.2-5.7-15.9c-3.8-3.7-10.15-5.55-19.05-5.55h-22.5v42.9Z"/>
    <path class="cls-10" d="M3675.79,3470v-105h32.85c8.2,0,14.95,1.35,20.25,4.05,5.3,2.7,9.2,6.3,11.7,10.8,2.5,4.5,3.75,9.7,3.75,15.6s-1.25,10.7-3.75,15.3c-2.5,4.6-6.38,8.25-11.62,10.95-5.25,2.7-12.03,4.05-20.33,4.05h-22.35v44.25h-10.5ZM3686.29,3416.75h22.5c8.9,0,15.25-1.92,19.05-5.77,3.8-3.85,5.7-9.08,5.7-15.68s-1.9-12.2-5.7-15.9c-3.8-3.7-10.15-5.55-19.05-5.55h-22.5v42.9Z"/>
    <path class="cls-10" d="M3745.85,3488.45l8.85-31.8h11.25l-12.6,31.8h-7.5Z"/>
    <path class="cls-10" d="M3838.69,3470v-105h12.15l38.4,75.75,38.7-75.75h12.15v105h-10.5v-85.8l-36.3,71.1h-7.8l-36.3-70.8v85.5h-10.5Z"/>
    <path class="cls-10" d="M3964.24,3470l38.7-105h10.8l38.7,105h-11.1l-33-91.2-33.15,91.2h-10.95ZM3981.94,3441.65l3.15-8.7h46.35l3.15,8.7h-52.65Z"/>
    <path class="cls-10" d="M4115.59,3471.8c-10.1,0-18.88-2.27-26.32-6.82-7.45-4.55-13.15-10.9-17.1-19.05-3.95-8.15-5.92-17.62-5.92-28.42s1.97-20.27,5.92-28.42c3.95-8.15,9.65-14.5,17.1-19.05,7.45-4.55,16.22-6.82,26.32-6.82,11.8,0,21.35,2.78,28.65,8.32,7.3,5.55,12,13.38,14.1,23.48h-11.55c-1.7-6.8-5.13-12.27-10.27-16.42-5.15-4.15-12.13-6.22-20.93-6.22-7.8,0-14.58,1.8-20.32,5.4-5.75,3.6-10.23,8.77-13.43,15.52-3.2,6.75-4.8,14.83-4.8,24.23s1.6,17.48,4.8,24.23c3.2,6.75,7.67,11.92,13.43,15.52,5.75,3.6,12.52,5.4,20.32,5.4,8.8,0,15.8-2.05,21-6.15,5.2-4.1,8.6-9.5,10.2-16.2h11.55c-2.1,9.9-6.8,17.62-14.1,23.18-7.3,5.55-16.85,8.32-28.65,8.32Z"/>
    <path class="cls-10" d="M4187.29,3470.75c-2.2,0-4.03-.75-5.47-2.25-1.45-1.5-2.17-3.35-2.17-5.55s.72-4.02,2.17-5.47c1.45-1.45,3.32-2.18,5.62-2.18,2.1,0,3.87.73,5.33,2.18,1.45,1.45,2.17,3.33,2.17,5.62,0,2.1-.73,3.9-2.17,5.4-1.45,1.5-3.28,2.25-5.48,2.25Z"/>
    <path class="cls-10" d="M4222.99,3470.75c-2.2,0-4.03-.75-5.47-2.25-1.45-1.5-2.17-3.35-2.17-5.55s.72-4.02,2.17-5.47c1.45-1.45,3.32-2.18,5.62-2.18,2.1,0,3.87.73,5.33,2.18,1.45,1.45,2.17,3.33,2.17,5.62,0,2.1-.73,3.9-2.17,5.4-1.45,1.5-3.28,2.25-5.48,2.25Z"/>
    <path class="cls-10" d="M4258.69,3470.75c-2.2,0-4.03-.75-5.47-2.25-1.45-1.5-2.17-3.35-2.17-5.55s.72-4.02,2.17-5.47c1.45-1.45,3.32-2.18,5.62-2.18,2.1,0,3.87.73,5.33,2.18,1.45,1.45,2.17,3.33,2.17,5.62,0,2.1-.73,3.9-2.17,5.4-1.45,1.5-3.28,2.25-5.48,2.25Z"/>
  </g>
</svg>