<?xml version="1.0" encoding="UTF-8"?>
<svg id="Capa_1" data-name="Capa 1" xmlns="http://www.w3.org/2000/svg" viewBox="0 0 1323 758">
  <defs>
    <style>
      .cls-1 {
        fill: #006837;
      }

      .cls-1, .cls-2, .cls-3, .cls-4 {
        stroke-width: 30px;
      }

      .cls-1, .cls-2, .cls-3, .cls-4, .cls-5, .cls-6 {
        stroke-linejoin: round;
      }

      .cls-1, .cls-2, .cls-3, .cls-5 {
        stroke: #000;
      }

      .cls-2 {
        fill: none;
      }

      .cls-3 {
        fill: #fbb03b;
      }

      .cls-4 {
        stroke: #666;
      }

      .cls-4, .cls-6 {
        fill: #666;
      }

      .cls-5 {
        fill: #5edb96;
      }

      .cls-5, .cls-6 {
        stroke-linecap: round;
        stroke-width: 20px;
      }

      .cls-6 {
        stroke: #1a1a1a;
      }
    </style>
  </defs>
  <path class="cls-5" d="M1313,76.55v580.9c0,10.24-8.3,18.55-18.55,18.55h-596.9c-10.24,0-18.55-8.3-18.55-18.55v-61.9c0-10.24-8.3-18.55-18.55-18.55h-162.9c-10.24,0-18.55,8.3-18.55,18.55v61.9c0,10.24-8.3,18.55-18.55,18.55H203.55c-10.24,0-18.55-8.3-18.55-18.55V76.55c0-10.24,8.3-18.55,18.55-18.55h1090.9c10.24,0,18.55,8.3,18.55,18.55Z"/>
  <path class="cls-6" d="M195,74V22.26c0-6.77-5.49-12.26-12.26-12.26H22.26c-6.77,0-12.26,5.49-12.26,12.26v39.47c0,6.77,5.49,12.26,12.26,12.26h104.74"/>
  <polyline class="cls-6" points="127 10 195 10 195 74 195 748 127 748 127 74"/>
  <line class="cls-2" x1="760" y1="574" x2="760" y2="676"/>
  <line class="cls-2" x1="856" y1="574" x2="856" y2="676"/>
  <line class="cls-2" x1="952" y1="574" x2="952" y2="676"/>
  <line class="cls-2" x1="1047" y1="574" x2="1047" y2="676"/>
  <line class="cls-2" x1="1142" y1="574" x2="1142" y2="676"/>
  <line class="cls-2" x1="1232" y1="574" x2="1232" y2="676"/>
  <rect class="cls-1" x="814.75" y="153.75" width="281" height="281"/>
  <rect class="cls-3" x="912.25" y="251.25" width="86" height="86"/>
  <line class="cls-2" x1="874" y1="115" x2="874" y2="154"/>
  <line class="cls-2" x1="955" y1="115" x2="955" y2="154"/>
  <line class="cls-2" x1="1032" y1="115" x2="1032" y2="154"/>
  <line class="cls-2" x1="876" y1="436" x2="876" y2="475"/>
  <line class="cls-2" x1="957" y1="436" x2="957" y2="475"/>
  <line class="cls-2" x1="1034" y1="436" x2="1034" y2="475"/>
  <line class="cls-2" x1="815" y1="216" x2="776" y2="216"/>
  <line class="cls-2" x1="815" y1="297" x2="776" y2="297"/>
  <line class="cls-2" x1="815" y1="374" x2="776" y2="374"/>
  <line class="cls-2" x1="1135" y1="215" x2="1096" y2="215"/>
  <line class="cls-2" x1="1135" y1="296" x2="1096" y2="296"/>
  <line class="cls-2" x1="1135" y1="373" x2="1096" y2="373"/>
  <rect class="cls-4" x="300" y="154" width="197" height="104"/>
  <rect class="cls-4" x="556" y="157" width="141" height="1"/>
  <rect class="cls-4" x="556" y="206" width="141" height="1"/>
  <rect class="cls-4" x="556" y="255" width="141" height="1"/>
  <rect class="cls-4" x="300" y="322" width="197" height="104"/>
</svg>