<?xml version="1.0" encoding="UTF-8"?>
<svg id="Capa_1" data-name="Capa 1" xmlns="http://www.w3.org/2000/svg" viewBox="0 0 1371 1371">
  <defs>
    <style>
      .cls-1 {
        fill: #494949;
      }

      .cls-2 {
        fill: #fffb61;
      }
    </style>
  </defs>
  <circle class="cls-2" cx="685.5" cy="685.5" r="685.5"/>
  <path class="cls-1" d="M849.65,469.62l-172.92,518c-11.62,34.97-16.88,55.61-15.79,61.91,1.19,6.83,5.58,11.78,13.21,14.85,7.6,3.09,16.11,3.8,25.54,2.16,10.86-1.89,23.3-7.56,37.32-17.03,37.83-26.81,74.56-62.31,110.14-106.51l44.93,8c-44.16,54.95-98.86,103.7-164.1,146.26-48.2,31.68-96.07,51.66-143.58,59.91-31.43,5.46-58.06,4.49-79.86-2.9-21.81-7.39-34.13-19.27-36.98-35.67-2.88-16.59,3.09-46.07,17.95-88.41l115.73-330.74c17.27-53.37,24.83-86.28,22.67-98.72-1.7-9.78-9.35-16.69-22.9-20.75-13.58-4.05-31.21-4.19-52.92-.42-17.72,3.08-53.91,11.89-108.6,26.43l-4.58-26.34,414.74-110.04ZM747.31,213.88c33.94-5.9,63.72-4.41,89.41,4.46,25.69,8.87,40.16,22.65,43.41,41.39,3.18,18.29-6.02,36.08-27.57,53.38-21.57,17.32-48.91,28.83-82.02,34.58-33.13,5.76-62.76,4.14-88.87-4.89-26.14-9.01-40.78-22.66-43.95-40.95-3.25-18.73,5.69-36.59,26.88-53.6,21.19-17.01,48.76-28.47,82.7-34.36Z"/>
</svg>