<?xml version="1.0" encoding="UTF-8"?>
<svg id="Capa_1" data-name="Capa 1" xmlns="http://www.w3.org/2000/svg" viewBox="0 0 1882.81 773">
  <defs>
    <style>
      .cls-1 {
        fill: gray;
        opacity: .18;
      }

      .cls-2 {
        fill: #fff;
      }

      .cls-3 {
        stroke-width: 5px;
      }

      .cls-3, .cls-4 {
        stroke: #fff;
      }

      .cls-3, .cls-4, .cls-5 {
        stroke-miterlimit: 10;
      }

      .cls-3, .cls-4, .cls-5, .cls-6 {
        fill: none;
      }

      .cls-7 {
        fill: #666;
      }

      .cls-4 {
        stroke-width: 10px;
      }

      .cls-5 {
        stroke-width: 6px;
      }

      .cls-5, .cls-6 {
        stroke: #333;
      }

      .cls-8 {
        fill: #b3b3b3;
      }

      .cls-9 {
        fill: #a5ed35;
      }

      .cls-6 {
        stroke-linecap: round;
        stroke-linejoin: round;
        stroke-width: 15px;
      }
    </style>
  </defs>
  <rect class="cls-1" x="169.81" y="13" width="1706" height="747"/>
  <rect class="cls-6" x="165.31" y="7.5" width="1710" height="758"/>
  <text/>
  <g>
    <g>
      <path class="cls-8" d="M136.81,91.64v28.67c0,4.84-29.95,8.76-66.9,8.76S3,125.15,3,120.31v-28.67c0,4.84,29.95,8.76,66.9,8.76s66.9-3.92,66.9-8.76Z"/>
      <path class="cls-8" d="M136.81,51.83v28.67c0,2.12-5.73,4.06-15.28,5.57-12.27,1.95-30.84,3.19-51.63,3.19s-39.35-1.24-51.63-3.19c-9.54-1.51-15.28-3.45-15.28-5.57v-28.67c0,4.84,29.95,8.76,66.9,8.76s66.9-3.92,66.9-8.76Z"/>
      <path class="cls-8" d="M136.81,13.26v28.67c0,1.84-4.31,3.54-11.69,4.95-12.06,2.3-32.29,3.81-55.22,3.81s-43.16-1.51-55.22-3.81c-7.37-1.41-11.69-3.11-11.69-4.95V13.26c0,4.84,29.95,8.76,66.9,8.76s66.9-3.92,66.9-8.76Z"/>
      <path class="cls-7" d="M125.12,46.88c7.37,1.41,11.69,3.11,11.69,4.95,0,4.84-29.95,8.76-66.9,8.76S3,56.67,3,51.83c0-1.84,4.31-3.54,11.69-4.95,12.06,2.3,32.29,3.81,55.22,3.81s43.16-1.51,55.22-3.81Z"/>
      <path class="cls-7" d="M121.53,86.07c9.54,1.51,15.28,3.45,15.28,5.57,0,4.84-29.95,8.76-66.9,8.76S3,96.48,3,91.64c0-2.12,5.73-4.06,15.28-5.57,12.27,1.95,30.84,3.19,51.63,3.19s39.35-1.24,51.63-3.19Z"/>
      <path class="cls-8" d="M69.9,4.5c36.95,0,66.9,3.92,66.9,8.76s-29.95,8.76-66.9,8.76S3,18.1,3,13.26,32.95,4.5,69.9,4.5Z"/>
    </g>
    <g>
      <path class="cls-5" d="M14.69,46.88c-7.37-1.41-11.69-3.11-11.69-4.95"/>
      <path class="cls-5" d="M136.81,41.93c0,1.84-4.31,3.54-11.69,4.95"/>
      <path class="cls-5" d="M136.81,13.26c0,4.84-29.95,8.76-66.9,8.76S3,18.1,3,13.26,32.95,4.5,69.9,4.5s66.9,3.92,66.9,8.76Z"/>
      <line class="cls-5" x1="3" y1="41.93" x2="3" y2="13.26"/>
      <line class="cls-5" x1="136.81" y1="41.93" x2="136.81" y2="13.26"/>
      <path class="cls-5" d="M18.28,86.07c-9.54-1.51-15.28-3.45-15.28-5.57"/>
      <path class="cls-5" d="M136.81,80.5c0,2.12-5.73,4.06-15.28,5.57"/>
      <path class="cls-5" d="M136.81,51.83c0,4.84-29.95,8.76-66.9,8.76S3,56.67,3,51.83c0-1.84,4.31-3.54,11.69-4.95,12.06,2.3,32.29,3.81,55.22,3.81s43.16-1.51,55.22-3.81c7.37,1.41,11.69,3.11,11.69,4.95Z"/>
      <line class="cls-5" x1="3" y1="80.5" x2="3" y2="51.83"/>
      <line class="cls-5" x1="136.81" y1="80.5" x2="136.81" y2="51.83"/>
      <path class="cls-5" d="M3,120.31c0,4.84,29.95,8.76,66.9,8.76s66.9-3.92,66.9-8.76"/>
      <path class="cls-5" d="M136.81,91.64c0,4.84-29.95,8.76-66.9,8.76S3,96.48,3,91.64c0-2.12,5.73-4.06,15.28-5.57,12.27,1.95,30.84,3.19,51.63,3.19s39.35-1.24,51.63-3.19c9.54,1.51,15.28,3.45,15.28,5.57Z"/>
      <line class="cls-5" x1="3" y1="120.31" x2="3" y2="91.64"/>
      <line class="cls-5" x1="136.81" y1="120.31" x2="136.81" y2="91.64"/>
    </g>
  </g>
  <ellipse class="cls-9" cx="14.41" cy="33.71" rx="3.12" ry="3.83"/>
  <ellipse class="cls-9" cx="14.41" cy="72.39" rx="3.12" ry="3.83"/>
  <ellipse class="cls-9" cx="14.41" cy="111.07" rx="3.12" ry="3.83"/>
  <g>
    <path class="cls-2" d="M225.14,97.64v-33.6h6.48l15.46,23.18v-23.18h6.48v33.6h-6.48l-15.46-23.14v23.14h-6.48Z"/>
    <path class="cls-2" d="M260.13,97.64v-33.6h22.13v5.23h-15.65v8.78h14.21v5.04h-14.21v9.31h15.65v5.23h-22.13Z"/>
    <path class="cls-2" d="M295.94,97.64v-28.37h-9.79v-5.23h26.06v5.23h-9.79v28.37h-6.48Z"/>
    <path class="cls-2" d="M323.54,97.64l-8.78-33.6h6.91l5.86,26.26,6.86-26.26h7.2l6.67,26.26,5.9-26.26h7.01l-9.07,33.6h-7.73l-6.48-24.48-6.62,24.48h-7.73Z"/>
    <path class="cls-2" d="M379.65,98.22c-3.23,0-6.09-.74-8.57-2.21-2.48-1.47-4.43-3.51-5.86-6.12-1.42-2.61-2.14-5.62-2.14-9.05s.71-6.44,2.14-9.05c1.42-2.61,3.38-4.65,5.86-6.12,2.48-1.47,5.34-2.21,8.57-2.21s6.2.74,8.71,2.21c2.51,1.47,4.46,3.51,5.86,6.12,1.39,2.61,2.09,5.62,2.09,9.05s-.7,6.44-2.09,9.05c-1.39,2.61-3.34,4.65-5.86,6.12-2.51,1.47-5.42,2.21-8.71,2.21ZM379.65,92.41c2.08,0,3.86-.47,5.35-1.42,1.49-.94,2.64-2.28,3.46-4.01.82-1.73,1.22-3.78,1.22-6.14s-.41-4.46-1.22-6.17c-.82-1.71-1.97-3.03-3.46-3.96-1.49-.93-3.27-1.39-5.35-1.39s-3.72.46-5.21,1.39c-1.49.93-2.65,2.25-3.48,3.96-.83,1.71-1.25,3.77-1.25,6.17s.42,4.42,1.25,6.14c.83,1.73,1.99,3.06,3.48,4.01,1.49.94,3.22,1.42,5.21,1.42Z"/>
    <path class="cls-2" d="M401.83,97.64v-33.6h12.58c2.69,0,4.92.46,6.7,1.39,1.78.93,3.1,2.17,3.96,3.72.86,1.55,1.3,3.27,1.3,5.16s-.42,3.46-1.27,5.02c-.85,1.55-2.16,2.8-3.94,3.74-1.78.94-4.06,1.42-6.84,1.42h-6v13.15h-6.48ZM408.31,79.78h5.66c1.98,0,3.44-.48,4.37-1.44.93-.96,1.39-2.22,1.39-3.79s-.46-2.81-1.37-3.72c-.91-.91-2.38-1.37-4.39-1.37h-5.66v10.32ZM419.25,97.64l-6.91-14.78h7.01l7.3,14.78h-7.39Z"/>
    <path class="cls-2" d="M432.12,97.64v-33.6h6.48v13.3l12.14-13.3h8.02l-12.38,13.3,12.72,20.3h-7.87l-9.46-15.26-3.17,3.36v11.9h-6.48Z"/>
    <path class="cls-2" d="M474.74,97.64v-33.6h11.23c3.87,0,7.09.7,9.65,2.09,2.56,1.39,4.46,3.34,5.69,5.86,1.23,2.51,1.85,5.46,1.85,8.86s-.62,6.34-1.85,8.86c-1.23,2.51-3.13,4.46-5.69,5.86-2.56,1.39-5.78,2.09-9.65,2.09h-11.23ZM481.22,92.07h4.42c2.72,0,4.88-.45,6.48-1.34,1.6-.9,2.74-2.18,3.41-3.86.67-1.68,1.01-3.69,1.01-6.02s-.34-4.39-1.01-6.07c-.67-1.68-1.81-2.97-3.41-3.86-1.6-.9-3.76-1.34-6.48-1.34h-4.42v22.51Z"/>
    <path class="cls-2" d="M520.15,98.22c-2.43,0-4.58-.53-6.46-1.58-1.87-1.06-3.33-2.52-4.37-4.39-1.04-1.87-1.56-4.02-1.56-6.46s.52-4.75,1.56-6.67c1.04-1.92,2.49-3.44,4.34-4.56,1.86-1.12,4.02-1.68,6.48-1.68s4.5.53,6.29,1.58c1.79,1.06,3.18,2.47,4.18,4.25.99,1.78,1.49,3.82,1.49,6.12,0,.32,0,.68-.02,1.08-.02.4-.04.81-.07,1.22h-19.58v-3.98h13.15c-.1-1.5-.65-2.72-1.66-3.65-1.01-.93-2.25-1.39-3.72-1.39-1.12,0-2.14.26-3.05.79-.91.53-1.64,1.3-2.18,2.3-.54,1.01-.82,2.28-.82,3.82v1.39c0,1.31.25,2.46.74,3.43s1.19,1.74,2.09,2.28c.9.54,1.94.82,3.12.82s2.2-.25,2.95-.74c.75-.5,1.34-1.16,1.75-1.99h6.58c-.42,1.5-1.16,2.87-2.23,4.1-1.07,1.23-2.37,2.19-3.89,2.88-1.52.69-3.22,1.03-5.11,1.03Z"/>
    <path class="cls-2" d="M547.31,98.22c-2.24,0-4.17-.35-5.78-1.06-1.62-.7-2.89-1.67-3.82-2.9-.93-1.23-1.46-2.65-1.58-4.25h6.48c.13.58.38,1.12.77,1.63.38.51.9.91,1.54,1.2.64.29,1.41.43,2.3.43s1.58-.12,2.14-.36c.56-.24.98-.57,1.25-.98.27-.42.41-.85.41-1.3,0-.67-.2-1.18-.6-1.54-.4-.35-.97-.66-1.7-.91-.74-.26-1.63-.48-2.69-.67-1.15-.22-2.28-.5-3.38-.84-1.1-.34-2.09-.77-2.95-1.3-.86-.53-1.55-1.18-2.06-1.97-.51-.78-.77-1.77-.77-2.95,0-1.41.38-2.69,1.15-3.84s1.9-2.06,3.38-2.74c1.49-.67,3.24-1.01,5.26-1.01,2.94,0,5.26.66,6.96,1.97,1.7,1.31,2.7,3.12,3.02,5.42h-6.1c-.19-.77-.62-1.36-1.27-1.78-.66-.42-1.53-.62-2.62-.62s-1.99.21-2.62.62c-.62.42-.94.94-.94,1.58,0,.45.2.85.6,1.2.4.35.97.66,1.7.91.74.26,1.63.5,2.69.72,1.86.38,3.49.82,4.9,1.32,1.41.5,2.51,1.2,3.31,2.11.8.91,1.2,2.23,1.2,3.96,0,1.54-.42,2.9-1.25,4.1-.83,1.2-2.01,2.14-3.53,2.81-1.52.67-3.32,1.01-5.4,1.01Z"/>
    <path class="cls-2" d="M573.14,97.64c-1.66,0-3.14-.26-4.42-.79-1.28-.53-2.27-1.41-2.98-2.64-.7-1.23-1.06-2.92-1.06-5.06v-10.27h-4.18v-5.42h4.18l.72-6.62h5.76v6.62h6.38v5.42h-6.38v10.37c0,1.09.24,1.84.72,2.26.48.42,1.3.62,2.45.62h3.12v5.52h-4.32Z"/>
    <path class="cls-2" d="M585.95,97.88c-1.22,0-2.19-.36-2.93-1.08-.74-.72-1.1-1.61-1.1-2.66s.37-1.94,1.1-2.66c.74-.72,1.71-1.08,2.93-1.08,1.15,0,2.1.36,2.86,1.08.75.72,1.13,1.61,1.13,2.66s-.38,1.94-1.13,2.66c-.75.72-1.7,1.08-2.86,1.08Z"/>
  </g>
  <g>
    <path class="cls-2" d="M683.88,98.22c-3.17,0-5.94-.71-8.33-2.14s-4.23-3.42-5.54-6c-1.31-2.58-1.97-5.58-1.97-9s.68-6.5,2.04-9.14c1.36-2.64,3.29-4.71,5.81-6.22,2.51-1.5,5.53-2.26,9.05-2.26,3.97,0,7.26.94,9.86,2.83,2.61,1.89,4.3,4.51,5.06,7.87h-7.25c-.48-1.47-1.38-2.63-2.69-3.48-1.31-.85-2.99-1.27-5.04-1.27-2.18,0-4.02.48-5.54,1.44-1.52.96-2.68,2.3-3.48,4.03-.8,1.73-1.2,3.79-1.2,6.19s.39,4.5,1.18,6.19c.78,1.7,1.92,2.98,3.41,3.86,1.49.88,3.24,1.32,5.26,1.32,2.94,0,5.18-.79,6.7-2.38,1.52-1.58,2.42-3.64,2.71-6.17h-8.26v-4.85h14.78v18.58h-5.95l-.53-4.27c-.7,1.06-1.53,1.94-2.47,2.66-.94.72-2.04,1.26-3.29,1.63-1.25.37-2.69.55-4.32.55Z"/>
    <path class="cls-2" d="M704.28,97.64l12.24-33.6h7.34l12.24,33.6h-6.86l-9.07-26.21-9.12,26.21h-6.77ZM709.66,90.01l1.73-5.04h17.09l1.68,5.04h-20.5Z"/>
    <path class="cls-2" d="M744.79,97.64v-28.37h-9.79v-5.23h26.06v5.23h-9.79v28.37h-6.48Z"/>
    <path class="cls-2" d="M765.62,97.64v-33.6h22.13v5.23h-15.65v8.78h14.21v5.04h-14.21v9.31h15.65v5.23h-22.13Z"/>
    <path class="cls-2" d="M800.38,97.64l-8.78-33.6h6.91l5.86,26.26,6.86-26.26h7.2l6.67,26.26,5.9-26.26h7.01l-9.07,33.6h-7.73l-6.48-24.48-6.62,24.48h-7.73Z"/>
    <path class="cls-2" d="M836.91,97.64l12.24-33.6h7.34l12.24,33.6h-6.86l-9.07-26.21-9.12,26.21h-6.77ZM842.28,90.01l1.73-5.04h17.09l1.68,5.04h-20.5Z"/>
    <path class="cls-2" d="M877.85,97.64v-11.81l-11.38-21.79h7.34l7.97,16.66h-1.3l7.87-16.66h7.25l-11.28,21.79v11.81h-6.48Z"/>
  </g>
  <g>
    <path class="cls-2" d="M1026.23,97.64v-33.6h6.48v33.6h-6.48Z"/>
    <path class="cls-2" d="M1039.29,97.64v-33.6h6.48l15.46,23.18v-23.18h6.48v33.6h-6.48l-15.46-23.14v23.14h-6.48Z"/>
    <path class="cls-2" d="M1082.1,97.64v-28.37h-9.79v-5.23h26.06v5.23h-9.79v28.37h-6.48Z"/>
    <path class="cls-2" d="M1102.93,97.64v-33.6h22.13v5.23h-15.65v8.78h14.21v5.04h-14.21v9.31h15.65v5.23h-22.13Z"/>
    <path class="cls-2" d="M1130.92,97.64v-33.6h12.58c2.69,0,4.92.46,6.7,1.39,1.78.93,3.1,2.17,3.96,3.72.86,1.55,1.3,3.27,1.3,5.16s-.42,3.46-1.27,5.02c-.85,1.55-2.16,2.8-3.94,3.74-1.78.94-4.06,1.42-6.84,1.42h-6v13.15h-6.48ZM1137.4,79.78h5.66c1.98,0,3.44-.48,4.37-1.44.93-.96,1.39-2.22,1.39-3.79s-.46-2.81-1.37-3.72c-.91-.91-2.38-1.37-4.39-1.37h-5.66v10.32ZM1148.34,97.64l-6.91-14.78h7.01l7.3,14.78h-7.39Z"/>
    <path class="cls-2" d="M1161.2,97.64v-33.6h21.89v5.23h-15.41v8.98h12.38v5.09h-12.38v14.3h-6.48Z"/>
    <path class="cls-2" d="M1182.04,97.64l12.24-33.6h7.34l12.24,33.6h-6.86l-9.07-26.21-9.12,26.21h-6.77ZM1187.41,90.01l1.73-5.04h17.09l1.68,5.04h-20.5Z"/>
    <path class="cls-2" d="M1231.43,98.22c-3.33,0-6.21-.73-8.64-2.18-2.43-1.46-4.3-3.49-5.59-6.1-1.3-2.61-1.94-5.62-1.94-9.05s.65-6.45,1.94-9.07c1.3-2.62,3.16-4.67,5.59-6.14,2.43-1.47,5.31-2.21,8.64-2.21,4.06,0,7.4,1.01,10.01,3.02,2.61,2.02,4.22,4.86,4.82,8.54h-7.1c-.42-1.79-1.28-3.19-2.59-4.2-1.31-1.01-3.04-1.51-5.18-1.51-2.02,0-3.73.47-5.14,1.42-1.41.94-2.49,2.27-3.24,3.98-.75,1.71-1.13,3.77-1.13,6.17s.38,4.42,1.13,6.14c.75,1.73,1.83,3.06,3.24,3.98,1.41.93,3.12,1.39,5.14,1.39,2.14,0,3.87-.47,5.18-1.42,1.31-.94,2.18-2.26,2.59-3.96h7.1c-.61,3.49-2.22,6.22-4.82,8.21-2.61,1.99-5.94,2.98-10.01,2.98Z"/>
    <path class="cls-2" d="M1251.78,97.64v-33.6h22.13v5.23h-15.65v8.78h14.21v5.04h-14.21v9.31h15.65v5.23h-22.13Z"/>
  </g>
  <g>
    <path class="cls-2" d="M1407.06,97.64v-33.6h6.48v33.6h-6.48Z"/>
    <path class="cls-2" d="M1420.12,97.64v-33.6h6.48l15.46,23.18v-23.18h6.48v33.6h-6.48l-15.46-23.14v23.14h-6.48Z"/>
    <path class="cls-2" d="M1462.93,97.64v-28.37h-9.79v-5.23h26.06v5.23h-9.79v28.37h-6.48Z"/>
    <path class="cls-2" d="M1483.77,97.64v-33.6h22.13v5.23h-15.65v8.78h14.21v5.04h-14.21v9.31h15.65v5.23h-22.13Z"/>
    <path class="cls-2" d="M1511.75,97.64v-33.6h12.58c2.69,0,4.92.46,6.7,1.39,1.78.93,3.1,2.17,3.96,3.72.86,1.55,1.3,3.27,1.3,5.16s-.42,3.46-1.27,5.02c-.85,1.55-2.16,2.8-3.94,3.74-1.78.94-4.06,1.42-6.84,1.42h-6v13.15h-6.48ZM1518.23,79.78h5.66c1.98,0,3.44-.48,4.37-1.44.93-.96,1.39-2.22,1.39-3.79s-.46-2.81-1.37-3.72-2.38-1.37-4.39-1.37h-5.66v10.32ZM1529.17,97.64l-6.91-14.78h7.01l7.3,14.78h-7.39Z"/>
    <path class="cls-2" d="M1542.04,97.64v-33.6h21.89v5.23h-15.41v8.98h12.38v5.09h-12.38v14.3h-6.48Z"/>
    <path class="cls-2" d="M1562.87,97.64l12.24-33.6h7.34l12.24,33.6h-6.86l-9.07-26.21-9.12,26.21h-6.77ZM1568.25,90.01l1.73-5.04h17.09l1.68,5.04h-20.5Z"/>
    <path class="cls-2" d="M1612.26,98.22c-3.33,0-6.21-.73-8.64-2.18-2.43-1.46-4.3-3.49-5.59-6.1-1.3-2.61-1.94-5.62-1.94-9.05s.65-6.45,1.94-9.07c1.3-2.62,3.16-4.67,5.59-6.14,2.43-1.47,5.31-2.21,8.64-2.21,4.06,0,7.4,1.01,10.01,3.02,2.61,2.02,4.22,4.86,4.82,8.54h-7.1c-.42-1.79-1.28-3.19-2.59-4.2-1.31-1.01-3.04-1.51-5.18-1.51-2.02,0-3.73.47-5.14,1.42s-2.49,2.27-3.24,3.98c-.75,1.71-1.13,3.77-1.13,6.17s.38,4.42,1.13,6.14,1.83,3.06,3.24,3.98c1.41.93,3.12,1.39,5.14,1.39,2.14,0,3.87-.47,5.18-1.42,1.31-.94,2.18-2.26,2.59-3.96h7.1c-.61,3.49-2.22,6.22-4.82,8.21-2.61,1.99-5.95,2.98-10.01,2.98Z"/>
    <path class="cls-2" d="M1632.61,97.64v-33.6h22.13v5.23h-15.65v8.78h14.21v5.04h-14.21v9.31h15.65v5.23h-22.13Z"/>
    <path class="cls-2" d="M1671.88,97.64v-33.6h7.73l10.22,20.93,10.22-20.93h7.73v33.6h-6.48v-22.61l-8.93,17.9h-5.09l-8.93-17.86v22.56h-6.48Z"/>
    <path class="cls-2" d="M1712.2,97.64l12.24-33.6h7.34l12.24,33.6h-6.86l-9.07-26.21-9.12,26.21h-6.77ZM1717.57,90.01l1.73-5.04h17.09l1.68,5.04h-20.5Z"/>
    <path class="cls-2" d="M1761.59,98.22c-3.33,0-6.21-.73-8.64-2.18-2.43-1.46-4.3-3.49-5.59-6.1-1.3-2.61-1.94-5.62-1.94-9.05s.65-6.45,1.94-9.07c1.3-2.62,3.16-4.67,5.59-6.14,2.43-1.47,5.31-2.21,8.64-2.21,4.06,0,7.4,1.01,10.01,3.02,2.61,2.02,4.22,4.86,4.82,8.54h-7.1c-.42-1.79-1.28-3.19-2.59-4.2-1.31-1.01-3.04-1.51-5.18-1.51-2.02,0-3.73.47-5.14,1.42s-2.49,2.27-3.24,3.98c-.75,1.71-1.13,3.77-1.13,6.17s.38,4.42,1.13,6.14,1.83,3.06,3.24,3.98c1.41.93,3.12,1.39,5.14,1.39,2.14,0,3.87-.47,5.18-1.42,1.31-.94,2.18-2.26,2.59-3.96h7.1c-.61,3.49-2.22,6.22-4.82,8.21-2.61,1.99-5.95,2.98-10.01,2.98Z"/>
  </g>
  <line class="cls-4" x1="227.81" y1="128" x2="1813.81" y2="128"/>
  <g>
    <path class="cls-2" d="M492.14,600.14v-33.6h11.23c3.87,0,7.09.7,9.65,2.09,2.56,1.39,4.46,3.34,5.69,5.86,1.23,2.51,1.85,5.46,1.85,8.86s-.62,6.34-1.85,8.86c-1.23,2.51-3.13,4.46-5.69,5.86-2.56,1.39-5.78,2.09-9.65,2.09h-11.23ZM498.62,594.57h4.42c2.72,0,4.88-.45,6.48-1.34,1.6-.9,2.74-2.18,3.41-3.86.67-1.68,1.01-3.69,1.01-6.02s-.34-4.39-1.01-6.07c-.67-1.68-1.81-2.97-3.41-3.86-1.6-.9-3.76-1.34-6.48-1.34h-4.42v22.51Z"/>
    <path class="cls-2" d="M537.55,600.72c-2.43,0-4.58-.53-6.46-1.58s-3.33-2.52-4.37-4.39c-1.04-1.87-1.56-4.02-1.56-6.46s.52-4.75,1.56-6.67c1.04-1.92,2.49-3.44,4.34-4.56,1.86-1.12,4.02-1.68,6.48-1.68s4.5.53,6.29,1.58c1.79,1.06,3.18,2.47,4.18,4.25.99,1.78,1.49,3.82,1.49,6.12,0,.32,0,.68-.02,1.08-.02.4-.04.81-.07,1.22h-19.58v-3.98h13.15c-.1-1.5-.65-2.72-1.66-3.65-1.01-.93-2.25-1.39-3.72-1.39-1.12,0-2.14.26-3.05.79-.91.53-1.64,1.3-2.18,2.3-.54,1.01-.82,2.28-.82,3.82v1.39c0,1.31.25,2.46.74,3.43s1.19,1.74,2.09,2.28c.9.54,1.94.82,3.12.82s2.2-.25,2.95-.74c.75-.5,1.34-1.16,1.75-1.99h6.58c-.42,1.5-1.16,2.87-2.23,4.1-1.07,1.23-2.37,2.19-3.89,2.88-1.52.69-3.22,1.03-5.11,1.03Z"/>
    <path class="cls-2" d="M564.72,600.72c-2.24,0-4.17-.35-5.78-1.06-1.62-.7-2.89-1.67-3.82-2.9-.93-1.23-1.46-2.65-1.58-4.25h6.48c.13.58.38,1.12.77,1.63.38.51.9.91,1.54,1.2.64.29,1.41.43,2.3.43s1.58-.12,2.14-.36c.56-.24.98-.57,1.25-.98.27-.42.41-.85.41-1.3,0-.67-.2-1.18-.6-1.54-.4-.35-.97-.66-1.7-.91-.74-.26-1.63-.48-2.69-.67-1.15-.22-2.28-.5-3.38-.84s-2.09-.77-2.95-1.3c-.86-.53-1.55-1.18-2.06-1.97-.51-.78-.77-1.77-.77-2.95,0-1.41.38-2.69,1.15-3.84.77-1.15,1.9-2.06,3.38-2.74,1.49-.67,3.24-1.01,5.26-1.01,2.94,0,5.26.66,6.96,1.97,1.7,1.31,2.7,3.12,3.02,5.42h-6.1c-.19-.77-.62-1.36-1.27-1.78-.66-.42-1.53-.62-2.62-.62s-1.99.21-2.62.62-.94.94-.94,1.58c0,.45.2.85.6,1.2.4.35.97.66,1.7.91.74.26,1.63.5,2.69.72,1.86.38,3.49.82,4.9,1.32,1.41.5,2.51,1.2,3.31,2.11.8.91,1.2,2.23,1.2,3.96,0,1.54-.42,2.9-1.25,4.1-.83,1.2-2.01,2.14-3.53,2.81-1.52.67-3.32,1.01-5.4,1.01Z"/>
    <path class="cls-2" d="M590.54,600.14c-1.66,0-3.14-.26-4.42-.79-1.28-.53-2.27-1.41-2.98-2.64-.7-1.23-1.06-2.92-1.06-5.06v-10.27h-4.18v-5.42h4.18l.72-6.62h5.76v6.62h6.38v5.42h-6.38v10.37c0,1.09.24,1.84.72,2.26s1.3.62,2.45.62h3.12v5.52h-4.32Z"/>
    <path class="cls-2" d="M603.36,600.38c-1.22,0-2.19-.36-2.93-1.08-.74-.72-1.1-1.61-1.1-2.66s.37-1.94,1.1-2.66c.74-.72,1.71-1.08,2.93-1.08,1.15,0,2.1.36,2.86,1.08.75.72,1.13,1.61,1.13,2.66s-.38,1.94-1.13,2.66c-.75.72-1.7,1.08-2.86,1.08Z"/>
    <path class="cls-2" d="M623.95,600.14v-33.6h6.48v33.6h-6.48Z"/>
    <path class="cls-2" d="M637,600.14v-33.6h12.53c2.75,0,5.02.46,6.82,1.39,1.79.93,3.13,2.18,4.01,3.74.88,1.57,1.32,3.36,1.32,5.38,0,1.82-.43,3.53-1.3,5.11s-2.18,2.87-3.94,3.86c-1.76.99-4.06,1.49-6.91,1.49h-6.05v12.62h-6.48ZM643.48,582.28h5.66c2.11,0,3.62-.48,4.54-1.44.91-.96,1.37-2.24,1.37-3.84s-.46-2.9-1.37-3.82c-.91-.91-2.42-1.37-4.54-1.37h-5.66v10.46Z"/>
  </g>
  <g>
    <path class="cls-2" d="M1250.15,600.14v-33.6h11.23c3.87,0,7.09.7,9.65,2.09,2.56,1.39,4.46,3.34,5.69,5.86,1.23,2.51,1.85,5.46,1.85,8.86s-.62,6.34-1.85,8.86c-1.23,2.51-3.13,4.46-5.69,5.86s-5.78,2.09-9.65,2.09h-11.23ZM1256.63,594.57h4.42c2.72,0,4.88-.45,6.48-1.34,1.6-.9,2.74-2.18,3.41-3.86s1.01-3.69,1.01-6.02-.34-4.39-1.01-6.07-1.81-2.97-3.41-3.86c-1.6-.9-3.76-1.34-6.48-1.34h-4.42v22.51Z"/>
    <path class="cls-2" d="M1295.55,600.72c-2.43,0-4.58-.53-6.46-1.58-1.87-1.06-3.33-2.52-4.37-4.39-1.04-1.87-1.56-4.02-1.56-6.46s.52-4.75,1.56-6.67c1.04-1.92,2.49-3.44,4.34-4.56,1.86-1.12,4.02-1.68,6.48-1.68s4.5.53,6.29,1.58c1.79,1.06,3.18,2.47,4.18,4.25.99,1.78,1.49,3.82,1.49,6.12,0,.32,0,.68-.02,1.08-.02.4-.04.81-.07,1.22h-19.58v-3.98h13.15c-.1-1.5-.65-2.72-1.66-3.65s-2.25-1.39-3.72-1.39c-1.12,0-2.14.26-3.05.79-.91.53-1.64,1.3-2.18,2.3s-.82,2.28-.82,3.82v1.39c0,1.31.25,2.46.74,3.43s1.19,1.74,2.09,2.28c.9.54,1.94.82,3.12.82s2.2-.25,2.95-.74,1.34-1.16,1.75-1.99h6.58c-.42,1.5-1.16,2.87-2.23,4.1-1.07,1.23-2.37,2.19-3.89,2.88s-3.22,1.03-5.11,1.03Z"/>
    <path class="cls-2" d="M1322.72,600.72c-2.24,0-4.17-.35-5.78-1.06-1.62-.7-2.89-1.67-3.82-2.9-.93-1.23-1.46-2.65-1.58-4.25h6.48c.13.58.38,1.12.77,1.63.38.51.9.91,1.54,1.2.64.29,1.41.43,2.3.43s1.58-.12,2.14-.36c.56-.24.98-.57,1.25-.98.27-.42.41-.85.41-1.3,0-.67-.2-1.18-.6-1.54-.4-.35-.97-.66-1.7-.91-.74-.26-1.63-.48-2.69-.67-1.15-.22-2.28-.5-3.38-.84-1.1-.34-2.09-.77-2.95-1.3-.86-.53-1.55-1.18-2.06-1.97s-.77-1.77-.77-2.95c0-1.41.38-2.69,1.15-3.84.77-1.15,1.9-2.06,3.38-2.74,1.49-.67,3.24-1.01,5.26-1.01,2.94,0,5.26.66,6.96,1.97,1.7,1.31,2.7,3.12,3.02,5.42h-6.1c-.19-.77-.62-1.36-1.27-1.78-.66-.42-1.53-.62-2.62-.62s-1.99.21-2.62.62-.94.94-.94,1.58c0,.45.2.85.6,1.2.4.35.97.66,1.7.91.74.26,1.63.5,2.69.72,1.86.38,3.49.82,4.9,1.32,1.41.5,2.51,1.2,3.31,2.11.8.91,1.2,2.23,1.2,3.96,0,1.54-.42,2.9-1.25,4.1s-2.01,2.14-3.53,2.81c-1.52.67-3.32,1.01-5.4,1.01Z"/>
    <path class="cls-2" d="M1348.54,600.14c-1.66,0-3.14-.26-4.42-.79s-2.27-1.41-2.98-2.64c-.7-1.23-1.06-2.92-1.06-5.06v-10.27h-4.18v-5.42h4.18l.72-6.62h5.76v6.62h6.38v5.42h-6.38v10.37c0,1.09.24,1.84.72,2.26.48.42,1.3.62,2.45.62h3.12v5.52h-4.32Z"/>
    <path class="cls-2" d="M1361.36,600.38c-1.22,0-2.19-.36-2.93-1.08-.74-.72-1.1-1.61-1.1-2.66s.37-1.94,1.1-2.66c.74-.72,1.71-1.08,2.93-1.08,1.15,0,2.1.36,2.86,1.08.75.72,1.13,1.61,1.13,2.66s-.38,1.94-1.13,2.66c-.75.72-1.7,1.08-2.86,1.08Z"/>
    <path class="cls-2" d="M1381.95,600.14v-33.6h7.73l10.22,20.93,10.22-20.93h7.73v33.6h-6.48v-22.61l-8.93,17.9h-5.09l-8.93-17.86v22.56h-6.48Z"/>
    <path class="cls-2" d="M1422.27,600.14l12.24-33.6h7.34l12.24,33.6h-6.86l-9.07-26.21-9.12,26.21h-6.77ZM1427.65,592.51l1.73-5.04h17.09l1.68,5.04h-20.5Z"/>
    <path class="cls-2" d="M1471.66,600.72c-3.33,0-6.21-.73-8.64-2.18-2.43-1.46-4.3-3.49-5.59-6.1-1.3-2.61-1.94-5.62-1.94-9.05s.65-6.45,1.94-9.07c1.3-2.62,3.16-4.67,5.59-6.14,2.43-1.47,5.31-2.21,8.64-2.21,4.06,0,7.4,1.01,10.01,3.02,2.61,2.02,4.22,4.86,4.82,8.54h-7.1c-.42-1.79-1.28-3.19-2.59-4.2-1.31-1.01-3.04-1.51-5.18-1.51-2.02,0-3.73.47-5.14,1.42-1.41.94-2.49,2.27-3.24,3.98-.75,1.71-1.13,3.77-1.13,6.17s.38,4.42,1.13,6.14c.75,1.73,1.83,3.06,3.24,3.98,1.41.93,3.12,1.39,5.14,1.39,2.14,0,3.87-.47,5.18-1.42,1.31-.94,2.18-2.26,2.59-3.96h7.1c-.61,3.49-2.22,6.22-4.82,8.21-2.61,1.99-5.94,2.98-10.01,2.98Z"/>
  </g>
  <line class="cls-4" x1="227.81" y1="627" x2="1813.81" y2="627"/>
  <line class="cls-3" x1="224.81" y1="263.5" x2="1810.81" y2="263.5"/>
  <line class="cls-3" x1="224.81" y1="414.5" x2="1810.81" y2="414.5"/>
  <g>
    <path class="cls-2" d="M85.67,771.35H29.67v-12h46.72v-24.16h9.28v36.16Z"/>
    <path class="cls-2" d="M86.63,708.47c0,3.89-.91,7.4-2.72,10.52s-4.31,5.57-7.48,7.36c-3.17,1.79-6.79,2.68-10.84,2.68s-7.84-.89-11.04-2.68c-3.2-1.79-5.69-4.24-7.48-7.36-1.79-3.12-2.68-6.63-2.68-10.52s.89-7.45,2.68-10.52c1.79-3.07,4.27-5.51,7.44-7.32,3.17-1.81,6.84-2.72,11-2.72s7.75.91,10.92,2.72c3.17,1.81,5.67,4.25,7.48,7.32,1.81,3.07,2.72,6.57,2.72,10.52ZM76.23,708.47c0-1.55-.4-2.95-1.2-4.2-.8-1.25-2-2.25-3.6-3-1.6-.75-3.57-1.12-5.92-1.12s-4.32.37-5.92,1.12-2.8,1.75-3.6,3c-.8,1.25-1.2,2.65-1.2,4.2s.4,3.03,1.2,4.28c.8,1.25,2,2.24,3.6,2.96,1.6.72,3.57,1.08,5.92,1.08s4.32-.36,5.92-1.08c1.6-.72,2.8-1.71,3.6-2.96.8-1.25,1.2-2.68,1.2-4.28Z"/>
    <path class="cls-2" d="M86.63,658.79c0,4.16-.91,7.83-2.72,11-1.81,3.17-4.29,5.64-7.44,7.4-3.15,1.76-6.72,2.64-10.72,2.64s-7.85-.88-11.08-2.64c-3.23-1.76-5.75-4.23-7.56-7.4-1.81-3.17-2.72-6.84-2.72-11,0-5.28,1.39-9.72,4.16-13.32,2.77-3.6,6.61-5.88,11.52-6.84v12.8c-1.71.37-3.04,1.23-4,2.56s-1.44,2.96-1.44,4.88c0,1.81.44,3.37,1.32,4.68.88,1.31,2.13,2.31,3.76,3,1.63.69,3.56,1.04,5.8,1.04,1.65,0,3.15-.2,4.48-.6,1.33-.4,2.47-.97,3.4-1.72.93-.75,1.67-1.67,2.2-2.76.53-1.09.8-2.31.8-3.64,0-1.23-.21-2.36-.64-3.4-.43-1.04-1.05-1.91-1.88-2.6-.83-.69-1.8-1.17-2.92-1.44v-12.8c4.8.96,8.61,3.25,11.44,6.88,2.83,3.63,4.24,8.05,4.24,13.28Z"/>
    <path class="cls-2" d="M86.63,615.68c0,3.31-.55,6.07-1.64,8.28-1.09,2.21-2.55,3.84-4.36,4.88-1.81,1.04-3.84,1.56-6.08,1.56s-4.47-.6-6.36-1.8c-1.89-1.2-3.37-3.07-4.44-5.6-1.07-2.53-1.6-5.8-1.6-9.8v-9.68c-1.81,0-3.32.23-4.52.68-1.2.45-2.09,1.19-2.68,2.2-.59,1.01-.88,2.4-.88,4.16,0,1.87.39,3.44,1.16,4.72.77,1.28,1.96,2.08,3.56,2.4v11.52c-2.88-.27-5.39-1.2-7.52-2.8-2.13-1.6-3.81-3.77-5.04-6.52-1.23-2.75-1.84-5.88-1.84-9.4,0-3.84.61-7.17,1.84-10,1.23-2.83,3.05-5.03,5.48-6.6,2.43-1.57,5.43-2.36,9-2.36h24.96v10l-5.84,1.44c1.01.59,1.93,1.28,2.76,2.08.83.8,1.55,1.73,2.16,2.8.61,1.07,1.08,2.24,1.4,3.52.32,1.28.48,2.72.48,4.32ZM77.51,612.64c0-1.23-.21-2.32-.64-3.28-.43-.96-1.01-1.8-1.76-2.52-.75-.72-1.61-1.31-2.6-1.76-.99-.45-2.09-.79-3.32-1v7.76c0,1.33.17,2.45.52,3.36.35.91.85,1.56,1.52,1.96.67.4,1.4.6,2.2.6.91,0,1.65-.23,2.24-.68.59-.45,1.04-1.07,1.36-1.84.32-.77.48-1.64.48-2.6Z"/>
    <path class="cls-2" d="M85.67,581.44H28.07v-12h57.6v12Z"/>
    <path class="cls-2" d="M85.67,540.88H29.67v-12h46.72v-24.16h9.28v36.16Z"/>
    <path class="cls-2" d="M85.67,497.04h-8.88c-2.67-3.25-5.31-6.47-7.92-9.64-2.61-3.17-5.21-6.03-7.8-8.56-2.59-2.53-5.12-4.56-7.6-6.08s-4.87-2.28-7.16-2.28c-1.33,0-2.57.27-3.72.8-1.15.53-2.05,1.32-2.72,2.36-.67,1.04-1,2.39-1,4.04s.37,3.15,1.12,4.32c.75,1.17,1.77,2.04,3.08,2.6,1.31.56,2.81.84,4.52.84v11.6c-4.27-.11-7.81-1.04-10.64-2.8-2.83-1.76-4.91-4.12-6.24-7.08-1.33-2.96-2-6.23-2-9.8,0-4.16.76-7.63,2.28-10.4,1.52-2.77,3.55-4.88,6.08-6.32,2.53-1.44,5.37-2.16,8.52-2.16,2.4,0,4.73.44,7,1.32,2.27.88,4.45,2.07,6.56,3.56,2.11,1.49,4.13,3.19,6.08,5.08,1.95,1.89,3.81,3.88,5.6,5.96,1.79,2.08,3.48,4.13,5.08,6.16v-23.2h9.76v39.68Z"/>
    <path class="cls-2" d="M86.63,405.68c0,5.6-1.21,10.44-3.64,14.52-2.43,4.08-5.81,7.21-10.16,9.4-4.35,2.19-9.35,3.28-15,3.28s-10.81-1.09-15.16-3.28c-4.35-2.19-7.76-5.32-10.24-9.4-2.48-4.08-3.72-8.92-3.72-14.52,0-6.88,1.73-12.53,5.2-16.96,3.47-4.43,8.35-7.15,14.64-8.16v13.12c-2.83.64-5.03,2-6.6,4.08-1.57,2.08-2.36,4.77-2.36,8.08s.75,5.83,2.24,8.04c1.49,2.21,3.59,3.89,6.28,5.04,2.69,1.15,5.93,1.72,9.72,1.72s6.87-.57,9.56-1.72c2.69-1.15,4.77-2.83,6.24-5.04,1.47-2.21,2.2-4.89,2.2-8.04,0-3.31-.71-6-2.12-8.08-1.41-2.08-3.45-3.44-6.12-4.08v-13.12c5.92,1.01,10.57,3.73,13.96,8.16,3.39,4.43,5.08,10.08,5.08,16.96Z"/>
    <path class="cls-2" d="M86.63,358.08c0,3.31-.55,6.07-1.64,8.28-1.09,2.21-2.55,3.84-4.36,4.88-1.81,1.04-3.84,1.56-6.08,1.56s-4.47-.6-6.36-1.8c-1.89-1.2-3.37-3.07-4.44-5.6-1.07-2.53-1.6-5.8-1.6-9.8v-9.68c-1.81,0-3.32.23-4.52.68-1.2.45-2.09,1.19-2.68,2.2-.59,1.01-.88,2.4-.88,4.16,0,1.87.39,3.44,1.16,4.72.77,1.28,1.96,2.08,3.56,2.4v11.52c-2.88-.27-5.39-1.2-7.52-2.8-2.13-1.6-3.81-3.77-5.04-6.52-1.23-2.75-1.84-5.88-1.84-9.4,0-3.84.61-7.17,1.84-10,1.23-2.83,3.05-5.03,5.48-6.6,2.43-1.57,5.43-2.36,9-2.36h24.96v10l-5.84,1.44c1.01.59,1.93,1.28,2.76,2.08.83.8,1.55,1.73,2.16,2.8.61,1.07,1.08,2.24,1.4,3.52.32,1.28.48,2.72.48,4.32ZM77.51,355.04c0-1.23-.21-2.32-.64-3.28-.43-.96-1.01-1.8-1.76-2.52-.75-.72-1.61-1.31-2.6-1.76-.99-.45-2.09-.79-3.32-1v7.76c0,1.33.17,2.45.52,3.36.35.91.85,1.56,1.52,1.96.67.4,1.4.6,2.2.6.91,0,1.65-.23,2.24-.68.59-.45,1.04-1.07,1.36-1.84.32-.77.48-1.64.48-2.6Z"/>
    <path class="cls-2" d="M86.63,304c0,4.16-.91,7.83-2.72,11-1.81,3.17-4.29,5.64-7.44,7.4-3.15,1.76-6.72,2.64-10.72,2.64s-7.85-.88-11.08-2.64c-3.23-1.76-5.75-4.23-7.56-7.4-1.81-3.17-2.72-6.84-2.72-11,0-5.28,1.39-9.72,4.16-13.32,2.77-3.6,6.61-5.88,11.52-6.84v12.8c-1.71.37-3.04,1.23-4,2.56-.96,1.33-1.44,2.96-1.44,4.88,0,1.81.44,3.37,1.32,4.68.88,1.31,2.13,2.31,3.76,3,1.63.69,3.56,1.04,5.8,1.04,1.65,0,3.15-.2,4.48-.6,1.33-.4,2.47-.97,3.4-1.72.93-.75,1.67-1.67,2.2-2.76.53-1.09.8-2.31.8-3.64,0-1.23-.21-2.36-.64-3.4-.43-1.04-1.05-1.91-1.88-2.6-.83-.69-1.8-1.17-2.92-1.44v-12.8c4.8.96,8.61,3.25,11.44,6.88,2.83,3.63,4.24,8.05,4.24,13.28Z"/>
    <path class="cls-2" d="M85.67,274.48H28.07v-12h22.96c-1.92-1.28-3.51-3.01-4.76-5.2-1.25-2.19-1.88-4.75-1.88-7.68,0-3.41.72-6.27,2.16-8.56,1.44-2.29,3.52-4.01,6.24-5.16,2.72-1.15,6.05-1.72,10-1.72h22.88v11.92h-21.84c-2.99,0-5.29.61-6.92,1.84-1.63,1.23-2.44,3.23-2.44,6,0,1.65.41,3.13,1.24,4.44.83,1.31,1.96,2.32,3.4,3.04,1.44.72,3.17,1.08,5.2,1.08h21.36v12Z"/>
    <path class="cls-2" d="M86.63,204.4c0,4.16-.87,7.8-2.6,10.92s-4.16,5.56-7.28,7.32c-3.12,1.76-6.71,2.64-10.76,2.64s-7.87-.85-11.12-2.56c-3.25-1.71-5.81-4.15-7.68-7.32-1.87-3.17-2.8-6.84-2.8-11s.87-7.6,2.6-10.64c1.73-3.04,4.12-5.41,7.16-7.12,3.04-1.71,6.53-2.56,10.48-2.56.53,0,1.13.01,1.8.04.67.03,1.35.07,2.04.12v32.56h-7.04v-20.64c-2.19.16-3.97.99-5.36,2.48-1.39,1.49-2.08,3.39-2.08,5.68,0,1.76.4,3.33,1.2,4.72.8,1.39,2.01,2.47,3.64,3.24,1.63.77,3.67,1.16,6.12,1.16h2.32c1.87,0,3.53-.35,5-1.04,1.47-.69,2.6-1.73,3.4-3.12.8-1.39,1.2-2.96,1.2-4.72s-.36-3.29-1.08-4.44c-.72-1.15-1.61-2.04-2.68-2.68v-12.24c2.45.75,4.72,2.03,6.8,3.84,2.08,1.81,3.72,4.01,4.92,6.6,1.2,2.59,1.8,5.51,1.8,8.76Z"/>
  </g>
  <text/>
</svg>