<?xml version="1.0" encoding="UTF-8"?>
<svg id="Capa_1" data-name="Capa 1" xmlns="http://www.w3.org/2000/svg" viewBox="0 0 1529.5 989">
  <defs>
    <style>
      .cls-1 {
        fill: gray;
        opacity: .18;
      }

      .cls-2 {
        fill: #fff;
      }

      .cls-3 {
        stroke-miterlimit: 10;
      }

      .cls-3, .cls-4 {
        fill: none;
        stroke: #333;
        stroke-width: 15px;
      }

      .cls-5 {
        fill: #666;
      }

      .cls-6 {
        fill: #b3b3b3;
      }

      .cls-7 {
        fill: #a5ed35;
      }

      .cls-4 {
        stroke-linecap: round;
        stroke-linejoin: round;
      }
    </style>
  </defs>
  <rect class="cls-1" x="66" y="306.5" width="1456" height="675"/>
  <rect class="cls-4" x="66" y="306.5" width="1456" height="675"/>
  <g>
    <path class="cls-2" d="M554.96,137.82V53.82h18v70.08h36.24v13.92h-54.24Z"/>
    <path class="cls-2" d="M649.28,139.26c-5.84,0-11.1-1.36-15.78-4.08-4.68-2.72-8.36-6.46-11.04-11.22-2.68-4.76-4.02-10.18-4.02-16.26s1.34-11.76,4.02-16.56c2.68-4.8,6.36-8.54,11.04-11.22,4.68-2.68,9.94-4.02,15.78-4.02s11.18,1.34,15.78,4.02c4.6,2.68,8.26,6.4,10.98,11.16,2.72,4.76,4.08,10.26,4.08,16.5s-1.36,11.62-4.08,16.38c-2.72,4.76-6.38,8.5-10.98,11.22-4.6,2.72-9.86,4.08-15.78,4.08ZM649.28,123.66c2.32,0,4.42-.6,6.3-1.8,1.88-1.2,3.38-3,4.5-5.4,1.12-2.4,1.68-5.36,1.68-8.88s-.56-6.48-1.68-8.88c-1.12-2.4-2.62-4.2-4.5-5.4-1.88-1.2-3.98-1.8-6.3-1.8s-4.54.6-6.42,1.8c-1.88,1.2-3.36,3-4.44,5.4s-1.62,5.36-1.62,8.88.54,6.48,1.62,8.88,2.56,4.2,4.44,5.4c1.88,1.2,4.02,1.8,6.42,1.8Z"/>
    <path class="cls-2" d="M723.79,139.26c-6.24,0-11.74-1.36-16.5-4.08-4.76-2.72-8.46-6.44-11.1-11.16-2.64-4.72-3.96-10.08-3.96-16.08s1.32-11.78,3.96-16.62c2.64-4.84,6.34-8.62,11.1-11.34,4.76-2.72,10.26-4.08,16.5-4.08,7.92,0,14.58,2.08,19.98,6.24,5.4,4.16,8.82,9.92,10.26,17.28h-19.2c-.56-2.56-1.84-4.56-3.84-6-2-1.44-4.44-2.16-7.32-2.16-2.72,0-5.06.66-7.02,1.98-1.96,1.32-3.46,3.2-4.5,5.64-1.04,2.44-1.56,5.34-1.56,8.7,0,2.48.3,4.72.9,6.72.6,2,1.46,3.7,2.58,5.1,1.12,1.4,2.5,2.5,4.14,3.3,1.64.8,3.46,1.2,5.46,1.2,1.84,0,3.54-.32,5.1-.96,1.56-.64,2.86-1.58,3.9-2.82,1.04-1.24,1.76-2.7,2.16-4.38h19.2c-1.44,7.2-4.88,12.92-10.32,17.16-5.44,4.24-12.08,6.36-19.92,6.36Z"/>
    <path class="cls-2" d="M788.47,139.26c-4.96,0-9.1-.82-12.42-2.46-3.32-1.64-5.76-3.82-7.32-6.54-1.56-2.72-2.34-5.76-2.34-9.12s.9-6.7,2.7-9.54c1.8-2.84,4.6-5.06,8.4-6.66,3.8-1.6,8.7-2.4,14.7-2.4h14.52c0-2.72-.34-4.98-1.02-6.78-.68-1.8-1.78-3.14-3.3-4.02-1.52-.88-3.6-1.32-6.24-1.32-2.8,0-5.16.58-7.08,1.74-1.92,1.16-3.12,2.94-3.6,5.34h-17.28c.4-4.32,1.8-8.08,4.2-11.28,2.4-3.2,5.66-5.72,9.78-7.56,4.12-1.84,8.82-2.76,14.1-2.76,5.76,0,10.76.92,15,2.76,4.24,1.84,7.54,4.58,9.9,8.22,2.36,3.64,3.54,8.14,3.54,13.5v37.44h-15l-2.16-8.76c-.88,1.52-1.92,2.9-3.12,4.14-1.2,1.24-2.6,2.32-4.2,3.24-1.6.92-3.36,1.62-5.28,2.1-1.92.48-4.08.72-6.48.72ZM793.03,125.58c1.84,0,3.48-.32,4.92-.96,1.44-.64,2.7-1.52,3.78-2.64,1.08-1.12,1.96-2.42,2.64-3.9.68-1.48,1.18-3.14,1.5-4.98h-11.64c-2,0-3.68.26-5.04.78-1.36.52-2.34,1.28-2.94,2.28-.6,1-.9,2.1-.9,3.3,0,1.36.34,2.48,1.02,3.36.68.88,1.6,1.56,2.76,2.04,1.16.48,2.46.72,3.9.72Z"/>
    <path class="cls-2" d="M839.83,137.82V51.42h18v86.4h-18Z"/>
    <path class="cls-2" d="M900.67,137.82V53.82h18v70.08h36.24v13.92h-54.24Z"/>
    <path class="cls-2" d="M1006.39,137.82v-14.4h-40.92v-14.4l38.64-55.2h20.16v54h10.56v15.6h-10.56v14.4h-17.88ZM984.55,107.82h23.04v-34.2l-23.04,34.2Z"/>
    <path class="cls-2" d="M593.12,244.26c-8.4,0-15.66-1.82-21.78-5.46-6.12-3.64-10.82-8.72-14.1-15.24-3.28-6.52-4.92-14.02-4.92-22.5s1.64-16.22,4.92-22.74c3.28-6.52,7.98-11.64,14.1-15.36,6.12-3.72,13.38-5.58,21.78-5.58,10.32,0,18.8,2.6,25.44,7.8,6.64,5.2,10.72,12.52,12.24,21.96h-19.68c-.96-4.24-3-7.54-6.12-9.9-3.12-2.36-7.16-3.54-12.12-3.54s-8.74,1.12-12.06,3.36c-3.32,2.24-5.84,5.38-7.56,9.42-1.72,4.04-2.58,8.9-2.58,14.58s.86,10.3,2.58,14.34c1.72,4.04,4.24,7.16,7.56,9.36,3.32,2.2,7.34,3.3,12.06,3.3,4.96,0,9-1.06,12.12-3.18,3.12-2.12,5.16-5.18,6.12-9.18h19.68c-1.52,8.88-5.6,15.86-12.24,20.94-6.64,5.08-15.12,7.62-25.44,7.62Z"/>
    <path class="cls-2" d="M664.51,244.26c-4.96,0-9.1-.82-12.42-2.46-3.32-1.64-5.76-3.82-7.32-6.54-1.56-2.72-2.34-5.76-2.34-9.12s.9-6.7,2.7-9.54c1.8-2.84,4.6-5.06,8.4-6.66,3.8-1.6,8.7-2.4,14.7-2.4h14.52c0-2.72-.34-4.98-1.02-6.78-.68-1.8-1.78-3.14-3.3-4.02-1.52-.88-3.6-1.32-6.24-1.32-2.8,0-5.16.58-7.08,1.74-1.92,1.16-3.12,2.94-3.6,5.34h-17.28c.4-4.32,1.8-8.08,4.2-11.28,2.4-3.2,5.66-5.72,9.78-7.56,4.12-1.84,8.82-2.76,14.1-2.76,5.76,0,10.76.92,15,2.76,4.24,1.84,7.54,4.58,9.9,8.22,2.36,3.64,3.54,8.14,3.54,13.5v37.44h-15l-2.16-8.76c-.88,1.52-1.92,2.9-3.12,4.14-1.2,1.24-2.6,2.32-4.2,3.24-1.6.92-3.36,1.62-5.28,2.1-1.92.48-4.08.72-6.48.72ZM669.07,230.58c1.84,0,3.48-.32,4.92-.96,1.44-.64,2.7-1.52,3.78-2.64,1.08-1.12,1.96-2.42,2.64-3.9.68-1.48,1.18-3.14,1.5-4.98h-11.64c-2,0-3.68.26-5.04.78-1.36.52-2.34,1.28-2.94,2.28-.6,1-.9,2.1-.9,3.3,0,1.36.34,2.48,1.02,3.36.68.88,1.6,1.56,2.76,2.04,1.16.48,2.46.72,3.9.72Z"/>
    <path class="cls-2" d="M745.63,244.26c-6.24,0-11.74-1.36-16.5-4.08-4.76-2.72-8.46-6.44-11.1-11.16-2.64-4.72-3.96-10.08-3.96-16.08s1.32-11.78,3.96-16.62c2.64-4.84,6.34-8.62,11.1-11.34,4.76-2.72,10.26-4.08,16.5-4.08,7.92,0,14.58,2.08,19.98,6.24,5.4,4.16,8.82,9.92,10.26,17.28h-19.2c-.56-2.56-1.84-4.56-3.84-6-2-1.44-4.44-2.16-7.32-2.16-2.72,0-5.06.66-7.02,1.98-1.96,1.32-3.46,3.2-4.5,5.64-1.04,2.44-1.56,5.34-1.56,8.7,0,2.48.3,4.72.9,6.72.6,2,1.46,3.7,2.58,5.1,1.12,1.4,2.5,2.5,4.14,3.3,1.64.8,3.46,1.2,5.46,1.2,1.84,0,3.54-.32,5.1-.96,1.56-.64,2.86-1.58,3.9-2.82,1.04-1.24,1.76-2.7,2.16-4.38h19.2c-1.44,7.2-4.88,12.92-10.32,17.16-5.44,4.24-12.08,6.36-19.92,6.36Z"/>
    <path class="cls-2" d="M789.91,242.82v-86.4h18v34.44c1.92-2.88,4.52-5.26,7.8-7.14,3.28-1.88,7.12-2.82,11.52-2.82,5.12,0,9.4,1.08,12.84,3.24,3.44,2.16,6.02,5.28,7.74,9.36,1.72,4.08,2.58,9.08,2.58,15v34.32h-17.88v-32.76c0-4.48-.92-7.94-2.76-10.38-1.84-2.44-4.84-3.66-9-3.66-2.48,0-4.7.62-6.66,1.86-1.96,1.24-3.48,2.94-4.56,5.1-1.08,2.16-1.62,4.76-1.62,7.8v32.04h-18Z"/>
    <path class="cls-2" d="M895.03,244.26c-6.24,0-11.7-1.3-16.38-3.9-4.68-2.6-8.34-6.24-10.98-10.92-2.64-4.68-3.96-10.06-3.96-16.14s1.28-11.8,3.84-16.68c2.56-4.88,6.22-8.72,10.98-11.52,4.76-2.8,10.26-4.2,16.5-4.2s11.4,1.3,15.96,3.9c4.56,2.6,8.12,6.18,10.68,10.74,2.56,4.56,3.84,9.8,3.84,15.72,0,.8-.02,1.7-.06,2.7-.04,1-.1,2.02-.18,3.06h-48.84v-10.56h30.96c-.24-3.28-1.48-5.96-3.72-8.04-2.24-2.08-5.08-3.12-8.52-3.12-2.64,0-5,.6-7.08,1.8-2.08,1.2-3.7,3.02-4.86,5.46-1.16,2.44-1.74,5.5-1.74,9.18v3.48c0,2.8.52,5.3,1.56,7.5,1.04,2.2,2.6,3.9,4.68,5.1,2.08,1.2,4.44,1.8,7.08,1.8s4.94-.54,6.66-1.62c1.72-1.08,3.06-2.42,4.02-4.02h18.36c-1.12,3.68-3.04,7.08-5.76,10.2-2.72,3.12-6.02,5.58-9.9,7.38-3.88,1.8-8.26,2.7-13.14,2.7Z"/>
  </g>
  <g>
    <g>
      <path class="cls-6" d="M485,263.88v84.35c0,14.23-106.89,25.77-238.75,25.77S7.5,362.46,7.5,348.23v-84.35c0,14.24,106.89,25.77,238.75,25.77s238.75-11.53,238.75-25.77Z"/>
      <path class="cls-6" d="M485,146.74v84.36c0,6.23-20.46,11.94-54.52,16.39-43.79,5.73-110.06,9.38-184.23,9.38s-140.44-3.65-184.23-9.38c-34.06-4.45-54.52-10.16-54.52-16.39v-84.36c0,14.24,106.89,25.78,238.75,25.78s238.75-11.54,238.75-25.78Z"/>
      <path class="cls-6" d="M485,33.27v84.35c0,5.4-15.39,10.42-41.7,14.56-43.02,6.77-115.23,11.21-197.05,11.21s-154.03-4.44-197.05-11.21c-26.31-4.14-41.7-9.16-41.7-14.56V33.27c0,14.24,106.89,25.78,238.75,25.78s238.75-11.54,238.75-25.78Z"/>
      <path class="cls-5" d="M443.3,132.18c26.31,4.15,41.7,9.16,41.7,14.56,0,14.24-106.89,25.78-238.75,25.78S7.5,160.98,7.5,146.74c0-5.4,15.39-10.41,41.7-14.56,43.02,6.77,115.23,11.21,197.05,11.21s154.03-4.44,197.05-11.21Z"/>
      <path class="cls-5" d="M430.48,247.49c34.06,4.44,54.52,10.15,54.52,16.39,0,14.24-106.89,25.77-238.75,25.77S7.5,278.12,7.5,263.88c0-6.24,20.46-11.95,54.52-16.39,43.79,5.73,110.06,9.38,184.23,9.38s140.44-3.65,184.23-9.38Z"/>
      <path class="cls-6" d="M246.25,7.5c131.86,0,238.75,11.54,238.75,25.77s-106.89,25.78-238.75,25.78S7.5,47.51,7.5,33.27,114.39,7.5,246.25,7.5Z"/>
    </g>
    <g>
      <path class="cls-3" d="M49.2,132.18c-26.31-4.14-41.7-9.16-41.7-14.56"/>
      <path class="cls-3" d="M485,117.62c0,5.4-15.39,10.42-41.7,14.56"/>
      <path class="cls-3" d="M485,33.27c0,14.24-106.89,25.78-238.75,25.78S7.5,47.51,7.5,33.27,114.39,7.5,246.25,7.5s238.75,11.54,238.75,25.77Z"/>
      <line class="cls-3" x1="7.5" y1="117.62" x2="7.5" y2="33.27"/>
      <line class="cls-3" x1="485" y1="117.62" x2="485" y2="33.27"/>
      <path class="cls-3" d="M62.02,247.49c-34.06-4.45-54.52-10.16-54.52-16.39"/>
      <path class="cls-3" d="M485,231.1c0,6.23-20.46,11.94-54.52,16.39"/>
      <path class="cls-3" d="M485,146.74c0,14.24-106.89,25.78-238.75,25.78S7.5,160.98,7.5,146.74c0-5.4,15.39-10.41,41.7-14.56,43.02,6.77,115.23,11.21,197.05,11.21s154.03-4.44,197.05-11.21c26.31,4.15,41.7,9.16,41.7,14.56Z"/>
      <line class="cls-3" x1="7.5" y1="231.1" x2="7.5" y2="146.74"/>
      <line class="cls-3" x1="485" y1="231.1" x2="485" y2="146.74"/>
      <path class="cls-3" d="M7.5,348.23c0,14.23,106.89,25.77,238.75,25.77s238.75-11.54,238.75-25.77"/>
      <path class="cls-3" d="M485,263.88c0,14.24-106.89,25.77-238.75,25.77S7.5,278.12,7.5,263.88c0-6.24,20.46-11.95,54.52-16.39,43.79,5.73,110.06,9.38,184.23,9.38s140.44-3.65,184.23-9.38c34.06,4.44,54.52,10.15,54.52,16.39Z"/>
      <line class="cls-3" x1="7.5" y1="348.23" x2="7.5" y2="263.88"/>
      <line class="cls-3" x1="485" y1="348.23" x2="485" y2="263.88"/>
    </g>
  </g>
  <text/>
  <circle class="cls-7" cx="55" cy="89.5" r="11.5"/>
  <circle class="cls-7" cx="55" cy="205.5" r="11.5"/>
  <circle class="cls-7" cx="55" cy="321.5" r="11.5"/>
</svg>