<?xml version="1.0" encoding="UTF-8"?>
<svg id="Capa_1" data-name="Capa 1" xmlns="http://www.w3.org/2000/svg" viewBox="0 0 799 946">
  <defs>
    <style>
      .cls-1 {
        fill: #4d4d4d;
        stroke: #000;
        stroke-miterlimit: 10;
        stroke-width: 11px;
      }

      .cls-2 {
        fill: red;
      }

      .cls-3 {
        fill: #999;
      }

      .cls-4 {
        fill: lime;
      }
    </style>
  </defs>
  <g>
    <g>
      <rect class="cls-3" x="5.5" y="5.5" width="788" height="215" rx="14.27" ry="14.27"/>
      <path d="M779.23,11c4.84,0,8.77,3.94,8.77,8.77v186.45c0,4.84-3.94,8.77-8.77,8.77H19.77c-4.84,0-8.77-3.94-8.77-8.77V19.77c0-4.84,3.94-8.77,8.77-8.77h759.45M779.23,0H19.77C8.85,0,0,8.85,0,19.77v186.45c0,10.92,8.85,19.77,19.77,19.77h759.45c10.92,0,19.77-8.85,19.77-19.77V19.77c0-10.92-8.85-19.77-19.77-19.77h0Z"/>
    </g>
    <g>
      <rect class="cls-3" x="5.5" y="245.5" width="788" height="215" rx="14.27" ry="14.27"/>
      <path d="M779.23,251c4.84,0,8.77,3.94,8.77,8.77v186.45c0,4.84-3.94,8.77-8.77,8.77H19.77c-4.84,0-8.77-3.94-8.77-8.77v-186.45c0-4.84,3.94-8.77,8.77-8.77h759.45M779.23,240H19.77c-10.92,0-19.77,8.85-19.77,19.77v186.45c0,10.92,8.85,19.77,19.77,19.77h759.45c10.92,0,19.77-8.85,19.77-19.77v-186.45c0-10.92-8.85-19.77-19.77-19.77h0Z"/>
    </g>
    <g>
      <rect class="cls-3" x="5.5" y="485.5" width="788" height="215" rx="14.27" ry="14.27"/>
      <path d="M779.23,491c4.84,0,8.77,3.94,8.77,8.77v186.45c0,4.84-3.94,8.77-8.77,8.77H19.77c-4.84,0-8.77-3.94-8.77-8.77v-186.45c0-4.84,3.94-8.77,8.77-8.77h759.45M779.23,480H19.77c-10.92,0-19.77,8.85-19.77,19.77v186.45c0,10.92,8.85,19.77,19.77,19.77h759.45c10.92,0,19.77-8.85,19.77-19.77v-186.45c0-10.92-8.85-19.77-19.77-19.77h0Z"/>
    </g>
    <g>
      <rect class="cls-3" x="5.5" y="725.5" width="788" height="215" rx="14.27" ry="14.27"/>
      <path d="M779.23,731c4.84,0,8.77,3.94,8.77,8.77v186.45c0,4.84-3.94,8.77-8.77,8.77H19.77c-4.84,0-8.77-3.94-8.77-8.77v-186.45c0-4.84,3.94-8.77,8.77-8.77h759.45M779.23,720H19.77c-10.92,0-19.77,8.85-19.77,19.77v186.45c0,10.92,8.85,19.77,19.77,19.77h759.45c10.92,0,19.77-8.85,19.77-19.77v-186.45c0-10.92-8.85-19.77-19.77-19.77h0Z"/>
    </g>
  </g>
  <g>
    <circle class="cls-4" cx="78.76" cy="113.24" r="20.76"/>
    <circle class="cls-4" cx="146" cy="113.24" r="20.76"/>
    <circle class="cls-4" cx="213.24" cy="113.24" r="20.76"/>
  </g>
  <g>
    <circle class="cls-4" cx="79.76" cy="353.24" r="20.76"/>
    <circle class="cls-2" cx="147" cy="353.24" r="20.76"/>
    <circle class="cls-4" cx="214.24" cy="353.24" r="20.76"/>
  </g>
  <g>
    <circle class="cls-4" cx="79.76" cy="593.24" r="20.76"/>
    <circle class="cls-4" cx="147" cy="593.24" r="20.76"/>
    <circle class="cls-2" cx="214.24" cy="593.24" r="20.76"/>
  </g>
  <g>
    <circle class="cls-4" cx="78.88" cy="833.12" r="20.88"/>
    <circle class="cls-2" cx="146.5" cy="833.12" r="20.88"/>
    <circle class="cls-2" cx="214.12" cy="833.12" r="20.88"/>
  </g>
  <rect class="cls-1" x="402.5" y="83.5" width="325" height="60" rx="9.55" ry="9.55"/>
  <rect class="cls-1" x="402.5" y="322.5" width="325" height="60" rx="9.55" ry="9.55"/>
  <rect class="cls-1" x="402.5" y="563.5" width="325" height="60" rx="9.55" ry="9.55"/>
  <rect class="cls-1" x="402.5" y="802.5" width="325" height="60" rx="9.55" ry="9.55"/>
</svg>