<?xml version="1.0" encoding="UTF-8"?>
<svg id="Capa_1" data-name="Capa 1" xmlns="http://www.w3.org/2000/svg" viewBox="0 0 5995 3665">
  <defs>
    <style>
      .cls-1 {
        stroke-width: 48px;
      }

      .cls-1, .cls-2, .cls-3, .cls-4, .cls-5, .cls-6, .cls-7, .cls-8, .cls-9, .cls-10, .cls-11, .cls-12, .cls-13, .cls-14 {
        fill: none;
      }

      .cls-1, .cls-4, .cls-6, .cls-15, .cls-13, .cls-16, .cls-14 {
        stroke-linecap: round;
      }

      .cls-1, .cls-4, .cls-17, .cls-18, .cls-15, .cls-16, .cls-14 {
        stroke-linejoin: round;
      }

      .cls-1, .cls-15 {
        stroke: #0071bc;
      }

      .cls-19 {
        fill: #ff7272;
      }

      .cls-19, .cls-2, .cls-20, .cls-3, .cls-5, .cls-21, .cls-6, .cls-7, .cls-8, .cls-22, .cls-23, .cls-9, .cls-24, .cls-25, .cls-10, .cls-11, .cls-12, .cls-13, .cls-26, .cls-27 {
        stroke-miterlimit: 10;
      }

      .cls-19, .cls-20, .cls-23, .cls-26 {
        stroke: #666;
        stroke-width: 10px;
      }

      .cls-2 {
        stroke-dasharray: 203.29 203.29;
      }

      .cls-2, .cls-10 {
        stroke: #ccc;
      }

      .cls-2, .cls-10, .cls-12 {
        stroke-width: 40px;
      }

      .cls-20 {
        fill: #00dd57;
      }

      .cls-3, .cls-4, .cls-6, .cls-7, .cls-16, .cls-14 {
        stroke-width: 15px;
      }

      .cls-3, .cls-5, .cls-21, .cls-6, .cls-22, .cls-9, .cls-24, .cls-25, .cls-14, .cls-27 {
        stroke: #303030;
      }

      .cls-28, .cls-17 {
        fill: #4d4d4d;
      }

      .cls-29, .cls-15, .cls-26 {
        fill: #fff;
      }

      .cls-30 {
        fill: #7bf300;
      }

      .cls-31 {
        fill: #00deff;
      }

      .cls-32 {
        fill: #2c80c7;
      }

      .cls-33, .cls-24, .cls-27 {
        fill: #303030;
      }

      .cls-4, .cls-7, .cls-16 {
        stroke: #170c66;
      }

      .cls-5, .cls-21, .cls-17, .cls-22, .cls-24, .cls-25 {
        stroke-width: 20px;
      }

      .cls-21, .cls-18 {
        fill: #4c4c4c;
      }

      .cls-34 {
        fill: #666;
      }

      .cls-17 {
        stroke: #4d4d4d;
      }

      .cls-18 {
        stroke: #4c4c4c;
      }

      .cls-18, .cls-9, .cls-27 {
        stroke-width: 11px;
      }

      .cls-35 {
        fill: #1b1464;
      }

      .cls-36 {
        fill: #333;
      }

      .cls-8, .cls-15 {
        stroke-width: 35px;
      }

      .cls-8, .cls-11, .cls-12, .cls-13 {
        stroke: #333;
      }

      .cls-22 {
        fill: #e6e6e6;
      }

      .cls-37 {
        fill: #ff3030;
      }

      .cls-38 {
        fill: #999;
      }

      .cls-23 {
        fill: #fffa62;
      }

      .cls-25 {
        fill: #b3b3b3;
      }

      .cls-10 {
        stroke-dasharray: 202.86 202.86;
      }

      .cls-39 {
        fill: #a5ed35;
      }

      .cls-11, .cls-13 {
        stroke-width: 30px;
      }

      .cls-13 {
        fill-rule: evenodd;
      }

      .cls-16 {
        fill: #00ace4;
      }
    </style>
  </defs>
  <rect class="cls-29" width="5995" height="3665" rx="94.61" ry="94.61"/>
  <line class="cls-1" x1="1196.5" y1="2253" x2="1196.5" y2="1166"/>
  <line class="cls-1" x1="1196.5" y1="1160" x2="2495.5" y2="1160"/>
  <line class="cls-1" x1="4867.5" y1="2256" x2="4867.5" y2="1630"/>
  <line class="cls-1" x1="4679.5" y1="1163" x2="3568.5" y2="1163"/>
  <rect class="cls-10" x="210.5" y="516" width="2716" height="2936" rx="203.69" ry="203.69"/>
  <rect class="cls-2" x="3083.5" y="516" width="2716" height="2936" rx="190.21" ry="190.21"/>
  <g>
    <g>
      <path class="cls-38" d="M4313.65,2087.5h1106.38c7.88,0,14.27,6.4,14.27,14.27v175.8c0,7.88-6.4,14.27-14.27,14.27h-1106.38c-7.88,0-14.27-6.4-14.27-14.27v-175.8c0-7.88,6.4-14.27,14.27-14.27Z"/>
      <path class="cls-33" d="M5420.03,2093c4.84,0,8.77,3.94,8.77,8.77v175.8c0,4.84-3.94,8.77-8.77,8.77h-1106.38c-4.84,0-8.77-3.94-8.77-8.77v-175.8c0-4.84,3.94-8.77,8.77-8.77h1106.38M5420.03,2082h-1106.38c-10.92,0-19.77,8.85-19.77,19.77v175.8c0,10.92,8.85,19.77,19.77,19.77h1106.38c10.92,0,19.77-8.85,19.77-19.77v-175.8c0-10.92-8.85-19.77-19.77-19.77h0Z"/>
    </g>
    <g>
      <path class="cls-38" d="M4313.65,2316.19h1106.38c7.88,0,14.27,6.4,14.27,14.27v175.8c0,7.88-6.4,14.27-14.27,14.27h-1106.38c-7.88,0-14.27-6.4-14.27-14.27v-175.8c0-7.88,6.4-14.27,14.27-14.27Z"/>
      <path class="cls-33" d="M5420.03,2321.69c4.84,0,8.77,3.94,8.77,8.77v175.8c0,4.84-3.94,8.77-8.77,8.77h-1106.38c-4.84,0-8.77-3.94-8.77-8.77v-175.8c0-4.84,3.94-8.77,8.77-8.77h1106.38M5420.03,2310.69h-1106.38c-10.92,0-19.77,8.85-19.77,19.77v175.8c0,10.92,8.85,19.77,19.77,19.77h1106.38c10.92,0,19.77-8.85,19.77-19.77v-175.8c0-10.92-8.85-19.77-19.77-19.77h0Z"/>
    </g>
    <g>
      <path class="cls-38" d="M4313.65,2544.88h1106.38c7.88,0,14.27,6.4,14.27,14.27v175.8c0,7.88-6.4,14.27-14.27,14.27h-1106.38c-7.88,0-14.27-6.4-14.27-14.27v-175.8c0-7.88,6.4-14.27,14.27-14.27Z"/>
      <path class="cls-33" d="M5420.03,2550.38c4.84,0,8.77,3.94,8.77,8.77v175.8c0,4.84-3.94,8.77-8.77,8.77h-1106.38c-4.84,0-8.77-3.94-8.77-8.77v-175.8c0-4.84,3.94-8.77,8.77-8.77h1106.38M5420.03,2539.38h-1106.38c-10.92,0-19.77,8.85-19.77,19.77v175.8c0,10.92,8.85,19.77,19.77,19.77h1106.38c10.92,0,19.77-8.85,19.77-19.77v-175.8c0-10.92-8.85-19.77-19.77-19.77h0Z"/>
    </g>
    <g>
      <path class="cls-38" d="M4313.65,2773.56h1106.38c7.88,0,14.27,6.4,14.27,14.27v175.8c0,7.88-6.4,14.27-14.27,14.27h-1106.38c-7.88,0-14.27-6.4-14.27-14.27v-175.8c0-7.88,6.4-14.27,14.27-14.27Z"/>
      <path class="cls-33" d="M5420.03,2779.06c4.84,0,8.77,3.94,8.77,8.77v175.8c0,4.84-3.94,8.77-8.77,8.77h-1106.38c-4.84,0-8.77-3.94-8.77-8.77v-175.8c0-4.84,3.94-8.77,8.77-8.77h1106.38M5420.03,2768.06h-1106.38c-10.92,0-19.77,8.85-19.77,19.77v175.8c0,10.92,8.85,19.77,19.77,19.77h1106.38c10.92,0,19.77-8.85,19.77-19.77v-175.8c0-10.92-8.85-19.77-19.77-19.77h0Z"/>
    </g>
    <rect class="cls-18" x="5070.6" y="2125.19" width="21.9" height="130.16" rx="2.1" ry="2.1"/>
    <rect class="cls-18" x="5122.91" y="2125.19" width="21.9" height="130.16" rx="2.1" ry="2.1"/>
    <rect class="cls-18" x="5174" y="2125.19" width="21.9" height="130.16" rx="2.1" ry="2.1"/>
    <rect class="cls-18" x="5227.53" y="2125.19" width="21.9" height="130.16" rx="2.1" ry="2.1"/>
    <rect class="cls-18" x="5282.27" y="2125.19" width="21.9" height="130.16" rx="2.1" ry="2.1"/>
    <rect class="cls-18" x="5334.58" y="2125.19" width="21.9" height="130.16" rx="2.1" ry="2.1"/>
    <rect class="cls-18" x="5070.6" y="2353.88" width="21.9" height="130.16" rx="2.1" ry="2.1"/>
    <rect class="cls-18" x="5122.91" y="2353.88" width="21.9" height="130.16" rx="2.1" ry="2.1"/>
    <rect class="cls-18" x="5174" y="2353.88" width="21.9" height="130.16" rx="2.1" ry="2.1"/>
    <rect class="cls-18" x="5227.53" y="2353.88" width="21.9" height="130.16" rx="2.1" ry="2.1"/>
    <rect class="cls-18" x="5282.27" y="2353.88" width="21.9" height="130.16" rx="2.1" ry="2.1"/>
    <rect class="cls-18" x="5334.58" y="2353.88" width="21.9" height="130.16" rx="2.1" ry="2.1"/>
    <rect class="cls-18" x="5070.6" y="2582.58" width="21.9" height="130.16" rx="2.1" ry="2.1"/>
    <rect class="cls-18" x="5122.91" y="2582.58" width="21.9" height="130.16" rx="2.1" ry="2.1"/>
    <rect class="cls-18" x="5174" y="2582.58" width="21.9" height="130.16" rx="2.1" ry="2.1"/>
    <rect class="cls-18" x="5227.53" y="2582.58" width="21.9" height="130.16" rx="2.1" ry="2.1"/>
    <rect class="cls-18" x="5282.27" y="2582.58" width="21.9" height="130.16" rx="2.1" ry="2.1"/>
    <rect class="cls-18" x="5334.58" y="2582.58" width="21.9" height="130.16" rx="2.1" ry="2.1"/>
    <rect class="cls-18" x="5070.6" y="2811.28" width="21.9" height="130.16" rx="2.1" ry="2.1"/>
    <rect class="cls-18" x="5122.91" y="2811.28" width="21.9" height="130.16" rx="2.1" ry="2.1"/>
    <rect class="cls-18" x="5174" y="2811.28" width="21.9" height="130.16" rx="2.1" ry="2.1"/>
    <rect class="cls-18" x="5227.53" y="2811.28" width="21.9" height="130.16" rx="2.1" ry="2.1"/>
    <rect class="cls-18" x="5282.27" y="2811.28" width="21.9" height="130.16" rx="2.1" ry="2.1"/>
    <rect class="cls-18" x="5334.58" y="2811.28" width="21.9" height="130.16" rx="2.1" ry="2.1"/>
    <g>
      <circle class="cls-30" cx="4399.34" cy="2187.47" r="19.79"/>
      <circle class="cls-30" cx="4463.41" cy="2187.47" r="19.79"/>
      <circle class="cls-30" cx="4527.48" cy="2187.47" r="19.79"/>
      <circle class="cls-30" cx="4594.54" cy="2187.85" r="19.79"/>
      <circle class="cls-30" cx="4659.02" cy="2187.85" r="19.79"/>
    </g>
    <circle class="cls-30" cx="4398.13" cy="2418.6" r="19.79"/>
    <circle class="cls-30" cx="4462.19" cy="2418.6" r="19.79"/>
    <circle class="cls-30" cx="4526.26" cy="2418.6" r="19.79"/>
    <circle class="cls-37" cx="4593.33" cy="2418.98" r="19.79"/>
    <circle class="cls-37" cx="4657.8" cy="2418.98" r="19.79"/>
    <g>
      <circle class="cls-30" cx="4396.91" cy="2647.3" r="19.79"/>
      <circle class="cls-30" cx="4460.98" cy="2647.3" r="19.79"/>
      <circle class="cls-30" cx="4525.04" cy="2647.3" r="19.79"/>
      <circle class="cls-30" cx="4592.11" cy="2647.68" r="19.79"/>
      <circle class="cls-30" cx="4656.59" cy="2647.68" r="19.79"/>
    </g>
    <circle class="cls-30" cx="4398.13" cy="2875.99" r="19.79"/>
    <circle class="cls-37" cx="4462.19" cy="2875.99" r="19.79"/>
    <circle class="cls-30" cx="4526.26" cy="2875.99" r="19.79"/>
    <circle class="cls-30" cx="4593.33" cy="2876.38" r="19.79"/>
    <circle class="cls-30" cx="4657.8" cy="2876.38" r="19.79"/>
    <rect class="cls-27" x="4377.21" y="2293.06" width="978.05" height="21.9"/>
    <rect class="cls-27" x="4377.21" y="2522.97" width="978.05" height="21.9"/>
    <rect class="cls-27" x="4377.21" y="2751.67" width="978.05" height="21.9"/>
  </g>
  <g>
    <path class="cls-22" d="M632.48,2055.91h1137c24.84,0,45,20.16,45,45v574H587.48v-574c0-24.84,20.16-45,45-45Z"/>
    <path class="cls-25" d="M632.48,2054.91h1137c24.84,0,45,20.16,45,45v67H587.48v-67c0-24.84,20.16-45,45-45Z"/>
    <line class="cls-3" x1="587.48" y1="2166.91" x2="1814.48" y2="2166.91"/>
    <path class="cls-16" d="M1390.98,2597.91c0,25.11-4.88,49.07-13.75,71h-351.5c-8.87-21.93-13.75-45.89-13.75-71,0-48.83,18.47-93.34,48.81-126.95,33.88-37.53,82.57-61.44,136.86-62.51,1.27-.03,2.55-.04,3.83-.04.5,0,1,0,1.5.01,54.69.42,103.86,24.01,138.19,61.44,30.93,33.73,49.81,78.68,49.81,128.05Z"/>
    <path class="cls-16" d="M1341.17,2469.86c-17.1,18.95-37.99,34.42-61.46,45.24-24.1,11.11-50.94,17.31-79.23,17.31s-54.73-6.11-78.7-17.07c-23.23-10.61-43.94-25.79-60.99-44.38,33.88-37.53,82.57-61.44,136.86-62.51,1.27-.03,2.55-.04,3.83-.04.5,0,1,0,1.5.01,54.69.42,103.86,24.01,138.19,61.44Z"/>
    <path class="cls-16" d="M1302.07,2668.91h-203.18c5.31-3.37,10.79-6.49,16.44-9.33,25.6-12.91,54.53-20.17,85.15-20.17s60.39,7.48,86.27,20.73c5.25,2.69,10.36,5.62,15.32,8.77Z"/>
    <path class="cls-4" d="M1294.98,2598.41c0,21.37-2.86,42.06-8.23,61.73-.8,2.95-1.66,5.87-2.58,8.77h-258.44c-8.87-21.93-13.75-45.89-13.75-71,0-48.83,18.47-93.34,48.81-126.95,33.88-37.53,82.57-61.44,136.86-62.51.89.64,1.78,1.29,2.66,1.95,35.56,26.39,63.38,62.64,79.4,104.7,9.87,25.88,15.27,53.96,15.27,83.31Z"/>
    <path class="cls-4" d="M1390.98,2597.91c0,25.11-4.88,49.07-13.75,71h-259.12c-.99-3.08-1.92-6.19-2.78-9.33-5.44-19.8-8.35-40.64-8.35-62.17,0-28.88,5.23-56.53,14.8-82.07,15.75-42.06,43.26-78.37,78.53-104.94.89-.67,1.77-1.33,2.67-1.98,54.69.42,103.86,24.01,138.19,61.44,30.93,33.73,49.81,78.68,49.81,128.05Z"/>
    <polyline class="cls-7" points="1200.98 2668.91 1200.98 2410.91 1200.98 2408.41"/>
    <rect class="cls-5" x="587.48" y="2055.91" width="1227" height="756" rx="45" ry="45"/>
    <rect class="cls-24" x="1138.48" y="2811.91" width="126" height="195"/>
    <line class="cls-5" x1="987.48" y1="3006.91" x2="1414.48" y2="3006.91"/>
    <path class="cls-21" d="M1814.48,2674.91v92c0,24.85-20.15,45-45,45H632.48c-24.85,0-45-20.15-45-45v-92h1227Z"/>
    <rect class="cls-31" x="654.98" y="2228.41" width="147" height="137"/>
    <rect class="cls-32" x="802.48" y="2228.91" width="942" height="137"/>
    <g>
      <path class="cls-9" d="M694.98,2288.81c0,15.6,12.65,28.25,28.25,28.25,3.86,0,7.54-.77,10.89-2.17,10.2-4.27,17.36-14.34,17.36-26.08,0-15.6-12.65-28.25-28.25-28.25-15.6,0-28.25,12.65-28.25,28.25Z"/>
      <line class="cls-6" x1="738.76" y1="2317.96" x2="749.23" y2="2337.41"/>
    </g>
    <rect class="cls-14" x="654.98" y="2228.41" width="1092.5" height="136.5" rx="12.29" ry="12.29"/>
    <line class="cls-3" x1="801.98" y1="2228.91" x2="801.98" y2="2364.91"/>
    <circle class="cls-20" cx="1744.98" cy="2112.41" r="19"/>
    <circle class="cls-23" cx="1676.98" cy="2112.41" r="19"/>
    <circle class="cls-19" cx="1602.98" cy="2112.41" r="19"/>
    <rect class="cls-26" x="635.98" y="2091.41" width="886.5" height="42" rx="21" ry="21"/>
    <line class="cls-7" x1="1012.48" y1="2603.91" x2="1390.48" y2="2603.91"/>
  </g>
  <g>
    <rect class="cls-8" x="2446.04" y="878.58" width="588" height="11.48" rx="5.74" ry="5.74" transform="translate(2135.86 -1930.78) rotate(60)"/>
    <rect class="cls-8" x="2960.04" y="878.58" width="588" height="11.48" rx="5.74" ry="5.74" transform="translate(861.18 3260.24) rotate(-60)"/>
    <g>
      <path class="cls-38" d="M2416.16,1006.52h1162.68c21.61,0,39.16,17.55,39.16,39.16v194.68c0,21.61-17.55,39.16-39.16,39.16h-1162.68c-21.61,0-39.16-17.55-39.16-39.16v-194.68c0-21.61,17.55-39.16,39.16-39.16Z"/>
      <path class="cls-36" d="M3578.84,1016.52c16.08,0,29.16,13.08,29.16,29.16v194.68c0,16.08-13.08,29.16-29.16,29.16h-1162.68c-16.08,0-29.16-13.08-29.16-29.16v-194.68c0-16.08,13.08-29.16,29.16-29.16h1162.68M3578.84,996.52h-1162.68c-27.15,0-49.16,22.01-49.16,49.16v194.68c0,27.15,22.01,49.16,49.16,49.16h1162.68c27.15,0,49.16-22.01,49.16-49.16v-194.68c0-27.15-22.01-49.16-49.16-49.16h0Z"/>
    </g>
    <g>
      <circle class="cls-11" cx="2990.5" cy="888.02" r="10.5"/>
      <path class="cls-13" d="M2827.1,719.82c92.74-89.71,241.17-87.24,330.88,5.5.23.24.47.48.69.73"/>
      <path class="cls-13" d="M2879.25,773.72c63.01-60.95,163.88-59.28,224.83,3.74l.7.72"/>
      <path class="cls-13" d="M3050.86,830.33c-.22-.24-.46-.49-.69-.73-32.25-33.34-85.43-34.23-118.78-1.97"/>
    </g>
    <circle class="cls-12" cx="3468" cy="1143.52" r="19.5"/>
    <circle class="cls-39" cx="3265" cy="1143.52" r="22"/>
    <circle class="cls-39" cx="3185" cy="1143.52" r="22"/>
    <circle class="cls-39" cx="3105" cy="1143.52" r="22"/>
    <circle class="cls-39" cx="3026" cy="1143.52" r="22"/>
    <rect class="cls-17" x="2468" y="1088.52" width="110" height="37"/>
    <rect class="cls-17" x="2630" y="1088.52" width="110" height="37"/>
    <rect class="cls-17" x="2468" y="1160.52" width="110" height="37"/>
    <rect class="cls-17" x="2630" y="1160.52" width="110" height="37"/>
  </g>
  <g>
    <path class="cls-34" d="M672.83,381.47v-175.1h30.02v151.58h78.29v23.51h-108.31Z"/>
    <path class="cls-34" d="M862.43,384.47c-12.01,0-22.81-2.75-32.39-8.25-9.59-5.5-17.1-13.26-22.51-23.26-5.42-10.01-8.13-21.43-8.13-34.27s2.75-24.76,8.25-34.77c5.5-10.01,13.05-17.76,22.64-23.26,9.59-5.5,20.39-8.25,32.39-8.25s22.76,2.75,32.27,8.25c9.51,5.5,17.05,13.22,22.64,23.14,5.58,9.92,8.38,21.47,8.38,34.64s-2.84,24.51-8.5,34.52c-5.67,10.01-13.26,17.76-22.76,23.26s-20.26,8.25-32.27,8.25ZM862.43,358.7c6,0,11.46-1.54,16.38-4.63,4.92-3.08,8.88-7.63,11.88-13.63,3-6,4.5-13.34,4.5-22.01s-1.46-16.26-4.38-22.26c-2.92-6-6.84-10.51-11.76-13.51-4.92-3-10.3-4.5-16.13-4.5s-11.51,1.5-16.51,4.5c-5,3-9,7.5-12.01,13.51-3,6-4.5,13.43-4.5,22.26s1.5,16.01,4.5,22.01c3,6,6.96,10.55,11.88,13.63,4.92,3.09,10.29,4.63,16.13,4.63Z"/>
    <path class="cls-34" d="M1014.76,384.47c-12.51,0-23.6-2.79-33.27-8.38-9.67-5.58-17.22-13.34-22.64-23.26-5.42-9.92-8.13-21.22-8.13-33.89s2.71-24.76,8.13-34.77c5.42-10.01,12.96-17.8,22.64-23.39,9.67-5.58,20.76-8.38,33.27-8.38,15.84,0,29.14,4.13,39.9,12.38s17.55,19.55,20.39,33.89h-31.52c-1.67-6.5-5.13-11.55-10.38-15.13-5.25-3.58-11.47-5.38-18.64-5.38-6.17,0-11.8,1.54-16.88,4.63-5.09,3.09-9.09,7.63-12.01,13.63-2.92,6-4.38,13.34-4.38,22.01,0,6.34.83,12.05,2.5,17.13,1.67,5.09,4.04,9.34,7.13,12.76,3.08,3.42,6.63,6.05,10.63,7.88,4,1.84,8.34,2.75,13.01,2.75s9-.83,13.01-2.5c4-1.67,7.42-4.04,10.26-7.13,2.83-3.08,4.75-6.79,5.75-11.13h31.52c-3,14.01-9.88,25.23-20.64,33.64-10.76,8.42-23.97,12.63-39.65,12.63Z"/>
    <path class="cls-34" d="M1146.08,384.47c-10.17,0-18.72-1.75-25.64-5.25-6.92-3.5-12.05-8.17-15.38-14.01-3.34-5.84-5-12.26-5-19.26,0-7.84,2.04-14.67,6.13-20.51,4.08-5.83,10.13-10.38,18.14-13.63,8-3.25,17.92-4.88,29.77-4.88h31.77c0-6.67-.96-12.21-2.88-16.63-1.92-4.42-4.8-7.75-8.63-10.01-3.84-2.25-8.84-3.38-15.01-3.38-6.84,0-12.67,1.59-17.51,4.75-4.84,3.17-7.84,7.92-9,14.26h-29.52c1-9,4.04-16.76,9.13-23.26,5.08-6.5,11.76-11.51,20.01-15.01,8.25-3.5,17.22-5.25,26.89-5.25,12.01,0,22.22,2.04,30.64,6.13,8.42,4.09,14.84,9.88,19.26,17.38,4.42,7.5,6.63,16.68,6.63,27.52v78.04h-25.76l-3-20.01c-1.67,3.34-3.79,6.38-6.38,9.13-2.59,2.75-5.59,5.17-9,7.25-3.42,2.09-7.21,3.71-11.38,4.88-4.17,1.17-8.92,1.75-14.26,1.75ZM1152.84,360.71c4.83,0,9.17-.88,13.01-2.63,3.83-1.75,7.09-4.25,9.76-7.5,2.67-3.25,4.79-6.92,6.38-11.01,1.58-4.08,2.54-8.38,2.88-12.88v-.5h-27.52c-6,0-10.88.75-14.63,2.25-3.75,1.5-6.55,3.54-8.38,6.13-1.84,2.59-2.75,5.63-2.75,9.13s.88,6.75,2.63,9.25,4.25,4.42,7.5,5.75c3.25,1.34,6.96,2,11.13,2Z"/>
    <path class="cls-34" d="M1247.89,381.47v-180.1h30.02v180.1h-30.02Z"/>
    <path class="cls-34" d="M1373.2,381.47v-175.1h30.02l84.3,126.57v-126.57h30.02v175.1h-30.02l-84.3-126.32v126.32h-30.02Z"/>
    <path class="cls-34" d="M1610.83,384.47c-12.51,0-23.51-2.75-33.02-8.25s-16.93-13.17-22.26-23.01c-5.34-9.84-8-21.18-8-34.02s2.63-24.76,7.88-34.77,12.67-17.84,22.26-23.51c9.59-5.67,20.72-8.5,33.39-8.5s23.05,2.75,32.14,8.25c9.09,5.5,16.17,12.84,21.26,22.01,5.08,9.17,7.63,19.6,7.63,31.27v5.38c0,1.92-.17,4.05-.5,6.38h-102.56v-19.26h72.79c-.34-9-3.42-16.17-9.25-21.51-5.84-5.33-13.09-8-21.76-8-6.17,0-11.84,1.42-17.01,4.25-5.17,2.84-9.25,7.05-12.26,12.63-3,5.59-4.5,12.63-4.5,21.14v7.25c0,7.84,1.46,14.55,4.38,20.14,2.92,5.59,6.88,9.88,11.88,12.88,5,3,10.76,4.5,17.26,4.5,7,0,12.8-1.5,17.38-4.5,4.58-3,7.88-6.92,9.88-11.76h30.52c-2,7.67-5.71,14.63-11.13,20.89-5.42,6.25-12.05,11.17-19.89,14.76-7.84,3.58-16.68,5.38-26.51,5.38Z"/>
    <path class="cls-34" d="M1752.16,381.47c-8.5,0-15.88-1.33-22.14-4-6.25-2.67-11.09-7.09-14.51-13.26-3.42-6.17-5.13-14.51-5.13-25.01v-58.78h-21.76v-25.01h21.76l3.5-33.27h26.51v33.27h34.02v25.01h-34.02v58.78c0,6.34,1.33,10.72,4,13.13,2.67,2.42,7.34,3.63,14.01,3.63h15.51v25.51h-21.76Z"/>
    <path class="cls-34" d="M1827.7,381.47l-37.02-126.07h29.77l25.76,103.31h-5.5l28.77-103.31h33.52l29.02,103.31-5.5.25,25.76-103.56h29.77l-36.77,126.07h-31.02l-30.77-107.06h6.25l-31.02,107.06h-31.02Z"/>
    <path class="cls-34" d="M2057.82,384.47c-12.01,0-22.81-2.75-32.39-8.25-9.59-5.5-17.1-13.26-22.51-23.26-5.42-10.01-8.13-21.43-8.13-34.27s2.75-24.76,8.25-34.77c5.5-10.01,13.05-17.76,22.64-23.26,9.59-5.5,20.39-8.25,32.39-8.25s22.76,2.75,32.27,8.25c9.51,5.5,17.05,13.22,22.64,23.14,5.58,9.92,8.38,21.47,8.38,34.64s-2.84,24.51-8.5,34.52c-5.67,10.01-13.26,17.76-22.76,23.26s-20.26,8.25-32.27,8.25ZM2057.82,358.7c6,0,11.46-1.54,16.38-4.63,4.92-3.08,8.88-7.63,11.88-13.63,3-6,4.5-13.34,4.5-22.01s-1.46-16.26-4.38-22.26c-2.92-6-6.84-10.51-11.76-13.51-4.92-3-10.3-4.5-16.13-4.5s-11.51,1.5-16.51,4.5c-5,3-9,7.5-12.01,13.51-3,6-4.5,13.43-4.5,22.26s1.5,16.01,4.5,22.01c3,6,6.96,10.55,11.88,13.63,4.92,3.09,10.29,4.63,16.13,4.63Z"/>
    <path class="cls-34" d="M2150.62,381.47v-126.07h26.76l2.5,23.51c3.17-5.5,6.92-10.21,11.26-14.13,4.33-3.92,9.59-6.96,15.76-9.13,6.17-2.17,13.01-3.25,20.51-3.25v31.52h-10.76c-5,0-9.76.63-14.26,1.88-4.5,1.25-8.38,3.29-11.63,6.13-3.25,2.84-5.75,6.67-7.5,11.51-1.75,4.84-2.63,10.76-2.63,17.76v60.28h-30.02Z"/>
    <path class="cls-34" d="M2249.92,381.47v-180.1h30.02v180.1h-30.02ZM2330.97,381.47l-55.53-69.04,49.78-57.03h35.77l-62.28,69.29.25-23.26,69.29,80.04h-37.27Z"/>
  </g>
  <g>
    <path class="cls-34" d="M3569.83,384.47v-175.1h63.03c14.01,0,25.64,2.38,34.89,7.13,9.25,4.75,16.09,11.13,20.51,19.14,4.42,8,6.63,17.18,6.63,27.52,0,9.67-2.17,18.51-6.5,26.51-4.34,8-11.09,14.51-20.26,19.51-9.17,5-20.93,7.5-35.27,7.5h-33.02v67.79h-30.02ZM3599.84,292.17h31.52c11.67,0,20.09-2.63,25.26-7.88,5.17-5.25,7.75-12.38,7.75-21.39s-2.59-16.3-7.75-21.39c-5.17-5.08-13.59-7.63-25.26-7.63h-31.52v58.28Z"/>
    <path class="cls-34" d="M3766.68,387.47c-10,0-18.63-2.04-25.89-6.13-7.25-4.08-12.8-10.26-16.63-18.51-3.84-8.25-5.75-18.39-5.75-30.39v-74.04h30.02v70.79c0,10.84,2.29,19.05,6.88,24.64,4.58,5.59,11.55,8.38,20.89,8.38,5.84,0,11.13-1.46,15.88-4.38,4.75-2.92,8.5-7,11.26-12.26,2.75-5.25,4.13-11.8,4.13-19.64v-67.54h30.02v126.07h-26.51l-2.25-21.01c-3.67,7.34-9.13,13.18-16.38,17.51s-15.8,6.5-25.64,6.5Z"/>
    <path class="cls-34" d="M3943.27,387.47c-6.84,0-12.88-.92-18.13-2.75s-9.92-4.29-14.01-7.38c-4.09-3.08-7.55-6.54-10.38-10.38l-2.75,17.51h-26.77v-180.1h30.02v72.54c4-6,9.42-11.09,16.26-15.26,6.84-4.17,15.26-6.25,25.26-6.25,11.84,0,22.35,2.88,31.52,8.63,9.17,5.75,16.34,13.59,21.51,23.51,5.17,9.92,7.75,21.22,7.75,33.89s-2.59,24.01-7.75,34.02c-5.17,10.01-12.3,17.85-21.39,23.51-9.09,5.67-19.47,8.5-31.14,8.5ZM3936.77,361.45c7,0,13.17-1.67,18.51-5,5.33-3.33,9.59-7.96,12.76-13.88,3.17-5.92,4.75-12.96,4.75-21.14,0-7.67-1.59-14.55-4.75-20.64-3.17-6.09-7.42-10.84-12.76-14.26-5.34-3.42-11.51-5.13-18.51-5.13s-13.72,1.71-19.14,5.13c-5.42,3.42-9.63,8.13-12.63,14.13-3,6-4.5,12.92-4.5,20.76s1.5,14.76,4.5,20.76c3,6,7.21,10.72,12.63,14.13,5.42,3.42,11.8,5.13,19.14,5.13Z"/>
    <path class="cls-34" d="M4032.82,384.47v-180.1h30.02v180.1h-30.02Z"/>
    <path class="cls-34" d="M4112.37,238.39c-5.5,0-10.05-1.71-13.63-5.13-3.59-3.42-5.38-7.63-5.38-12.63s1.79-9.38,5.38-12.63c3.58-3.25,8.13-4.88,13.63-4.88s10.04,1.63,13.63,4.88c3.58,3.25,5.38,7.46,5.38,12.63s-1.79,9.22-5.38,12.63c-3.59,3.42-8.13,5.13-13.63,5.13ZM4097.36,384.47v-126.07h30.02v126.07h-30.02Z"/>
    <path class="cls-34" d="M4221.92,387.47c-12.51,0-23.6-2.79-33.27-8.38-9.67-5.58-17.22-13.34-22.64-23.26-5.42-9.92-8.13-21.22-8.13-33.89s2.71-24.76,8.13-34.77c5.42-10.01,12.96-17.8,22.64-23.39,9.67-5.58,20.76-8.38,33.27-8.38,15.84,0,29.14,4.13,39.9,12.38s17.55,19.55,20.39,33.89h-31.52c-1.67-6.5-5.13-11.55-10.38-15.13-5.25-3.58-11.47-5.38-18.63-5.38-6.17,0-11.8,1.54-16.88,4.63-5.09,3.09-9.09,7.63-12.01,13.63-2.92,6-4.38,13.34-4.38,22.01,0,6.34.83,12.05,2.5,17.13,1.67,5.09,4.04,9.34,7.13,12.76,3.08,3.42,6.63,6.05,10.63,7.88,4,1.84,8.34,2.75,13.01,2.75s9-.83,13.01-2.5c4-1.67,7.42-4.04,10.26-7.13,2.83-3.08,4.75-6.79,5.75-11.13h31.52c-3,14.01-9.88,25.23-20.64,33.64-10.76,8.42-23.97,12.63-39.65,12.63Z"/>
    <path class="cls-34" d="M4373.25,384.47v-175.1h30.02l84.3,126.57v-126.57h30.02v175.1h-30.02l-84.3-126.32v126.32h-30.02Z"/>
    <path class="cls-34" d="M4610.88,387.47c-12.51,0-23.51-2.75-33.02-8.25-9.51-5.5-16.93-13.17-22.26-23.01-5.34-9.84-8-21.18-8-34.02s2.63-24.76,7.88-34.77,12.67-17.84,22.26-23.51c9.59-5.67,20.72-8.5,33.39-8.5s23.05,2.75,32.14,8.25c9.09,5.5,16.17,12.84,21.26,22.01,5.08,9.17,7.63,19.6,7.63,31.27v5.38c0,1.92-.17,4.05-.5,6.38h-102.56v-19.26h72.79c-.34-9-3.42-16.17-9.26-21.51-5.84-5.33-13.09-8-21.76-8-6.17,0-11.84,1.42-17.01,4.25-5.17,2.84-9.25,7.05-12.26,12.63-3,5.59-4.5,12.63-4.5,21.14v7.25c0,7.84,1.46,14.55,4.38,20.14,2.92,5.59,6.88,9.88,11.88,12.88,5,3,10.76,4.5,17.26,4.5,7,0,12.8-1.5,17.38-4.5,4.58-3,7.88-6.92,9.88-11.76h30.52c-2,7.67-5.71,14.63-11.13,20.89-5.42,6.25-12.05,11.17-19.89,14.76-7.84,3.58-16.68,5.38-26.51,5.38Z"/>
    <path class="cls-34" d="M4752.21,384.47c-8.5,0-15.88-1.33-22.14-4-6.25-2.67-11.09-7.09-14.51-13.26-3.42-6.17-5.13-14.51-5.13-25.01v-58.78h-21.76v-25.01h21.76l3.5-33.27h26.51v33.27h34.02v25.01h-34.02v58.78c0,6.34,1.33,10.72,4,13.13,2.67,2.42,7.34,3.63,14.01,3.63h15.51v25.51h-21.76Z"/>
    <path class="cls-34" d="M4827.75,384.47l-37.02-126.07h29.77l25.76,103.31h-5.5l28.77-103.31h33.52l29.02,103.31-5.5.25,25.76-103.56h29.77l-36.77,126.07h-31.02l-30.77-107.06h6.25l-31.02,107.06h-31.02Z"/>
    <path class="cls-34" d="M5057.87,387.47c-12.01,0-22.81-2.75-32.39-8.25-9.59-5.5-17.09-13.26-22.51-23.26-5.42-10.01-8.13-21.43-8.13-34.27s2.75-24.76,8.25-34.77c5.5-10.01,13.05-17.76,22.64-23.26,9.59-5.5,20.39-8.25,32.39-8.25s22.76,2.75,32.27,8.25c9.5,5.5,17.05,13.22,22.64,23.14,5.59,9.92,8.38,21.47,8.38,34.64s-2.84,24.51-8.5,34.52c-5.67,10.01-13.26,17.76-22.76,23.26-9.51,5.5-20.26,8.25-32.27,8.25ZM5057.87,361.7c6,0,11.46-1.54,16.38-4.63,4.92-3.08,8.88-7.63,11.88-13.63,3-6,4.5-13.34,4.5-22.01s-1.46-16.26-4.38-22.26c-2.92-6-6.84-10.51-11.76-13.51-4.92-3-10.3-4.5-16.13-4.5s-11.51,1.5-16.51,4.5c-5,3-9,7.5-12.01,13.51s-4.5,13.43-4.5,22.26,1.5,16.01,4.5,22.01,6.96,10.55,11.88,13.63c4.92,3.09,10.29,4.63,16.13,4.63Z"/>
    <path class="cls-34" d="M5150.67,384.47v-126.07h26.77l2.5,23.51c3.17-5.5,6.92-10.21,11.26-14.13,4.33-3.92,9.59-6.96,15.76-9.13,6.17-2.17,13.01-3.25,20.51-3.25v31.52h-10.76c-5,0-9.76.63-14.26,1.88-4.5,1.25-8.38,3.29-11.63,6.13-3.25,2.84-5.75,6.67-7.5,11.51-1.75,4.84-2.63,10.76-2.63,17.76v60.28h-30.02Z"/>
    <path class="cls-34" d="M5249.97,384.47v-180.1h30.02v180.1h-30.02ZM5331.02,384.47l-55.53-69.04,49.78-57.03h35.77l-62.28,69.29.25-23.26,69.29,80.04h-37.27Z"/>
  </g>
  <path class="cls-15" d="M4867.06,795.79h0c136.29-71.02,302.56,9.05,332.01,159.89h0s0,0,0,0c140.5,62.28,181.57,242.19,82,359.26h0s0,0,0,0c38.91,148.68-76.15,292.96-229.75,288.1h0s0,0,0,0c-91.98,123.12-276.52,123.12-368.5,0h0s0,0,0,0c-153.61,4.85-268.67-139.43-229.75-288.1h0s0,0,0,0c-99.57-117.07-58.51-296.98,82-359.26h0s0,0,0,0c29.45-150.84,195.71-230.91,332.01-159.89h0Z"/>
  <g>
    <path class="cls-35" d="M4611.34,1258.58v-95.25h16.33v95.25h-16.33Z"/>
    <path class="cls-35" d="M4646.45,1258.58v-68.58h14.42l1.09,11.43c2.09-3.99,5.08-7.17,8.98-9.53,3.9-2.36,8.53-3.54,13.88-3.54s10.25,1.16,14.15,3.47c3.9,2.31,6.89,5.69,8.98,10.14,2.09,4.45,3.13,9.98,3.13,16.6v40.01h-16.19v-38.37c0-5.9-1.27-10.39-3.81-13.47-2.54-3.08-6.31-4.63-11.29-4.63-3.27,0-6.17.8-8.71,2.38-2.54,1.59-4.56,3.83-6.06,6.74-1.5,2.9-2.25,6.49-2.25,10.75v36.6h-16.33Z"/>
    <path class="cls-35" d="M4758.3,1258.58c-4.63,0-8.64-.73-12.04-2.18-3.4-1.45-6.03-3.85-7.89-7.21-1.86-3.35-2.79-7.89-2.79-13.61v-31.98h-11.84v-13.61h11.84l1.91-18.1h14.42v18.1h18.51v13.61h-18.51v31.98c0,3.45.73,5.83,2.18,7.14,1.45,1.32,3.99,1.97,7.62,1.97h8.44v13.88h-11.84Z"/>
    <path class="cls-35" d="M4816.14,1260.21c-6.8,0-12.79-1.5-17.96-4.49-5.17-2.99-9.21-7.17-12.11-12.52-2.9-5.35-4.35-11.52-4.35-18.51s1.43-13.47,4.29-18.91c2.86-5.44,6.89-9.71,12.11-12.79,5.22-3.08,11.27-4.63,18.17-4.63s12.54,1.5,17.49,4.49c4.94,2.99,8.8,6.99,11.57,11.98,2.77,4.99,4.15,10.66,4.15,17.01v2.93c0,1.04-.09,2.2-.27,3.47h-55.79v-10.48h39.6c-.18-4.9-1.86-8.8-5.04-11.7-3.18-2.9-7.12-4.35-11.84-4.35-3.36,0-6.44.77-9.25,2.31-2.81,1.54-5.04,3.83-6.67,6.87-1.63,3.04-2.45,6.87-2.45,11.5v3.95c0,4.27.79,7.92,2.38,10.95,1.59,3.04,3.74,5.38,6.46,7.01,2.72,1.63,5.85,2.45,9.39,2.45,3.81,0,6.96-.82,9.46-2.45,2.49-1.63,4.29-3.76,5.38-6.4h16.6c-1.09,4.17-3.11,7.96-6.06,11.36-2.95,3.4-6.56,6.08-10.82,8.03-4.27,1.95-9.07,2.93-14.42,2.93Z"/>
    <path class="cls-35" d="M4864.71,1258.58v-68.58h14.56l1.36,12.79c1.72-2.99,3.76-5.56,6.12-7.69,2.36-2.13,5.22-3.79,8.57-4.97,3.36-1.18,7.08-1.77,11.16-1.77v17.15h-5.85c-2.72,0-5.31.34-7.76,1.02-2.45.68-4.56,1.79-6.33,3.33-1.77,1.54-3.13,3.63-4.08,6.26-.95,2.63-1.43,5.85-1.43,9.66v32.79h-16.33Z"/>
    <path class="cls-35" d="M4918.74,1258.58v-68.58h14.42l1.09,11.43c2.09-3.99,5.08-7.17,8.98-9.53,3.9-2.36,8.53-3.54,13.88-3.54s10.25,1.16,14.15,3.47c3.9,2.31,6.89,5.69,8.98,10.14,2.09,4.45,3.13,9.98,3.13,16.6v40.01h-16.19v-38.37c0-5.9-1.27-10.39-3.81-13.47-2.54-3.08-6.31-4.63-11.29-4.63-3.27,0-6.17.8-8.71,2.38-2.54,1.59-4.56,3.83-6.06,6.74-1.5,2.9-2.25,6.49-2.25,10.75v36.6h-16.33Z"/>
    <path class="cls-35" d="M5032.91,1260.21c-6.8,0-12.79-1.5-17.96-4.49-5.17-2.99-9.21-7.17-12.11-12.52-2.9-5.35-4.35-11.52-4.35-18.51s1.43-13.47,4.29-18.91c2.86-5.44,6.89-9.71,12.11-12.79,5.22-3.08,11.27-4.63,18.17-4.63s12.54,1.5,17.49,4.49c4.94,2.99,8.8,6.99,11.57,11.98,2.77,4.99,4.15,10.66,4.15,17.01v2.93c0,1.04-.09,2.2-.27,3.47h-55.79v-10.48h39.6c-.18-4.9-1.86-8.8-5.04-11.7-3.18-2.9-7.12-4.35-11.84-4.35-3.36,0-6.44.77-9.25,2.31-2.81,1.54-5.04,3.83-6.67,6.87-1.63,3.04-2.45,6.87-2.45,11.5v3.95c0,4.27.79,7.92,2.38,10.95,1.59,3.04,3.74,5.38,6.46,7.01,2.72,1.63,5.85,2.45,9.39,2.45,3.81,0,6.96-.82,9.46-2.45,2.49-1.63,4.29-3.76,5.38-6.4h16.6c-1.09,4.17-3.11,7.96-6.06,11.36-2.95,3.4-6.56,6.08-10.82,8.03-4.27,1.95-9.07,2.93-14.42,2.93Z"/>
    <path class="cls-35" d="M5109.79,1258.58c-4.63,0-8.64-.73-12.04-2.18-3.4-1.45-6.03-3.85-7.89-7.21-1.86-3.35-2.79-7.89-2.79-13.61v-31.98h-11.84v-13.61h11.84l1.91-18.1h14.42v18.1h18.51v13.61h-18.51v31.98c0,3.45.73,5.83,2.18,7.14,1.45,1.32,3.99,1.97,7.62,1.97h8.44v13.88h-11.84Z"/>
  </g>
  <g>
    <path class="cls-28" d="M1051.01,3302.53c-9.61,0-18.31-1.9-26.08-5.69-7.78-3.79-13.98-9.61-18.59-17.45-4.62-7.84-6.92-17.71-6.92-29.59v-82.33h22.77v82.52c0,7.21,1.17,13.16,3.51,17.83,2.34,4.68,5.72,8.19,10.15,10.53,4.43,2.34,9.61,3.51,15.56,3.51s11.26-1.17,15.56-3.51c4.3-2.34,7.65-5.85,10.05-10.53,2.4-4.68,3.6-10.62,3.6-17.83v-82.52h22.77v82.33c0,11.89-2.37,21.75-7.11,29.59-4.74,7.84-11.07,13.66-18.97,17.45-7.91,3.79-16.67,5.69-26.28,5.69Z"/>
    <path class="cls-28" d="M1166.17,3302.53c-8.6,0-16-1.39-22.2-4.17-6.2-2.78-11.1-6.57-14.7-11.38-3.6-4.8-5.72-10.37-6.36-16.69h22.77c.5,2.66,1.64,5.06,3.41,7.21,1.77,2.15,4.05,3.89,6.83,5.22,2.78,1.33,6.13,1.99,10.05,1.99s6.86-.54,9.2-1.61c2.34-1.07,4.11-2.5,5.31-4.27,1.2-1.77,1.8-3.67,1.8-5.69,0-3.16-.79-5.53-2.37-7.11-1.58-1.58-3.92-2.88-7.02-3.89-3.1-1.01-6.92-1.9-11.48-2.66-4.3-.88-8.6-1.96-12.9-3.22-4.3-1.26-8.13-2.94-11.48-5.03-3.35-2.09-6.04-4.71-8.06-7.87-2.02-3.16-3.04-7.02-3.04-11.57,0-5.56,1.48-10.59,4.46-15.08,2.97-4.49,7.33-8,13.09-10.53,5.75-2.53,12.49-3.79,20.2-3.79,11.26,0,20.14,2.53,26.65,7.59,6.51,5.06,10.4,12.21,11.67,21.44h-21.63c-.76-3.54-2.56-6.29-5.41-8.25-2.85-1.96-6.67-2.94-11.48-2.94s-8.7.92-11.29,2.75c-2.59,1.83-3.89,4.27-3.89,7.3,0,2.03.79,3.79,2.37,5.31,1.58,1.52,3.86,2.88,6.83,4.08,2.97,1.2,6.73,2.25,11.29,3.13,7.08,1.27,13.34,2.88,18.78,4.84,5.44,1.96,9.74,4.78,12.9,8.44,3.16,3.67,4.74,8.85,4.74,15.56,0,6.2-1.58,11.61-4.74,16.22-3.16,4.62-7.65,8.22-13.47,10.81-5.82,2.59-12.78,3.89-20.87,3.89Z"/>
    <path class="cls-28" d="M1272.02,3302.53c-9.49,0-17.83-2.09-25.04-6.26-7.21-4.17-12.84-9.99-16.88-17.45-4.05-7.46-6.07-16.06-6.07-25.8s1.99-18.78,5.98-26.37c3.98-7.59,9.61-13.53,16.88-17.83,7.27-4.3,15.71-6.45,25.33-6.45s17.48,2.09,24.38,6.26c6.89,4.17,12.27,9.74,16.13,16.7,3.86,6.96,5.79,14.86,5.79,23.71v4.08c0,1.46-.13,3.07-.38,4.84h-77.78v-14.61h55.21c-.25-6.83-2.59-12.27-7.02-16.32-4.43-4.05-9.93-6.07-16.5-6.07-4.68,0-8.98,1.08-12.9,3.23-3.92,2.15-7.02,5.34-9.3,9.58-2.28,4.24-3.41,9.58-3.41,16.03v5.5c0,5.95,1.11,11.04,3.32,15.27,2.21,4.24,5.22,7.49,9.01,9.77,3.79,2.28,8.16,3.42,13.09,3.42,5.31,0,9.7-1.14,13.19-3.42,3.48-2.28,5.98-5.25,7.49-8.92h23.15c-1.52,5.82-4.33,11.1-8.44,15.84-4.11,4.74-9.14,8.47-15.08,11.19-5.95,2.72-12.65,4.08-20.11,4.08Z"/>
    <path class="cls-28" d="M1339.75,3300.25v-95.61h20.3l1.9,17.83c2.4-4.17,5.25-7.75,8.54-10.72,3.29-2.97,7.27-5.28,11.95-6.92,4.68-1.64,9.87-2.47,15.56-2.47v23.9h-8.16c-3.79,0-7.4.47-10.81,1.42-3.41.95-6.35,2.5-8.82,4.65-2.47,2.15-4.36,5.06-5.69,8.73-1.33,3.67-1.99,8.16-1.99,13.47v45.72h-22.77Z"/>
  </g>
  <g>
    <path class="cls-28" d="M4593.13,3302.53c-9.61,0-18.15-1.71-25.61-5.12-7.46-3.42-13.31-8.28-17.55-14.61-4.24-6.32-6.42-13.85-6.54-22.58h24.09c.12,4.43,1.2,8.38,3.23,11.86,2.02,3.48,4.93,6.23,8.73,8.25,3.79,2.02,8.35,3.04,13.66,3.04,4.55,0,8.5-.73,11.86-2.18,3.35-1.45,5.91-3.54,7.68-6.26,1.77-2.72,2.66-5.91,2.66-9.58,0-4.17-.95-7.62-2.85-10.34-1.9-2.72-4.52-5.03-7.87-6.92-3.35-1.9-7.27-3.57-11.76-5.03-4.49-1.45-9.2-2.94-14.13-4.46-10.5-3.54-18.43-8.09-23.81-13.66-5.38-5.56-8.06-12.96-8.06-22.2,0-7.71,1.87-14.35,5.6-19.92,3.73-5.56,8.92-9.89,15.56-13,6.64-3.1,14.32-4.65,23.05-4.65s16.6,1.58,23.24,4.74c6.64,3.16,11.86,7.56,15.65,13.19,3.79,5.63,5.75,12.36,5.88,20.2h-24.28c0-3.29-.82-6.36-2.47-9.2-1.65-2.85-4.02-5.18-7.11-7.02-3.1-1.83-6.86-2.75-11.29-2.75-3.79-.12-7.18.47-10.15,1.8-2.97,1.33-5.34,3.22-7.11,5.69-1.77,2.47-2.66,5.53-2.66,9.2s.82,6.48,2.47,8.82c1.64,2.34,3.98,4.3,7.02,5.88,3.04,1.58,6.54,3.07,10.53,4.46,3.98,1.39,8.38,2.91,13.19,4.55,6.57,2.15,12.55,4.78,17.93,7.87,5.37,3.1,9.64,7.11,12.81,12.05,3.16,4.93,4.74,11.32,4.74,19.16,0,6.83-1.77,13.19-5.31,19.07-3.54,5.88-8.73,10.62-15.56,14.23-6.83,3.6-15.3,5.41-25.42,5.41Z"/>
    <path class="cls-28" d="M4705.82,3302.53c-9.49,0-17.83-2.09-25.04-6.26-7.21-4.17-12.84-9.99-16.88-17.45-4.05-7.46-6.07-16.06-6.07-25.8s1.99-18.78,5.98-26.37c3.98-7.59,9.61-13.53,16.88-17.83,7.27-4.3,15.71-6.45,25.33-6.45s17.48,2.09,24.38,6.26c6.89,4.17,12.27,9.74,16.13,16.7,3.86,6.96,5.79,14.86,5.79,23.71v4.08c0,1.46-.13,3.07-.38,4.84h-77.78v-14.61h55.21c-.25-6.83-2.59-12.27-7.02-16.32-4.43-4.05-9.93-6.07-16.5-6.07-4.68,0-8.98,1.08-12.9,3.23-3.92,2.15-7.02,5.34-9.3,9.58-2.28,4.24-3.41,9.58-3.41,16.03v5.5c0,5.95,1.11,11.04,3.32,15.27,2.21,4.24,5.22,7.49,9.01,9.77,3.79,2.28,8.16,3.42,13.09,3.42,5.31,0,9.7-1.14,13.18-3.42,3.48-2.28,5.98-5.25,7.49-8.92h23.14c-1.52,5.82-4.33,11.1-8.44,15.84-4.11,4.74-9.14,8.47-15.08,11.19-5.95,2.72-12.65,4.08-20.11,4.08Z"/>
    <path class="cls-28" d="M4773.54,3300.25v-95.61h20.3l1.9,17.83c2.4-4.17,5.25-7.75,8.54-10.72,3.29-2.97,7.27-5.28,11.95-6.92,4.68-1.64,9.87-2.47,15.56-2.47v23.9h-8.16c-3.79,0-7.4.47-10.81,1.42-3.42.95-6.35,2.5-8.82,4.65-2.47,2.15-4.36,5.06-5.69,8.73-1.33,3.67-1.99,8.16-1.99,13.47v45.72h-22.77Z"/>
    <path class="cls-28" d="M4874.85,3300.25l-35.29-95.61h23.9l25.04,73.99,25.42-73.99h23.71l-35.48,95.61h-27.32Z"/>
    <path class="cls-28" d="M4966.1,3189.46c-4.17,0-7.62-1.3-10.34-3.89-2.72-2.59-4.08-5.79-4.08-9.58s1.36-7.11,4.08-9.58c2.72-2.47,6.17-3.7,10.34-3.7s7.62,1.23,10.34,3.7c2.72,2.47,4.08,5.66,4.08,9.58s-1.36,6.99-4.08,9.58c-2.72,2.59-6.17,3.89-10.34,3.89ZM4954.71,3300.25v-95.61h22.77v95.61h-22.77Z"/>
    <path class="cls-28" d="M5049.19,3302.53c-9.49,0-17.9-2.12-25.23-6.36-7.34-4.24-13.06-10.12-17.17-17.64-4.11-7.52-6.17-16.09-6.17-25.71s2.05-18.78,6.17-26.37c4.11-7.59,9.83-13.5,17.17-17.74,7.33-4.24,15.75-6.35,25.23-6.35,12.01,0,22.1,3.13,30.26,9.39,8.16,6.26,13.31,14.83,15.46,25.71h-23.9c-1.27-4.93-3.89-8.76-7.87-11.48-3.98-2.72-8.7-4.08-14.13-4.08-4.68,0-8.95,1.17-12.8,3.51-3.86,2.34-6.9,5.79-9.11,10.34-2.21,4.55-3.32,10.12-3.32,16.69,0,4.81.63,9.14,1.9,13,1.26,3.86,3.06,7.08,5.41,9.68,2.34,2.59,5.03,4.59,8.06,5.98,3.04,1.39,6.32,2.09,9.87,2.09s6.83-.63,9.87-1.9c3.04-1.26,5.63-3.07,7.78-5.41,2.15-2.34,3.6-5.15,4.36-8.44h23.9c-2.28,10.62-7.49,19.13-15.65,25.52-8.16,6.39-18.18,9.58-30.07,9.58Z"/>
    <path class="cls-28" d="M5161.69,3302.53c-9.49,0-17.83-2.09-25.04-6.26-7.21-4.17-12.84-9.99-16.88-17.45-4.05-7.46-6.07-16.06-6.07-25.8s1.99-18.78,5.98-26.37c3.98-7.59,9.61-13.53,16.88-17.83,7.27-4.3,15.71-6.45,25.33-6.45s17.48,2.09,24.38,6.26c6.89,4.17,12.27,9.74,16.13,16.7,3.86,6.96,5.79,14.86,5.79,23.71v4.08c0,1.46-.13,3.07-.38,4.84h-77.78v-14.61h55.21c-.25-6.83-2.59-12.27-7.02-16.32-4.43-4.05-9.93-6.07-16.5-6.07-4.68,0-8.98,1.08-12.9,3.23-3.92,2.15-7.02,5.34-9.3,9.58-2.28,4.24-3.41,9.58-3.41,16.03v5.5c0,5.95,1.11,11.04,3.32,15.27,2.21,4.24,5.22,7.49,9.01,9.77s8.16,3.42,13.09,3.42c5.31,0,9.7-1.14,13.18-3.42,3.48-2.28,5.98-5.25,7.49-8.92h23.14c-1.52,5.82-4.33,11.1-8.44,15.84-4.11,4.74-9.14,8.47-15.08,11.19-5.95,2.72-12.65,4.08-20.11,4.08Z"/>
  </g>
</svg>