<?xml version="1.0" encoding="UTF-8"?>
<svg id="Capa_1" data-name="Capa 1" xmlns="http://www.w3.org/2000/svg" viewBox="0 0 1432 1432">
  <path d="M716,60c88.59,0,174.49,17.34,255.33,51.53,38.86,16.44,76.34,36.78,111.41,60.47,34.75,23.48,67.43,50.44,97.13,80.14,29.7,29.7,56.66,62.38,80.14,97.13,23.69,35.07,44.04,72.55,60.47,111.41,34.19,80.84,51.53,166.74,51.53,255.33s-17.34,174.49-51.53,255.33c-16.44,38.86-36.78,76.34-60.47,111.41-23.48,34.75-50.44,67.43-80.14,97.13-29.7,29.7-62.38,56.66-97.13,80.14-35.07,23.69-72.55,44.04-111.41,60.47-80.84,34.19-166.74,51.53-255.33,51.53s-174.49-17.34-255.33-51.53c-38.86-16.44-76.34-36.78-111.41-60.47-34.75-23.48-67.43-50.44-97.13-80.14-29.7-29.7-56.66-62.38-80.14-97.13-23.69-35.07-44.04-72.55-60.47-111.41-34.19-80.84-51.53-166.74-51.53-255.33s17.34-174.49,51.53-255.33c16.44-38.86,36.78-76.34,60.47-111.41,23.48-34.75,50.44-67.43,80.14-97.13,29.7-29.7,62.38-56.66,97.13-80.14,35.07-23.69,72.55-44.04,111.41-60.47,80.84-34.19,166.74-51.53,255.33-51.53M716,0C320.56,0,0,320.56,0,716s320.56,716,716,716,716-320.56,716-716S1111.44,0,716,0h0Z"/>
  <path d="M543.28,1166.68v-51c46.78-1.66,73.8-4.58,81.05-8.73s11.91-15.83,13.98-34.98c3.31-26.22,4.97-84.09,4.97-173.61,0-38.7-.62-74.5-1.86-107.41l-1.88-73.06c0-24.14-2.59-39.02-7.77-44.64s-19.14-8.84-41.92-9.69l-46.58-1.88v-48c100.12-7.62,182.61-25.62,247.42-54l15.58,12.52c-6,79.64-9,195.55-9,347.73,0,87.97,1.44,141.12,4.33,159.47,2.05,12.94,5.86,21.28,11.42,25.03s32.64,7.5,81.25,11.25v51c-74.97-2.67-132.95-4-173.95-4-21.95,0-80.97,1.33-177.05,4ZM716.6,261.68c26.61,0,49.38,9.47,68.3,28.39s28.39,41.89,28.39,68.92-9.47,49.39-28.39,68.31-41.89,28.38-68.92,28.38-49.39-9.45-68.31-28.38-28.38-41.69-28.38-68.31,9.45-50,28.38-68.92,41.91-28.39,68.94-28.39Z"/>
</svg>