<?xml version="1.0" encoding="UTF-8"?>
<svg id="Capa_1" data-name="Capa 1" xmlns="http://www.w3.org/2000/svg" viewBox="0 0 1307 1307">
  <defs>
    <style>
      .cls-1 {
        fill: #fff;
      }
    </style>
  </defs>
  <path class="cls-1" d="M653.5,0C292.58,0,0,292.58,0,653.5s292.58,653.5,653.5,653.5,653.5-292.58,653.5-653.5S1014.42,0,653.5,0ZM650.8,866.13c.3,3.24,2.7,6.04,7.21,8.43s9.12,3.35,13.85,2.91c8.01-.75,15.82-3.7,23.43-8.85,20.2-12.83,43.84-34.87,70.91-66.09l25.71,6.46c-66.29,84.01-140.82,129.88-223.58,137.64-31.64,2.97-57.33.15-77.04-8.42-19.71-8.57-30.31-20.79-31.79-36.66-.98-10.49,2.28-24.21,9.82-41.21l91.91-213.49c8.81-20.54,12.75-35.77,11.82-45.69-.58-6.22-6-11.29-16.25-15.19-10.25-3.89-23.9-5.04-40.92-3.45-7.75.73-17.02,1.74-27.82,3.03l7.37-17.77,253.16-46.83,45.19-4.24-132.79,314.48c-7.29,17.98-10.67,29.62-10.17,34.95ZM800.37,427.28c-19.61,14.17-44.11,22.64-73.55,25.4-28.97,2.72-54.38-1.07-76.28-11.35-21.9-10.28-33.65-24.11-35.27-41.47-1.63-17.35,7.24-33.1,26.6-47.25,19.36-14.15,43.77-22.62,73.2-25.38,29.9-2.8,55.69.96,77.34,11.27,21.65,10.31,33.3,24.14,34.93,41.48,1.63,17.36-7.36,33.13-26.97,47.3Z"/>
</svg>