<?xml version="1.0" encoding="UTF-8"?>
<svg id="Capa_1" data-name="Capa 1" xmlns="http://www.w3.org/2000/svg" viewBox="0 0 1884.81 1041.5">
  <defs>
    <style>
      .cls-1 {
        fill: gray;
        opacity: .18;
      }

      .cls-2 {
        fill: #fff;
      }

      .cls-3, .cls-4 {
        stroke-miterlimit: 10;
        stroke-width: 10px;
      }

      .cls-3, .cls-4, .cls-5 {
        fill: none;
      }

      .cls-3, .cls-5 {
        stroke: #333;
      }

      .cls-6 {
        fill: #666;
      }

      .cls-4 {
        stroke: #fff;
      }

      .cls-7 {
        fill: #b3b3b3;
      }

      .cls-8 {
        fill: #a5ed35;
      }

      .cls-5 {
        stroke-linecap: round;
        stroke-linejoin: round;
        stroke-width: 15px;
      }
    </style>
  </defs>
  <rect class="cls-1" x="273.81" y="13.5" width="1597" height="1025"/>
  <rect class="cls-5" x="280.31" y="8" width="1597" height="1026"/>
  <text/>
  <g>
    <g>
      <path class="cls-7" d="M226.81,149.45v47.53c0,8.02-49.65,14.52-110.9,14.52s-110.9-6.5-110.9-14.52v-47.53c0,8.02,49.65,14.52,110.9,14.52s110.9-6.5,110.9-14.52Z"/>
      <path class="cls-7" d="M226.81,83.45v47.53c0,3.51-9.5,6.73-25.33,9.23-20.34,3.23-51.12,5.29-85.58,5.29s-65.24-2.06-85.58-5.29c-15.82-2.51-25.33-5.72-25.33-9.23v-47.53c0,8.02,49.65,14.53,110.9,14.53s110.9-6.5,110.9-14.53Z"/>
      <path class="cls-7" d="M226.81,19.52v47.53c0,3.04-7.15,5.87-19.37,8.2-19.98,3.81-53.53,6.32-91.53,6.32s-71.55-2.5-91.53-6.32c-12.22-2.33-19.37-5.16-19.37-8.2V19.52c0,8.02,49.65,14.53,110.9,14.53s110.9-6.5,110.9-14.53Z"/>
      <path class="cls-6" d="M207.44,75.25c12.22,2.34,19.37,5.16,19.37,8.2,0,8.02-49.65,14.53-110.9,14.53S5,91.48,5,83.45c0-3.04,7.15-5.87,19.37-8.2,19.98,3.81,53.53,6.32,91.53,6.32s71.55-2.5,91.53-6.32Z"/>
      <path class="cls-6" d="M201.48,140.22c15.82,2.5,25.33,5.72,25.33,9.23,0,8.02-49.65,14.52-110.9,14.52s-110.9-6.5-110.9-14.52c0-3.52,9.5-6.73,25.33-9.23,20.34,3.23,51.12,5.29,85.58,5.29s65.24-2.06,85.58-5.29Z"/>
      <path class="cls-7" d="M115.9,5c61.25,0,110.9,6.5,110.9,14.52s-49.65,14.53-110.9,14.53S5,27.54,5,19.52,54.65,5,115.9,5Z"/>
    </g>
    <g>
      <path class="cls-3" d="M24.37,75.25c-12.22-2.33-19.37-5.16-19.37-8.2"/>
      <path class="cls-3" d="M226.81,67.05c0,3.04-7.15,5.87-19.37,8.2"/>
      <path class="cls-3" d="M226.81,19.52c0,8.02-49.65,14.53-110.9,14.53S5,27.54,5,19.52,54.65,5,115.9,5s110.9,6.5,110.9,14.52Z"/>
      <line class="cls-3" x1="5" y1="67.05" x2="5" y2="19.52"/>
      <line class="cls-3" x1="226.81" y1="67.05" x2="226.81" y2="19.52"/>
      <path class="cls-3" d="M30.33,140.22c-15.82-2.51-25.33-5.72-25.33-9.23"/>
      <path class="cls-3" d="M226.81,130.98c0,3.51-9.5,6.73-25.33,9.23"/>
      <path class="cls-3" d="M226.81,83.45c0,8.02-49.65,14.53-110.9,14.53S5,91.48,5,83.45c0-3.04,7.15-5.87,19.37-8.2,19.98,3.81,53.53,6.32,91.53,6.32s71.55-2.5,91.53-6.32c12.22,2.34,19.37,5.16,19.37,8.2Z"/>
      <line class="cls-3" x1="5" y1="130.98" x2="5" y2="83.45"/>
      <line class="cls-3" x1="226.81" y1="130.98" x2="226.81" y2="83.45"/>
      <path class="cls-3" d="M5,196.98c0,8.02,49.65,14.52,110.9,14.52s110.9-6.5,110.9-14.52"/>
      <path class="cls-3" d="M226.81,149.45c0,8.02-49.65,14.52-110.9,14.52s-110.9-6.5-110.9-14.52c0-3.52,9.5-6.73,25.33-9.23,20.34,3.23,51.12,5.29,85.58,5.29s65.24-2.06,85.58-5.29c15.82,2.5,25.33,5.72,25.33,9.23Z"/>
      <line class="cls-3" x1="5" y1="196.98" x2="5" y2="149.45"/>
      <line class="cls-3" x1="226.81" y1="196.98" x2="226.81" y2="149.45"/>
    </g>
  </g>
  <ellipse class="cls-8" cx="23.91" cy="53.41" rx="5.17" ry="6.36"/>
  <ellipse class="cls-8" cx="23.91" cy="117.53" rx="5.17" ry="6.36"/>
  <ellipse class="cls-8" cx="23.91" cy="181.65" rx="5.17" ry="6.36"/>
  <g>
    <path class="cls-2" d="M679.57,146.98c-5.13,0-9.8-1.03-14-3.1-4.2-2.07-7.53-5.17-10-9.3-2.47-4.13-3.7-9.4-3.7-15.8v-43h13.5v43.1c0,3.47.58,6.38,1.75,8.75,1.17,2.37,2.83,4.12,5,5.25,2.17,1.13,4.75,1.7,7.75,1.7s5.68-.57,7.85-1.7c2.17-1.13,3.82-2.88,4.95-5.25,1.13-2.37,1.7-5.28,1.7-8.75v-43.1h13.5v43c0,6.4-1.27,11.67-3.8,15.8-2.53,4.13-5.95,7.23-10.25,9.3-4.3,2.07-9.05,3.1-14.25,3.1Z"/>
    <path class="cls-2" d="M720.97,145.78v-70h26.2c5.6,0,10.25.97,13.95,2.9,3.7,1.93,6.45,4.52,8.25,7.75,1.8,3.23,2.7,6.82,2.7,10.75s-.88,7.22-2.65,10.45c-1.77,3.23-4.5,5.83-8.2,7.8-3.7,1.97-8.45,2.95-14.25,2.95h-12.5v27.4h-13.5ZM734.47,108.58h11.8c4.13,0,7.17-1,9.1-3,1.93-2,2.9-4.63,2.9-7.9s-.95-5.85-2.85-7.75-4.95-2.85-9.15-2.85h-11.8v21.5ZM757.27,145.78l-14.4-30.8h14.6l15.2,30.8h-15.4Z"/>
    <path class="cls-2" d="M784.06,145.78v-70h13.5v59.5h30.7v10.5h-44.2Z"/>
  </g>
  <g>
    <path class="cls-2" d="M1390.46,145.82v-70h13.5v70h-13.5Z"/>
    <path class="cls-2" d="M1417.66,145.82v-70h26.1c5.73,0,10.47.97,14.2,2.9,3.73,1.93,6.52,4.53,8.35,7.8,1.83,3.27,2.75,7,2.75,11.2,0,3.8-.9,7.35-2.7,10.65-1.8,3.3-4.54,5.98-8.2,8.05-3.67,2.07-8.47,3.1-14.4,3.1h-12.6v26.3h-13.5ZM1431.16,108.62h11.8c4.4,0,7.55-1,9.45-3,1.9-2,2.85-4.67,2.85-8s-.95-6.05-2.85-7.95c-1.9-1.9-5.05-2.85-9.45-2.85h-11.8v21.8Z"/>
  </g>
  <line class="cls-4" x1="412.81" y1="181.5" x2="1745.81" y2="181.5"/>
  <line class="cls-4" x1="412.81" y1="462.5" x2="1745.81" y2="462.5"/>
  <line class="cls-4" x1="412.81" y1="736.5" x2="1745.81" y2="736.5"/>
  <g>
    <path class="cls-2" d="M110.44,1028.83H12.44v-21h81.76v-42.28h16.24v63.28Z"/>
    <path class="cls-2" d="M112.12,918.79c0,6.81-1.59,12.95-4.76,18.41s-7.54,9.75-13.09,12.88c-5.55,3.13-11.88,4.69-18.97,4.69s-13.72-1.56-19.32-4.69c-5.6-3.13-9.96-7.42-13.09-12.88-3.13-5.46-4.69-11.6-4.69-18.41s1.56-13.04,4.69-18.41c3.13-5.37,7.47-9.64,13.02-12.81,5.55-3.17,11.97-4.76,19.25-4.76s13.56,1.59,19.11,4.76c5.55,3.17,9.92,7.44,13.09,12.81s4.76,11.5,4.76,18.41ZM93.92,918.79c0-2.71-.7-5.16-2.1-7.35-1.4-2.19-3.5-3.94-6.3-5.25-2.8-1.3-6.25-1.96-10.36-1.96s-7.56.65-10.36,1.96c-2.8,1.31-4.9,3.06-6.3,5.25-1.4,2.2-2.1,4.64-2.1,7.35s.7,5.3,2.1,7.49c1.4,2.19,3.5,3.92,6.3,5.18,2.8,1.26,6.25,1.89,10.36,1.89s7.56-.63,10.36-1.89c2.8-1.26,4.9-2.99,6.3-5.18,1.4-2.19,2.1-4.69,2.1-7.49Z"/>
    <path class="cls-2" d="M112.12,831.86c0,7.28-1.59,13.7-4.76,19.25-3.17,5.55-7.51,9.87-13.02,12.95-5.51,3.08-11.76,4.62-18.76,4.62s-13.74-1.54-19.39-4.62c-5.65-3.08-10.06-7.4-13.23-12.95-3.17-5.55-4.76-11.97-4.76-19.25,0-9.24,2.43-17.01,7.28-23.31,4.85-6.3,11.57-10.29,20.16-11.97v22.4c-2.99.65-5.32,2.15-7,4.48-1.68,2.33-2.52,5.18-2.52,8.54,0,3.17.77,5.9,2.31,8.19,1.54,2.29,3.73,4.04,6.58,5.25,2.85,1.21,6.23,1.82,10.15,1.82,2.89,0,5.51-.35,7.84-1.05,2.33-.7,4.32-1.7,5.95-3.01,1.63-1.31,2.92-2.92,3.85-4.83.93-1.91,1.4-4.04,1.4-6.37,0-2.15-.37-4.13-1.12-5.95-.75-1.82-1.84-3.34-3.29-4.55-1.45-1.21-3.15-2.05-5.11-2.52v-22.4c8.4,1.68,15.07,5.69,20.02,12.04,4.95,6.35,7.42,14.09,7.42,23.24Z"/>
    <path class="cls-2" d="M112.12,756.4c0,5.79-.96,10.62-2.87,14.49-1.91,3.88-4.46,6.72-7.63,8.54-3.17,1.82-6.72,2.73-10.64,2.73s-7.82-1.05-11.13-3.15c-3.31-2.1-5.9-5.37-7.77-9.8-1.87-4.43-2.8-10.15-2.8-17.15v-16.94c-3.17,0-5.81.4-7.91,1.19-2.1.79-3.66,2.08-4.69,3.85-1.03,1.77-1.54,4.2-1.54,7.28,0,3.27.68,6.02,2.03,8.26,1.35,2.24,3.43,3.64,6.23,4.2v20.16c-5.04-.46-9.43-2.1-13.16-4.9-3.73-2.8-6.67-6.6-8.82-11.41-2.15-4.81-3.22-10.29-3.22-16.45,0-6.72,1.07-12.55,3.22-17.5,2.15-4.95,5.34-8.79,9.59-11.55,4.25-2.75,9.5-4.13,15.75-4.13h43.68v17.5l-10.22,2.52c1.77,1.03,3.38,2.24,4.83,3.64,1.45,1.4,2.71,3.03,3.78,4.9,1.07,1.87,1.89,3.92,2.45,6.16.56,2.24.84,4.76.84,7.56ZM96.16,751.08c0-2.15-.37-4.06-1.12-5.74-.75-1.68-1.77-3.15-3.08-4.41-1.31-1.26-2.82-2.29-4.55-3.08-1.73-.79-3.66-1.38-5.81-1.75v13.58c0,2.33.3,4.29.91,5.88.61,1.59,1.49,2.73,2.66,3.43,1.17.7,2.45,1.05,3.85,1.05,1.59,0,2.89-.4,3.92-1.19,1.03-.79,1.82-1.87,2.38-3.22.56-1.35.84-2.87.84-4.55Z"/>
    <path class="cls-2" d="M110.44,696.48H9.64v-21h100.8v21Z"/>
    <path class="cls-2" d="M110.44,625.5H12.44v-21h81.76v-42.28h16.24v63.28Z"/>
    <path class="cls-2" d="M110.44,502.16h-16.8v47.74h-16.8l-64.4-45.08v-23.52h63v-12.32h18.2v12.32h16.8v20.86ZM75.44,527.64v-26.88h-39.9l39.9,26.88Z"/>
    <path class="cls-2" d="M236.12,984.31c0,9.8-2.12,18.27-6.37,25.41-4.25,7.14-10.17,12.62-17.78,16.45-7.61,3.83-16.36,5.74-26.25,5.74s-18.92-1.91-26.53-5.74c-7.61-3.83-13.58-9.31-17.92-16.45s-6.51-15.61-6.51-25.41c0-12.04,3.03-21.93,9.1-29.68,6.07-7.75,14.61-12.51,25.62-14.28v22.96c-4.95,1.12-8.8,3.5-11.55,7.14-2.75,3.64-4.13,8.35-4.13,14.14s1.31,10.2,3.92,14.07c2.61,3.87,6.28,6.81,10.99,8.82,4.71,2.01,10.38,3.01,17.01,3.01s12.02-1,16.73-3.01c4.71-2.01,8.35-4.95,10.92-8.82,2.57-3.87,3.85-8.56,3.85-14.07,0-5.79-1.24-10.5-3.71-14.14-2.47-3.64-6.04-6.02-10.71-7.14v-22.96c10.36,1.77,18.5,6.53,24.43,14.28,5.93,7.75,8.89,17.64,8.89,29.68Z"/>
    <path class="cls-2" d="M236.12,901.02c0,5.79-.96,10.62-2.87,14.49-1.91,3.87-4.46,6.72-7.63,8.54-3.17,1.82-6.72,2.73-10.64,2.73s-7.82-1.05-11.13-3.15c-3.31-2.1-5.9-5.37-7.77-9.8-1.87-4.43-2.8-10.15-2.8-17.15v-16.94c-3.17,0-5.81.4-7.91,1.19-2.1.79-3.66,2.08-4.69,3.85-1.03,1.77-1.54,4.2-1.54,7.28,0,3.27.68,6.02,2.03,8.26,1.35,2.24,3.43,3.64,6.23,4.2v20.16c-5.04-.47-9.43-2.1-13.16-4.9-3.73-2.8-6.67-6.6-8.82-11.41-2.15-4.81-3.22-10.29-3.22-16.45,0-6.72,1.07-12.55,3.22-17.5,2.15-4.95,5.34-8.8,9.59-11.55,4.25-2.75,9.5-4.13,15.75-4.13h43.68v17.5l-10.22,2.52c1.77,1.03,3.38,2.24,4.83,3.64,1.45,1.4,2.71,3.03,3.78,4.9,1.07,1.87,1.89,3.92,2.45,6.16.56,2.24.84,4.76.84,7.56ZM220.16,895.7c0-2.15-.37-4.06-1.12-5.74-.75-1.68-1.77-3.15-3.08-4.41-1.31-1.26-2.82-2.29-4.55-3.08-1.73-.79-3.66-1.38-5.81-1.75v13.58c0,2.33.3,4.29.91,5.88.61,1.59,1.49,2.73,2.66,3.43,1.17.7,2.45,1.05,3.85,1.05,1.59,0,2.89-.4,3.92-1.19,1.03-.79,1.82-1.87,2.38-3.22.56-1.35.84-2.87.84-4.55Z"/>
    <path class="cls-2" d="M236.12,806.38c0,7.28-1.59,13.7-4.76,19.25-3.17,5.55-7.51,9.87-13.02,12.95-5.51,3.08-11.76,4.62-18.76,4.62s-13.74-1.54-19.39-4.62c-5.65-3.08-10.06-7.4-13.23-12.95-3.17-5.55-4.76-11.97-4.76-19.25,0-9.24,2.43-17.01,7.28-23.31,4.85-6.3,11.57-10.29,20.16-11.97v22.4c-2.99.65-5.32,2.15-7,4.48-1.68,2.33-2.52,5.18-2.52,8.54,0,3.17.77,5.9,2.31,8.19,1.54,2.29,3.73,4.04,6.58,5.25,2.85,1.21,6.23,1.82,10.15,1.82,2.89,0,5.51-.35,7.84-1.05,2.33-.7,4.32-1.7,5.95-3.01,1.63-1.31,2.92-2.92,3.85-4.83.93-1.91,1.4-4.04,1.4-6.37,0-2.15-.37-4.13-1.12-5.95-.75-1.82-1.84-3.34-3.29-4.55-1.45-1.21-3.15-2.05-5.11-2.52v-22.4c8.4,1.68,15.07,5.69,20.02,12.04,4.95,6.35,7.42,14.09,7.42,23.24Z"/>
    <path class="cls-2" d="M234.44,754.72h-100.8v-21h40.18c-3.36-2.24-6.14-5.27-8.33-9.1-2.19-3.83-3.29-8.31-3.29-13.44,0-5.97,1.26-10.97,3.78-14.98,2.52-4.01,6.16-7.02,10.92-9.03,4.76-2.01,10.59-3.01,17.5-3.01h40.04v20.86h-38.22c-5.23,0-9.26,1.07-12.11,3.22-2.85,2.15-4.27,5.65-4.27,10.5,0,2.89.72,5.48,2.17,7.77,1.45,2.29,3.43,4.06,5.95,5.32s5.55,1.89,9.1,1.89h37.38v21Z"/>
    <path class="cls-2" d="M236.12,632.08c0,7.28-1.52,13.65-4.55,19.11-3.03,5.46-7.28,9.73-12.74,12.81s-11.74,4.62-18.83,4.62-13.77-1.49-19.46-4.48c-5.69-2.99-10.17-7.26-13.44-12.81-3.27-5.55-4.9-11.97-4.9-19.25s1.52-13.3,4.55-18.62c3.03-5.32,7.21-9.47,12.53-12.46,5.32-2.99,11.43-4.48,18.34-4.48.93,0,1.98.02,3.15.07,1.17.05,2.36.12,3.57.21v56.98h-12.32v-36.12c-3.83.28-6.95,1.73-9.38,4.34-2.43,2.61-3.64,5.93-3.64,9.94,0,3.08.7,5.83,2.1,8.26,1.4,2.43,3.52,4.32,6.37,5.67,2.85,1.35,6.42,2.03,10.71,2.03h4.06c3.27,0,6.18-.61,8.75-1.82,2.57-1.21,4.55-3.03,5.95-5.46,1.4-2.43,2.1-5.18,2.1-8.26s-.63-5.76-1.89-7.77c-1.26-2.01-2.82-3.57-4.69-4.69v-21.42c4.29,1.31,8.26,3.55,11.9,6.72,3.64,3.17,6.51,7.02,8.61,11.55,2.1,4.53,3.15,9.64,3.15,15.33Z"/>
  </g>
  <line class="cls-4" x1="1063.81" y1="330.5" x2="1092.81" y2="330.5"/>
  <line class="cls-4" x1="1064.81" y1="599.5" x2="1093.81" y2="599.5"/>
  <line class="cls-4" x1="1064.81" y1="875.5" x2="1093.81" y2="875.5"/>
</svg>