<?xml version="1.0" encoding="UTF-8"?>
<svg id="Capa_1" data-name="Capa 1" xmlns="http://www.w3.org/2000/svg" viewBox="0 0 1834 691">
  <defs>
    <style>
      .cls-1 {
        stroke-dasharray: 49.62 14.89;
      }

      .cls-1, .cls-2, .cls-3 {
        fill: none;
        stroke: #fff;
        stroke-linecap: round;
        stroke-miterlimit: 10;
        stroke-width: 4px;
      }

      .cls-4 {
        opacity: .4;
      }

      .cls-3 {
        stroke-dasharray: 50.4 15.12;
      }
    </style>
  </defs>
  <g class="cls-4">
    <g>
      <path class="cls-2" d="M900.99,671.79c-.26,8.8-6.88,15.99-15.38,17.07"/>
      <path class="cls-3" d="M870.49,689H19.62c-9.73,0-17.62-7.95-17.62-17.76V19.76C2,9.95,9.89,2,19.62,2h858.98"/>
      <path class="cls-2" d="M886.15,2.22c8.42,1.34,14.85,8.68,14.85,17.54"/>
    </g>
  </g>
  <g class="cls-4">
    <g>
      <path class="cls-2" d="M920,19.99c0-8.83,6.36-16.18,14.75-17.7"/>
      <path class="cls-1" d="M949.62,2h864.39c9.94,0,17.99,8.05,17.99,17.99v651.02c0,9.94-8.05,17.99-17.99,17.99h-871.83"/>
      <path class="cls-2" d="M934.75,688.71c-8.39-1.52-14.75-8.87-14.75-17.7"/>
    </g>
  </g>
</svg>