<?xml version="1.0" encoding="UTF-8"?>
<svg id="Capa_1" data-name="Capa 1" xmlns="http://www.w3.org/2000/svg" viewBox="0 0 1884.81 1041.5">
  <defs>
    <style>
      .cls-1 {
        fill: gray;
        opacity: .18;
      }

      .cls-2 {
        fill: #fff;
      }

      .cls-3, .cls-4 {
        stroke-miterlimit: 10;
        stroke-width: 10px;
      }

      .cls-3, .cls-4, .cls-5 {
        fill: none;
      }

      .cls-3, .cls-5 {
        stroke: #333;
      }

      .cls-6 {
        fill: #666;
      }

      .cls-4 {
        stroke: #fff;
      }

      .cls-7 {
        fill: #b3b3b3;
      }

      .cls-8 {
        fill: #a5ed35;
      }

      .cls-5 {
        stroke-linecap: round;
        stroke-linejoin: round;
        stroke-width: 15px;
      }
    </style>
  </defs>
  <rect class="cls-1" x="280.81" y="13.5" width="1597" height="1025"/>
  <rect class="cls-5" x="280.31" y="8" width="1597" height="1026"/>
  <text/>
  <g>
    <g>
      <path class="cls-7" d="M226.81,149.45v47.53c0,8.02-49.65,14.52-110.9,14.52s-110.9-6.5-110.9-14.52v-47.53c0,8.02,49.65,14.52,110.9,14.52s110.9-6.5,110.9-14.52Z"/>
      <path class="cls-7" d="M226.81,83.45v47.53c0,3.51-9.5,6.73-25.33,9.23-20.34,3.23-51.12,5.29-85.58,5.29s-65.24-2.06-85.58-5.29c-15.82-2.51-25.33-5.72-25.33-9.23v-47.53c0,8.02,49.65,14.53,110.9,14.53s110.9-6.5,110.9-14.53Z"/>
      <path class="cls-7" d="M226.81,19.52v47.53c0,3.04-7.15,5.87-19.37,8.2-19.98,3.81-53.53,6.32-91.53,6.32s-71.55-2.5-91.53-6.32c-12.22-2.33-19.37-5.16-19.37-8.2V19.52c0,8.02,49.65,14.53,110.9,14.53s110.9-6.5,110.9-14.53Z"/>
      <path class="cls-6" d="M207.44,75.25c12.22,2.34,19.37,5.16,19.37,8.2,0,8.02-49.65,14.53-110.9,14.53S5,91.48,5,83.45c0-3.04,7.15-5.87,19.37-8.2,19.98,3.81,53.53,6.32,91.53,6.32s71.55-2.5,91.53-6.32Z"/>
      <path class="cls-6" d="M201.48,140.22c15.82,2.5,25.33,5.72,25.33,9.23,0,8.02-49.65,14.52-110.9,14.52s-110.9-6.5-110.9-14.52c0-3.52,9.5-6.73,25.33-9.23,20.34,3.23,51.12,5.29,85.58,5.29s65.24-2.06,85.58-5.29Z"/>
      <path class="cls-7" d="M115.9,5c61.25,0,110.9,6.5,110.9,14.52s-49.65,14.53-110.9,14.53S5,27.54,5,19.52,54.65,5,115.9,5Z"/>
    </g>
    <g>
      <path class="cls-3" d="M24.37,75.25c-12.22-2.33-19.37-5.16-19.37-8.2"/>
      <path class="cls-3" d="M226.81,67.05c0,3.04-7.15,5.87-19.37,8.2"/>
      <path class="cls-3" d="M226.81,19.52c0,8.02-49.65,14.53-110.9,14.53S5,27.54,5,19.52,54.65,5,115.9,5s110.9,6.5,110.9,14.52Z"/>
      <line class="cls-3" x1="5" y1="67.05" x2="5" y2="19.52"/>
      <line class="cls-3" x1="226.81" y1="67.05" x2="226.81" y2="19.52"/>
      <path class="cls-3" d="M30.33,140.22c-15.82-2.51-25.33-5.72-25.33-9.23"/>
      <path class="cls-3" d="M226.81,130.98c0,3.51-9.5,6.73-25.33,9.23"/>
      <path class="cls-3" d="M226.81,83.45c0,8.02-49.65,14.53-110.9,14.53S5,91.48,5,83.45c0-3.04,7.15-5.87,19.37-8.2,19.98,3.81,53.53,6.32,91.53,6.32s71.55-2.5,91.53-6.32c12.22,2.34,19.37,5.16,19.37,8.2Z"/>
      <line class="cls-3" x1="5" y1="130.98" x2="5" y2="83.45"/>
      <line class="cls-3" x1="226.81" y1="130.98" x2="226.81" y2="83.45"/>
      <path class="cls-3" d="M5,196.98c0,8.02,49.65,14.52,110.9,14.52s110.9-6.5,110.9-14.52"/>
      <path class="cls-3" d="M226.81,149.45c0,8.02-49.65,14.52-110.9,14.52s-110.9-6.5-110.9-14.52c0-3.52,9.5-6.73,25.33-9.23,20.34,3.23,51.12,5.29,85.58,5.29s65.24-2.06,85.58-5.29c15.82,2.5,25.33,5.72,25.33,9.23Z"/>
      <line class="cls-3" x1="5" y1="196.98" x2="5" y2="149.45"/>
      <line class="cls-3" x1="226.81" y1="196.98" x2="226.81" y2="149.45"/>
    </g>
  </g>
  <ellipse class="cls-8" cx="23.91" cy="53.41" rx="5.17" ry="6.36"/>
  <ellipse class="cls-8" cx="23.91" cy="117.53" rx="5.17" ry="6.36"/>
  <ellipse class="cls-8" cx="23.91" cy="181.65" rx="5.17" ry="6.36"/>
  <g>
    <path class="cls-2" d="M625.87,129.78l25.5-70h15.3l25.5,70h-14.3l-18.9-54.6-19,54.6h-14.1ZM637.07,113.88l3.6-10.5h35.6l3.5,10.5h-42.7Z"/>
    <path class="cls-2" d="M728.77,130.98c-6.93,0-12.93-1.52-18-4.55-5.07-3.03-8.95-7.27-11.65-12.7-2.7-5.43-4.05-11.72-4.05-18.85s1.35-13.43,4.05-18.9c2.7-5.47,6.58-9.73,11.65-12.8,5.07-3.07,11.07-4.6,18-4.6,8.47,0,15.42,2.1,20.85,6.3,5.43,4.2,8.78,10.13,10.05,17.8h-14.8c-.87-3.73-2.67-6.65-5.4-8.75-2.73-2.1-6.33-3.15-10.8-3.15-4.2,0-7.77.98-10.7,2.95-2.93,1.97-5.18,4.73-6.75,8.3-1.57,3.57-2.35,7.85-2.35,12.85s.78,9.2,2.35,12.8c1.57,3.6,3.82,6.37,6.75,8.3,2.93,1.93,6.5,2.9,10.7,2.9,4.47,0,8.07-.98,10.8-2.95,2.73-1.97,4.53-4.72,5.4-8.25h14.8c-1.27,7.27-4.62,12.97-10.05,17.1-5.43,4.13-12.38,6.2-20.85,6.2Z"/>
    <path class="cls-2" d="M771.16,129.78V59.78h13.5v27.7l25.3-27.7h16.7l-25.8,27.7,26.5,42.3h-16.4l-19.7-31.8-6.6,7v24.8h-13.5Z"/>
  </g>
  <g>
    <path class="cls-2" d="M585.2,601.28v-59.5h19.98c4.19,0,7.65.68,10.37,2.04,2.72,1.36,4.75,3.17,6.08,5.44,1.33,2.27,2,4.79,2,7.56,0,3.06-.67,5.61-2,7.65-1.33,2.04-3.06,3.6-5.19,4.67-2.12,1.08-4.35,1.76-6.67,2.04l1.1-.85c2.55.06,4.89.74,7.01,2.04,2.12,1.3,3.84,3.05,5.14,5.23,1.3,2.18,1.96,4.66,1.96,7.44,0,2.95-.72,5.65-2.17,8.12-1.45,2.46-3.58,4.43-6.42,5.91-2.83,1.47-6.38,2.21-10.62,2.21h-20.57ZM591.15,568.13h13.85c4.02,0,7.11-.96,9.27-2.89,2.15-1.93,3.23-4.53,3.23-7.82s-1.05-5.74-3.15-7.69c-2.1-1.96-5.3-2.93-9.6-2.93h-13.6v21.33ZM591.15,596.26h14.19c4.31,0,7.64-1.02,9.99-3.06,2.35-2.04,3.53-4.84,3.53-8.42s-1.23-6.42-3.7-8.54c-2.46-2.12-5.82-3.19-10.07-3.19h-13.94v23.21Z"/>
    <path class="cls-2" d="M656.76,602.3c-4.02,0-7.66-.79-10.92-2.38-3.26-1.58-5.85-4.07-7.78-7.44-1.93-3.37-2.89-7.66-2.89-12.88v-37.83h5.95v37.91c0,4.08.67,7.39,2,9.95,1.33,2.55,3.19,4.42,5.57,5.61,2.38,1.19,5.1,1.79,8.16,1.79s5.84-.6,8.16-1.79c2.32-1.19,4.14-3.06,5.44-5.61,1.3-2.55,1.96-5.87,1.96-9.95v-37.91h5.95v37.83c0,5.21-.96,9.51-2.89,12.88-1.93,3.37-4.52,5.85-7.78,7.44-3.26,1.59-6.9,2.38-10.92,2.38Z"/>
    <path class="cls-2" d="M690.93,601.28v-59.5h35.53v4.93h-29.58v22.27h25.5v4.93h-25.5v27.37h-5.95Z"/>
    <path class="cls-2" d="M736.15,601.28v-59.5h35.53v4.93h-29.58v22.27h25.5v4.93h-25.5v27.37h-5.95Z"/>
    <path class="cls-2" d="M781.37,601.28v-59.5h36.12v4.93h-30.17v22.19h27.62v4.93h-27.62v22.53h30.17v4.93h-36.12Z"/>
    <path class="cls-2" d="M829.14,601.28v-59.5h18.36c4.59,0,8.34.77,11.26,2.29,2.92,1.53,5.06,3.58,6.42,6.16,1.36,2.58,2.04,5.51,2.04,8.8s-.69,6.08-2.08,8.71c-1.39,2.64-3.57,4.73-6.54,6.29s-6.79,2.34-11.43,2.34h-12.07v24.9h-5.95ZM835.09,571.53h11.98c4.87,0,8.43-1.16,10.67-3.48,2.24-2.32,3.36-5.33,3.36-9.01s-1.09-6.79-3.27-8.97c-2.18-2.18-5.79-3.27-10.84-3.27h-11.9v24.73ZM860.85,601.28l-13.34-26.78h6.71l13.69,26.78h-7.06Z"/>
  </g>
  <g>
    <path class="cls-2" d="M1279.35,601.28l-16.41-59.5h6.38l13.51,52.19,15.21-52.19h6.72l14.79,52.28,13.6-52.28h6.46l-16.83,59.5h-6.72l-14.88-50.75-15.3,50.75h-6.54Z"/>
    <path class="cls-2" d="M1348.45,601.28v-59.5h5.95v59.5h-5.95Z"/>
    <path class="cls-2" d="M1367.66,601.28v-59.5h6.04l32.81,49.55v-49.55h5.95v59.5h-5.95l-32.9-49.64v49.64h-5.95Z"/>
    <path class="cls-2" d="M1425.72,601.28v-59.5h16.83c6.97,0,12.71,1.19,17.21,3.57,4.5,2.38,7.85,5.81,10.03,10.29s3.27,9.83,3.27,16.06-1.09,11.39-3.27,15.81-5.52,7.82-10.03,10.2c-4.51,2.38-10.24,3.57-17.21,3.57h-16.83ZM1431.67,596.35h10.88c5.95,0,10.71-.99,14.28-2.97,3.57-1.98,6.15-4.82,7.74-8.5,1.58-3.68,2.38-8.08,2.38-13.18s-.79-9.61-2.38-13.34c-1.59-3.74-4.17-6.62-7.74-8.63-3.57-2.01-8.33-3.02-14.28-3.02h-10.88v49.64Z"/>
    <path class="cls-2" d="M1510.21,602.3c-5.72,0-10.72-1.29-15-3.87-4.28-2.58-7.62-6.18-10.03-10.79-2.41-4.62-3.61-9.99-3.61-16.11s1.2-11.4,3.61-16.02c2.41-4.62,5.75-8.23,10.03-10.84,4.28-2.61,9.28-3.91,15-3.91s10.81,1.3,15.09,3.91c4.28,2.61,7.62,6.22,10.03,10.84,2.41,4.62,3.61,9.96,3.61,16.02s-1.2,11.49-3.61,16.11c-2.41,4.62-5.75,8.22-10.03,10.79-4.28,2.58-9.31,3.87-15.09,3.87ZM1510.21,597.11c4.47,0,8.41-1.02,11.81-3.06,3.4-2.04,6.05-4.97,7.95-8.8s2.85-8.4,2.85-13.73-.95-9.89-2.85-13.69c-1.9-3.79-4.55-6.71-7.95-8.75-3.4-2.04-7.34-3.06-11.81-3.06s-8.33,1.02-11.73,3.06c-3.4,2.04-6.05,4.96-7.95,8.75-1.9,3.8-2.85,8.36-2.85,13.69s.95,9.9,2.85,13.73c1.9,3.83,4.55,6.76,7.95,8.8,3.4,2.04,7.31,3.06,11.73,3.06Z"/>
    <path class="cls-2" d="M1559.76,601.28l-16.4-59.5h6.38l13.51,52.19,15.21-52.19h6.72l14.79,52.28,13.6-52.28h6.46l-16.83,59.5h-6.71l-14.88-50.75-15.3,50.75h-6.54Z"/>
  </g>
  <g>
    <path class="cls-2" d="M1381.57,132.02c-5.07,0-9.58-.87-13.55-2.6-3.97-1.73-7.08-4.27-9.35-7.6-2.27-3.33-3.47-7.37-3.6-12.1h14.3c.07,2.07.6,3.93,1.6,5.6,1,1.67,2.38,2.98,4.15,3.95,1.77.97,3.88,1.45,6.35,1.45,2.13,0,3.98-.35,5.55-1.05,1.57-.7,2.8-1.68,3.7-2.95.9-1.27,1.35-2.77,1.35-4.5,0-2-.5-3.67-1.5-5-1-1.33-2.35-2.47-4.05-3.4-1.7-.93-3.67-1.78-5.9-2.55-2.23-.77-4.55-1.55-6.95-2.35-5.6-1.87-9.83-4.3-12.7-7.3-2.87-3-4.3-6.97-4.3-11.9,0-4.2,1-7.8,3-10.8s4.8-5.3,8.4-6.9c3.6-1.6,7.7-2.4,12.3-2.4s8.88.82,12.45,2.45c3.56,1.63,6.4,3.98,8.5,7.05,2.1,3.07,3.21,6.67,3.35,10.8h-14.5c-.07-1.53-.52-2.98-1.35-4.35-.83-1.37-1.98-2.47-3.45-3.3-1.47-.83-3.2-1.25-5.2-1.25-1.73-.07-3.32.2-4.75.8-1.43.6-2.55,1.48-3.35,2.65-.8,1.17-1.2,2.62-1.2,4.35s.4,3.07,1.2,4.2c.8,1.13,1.93,2.12,3.4,2.95,1.47.83,3.2,1.6,5.2,2.3,2,.7,4.17,1.42,6.5,2.15,3.53,1.2,6.75,2.62,9.65,4.25,2.9,1.63,5.21,3.75,6.95,6.35,1.73,2.6,2.6,6.03,2.6,10.3,0,3.67-.95,7.07-2.85,10.2-1.9,3.13-4.68,5.67-8.35,7.6-3.67,1.93-8.2,2.9-13.6,2.9Z"/>
    <path class="cls-2" d="M1417.86,130.82V60.82h46.1v10.9h-32.6v18.3h29.6v10.5h-29.6v19.4h32.6v10.9h-46.1Z"/>
    <path class="cls-2" d="M1508.36,132.02c-6.73,0-12.68-1.53-17.85-4.6-5.17-3.07-9.23-7.32-12.2-12.75-2.97-5.43-4.45-11.72-4.45-18.85s1.48-13.42,4.45-18.85c2.96-5.43,7.03-9.68,12.2-12.75,5.17-3.07,11.12-4.6,17.85-4.6s12.92,1.53,18.15,4.6c5.23,3.07,9.3,7.32,12.2,12.75,2.9,5.43,4.35,11.72,4.35,18.85s-1.45,13.42-4.35,18.85c-2.9,5.43-6.97,9.68-12.2,12.75-5.23,3.07-11.28,4.6-18.15,4.6ZM1508.36,119.92c4.33,0,8.05-.98,11.15-2.95,3.1-1.97,5.5-4.75,7.2-8.35,1.7-3.6,2.55-7.87,2.55-12.8s-.85-9.28-2.55-12.85c-1.7-3.57-4.1-6.32-7.2-8.25-3.1-1.93-6.82-2.9-11.15-2.9s-7.75.97-10.85,2.9c-3.1,1.93-5.52,4.68-7.25,8.25-1.73,3.57-2.6,7.85-2.6,12.85s.87,9.2,2.6,12.8c1.73,3.6,4.15,6.38,7.25,8.35,3.1,1.97,6.72,2.95,10.85,2.95ZM1524.96,141.82l-25.4-40.1h15.5l26,40.1h-16.1Z"/>
  </g>
  <line class="cls-4" x1="412.81" y1="167.5" x2="1745.81" y2="167.5"/>
  <line class="cls-4" x1="412.81" y1="621.5" x2="1745.81" y2="621.5"/>
  <g>
    <path class="cls-2" d="M578.73,833.3c-4.36,0-8.15-.79-11.35-2.38-3.2-1.58-5.65-3.81-7.35-6.67-1.7-2.86-2.55-6.13-2.55-9.82h6.21c0,2.49.57,4.79,1.7,6.88,1.13,2.1,2.81,3.78,5.02,5.06,2.21,1.28,4.99,1.91,8.33,1.91,2.95,0,5.43-.5,7.44-1.49,2.01-.99,3.56-2.31,4.63-3.95,1.08-1.64,1.62-3.51,1.62-5.61,0-2.49-.52-4.5-1.57-6.04-1.05-1.53-2.48-2.76-4.29-3.7-1.81-.94-3.88-1.77-6.21-2.51-2.32-.74-4.73-1.5-7.23-2.29-4.65-1.59-8.03-3.55-10.16-5.91-2.12-2.35-3.22-5.34-3.27-8.97,0-3.12.72-5.88,2.17-8.29,1.44-2.41,3.56-4.31,6.33-5.7,2.78-1.39,6.06-2.08,9.86-2.08s6.9.69,9.65,2.08c2.75,1.39,4.89,3.31,6.42,5.78,1.53,2.47,2.29,5.29,2.29,8.46h-6.12c0-1.81-.47-3.58-1.4-5.31-.94-1.73-2.32-3.15-4.17-4.25-1.84-1.1-4.18-1.66-7.01-1.66-2.32,0-4.38.41-6.16,1.23-1.79.82-3.19,2.01-4.21,3.57s-1.53,3.39-1.53,5.48.45,3.71,1.36,5.01c.91,1.3,2.18,2.38,3.82,3.23,1.64.85,3.57,1.63,5.78,2.34,2.21.71,4.67,1.52,7.4,2.42,2.78.96,5.24,2.12,7.4,3.49,2.15,1.36,3.85,3.1,5.1,5.23,1.25,2.12,1.87,4.8,1.87,8.03,0,2.78-.72,5.43-2.17,7.95-1.44,2.52-3.64,4.56-6.59,6.12-2.95,1.56-6.63,2.34-11.05,2.34Z"/>
    <path class="cls-2" d="M608.64,832.28v-42.84h5.35l.42,8.24c.91-1.98,2.12-3.65,3.66-5.01,1.53-1.36,3.37-2.41,5.52-3.15,2.15-.74,4.62-1.1,7.4-1.1v6.21h-2.38c-1.81,0-3.57.24-5.27.72-1.7.48-3.2,1.29-4.51,2.42-1.3,1.13-2.34,2.66-3.1,4.59-.76,1.93-1.15,4.33-1.15,7.22v22.7h-5.95Z"/>
    <path class="cls-2" d="M656.16,833.3c-3.91,0-7.42-.93-10.54-2.8-3.12-1.87-5.58-4.49-7.4-7.86-1.81-3.37-2.72-7.24-2.72-11.6,0-4.65.91-8.64,2.72-11.98,1.81-3.34,4.29-5.95,7.44-7.82,3.15-1.87,6.64-2.8,10.5-2.8,5.1,0,9.31,1.29,12.62,3.87,3.31,2.58,5.4,5.99,6.25,10.24h-5.95c-.62-2.89-2.11-5.11-4.46-6.67-2.35-1.56-5.17-2.34-8.46-2.34-2.55,0-4.94.65-7.18,1.96-2.24,1.3-4.02,3.22-5.35,5.74-1.33,2.52-2,5.77-2,9.73,0,2.83.4,5.34,1.19,7.52.79,2.18,1.87,4,3.23,5.44,1.36,1.45,2.92,2.54,4.67,3.27,1.76.74,3.57,1.1,5.44,1.1,2.1,0,4.07-.37,5.91-1.1,1.84-.74,3.37-1.77,4.59-3.1,1.22-1.33,2.03-2.96,2.42-4.89h5.95c-.85,4.14-2.95,7.52-6.29,10.16-3.34,2.63-7.54,3.95-12.58,3.95Z"/>
    <path class="cls-2" d="M687.18,832.7c-1.25,0-2.28-.42-3.1-1.27-.82-.85-1.23-1.9-1.23-3.15s.41-2.28,1.23-3.1c.82-.82,1.88-1.23,3.19-1.23,1.19,0,2.2.41,3.02,1.23.82.82,1.23,1.88,1.23,3.19,0,1.19-.41,2.21-1.23,3.06-.82.85-1.86,1.27-3.1,1.27Z"/>
    <path class="cls-2" d="M724.75,832.28v-59.5h20.31c4.7,0,8.6.79,11.69,2.38,3.09,1.59,5.37,3.71,6.84,6.38,1.47,2.67,2.21,5.7,2.21,9.09s-.72,6.19-2.17,8.88c-1.44,2.69-3.7,4.86-6.76,6.5-3.06,1.64-7,2.47-11.81,2.47h-11.81v23.8h-8.5ZM733.25,801.42h11.48c4.42,0,7.59-.99,9.52-2.97,1.93-1.98,2.89-4.62,2.89-7.9s-.96-6.04-2.89-7.91c-1.93-1.87-5.1-2.8-9.52-2.8h-11.48v21.59Z"/>
    <path class="cls-2" d="M801.76,833.3c-5.72,0-10.74-1.29-15.04-3.87-4.31-2.58-7.69-6.18-10.16-10.79-2.46-4.62-3.7-9.99-3.7-16.11s1.23-11.4,3.7-16.02c2.47-4.62,5.85-8.23,10.16-10.84,4.31-2.61,9.32-3.91,15.04-3.91s10.87,1.3,15.26,3.91c4.39,2.61,7.79,6.22,10.2,10.84,2.41,4.62,3.61,9.96,3.61,16.02s-1.2,11.49-3.61,16.11c-2.41,4.62-5.81,8.22-10.2,10.79-4.39,2.58-9.48,3.87-15.26,3.87ZM801.76,825.73c4.14,0,7.73-.94,10.79-2.8,3.06-1.87,5.43-4.53,7.1-7.99,1.67-3.46,2.51-7.59,2.51-12.41s-.84-8.95-2.51-12.41c-1.67-3.46-4.04-6.11-7.1-7.95-3.06-1.84-6.66-2.76-10.79-2.76s-7.55.92-10.58,2.76c-3.03,1.84-5.4,4.49-7.1,7.95-1.7,3.46-2.55,7.59-2.55,12.41s.85,8.95,2.55,12.41c1.7,3.46,4.07,6.12,7.1,7.99,3.03,1.87,6.56,2.8,10.58,2.8Z"/>
    <path class="cls-2" d="M841.03,832.28v-59.5h20.15c4.7,0,8.56.79,11.56,2.38,3,1.59,5.23,3.7,6.67,6.33s2.17,5.62,2.17,8.97-.72,6.11-2.17,8.8c-1.44,2.69-3.7,4.84-6.76,6.46-3.06,1.62-6.97,2.42-11.73,2.42h-11.39v24.14h-8.5ZM849.53,801.68h11.13c4.19,0,7.27-1.03,9.22-3.1,1.96-2.07,2.93-4.72,2.93-7.95s-.96-5.89-2.89-7.82c-1.93-1.93-5.04-2.89-9.35-2.89h-11.05v21.76ZM872.31,832.28l-12.83-26.44h9.35l13.35,26.44h-9.86Z"/>
    <path class="cls-2" d="M906.48,832.28v-52.53h-17.6v-6.97h43.78v6.97h-17.68v52.53h-8.5Z"/>
  </g>
  <g>
    <path class="cls-2" d="M1247.2,833.28v-59.5h16.83c6.97,0,12.71,1.19,17.21,3.57,4.51,2.38,7.85,5.81,10.03,10.29,2.18,4.48,3.27,9.83,3.27,16.06s-1.09,11.39-3.27,15.81c-2.18,4.42-5.53,7.82-10.03,10.2-4.5,2.38-10.24,3.57-17.21,3.57h-16.83ZM1253.15,828.35h10.88c5.95,0,10.71-.99,14.28-2.97s6.15-4.82,7.73-8.5c1.59-3.68,2.38-8.08,2.38-13.18s-.79-9.61-2.38-13.34c-1.59-3.74-4.16-6.62-7.73-8.63-3.57-2.01-8.33-3.02-14.28-3.02h-10.88v49.64Z"/>
    <path class="cls-2" d="M1320.64,834.3c-3.46,0-6.46-.57-9.01-1.7s-4.62-2.76-6.21-4.89c-1.59-2.12-2.55-4.66-2.89-7.61h6.21c.28,1.64.92,3.13,1.91,4.46.99,1.33,2.34,2.42,4.04,3.27,1.7.85,3.71,1.27,6.04,1.27,2.15,0,3.92-.33,5.31-.98,1.39-.65,2.44-1.54,3.15-2.68.71-1.13,1.06-2.35,1.06-3.65,0-1.87-.42-3.32-1.28-4.34-.85-1.02-2.1-1.81-3.74-2.38-1.64-.57-3.68-1.05-6.12-1.45-1.81-.34-3.61-.78-5.4-1.32-1.79-.54-3.37-1.27-4.76-2.21-1.39-.94-2.48-2.1-3.27-3.49-.79-1.39-1.19-3.02-1.19-4.89,0-2.44.59-4.58,1.79-6.42,1.19-1.84,2.93-3.29,5.23-4.33s4.94-1.57,7.95-1.57c4.42,0,8.02,1.09,10.8,3.27,2.78,2.18,4.42,5.37,4.93,9.56h-6.03c-.23-2.32-1.19-4.18-2.89-5.57-1.7-1.39-4-2.08-6.88-2.08s-5,.59-6.5,1.78c-1.5,1.19-2.25,2.78-2.25,4.76,0,1.19.4,2.25,1.19,3.19.79.93,1.96,1.74,3.49,2.42,1.53.68,3.46,1.22,5.78,1.62,2.66.51,5.16,1.18,7.48,2,2.32.82,4.21,2.07,5.65,3.74,1.45,1.67,2.17,4.04,2.17,7.1,0,2.55-.64,4.82-1.91,6.8-1.28,1.98-3.1,3.53-5.48,4.63-2.38,1.11-5.16,1.66-8.33,1.66Z"/>
    <path class="cls-2" d="M1361.1,833.28c-2.44,0-4.54-.38-6.29-1.15-1.76-.76-3.1-2.05-4.04-3.87-.94-1.81-1.4-4.25-1.4-7.31v-25.42h-7.48v-5.1h7.48l.85-10.03h5.1v10.03h12.75v5.1h-12.75v25.42c0,2.83.58,4.75,1.74,5.74,1.16.99,3.16,1.49,5.99,1.49h4.42v5.1h-6.38Z"/>
    <path class="cls-2" d="M1379.37,833.7c-1.25,0-2.28-.42-3.1-1.27-.82-.85-1.23-1.9-1.23-3.15s.41-2.28,1.23-3.1,1.88-1.23,3.19-1.23c1.19,0,2.2.41,3.02,1.23.82.82,1.23,1.88,1.23,3.19,0,1.19-.41,2.21-1.23,3.06-.82.85-1.86,1.27-3.1,1.27Z"/>
    <path class="cls-2" d="M1416.94,833.28v-59.5h20.32c4.7,0,8.6.79,11.69,2.38,3.09,1.59,5.37,3.71,6.84,6.38,1.47,2.67,2.21,5.7,2.21,9.09s-.72,6.19-2.17,8.88c-1.44,2.69-3.7,4.86-6.76,6.5-3.06,1.64-7,2.47-11.82,2.47h-11.82v23.8h-8.5ZM1425.44,802.42h11.48c4.42,0,7.59-.99,9.52-2.97,1.93-1.98,2.89-4.62,2.89-7.9s-.96-6.04-2.89-7.91c-1.93-1.87-5.1-2.8-9.52-2.8h-11.48v21.59Z"/>
    <path class="cls-2" d="M1493.95,834.3c-5.72,0-10.74-1.29-15.04-3.87-4.31-2.58-7.69-6.18-10.16-10.79-2.46-4.62-3.7-9.99-3.7-16.11s1.23-11.4,3.7-16.02c2.47-4.62,5.85-8.23,10.16-10.84,4.31-2.61,9.32-3.91,15.04-3.91s10.87,1.3,15.26,3.91c4.39,2.61,7.79,6.22,10.2,10.84,2.41,4.62,3.61,9.96,3.61,16.02s-1.21,11.49-3.61,16.11c-2.41,4.62-5.81,8.22-10.2,10.79-4.39,2.58-9.48,3.87-15.26,3.87ZM1493.95,826.73c4.14,0,7.73-.94,10.79-2.8,3.06-1.87,5.43-4.53,7.1-7.99,1.67-3.46,2.51-7.59,2.51-12.41s-.84-8.95-2.51-12.41c-1.67-3.46-4.04-6.11-7.1-7.95-3.06-1.84-6.66-2.76-10.79-2.76s-7.55.92-10.58,2.76c-3.03,1.84-5.4,4.49-7.1,7.95-1.7,3.46-2.55,7.59-2.55,12.41s.85,8.95,2.55,12.41c1.7,3.46,4.06,6.12,7.1,7.99,3.03,1.87,6.56,2.8,10.58,2.8Z"/>
    <path class="cls-2" d="M1533.22,833.28v-59.5h20.14c4.7,0,8.56.79,11.56,2.38,3,1.59,5.23,3.7,6.67,6.33s2.17,5.62,2.17,8.97-.72,6.11-2.17,8.8c-1.45,2.69-3.7,4.84-6.76,6.46-3.06,1.62-6.97,2.42-11.73,2.42h-11.39v24.14h-8.5ZM1541.72,802.68h11.13c4.19,0,7.27-1.03,9.22-3.1,1.96-2.07,2.93-4.72,2.93-7.95s-.96-5.89-2.89-7.82c-1.93-1.93-5.04-2.89-9.35-2.89h-11.05v21.76ZM1564.5,833.28l-12.83-26.44h9.35l13.34,26.44h-9.86Z"/>
    <path class="cls-2" d="M1598.67,833.28v-52.53h-17.6v-6.97h43.78v6.97h-17.68v52.53h-8.5Z"/>
  </g>
  <line class="cls-4" x1="412.81" y1="856.5" x2="1745.81" y2="856.5"/>
  <g>
    <path class="cls-2" d="M110.44,1028.83H12.44v-21h81.76v-42.28h16.24v63.28Z"/>
    <path class="cls-2" d="M112.12,918.79c0,6.81-1.59,12.95-4.76,18.41s-7.54,9.75-13.09,12.88c-5.55,3.13-11.88,4.69-18.97,4.69s-13.72-1.56-19.32-4.69c-5.6-3.13-9.96-7.42-13.09-12.88-3.13-5.46-4.69-11.6-4.69-18.41s1.56-13.04,4.69-18.41c3.13-5.37,7.47-9.64,13.02-12.81,5.55-3.17,11.97-4.76,19.25-4.76s13.56,1.59,19.11,4.76c5.55,3.17,9.92,7.44,13.09,12.81s4.76,11.5,4.76,18.41ZM93.92,918.79c0-2.71-.7-5.16-2.1-7.35-1.4-2.19-3.5-3.94-6.3-5.25-2.8-1.3-6.25-1.96-10.36-1.96s-7.56.65-10.36,1.96c-2.8,1.31-4.9,3.06-6.3,5.25-1.4,2.2-2.1,4.64-2.1,7.35s.7,5.3,2.1,7.49c1.4,2.19,3.5,3.92,6.3,5.18,2.8,1.26,6.25,1.89,10.36,1.89s7.56-.63,10.36-1.89c2.8-1.26,4.9-2.99,6.3-5.18,1.4-2.19,2.1-4.69,2.1-7.49Z"/>
    <path class="cls-2" d="M112.12,831.86c0,7.28-1.59,13.7-4.76,19.25-3.17,5.55-7.51,9.87-13.02,12.95-5.51,3.08-11.76,4.62-18.76,4.62s-13.74-1.54-19.39-4.62c-5.65-3.08-10.06-7.4-13.23-12.95-3.17-5.55-4.76-11.97-4.76-19.25,0-9.24,2.43-17.01,7.28-23.31,4.85-6.3,11.57-10.29,20.16-11.97v22.4c-2.99.65-5.32,2.15-7,4.48-1.68,2.33-2.52,5.18-2.52,8.54,0,3.17.77,5.9,2.31,8.19,1.54,2.29,3.73,4.04,6.58,5.25,2.85,1.21,6.23,1.82,10.15,1.82,2.89,0,5.51-.35,7.84-1.05,2.33-.7,4.32-1.7,5.95-3.01,1.63-1.31,2.92-2.92,3.85-4.83.93-1.91,1.4-4.04,1.4-6.37,0-2.15-.37-4.13-1.12-5.95-.75-1.82-1.84-3.34-3.29-4.55-1.45-1.21-3.15-2.05-5.11-2.52v-22.4c8.4,1.68,15.07,5.69,20.02,12.04,4.95,6.35,7.42,14.09,7.42,23.24Z"/>
    <path class="cls-2" d="M112.12,756.4c0,5.79-.96,10.62-2.87,14.49-1.91,3.88-4.46,6.72-7.63,8.54-3.17,1.82-6.72,2.73-10.64,2.73s-7.82-1.05-11.13-3.15c-3.31-2.1-5.9-5.37-7.77-9.8-1.87-4.43-2.8-10.15-2.8-17.15v-16.94c-3.17,0-5.81.4-7.91,1.19-2.1.79-3.66,2.08-4.69,3.85-1.03,1.77-1.54,4.2-1.54,7.28,0,3.27.68,6.02,2.03,8.26,1.35,2.24,3.43,3.64,6.23,4.2v20.16c-5.04-.46-9.43-2.1-13.16-4.9-3.73-2.8-6.67-6.6-8.82-11.41-2.15-4.81-3.22-10.29-3.22-16.45,0-6.72,1.07-12.55,3.22-17.5,2.15-4.95,5.34-8.79,9.59-11.55,4.25-2.75,9.5-4.13,15.75-4.13h43.68v17.5l-10.22,2.52c1.77,1.03,3.38,2.24,4.83,3.64,1.45,1.4,2.71,3.03,3.78,4.9,1.07,1.87,1.89,3.92,2.45,6.16.56,2.24.84,4.76.84,7.56ZM96.16,751.08c0-2.15-.37-4.06-1.12-5.74-.75-1.68-1.77-3.15-3.08-4.41-1.31-1.26-2.82-2.29-4.55-3.08-1.73-.79-3.66-1.38-5.81-1.75v13.58c0,2.33.3,4.29.91,5.88.61,1.59,1.49,2.73,2.66,3.43,1.17.7,2.45,1.05,3.85,1.05,1.59,0,2.89-.4,3.92-1.19,1.03-.79,1.82-1.87,2.38-3.22.56-1.35.84-2.87.84-4.55Z"/>
    <path class="cls-2" d="M110.44,696.48H9.64v-21h100.8v21Z"/>
    <path class="cls-2" d="M110.44,625.5H12.44v-21h81.76v-42.28h16.24v63.28Z"/>
    <path class="cls-2" d="M112.12,513.22c0,6.44-1.17,12.34-3.5,17.71-2.33,5.37-5.9,9.66-10.71,12.88-4.81,3.22-10.94,4.92-18.41,5.11v-20.44c2.89-.19,5.48-.86,7.77-2.03,2.29-1.17,4.08-2.89,5.39-5.18,1.31-2.29,1.96-4.97,1.96-8.05,0-2.89-.58-5.39-1.75-7.49-1.17-2.1-2.71-3.71-4.62-4.83-1.91-1.12-4.13-1.68-6.65-1.68-2.89,0-5.32.7-7.28,2.1s-3.48,3.41-4.55,6.02c-1.07,2.61-1.61,5.69-1.61,9.24v7.28h-17.22v-7.28c0-4.11-.96-7.65-2.87-10.64-1.91-2.99-4.92-4.48-9.03-4.48-3.27,0-5.86,1.07-7.77,3.22-1.91,2.15-2.87,5.04-2.87,8.68,0,4.11,1.24,7.33,3.71,9.66,2.47,2.33,5.44,3.59,8.89,3.78v20.3c-6.35-.28-11.78-1.84-16.31-4.69-4.53-2.85-7.98-6.77-10.36-11.76-2.38-4.99-3.57-10.8-3.57-17.43s1.21-12.79,3.64-17.64c2.43-4.85,5.65-8.52,9.66-10.99,4.01-2.47,8.45-3.71,13.3-3.71,4.01,0,7.49.75,10.43,2.24,2.94,1.49,5.37,3.45,7.28,5.88,1.91,2.43,3.34,5.04,4.27,7.84.65-3.64,2.03-6.79,4.13-9.45,2.1-2.66,4.76-4.74,7.98-6.23,3.22-1.49,6.88-2.24,10.99-2.24,5.41,0,10.38,1.33,14.91,3.99,4.53,2.66,8.12,6.53,10.78,11.62,2.66,5.09,3.99,11.32,3.99,18.69Z"/>
    <path class="cls-2" d="M236.12,984.31c0,9.8-2.12,18.27-6.37,25.41-4.25,7.14-10.17,12.62-17.78,16.45-7.61,3.83-16.36,5.74-26.25,5.74s-18.92-1.91-26.53-5.74c-7.61-3.83-13.58-9.31-17.92-16.45s-6.51-15.61-6.51-25.41c0-12.04,3.03-21.93,9.1-29.68,6.07-7.75,14.61-12.51,25.62-14.28v22.96c-4.95,1.12-8.8,3.5-11.55,7.14-2.75,3.64-4.13,8.35-4.13,14.14s1.31,10.2,3.92,14.07c2.61,3.87,6.28,6.81,10.99,8.82,4.71,2.01,10.38,3.01,17.01,3.01s12.02-1,16.73-3.01c4.71-2.01,8.35-4.95,10.92-8.82,2.57-3.87,3.85-8.56,3.85-14.07,0-5.79-1.24-10.5-3.71-14.14-2.47-3.64-6.04-6.02-10.71-7.14v-22.96c10.36,1.77,18.5,6.53,24.43,14.28,5.93,7.75,8.89,17.64,8.89,29.68Z"/>
    <path class="cls-2" d="M236.12,901.02c0,5.79-.96,10.62-2.87,14.49-1.91,3.87-4.46,6.72-7.63,8.54-3.17,1.82-6.72,2.73-10.64,2.73s-7.82-1.05-11.13-3.15c-3.31-2.1-5.9-5.37-7.77-9.8-1.87-4.43-2.8-10.15-2.8-17.15v-16.94c-3.17,0-5.81.4-7.91,1.19-2.1.79-3.66,2.08-4.69,3.85-1.03,1.77-1.54,4.2-1.54,7.28,0,3.27.68,6.02,2.03,8.26,1.35,2.24,3.43,3.64,6.23,4.2v20.16c-5.04-.47-9.43-2.1-13.16-4.9-3.73-2.8-6.67-6.6-8.82-11.41-2.15-4.81-3.22-10.29-3.22-16.45,0-6.72,1.07-12.55,3.22-17.5,2.15-4.95,5.34-8.8,9.59-11.55,4.25-2.75,9.5-4.13,15.75-4.13h43.68v17.5l-10.22,2.52c1.77,1.03,3.38,2.24,4.83,3.64,1.45,1.4,2.71,3.03,3.78,4.9,1.07,1.87,1.89,3.92,2.45,6.16.56,2.24.84,4.76.84,7.56ZM220.16,895.7c0-2.15-.37-4.06-1.12-5.74-.75-1.68-1.77-3.15-3.08-4.41-1.31-1.26-2.82-2.29-4.55-3.08-1.73-.79-3.66-1.38-5.81-1.75v13.58c0,2.33.3,4.29.91,5.88.61,1.59,1.49,2.73,2.66,3.43,1.17.7,2.45,1.05,3.85,1.05,1.59,0,2.89-.4,3.92-1.19,1.03-.79,1.82-1.87,2.38-3.22.56-1.35.84-2.87.84-4.55Z"/>
    <path class="cls-2" d="M236.12,806.38c0,7.28-1.59,13.7-4.76,19.25-3.17,5.55-7.51,9.87-13.02,12.95-5.51,3.08-11.76,4.62-18.76,4.62s-13.74-1.54-19.39-4.62c-5.65-3.08-10.06-7.4-13.23-12.95-3.17-5.55-4.76-11.97-4.76-19.25,0-9.24,2.43-17.01,7.28-23.31,4.85-6.3,11.57-10.29,20.16-11.97v22.4c-2.99.65-5.32,2.15-7,4.48-1.68,2.33-2.52,5.18-2.52,8.54,0,3.17.77,5.9,2.31,8.19,1.54,2.29,3.73,4.04,6.58,5.25,2.85,1.21,6.23,1.82,10.15,1.82,2.89,0,5.51-.35,7.84-1.05,2.33-.7,4.32-1.7,5.95-3.01,1.63-1.31,2.92-2.92,3.85-4.83.93-1.91,1.4-4.04,1.4-6.37,0-2.15-.37-4.13-1.12-5.95-.75-1.82-1.84-3.34-3.29-4.55-1.45-1.21-3.15-2.05-5.11-2.52v-22.4c8.4,1.68,15.07,5.69,20.02,12.04,4.95,6.35,7.42,14.09,7.42,23.24Z"/>
    <path class="cls-2" d="M234.44,754.72h-100.8v-21h40.18c-3.36-2.24-6.14-5.27-8.33-9.1-2.19-3.83-3.29-8.31-3.29-13.44,0-5.97,1.26-10.97,3.78-14.98,2.52-4.01,6.16-7.02,10.92-9.03,4.76-2.01,10.59-3.01,17.5-3.01h40.04v20.86h-38.22c-5.23,0-9.26,1.07-12.11,3.22-2.85,2.15-4.27,5.65-4.27,10.5,0,2.89.72,5.48,2.17,7.77,1.45,2.29,3.43,4.06,5.95,5.32s5.55,1.89,9.1,1.89h37.38v21Z"/>
    <path class="cls-2" d="M236.12,632.08c0,7.28-1.52,13.65-4.55,19.11-3.03,5.46-7.28,9.73-12.74,12.81s-11.74,4.62-18.83,4.62-13.77-1.49-19.46-4.48c-5.69-2.99-10.17-7.26-13.44-12.81-3.27-5.55-4.9-11.97-4.9-19.25s1.52-13.3,4.55-18.62c3.03-5.32,7.21-9.47,12.53-12.46,5.32-2.99,11.43-4.48,18.34-4.48.93,0,1.98.02,3.15.07,1.17.05,2.36.12,3.57.21v56.98h-12.32v-36.12c-3.83.28-6.95,1.73-9.38,4.34-2.43,2.61-3.64,5.93-3.64,9.94,0,3.08.7,5.83,2.1,8.26,1.4,2.43,3.52,4.32,6.37,5.67,2.85,1.35,6.42,2.03,10.71,2.03h4.06c3.27,0,6.18-.61,8.75-1.82,2.57-1.21,4.55-3.03,5.95-5.46,1.4-2.43,2.1-5.18,2.1-8.26s-.63-5.76-1.89-7.77c-1.26-2.01-2.82-3.57-4.69-4.69v-21.42c4.29,1.31,8.26,3.55,11.9,6.72,3.64,3.17,6.51,7.02,8.61,11.55,2.1,4.53,3.15,9.64,3.15,15.33Z"/>
  </g>
</svg>