<?xml version="1.0" encoding="UTF-8"?>
<svg id="Capa_1" data-name="Capa 1" xmlns="http://www.w3.org/2000/svg" viewBox="0 0 1295 1290.31">
  <defs>
    <style>
      .cls-1 {
        fill: #fff;
      }
    </style>
  </defs>
  <path class="cls-1" d="M559.55,60h0M559.55,60c-103.55,90.59-169.88,229.97-169.88,386.28,0,273.07,202.42,494.44,452.12,494.44,168.49,0,315.46-100.8,393.21-250.26-24.74,302.25-277.89,539.84-586.51,539.84-325.01,0-588.49-263.48-588.49-588.49,0-294.78,216.74-538.94,499.55-581.82M559.57,0c-1.17,0-2.34.03-3.51.1-2.24.13-4.45.38-6.62.75-76.25,11.7-149.08,36.69-216.49,74.3-66.11,36.89-124.84,84.66-174.56,141.99-50.04,57.71-89.13,123.01-116.18,194.1C14.2,484.85,0,562.42,0,641.82c0,87.52,17.15,172.45,50.99,252.44,16.26,38.44,36.38,75.51,59.8,110.18,23.19,34.33,49.82,66.6,79.15,95.93,29.33,29.33,61.61,55.96,95.93,79.15,34.67,23.42,71.74,43.54,110.18,59.8,79.99,33.83,164.92,50.99,252.44,50.99,163.87,0,320.3-61.28,440.47-172.55,119.49-110.64,192.6-260.65,205.84-422.4,2.33-28.47-15.73-54.63-43.18-62.55-5.52-1.59-11.11-2.35-16.62-2.36-21.92,0-42.69,12.07-53.22,32.32-69.94,134.44-200.21,217.95-339.98,217.95-216.22,0-392.12-194.89-392.12-434.44,0-133.58,54.32-257.78,149.05-340.83,1.17-1.01,2.3-2.06,3.38-3.15,1.75-1.76,3.37-3.6,4.86-5.53,7.8-10.04,12.48-22.63,12.58-36.31,0-1.02,0-2.04-.05-3.06,0-.02,0-.03,0-.05h0c-.58-13.33-5.5-25.53-13.39-35.22-1.99-2.44-4.15-4.71-6.47-6.79,0,0-.01,0-.01-.01h0c-9.24-8.3-21.07-13.77-34.13-15.05-1.95-.19-3.93-.29-5.91-.29h0ZM559.55,120h0,0Z"/>
</svg>