<?xml version="1.0" encoding="UTF-8"?>
<svg id="Capa_1" data-name="Capa 1" xmlns="http://www.w3.org/2000/svg" viewBox="0 0 942 741">
  <defs>
    <style>
      .cls-1 {
        fill: #4d4d4d;
        stroke: #000;
        stroke-miterlimit: 10;
        stroke-width: 11px;
      }

      .cls-2 {
        fill: red;
      }

      .cls-3 {
        fill: #999;
      }

      .cls-4 {
        fill: lime;
      }
    </style>
  </defs>
  <g>
    <g>
      <rect class="cls-3" x="5.5" y="5.5" width="931" height="166.03" rx="14.27" ry="14.27"/>
      <path d="M922.23,11c4.84,0,8.77,3.94,8.77,8.77v137.48c0,4.84-3.94,8.77-8.77,8.77H19.77c-4.84,0-8.77-3.94-8.77-8.77V19.77c0-4.84,3.94-8.77,8.77-8.77h902.45M922.23,0H19.77C8.85,0,0,8.85,0,19.77v137.48c0,10.92,8.85,19.77,19.77,19.77h902.45c10.92,0,19.77-8.85,19.77-19.77V19.77c0-10.92-8.85-19.77-19.77-19.77h0Z"/>
    </g>
    <g>
      <rect class="cls-3" x="5.5" y="193.49" width="931" height="166.03" rx="14.27" ry="14.27"/>
      <path d="M922.23,198.99c4.84,0,8.77,3.94,8.77,8.77v137.48c0,4.84-3.94,8.77-8.77,8.77H19.77c-4.84,0-8.77-3.94-8.77-8.77v-137.48c0-4.84,3.94-8.77,8.77-8.77h902.45M922.23,187.99H19.77c-10.92,0-19.77,8.85-19.77,19.77v137.48c0,10.92,8.85,19.77,19.77,19.77h902.45c10.92,0,19.77-8.85,19.77-19.77v-137.48c0-10.92-8.85-19.77-19.77-19.77h0Z"/>
    </g>
    <g>
      <rect class="cls-3" x="5.5" y="381.48" width="931" height="166.03" rx="14.27" ry="14.27"/>
      <path d="M922.23,386.98c4.84,0,8.77,3.94,8.77,8.77v137.48c0,4.84-3.94,8.77-8.77,8.77H19.77c-4.84,0-8.77-3.94-8.77-8.77v-137.48c0-4.84,3.94-8.77,8.77-8.77h902.45M922.23,375.98H19.77c-10.92,0-19.77,8.85-19.77,19.77v137.48c0,10.92,8.85,19.77,19.77,19.77h902.45c10.92,0,19.77-8.85,19.77-19.77v-137.48c0-10.92-8.85-19.77-19.77-19.77h0Z"/>
    </g>
    <g>
      <rect class="cls-3" x="5.5" y="569.47" width="931" height="166.03" rx="14.27" ry="14.27"/>
      <path d="M922.23,574.97c4.84,0,8.77,3.94,8.77,8.77v137.48c0,4.84-3.94,8.77-8.77,8.77H19.77c-4.84,0-8.77-3.94-8.77-8.77v-137.48c0-4.84,3.94-8.77,8.77-8.77h902.45M922.23,563.97H19.77c-10.92,0-19.77,8.85-19.77,19.77v137.48c0,10.92,8.85,19.77,19.77,19.77h902.45c10.92,0,19.77-8.85,19.77-19.77v-137.48c0-10.92-8.85-19.77-19.77-19.77h0Z"/>
    </g>
  </g>
  <g>
    <circle class="cls-4" cx="61.7" cy="88.7" r="16.26"/>
    <circle class="cls-4" cx="114.36" cy="88.7" r="16.26"/>
    <circle class="cls-4" cx="167.03" cy="88.7" r="16.26"/>
  </g>
  <g>
    <circle class="cls-4" cx="62.48" cy="276.69" r="16.26"/>
    <circle class="cls-2" cx="115.14" cy="276.69" r="16.26"/>
    <circle class="cls-4" cx="167.81" cy="276.69" r="16.26"/>
  </g>
  <g>
    <circle class="cls-4" cx="62.48" cy="464.68" r="16.26"/>
    <circle class="cls-4" cx="115.14" cy="464.68" r="16.26"/>
    <circle class="cls-2" cx="167.81" cy="464.68" r="16.26"/>
  </g>
  <g>
    <circle class="cls-4" cx="61.79" cy="652.58" r="16.36"/>
    <circle class="cls-2" cx="114.75" cy="652.58" r="16.36"/>
    <circle class="cls-2" cx="167.72" cy="652.58" r="16.36"/>
  </g>
  <rect class="cls-1" x="577.84" y="65.41" width="254.57" height="47" rx="9.55" ry="9.55"/>
  <rect class="cls-1" x="577.84" y="252.61" width="254.57" height="47" rx="9.55" ry="9.55"/>
  <rect class="cls-1" x="577.84" y="441.39" width="254.57" height="47" rx="9.55" ry="9.55"/>
  <rect class="cls-1" x="577.84" y="628.6" width="254.57" height="47" rx="9.55" ry="9.55"/>
</svg>