<?xml version="1.0" encoding="UTF-8"?>
<svg id="Capa_1" data-name="Capa 1" xmlns="http://www.w3.org/2000/svg" viewBox="0 0 1470 975.96">
  <defs>
    <style>
      .cls-1 {
        stroke-width: 29px;
      }

      .cls-1, .cls-2 {
        fill: none;
        stroke: #000;
        stroke-linecap: round;
        stroke-linejoin: round;
      }

      .cls-2 {
        stroke-width: 40px;
      }
    </style>
  </defs>
  <line class="cls-2" x1="20" y1="953.46" x2="20" y2="56.46"/>
  <line class="cls-2" x1="1450" y1="56.46" x2="1450" y2="953.46"/>
  <line class="cls-2" x1="20" y1="953.46" x2="643" y2="953.46"/>
  <line class="cls-2" x1="837" y1="953.46" x2="1450" y2="953.46"/>
  <line class="cls-2" x1="105" y1="856.27" x2="636" y2="856.46"/>
  <line class="cls-2" x1="105" y1="20" x2="635" y2="20.46"/>
  <line class="cls-2" x1="834" y1="20.46" x2="1365.97" y2="20"/>
  <line class="cls-2" x1="105" y1="20" x2="105" y2="856.27"/>
  <line class="cls-2" x1="735.01" y1="119.46" x2="735" y2="955.46"/>
  <line class="cls-2" x1="1365.97" y1="20" x2="1365.97" y2="856.27"/>
  <line class="cls-2" x1="835" y1="856.46" x2="1365.97" y2="856.27"/>
  <line class="cls-1" x1="227.99" y1="183.68" x2="591.65" y2="183.68"/>
  <line class="cls-1" x1="227.99" y1="313.4" x2="591.65" y2="313.4"/>
  <line class="cls-1" x1="227.99" y1="443.11" x2="591.65" y2="443.11"/>
  <line class="cls-1" x1="227.99" y1="572.57" x2="459.56" y2="572.57"/>
  <path class="cls-2" d="M635.5,20.46c54.95,0,99.5,44.55,99.5,99.5"/>
  <path class="cls-2" d="M735,119.96c0-54.95,44.55-99.5,99.5-99.5"/>
  <path class="cls-2" d="M635.5,856.46c54.95,0,99.5,44.55,99.5,99.5"/>
  <path class="cls-2" d="M735,955.96c0-54.95,44.55-99.5,99.5-99.5"/>
  <path d="M1039.02,470.87h-9.81c-.32-17.7.52-30.94,2.51-39.71,1.99-8.77,7.18-20.85,15.55-36.24,8.37-15.39,13.88-27.75,16.51-37.08,2.63-9.33,3.95-20.85,3.95-34.57,0-21.21-4.15-36.84-12.44-46.89-8.29-10.05-18.1-15.07-29.42-15.07-8.61,0-15.87,2.31-21.77,6.94-4.47,3.51-6.7,7.18-6.7,11,0,2.55,1.51,6.54,4.54,11.96,6.86,12.28,10.29,22.73,10.29,31.34,0,7.82-2.67,14.35-8.01,19.62-5.34,5.26-12,7.89-19.97,7.89-8.93,0-16.43-3.15-22.49-9.45-6.06-6.3-9.09-14.63-9.09-25,0-18.82,8.13-35.32,24.4-49.52,16.27-14.19,38.99-21.29,68.18-21.29,30.94,0,54.5,7.38,70.69,22.13,16.18,14.75,24.28,32.57,24.28,53.46,0,15.15-4.15,29.15-12.44,41.98-8.29,12.84-24.32,27.07-48.08,42.7-15.95,10.53-26.43,19.9-31.46,28.11-5.02,8.22-8.1,20.77-9.21,37.68ZM1036.39,505.79c10.68,0,19.77,3.75,27.27,11.24,7.49,7.5,11.24,16.59,11.24,27.27s-3.75,19.82-11.24,27.39c-7.5,7.57-16.59,11.36-27.27,11.36s-19.78-3.79-27.27-11.36c-7.5-7.57-11.24-16.7-11.24-27.39s3.75-19.77,11.24-27.27,16.58-11.24,27.27-11.24Z"/>
</svg>