<?xml version="1.0" encoding="UTF-8"?>
<svg id="Capa_1" data-name="Capa 1" xmlns="http://www.w3.org/2000/svg" viewBox="0 0 1706.5 1008">
  <defs>
    <style>
      .cls-1 {
        fill: gray;
        opacity: .18;
      }

      .cls-2 {
        fill: #fff;
      }

      .cls-3 {
        stroke-width: 5px;
      }

      .cls-3, .cls-4, .cls-5 {
        stroke-miterlimit: 10;
      }

      .cls-3, .cls-4, .cls-5, .cls-6, .cls-7 {
        fill: none;
      }

      .cls-3, .cls-5 {
        stroke: #fff;
      }

      .cls-4, .cls-7 {
        stroke: #333;
        stroke-width: 15px;
      }

      .cls-8 {
        fill: #666;
      }

      .cls-9 {
        letter-spacing: -.02em;
      }

      .cls-5 {
        stroke-width: 10px;
      }

      .cls-10 {
        fill: #b3b3b3;
      }

      .cls-11 {
        fill: #a5ed35;
      }

      .cls-6 {
        font-family: DMSans-Black, 'DM Sans';
        font-size: 121.06px;
        font-variation-settings: 'opsz' 14, 'wght' 900;
        font-weight: 800;
      }

      .cls-7 {
        stroke-linecap: round;
        stroke-linejoin: round;
      }
    </style>
  </defs>
  <rect class="cls-1" x="66.5" y="330" width="1456" height="675"/>
  <rect class="cls-7" x="66" y="325.5" width="1456" height="675"/>
  <g>
    <g>
      <path class="cls-10" d="M485,263.88v84.35c0,14.23-106.89,25.77-238.75,25.77S7.5,362.46,7.5,348.23v-84.35c0,14.24,106.89,25.77,238.75,25.77s238.75-11.53,238.75-25.77Z"/>
      <path class="cls-10" d="M485,146.74v84.36c0,6.23-20.46,11.94-54.52,16.39-43.79,5.73-110.06,9.38-184.23,9.38s-140.44-3.65-184.23-9.38c-34.06-4.45-54.52-10.16-54.52-16.39v-84.36c0,14.24,106.89,25.78,238.75,25.78s238.75-11.54,238.75-25.78Z"/>
      <path class="cls-10" d="M485,33.27v84.35c0,5.4-15.39,10.42-41.7,14.56-43.02,6.77-115.23,11.21-197.05,11.21s-154.03-4.44-197.05-11.21c-26.31-4.14-41.7-9.16-41.7-14.56V33.27c0,14.24,106.89,25.78,238.75,25.78s238.75-11.54,238.75-25.78Z"/>
      <path class="cls-8" d="M443.3,132.18c26.31,4.15,41.7,9.16,41.7,14.56,0,14.24-106.89,25.78-238.75,25.78S7.5,160.98,7.5,146.74c0-5.4,15.39-10.41,41.7-14.56,43.02,6.77,115.23,11.21,197.05,11.21s154.03-4.44,197.05-11.21Z"/>
      <path class="cls-8" d="M430.48,247.49c34.06,4.44,54.52,10.15,54.52,16.39,0,14.24-106.89,25.77-238.75,25.77S7.5,278.12,7.5,263.88c0-6.24,20.46-11.95,54.52-16.39,43.79,5.73,110.06,9.38,184.23,9.38s140.44-3.65,184.23-9.38Z"/>
      <path class="cls-10" d="M246.25,7.5c131.86,0,238.75,11.54,238.75,25.77s-106.89,25.78-238.75,25.78S7.5,47.51,7.5,33.27,114.39,7.5,246.25,7.5Z"/>
    </g>
    <g>
      <path class="cls-4" d="M49.2,132.18c-26.31-4.14-41.7-9.16-41.7-14.56"/>
      <path class="cls-4" d="M485,117.62c0,5.4-15.39,10.42-41.7,14.56"/>
      <path class="cls-4" d="M485,33.27c0,14.24-106.89,25.78-238.75,25.78S7.5,47.51,7.5,33.27,114.39,7.5,246.25,7.5s238.75,11.54,238.75,25.77Z"/>
      <line class="cls-4" x1="7.5" y1="117.62" x2="7.5" y2="33.27"/>
      <line class="cls-4" x1="485" y1="117.62" x2="485" y2="33.27"/>
      <path class="cls-4" d="M62.02,247.49c-34.06-4.45-54.52-10.16-54.52-16.39"/>
      <path class="cls-4" d="M485,231.1c0,6.23-20.46,11.94-54.52,16.39"/>
      <path class="cls-4" d="M485,146.74c0,14.24-106.89,25.78-238.75,25.78S7.5,160.98,7.5,146.74c0-5.4,15.39-10.41,41.7-14.56,43.02,6.77,115.23,11.21,197.05,11.21s154.03-4.44,197.05-11.21c26.31,4.15,41.7,9.16,41.7,14.56Z"/>
      <line class="cls-4" x1="7.5" y1="231.1" x2="7.5" y2="146.74"/>
      <line class="cls-4" x1="485" y1="231.1" x2="485" y2="146.74"/>
      <path class="cls-4" d="M7.5,348.23c0,14.23,106.89,25.77,238.75,25.77s238.75-11.54,238.75-25.77"/>
      <path class="cls-4" d="M485,263.88c0,14.24-106.89,25.77-238.75,25.77S7.5,278.12,7.5,263.88c0-6.24,20.46-11.95,54.52-16.39,43.79,5.73,110.06,9.38,184.23,9.38s140.44-3.65,184.23-9.38c34.06,4.44,54.52,10.15,54.52,16.39Z"/>
      <line class="cls-4" x1="7.5" y1="348.23" x2="7.5" y2="263.88"/>
      <line class="cls-4" x1="485" y1="348.23" x2="485" y2="263.88"/>
    </g>
  </g>
  <text/>
  <circle class="cls-11" cx="55" cy="108.5" r="11.5"/>
  <circle class="cls-11" cx="55" cy="224.5" r="11.5"/>
  <circle class="cls-11" cx="55" cy="340.5" r="11.5"/>
  <g>
    <path class="cls-2" d="M445.8,477.3c-4.02,0-7.66-.79-10.92-2.38-3.26-1.58-5.85-4.06-7.78-7.44-1.93-3.37-2.89-7.66-2.89-12.88v-37.83h5.95v37.91c0,4.08.67,7.4,2,9.94,1.33,2.55,3.19,4.42,5.57,5.61,2.38,1.19,5.1,1.79,8.16,1.79s5.84-.6,8.16-1.79c2.32-1.19,4.14-3.06,5.44-5.61,1.3-2.55,1.96-5.86,1.96-9.94v-37.91h5.95v37.83c0,5.21-.96,9.51-2.89,12.88-1.93,3.37-4.52,5.85-7.78,7.44-3.26,1.59-6.9,2.38-10.92,2.38Z"/>
    <path class="cls-2" d="M479.97,476.28v-59.5h18.36c4.59,0,8.34.77,11.26,2.29,2.92,1.53,5.06,3.58,6.42,6.16,1.36,2.58,2.04,5.51,2.04,8.8s-.69,6.08-2.08,8.71c-1.39,2.64-3.57,4.73-6.54,6.29-2.98,1.56-6.79,2.34-11.43,2.34h-12.07v24.9h-5.95ZM485.92,446.53h11.98c4.87,0,8.43-1.16,10.67-3.48,2.24-2.32,3.36-5.33,3.36-9.01s-1.09-6.79-3.27-8.97c-2.18-2.18-5.79-3.27-10.84-3.27h-11.9v24.73ZM511.67,476.28l-13.34-26.77h6.71l13.69,26.77h-7.06Z"/>
    <path class="cls-2" d="M529.86,476.28v-59.5h5.95v54.65h28.13v4.85h-34.08Z"/>
  </g>
  <g>
    <path class="cls-2" d="M1093.89,477.32v-59.5h5.95v59.5h-5.95Z"/>
    <path class="cls-2" d="M1113.1,477.32v-59.5h18.62c4.64,0,8.47.77,11.47,2.29,3,1.53,5.21,3.57,6.63,6.12,1.42,2.55,2.12,5.5,2.12,8.84s-.71,6.06-2.12,8.67c-1.42,2.61-3.61,4.68-6.59,6.21-2.98,1.53-6.82,2.29-11.52,2.29h-12.67v25.08h-5.95ZM1119.05,447.14h12.75c5.04,0,8.64-1.09,10.79-3.27,2.15-2.18,3.23-5.14,3.23-8.88s-1.08-6.91-3.23-9.01c-2.15-2.1-5.75-3.15-10.79-3.15h-12.75v24.31Z"/>
  </g>
  <line class="cls-5" x1="169.5" y1="505" x2="1418.5" y2="505"/>
  <line class="cls-3" x1="169.5" y1="646.5" x2="1418.5" y2="646.5"/>
  <line class="cls-3" x1="170.5" y1="788.5" x2="1419.5" y2="788.5"/>
  <line class="cls-3" x1="170.5" y1="930.5" x2="1419.5" y2="930.5"/>
  <g>
    <path class="cls-2" d="M556.6,158v-84.74h18.16v70.7h36.56v14.04h-54.72Z"/>
    <path class="cls-2" d="M651.75,159.45c-5.89,0-11.2-1.37-15.92-4.12-4.72-2.74-8.43-6.52-11.14-11.32-2.71-4.8-4.06-10.27-4.06-16.4s1.35-11.86,4.06-16.71c2.7-4.84,6.42-8.61,11.14-11.32,4.72-2.7,10.03-4.06,15.92-4.06s11.28,1.35,15.92,4.06c4.64,2.71,8.33,6.46,11.08,11.26,2.74,4.8,4.12,10.35,4.12,16.65s-1.37,11.72-4.12,16.52c-2.74,4.8-6.44,8.58-11.08,11.32-4.64,2.74-9.95,4.12-15.92,4.12ZM651.75,143.71c2.34,0,4.46-.61,6.36-1.82,1.9-1.21,3.41-3.03,4.54-5.45,1.13-2.42,1.69-5.41,1.69-8.96s-.57-6.54-1.69-8.96c-1.13-2.42-2.64-4.24-4.54-5.45-1.9-1.21-4.02-1.82-6.36-1.82s-4.58.6-6.48,1.82c-1.9,1.21-3.39,3.03-4.48,5.45-1.09,2.42-1.63,5.41-1.63,8.96s.54,6.54,1.63,8.96c1.09,2.42,2.58,4.24,4.48,5.45,1.9,1.21,4.06,1.82,6.48,1.82Z"/>
    <path class="cls-2" d="M726.93,159.45c-6.29,0-11.84-1.37-16.65-4.12-4.8-2.74-8.53-6.5-11.2-11.26-2.66-4.76-4-10.17-4-16.22s1.33-11.88,4-16.77c2.66-4.88,6.4-8.7,11.2-11.44,4.8-2.74,10.35-4.12,16.65-4.12,7.99,0,14.71,2.1,20.16,6.29,5.45,4.2,8.9,10.01,10.35,17.43h-19.37c-.57-2.58-1.86-4.6-3.87-6.05-2.02-1.45-4.48-2.18-7.38-2.18-2.74,0-5.1.67-7.08,2-1.98,1.33-3.49,3.23-4.54,5.69-1.05,2.46-1.57,5.39-1.57,8.78,0,2.5.3,4.76.91,6.78.61,2.02,1.47,3.73,2.6,5.15,1.13,1.41,2.52,2.52,4.18,3.33,1.65.81,3.49,1.21,5.51,1.21,1.86,0,3.57-.32,5.15-.97,1.57-.65,2.88-1.59,3.93-2.85,1.05-1.25,1.77-2.72,2.18-4.42h19.37c-1.45,7.26-4.92,13.03-10.41,17.31-5.49,4.28-12.19,6.42-20.1,6.42Z"/>
    <path class="cls-2" d="M792.18,159.45c-5.01,0-9.18-.83-12.53-2.48-3.35-1.65-5.81-3.85-7.38-6.6-1.57-2.74-2.36-5.81-2.36-9.2s.91-6.76,2.72-9.62c1.82-2.86,4.64-5.1,8.47-6.72,3.83-1.61,8.78-2.42,14.83-2.42h14.65c0-2.74-.34-5.02-1.03-6.84-.69-1.82-1.8-3.17-3.33-4.06-1.53-.89-3.63-1.33-6.3-1.33-2.83,0-5.21.59-7.14,1.76-1.94,1.17-3.15,2.97-3.63,5.39h-17.43c.4-4.36,1.82-8.15,4.24-11.38,2.42-3.23,5.71-5.77,9.87-7.63,4.16-1.86,8.9-2.78,14.22-2.78,5.81,0,10.85.93,15.13,2.78,4.28,1.86,7.61,4.62,9.99,8.29,2.38,3.67,3.57,8.21,3.57,13.62v37.77h-15.13l-2.18-8.84c-.89,1.53-1.94,2.93-3.15,4.18-1.21,1.25-2.62,2.34-4.24,3.27-1.62.93-3.39,1.63-5.33,2.12-1.94.48-4.12.73-6.54.73ZM796.78,145.65c1.86,0,3.51-.32,4.96-.97,1.45-.65,2.72-1.53,3.81-2.66,1.09-1.13,1.98-2.44,2.66-3.93.68-1.49,1.19-3.17,1.51-5.02h-11.74c-2.02,0-3.71.26-5.08.79-1.37.53-2.36,1.29-2.97,2.3-.61,1.01-.91,2.12-.91,3.33,0,1.37.34,2.5,1.03,3.39.68.89,1.61,1.57,2.78,2.06,1.17.48,2.48.73,3.93.73Z"/>
    <path class="cls-2" d="M843.99,158v-87.16h18.16v87.16h-18.16Z"/>
    <path class="cls-2" d="M905.37,158v-84.74h18.16v70.7h36.56v14.04h-54.72Z"/>
    <path class="cls-2" d="M1012.02,158v-14.53h-41.28v-14.53l38.98-55.69h20.34v54.48h10.65v15.74h-10.65v14.53h-18.04ZM989.99,127.73h23.24v-34.5l-23.24,34.5Z"/>
    <path class="cls-2" d="M595.09,263.45c-8.47,0-15.8-1.83-21.97-5.51-6.17-3.67-10.92-8.8-14.22-15.37-3.31-6.58-4.96-14.14-4.96-22.7s1.65-16.36,4.96-22.94c3.31-6.58,8.05-11.74,14.22-15.5,6.17-3.75,13.5-5.63,21.97-5.63,10.41,0,18.96,2.62,25.67,7.87,6.7,5.25,10.81,12.63,12.35,22.15h-19.85c-.97-4.28-3.03-7.61-6.17-9.99-3.15-2.38-7.22-3.57-12.23-3.57s-8.82,1.13-12.17,3.39c-3.35,2.26-5.89,5.43-7.63,9.5-1.74,4.08-2.6,8.98-2.6,14.71s.87,10.39,2.6,14.47c1.73,4.08,4.28,7.22,7.63,9.44,3.35,2.22,7.4,3.33,12.17,3.33,5,0,9.08-1.07,12.23-3.21,3.15-2.14,5.21-5.22,6.17-9.26h19.85c-1.53,8.96-5.65,16-12.35,21.12-6.7,5.13-15.25,7.69-25.67,7.69Z"/>
    <path class="cls-2" d="M667.12,263.45c-5.01,0-9.18-.83-12.53-2.48-3.35-1.65-5.81-3.85-7.38-6.6-1.57-2.74-2.36-5.81-2.36-9.2s.91-6.76,2.72-9.62c1.82-2.86,4.64-5.1,8.47-6.72,3.83-1.61,8.78-2.42,14.83-2.42h14.65c0-2.74-.34-5.02-1.03-6.84-.69-1.82-1.8-3.17-3.33-4.06-1.53-.89-3.63-1.33-6.3-1.33-2.83,0-5.21.59-7.14,1.76-1.94,1.17-3.15,2.97-3.63,5.39h-17.43c.4-4.36,1.82-8.15,4.24-11.38,2.42-3.23,5.71-5.77,9.87-7.63,4.16-1.86,8.9-2.78,14.22-2.78,5.81,0,10.85.93,15.13,2.78,4.28,1.86,7.61,4.62,9.99,8.29,2.38,3.67,3.57,8.21,3.57,13.62v37.77h-15.13l-2.18-8.84c-.89,1.53-1.94,2.93-3.15,4.18-1.21,1.25-2.62,2.34-4.24,3.27-1.62.93-3.39,1.63-5.33,2.12-1.94.48-4.12.73-6.54.73ZM671.72,249.65c1.86,0,3.51-.32,4.96-.97,1.45-.65,2.72-1.53,3.81-2.66,1.09-1.13,1.98-2.44,2.66-3.93.68-1.49,1.19-3.17,1.51-5.02h-11.74c-2.02,0-3.71.26-5.08.79-1.37.53-2.36,1.29-2.97,2.3-.61,1.01-.91,2.12-.91,3.33,0,1.37.34,2.5,1.03,3.39.68.89,1.61,1.57,2.78,2.06,1.17.48,2.48.73,3.93.73Z"/>
    <path class="cls-2" d="M748.96,263.45c-6.29,0-11.84-1.37-16.65-4.12-4.8-2.74-8.53-6.5-11.2-11.26-2.66-4.76-4-10.17-4-16.22s1.33-11.88,4-16.77c2.66-4.88,6.4-8.7,11.2-11.44,4.8-2.74,10.35-4.12,16.65-4.12,7.99,0,14.71,2.1,20.16,6.29,5.45,4.2,8.9,10.01,10.35,17.43h-19.37c-.57-2.58-1.86-4.6-3.87-6.05-2.02-1.45-4.48-2.18-7.38-2.18-2.74,0-5.1.67-7.08,2-1.98,1.33-3.49,3.23-4.54,5.69-1.05,2.46-1.57,5.39-1.57,8.78,0,2.5.3,4.76.91,6.78.61,2.02,1.47,3.73,2.6,5.15,1.13,1.41,2.52,2.52,4.18,3.33,1.65.81,3.49,1.21,5.51,1.21,1.86,0,3.57-.32,5.15-.97,1.57-.65,2.88-1.59,3.93-2.85,1.05-1.25,1.77-2.72,2.18-4.42h19.37c-1.45,7.26-4.92,13.03-10.41,17.31-5.49,4.28-12.19,6.42-20.1,6.42Z"/>
    <path class="cls-2" d="M793.63,262v-87.16h18.16v34.74c1.94-2.91,4.56-5.31,7.87-7.2,3.31-1.9,7.18-2.84,11.62-2.84,5.16,0,9.48,1.09,12.95,3.27,3.47,2.18,6.07,5.33,7.81,9.44,1.73,4.12,2.6,9.16,2.6,15.13v34.62h-18.04v-33.05c0-4.52-.93-8.01-2.78-10.47-1.86-2.46-4.88-3.69-9.08-3.69-2.5,0-4.74.63-6.72,1.88-1.98,1.25-3.51,2.97-4.6,5.15-1.09,2.18-1.63,4.8-1.63,7.87v32.32h-18.16Z"/>
    <path class="cls-2" d="M899.68,263.45c-6.29,0-11.8-1.31-16.52-3.93-4.72-2.62-8.41-6.29-11.08-11.02-2.66-4.72-4-10.15-4-16.28s1.29-11.9,3.87-16.83c2.58-4.92,6.27-8.8,11.08-11.62,4.8-2.82,10.35-4.24,16.65-4.24s11.5,1.31,16.1,3.93c4.6,2.62,8.19,6.23,10.77,10.83,2.58,4.6,3.87,9.89,3.87,15.86,0,.81-.02,1.72-.06,2.72-.04,1.01-.1,2.04-.18,3.09h-49.27v-10.65h31.23c-.24-3.31-1.49-6.01-3.75-8.11-2.26-2.1-5.13-3.15-8.6-3.15-2.66,0-5.04.61-7.14,1.82-2.1,1.21-3.73,3.05-4.9,5.51-1.17,2.46-1.76,5.55-1.76,9.26v3.51c0,2.83.52,5.35,1.57,7.57,1.05,2.22,2.62,3.93,4.72,5.15,2.1,1.21,4.48,1.82,7.14,1.82s4.98-.54,6.72-1.63c1.74-1.09,3.09-2.44,4.06-4.06h18.52c-1.13,3.71-3.07,7.14-5.81,10.29-2.75,3.15-6.07,5.63-9.99,7.45-3.92,1.82-8.33,2.72-13.26,2.72Z"/>
  </g>
  <text class="cls-6" transform="translate(1215.49 127)"><tspan class="cls-9" x="0" y="0">L</tspan><tspan x="65.98" y="0">ocal L3</tspan><tspan x="0" y="104">Cache</tspan></text>
</svg>