<?xml version="1.0" encoding="UTF-8"?>
<svg id="Capa_1" data-name="Capa 1" xmlns="http://www.w3.org/2000/svg" viewBox="0 0 1668.81 1009.5">
  <defs>
    <style>
      .cls-1 {
        fill: gray;
        opacity: .18;
      }

      .cls-2 {
        fill: #fff;
      }

      .cls-3, .cls-4 {
        stroke-miterlimit: 10;
        stroke-width: 10px;
      }

      .cls-3, .cls-4, .cls-5, .cls-6 {
        fill: none;
      }

      .cls-3, .cls-6 {
        stroke: #333;
      }

      .cls-7 {
        fill: #666;
      }

      .cls-8 {
        letter-spacing: -.02em;
      }

      .cls-4 {
        stroke: #fff;
      }

      .cls-9 {
        fill: #b3b3b3;
      }

      .cls-10 {
        fill: #a5ed35;
      }

      .cls-5 {
        font-family: DMSans-Black, 'DM Sans';
        font-size: 121.06px;
        font-variation-settings: 'opsz' 14, 'wght' 900;
        font-weight: 800;
      }

      .cls-6 {
        stroke-linecap: round;
        stroke-linejoin: round;
        stroke-width: 15px;
      }
    </style>
  </defs>
  <rect class="cls-1" x="28.81" y="183.5" width="1456" height="823"/>
  <rect class="cls-6" x="28.31" y="175" width="1456" height="827"/>
  <text/>
  <g>
    <g>
      <path class="cls-9" d="M274.04,149.45v47.53c0,8.02-60.23,14.52-134.52,14.52S5,205,5,196.98v-47.53c0,8.02,60.23,14.52,134.52,14.52s134.52-6.5,134.52-14.52Z"/>
      <path class="cls-9" d="M274.04,83.45v47.53c0,3.51-11.53,6.73-30.72,9.23-24.67,3.23-62.01,5.29-103.8,5.29s-79.13-2.06-103.8-5.29c-19.19-2.51-30.72-5.72-30.72-9.23v-47.53c0,8.02,60.23,14.53,134.52,14.53s134.52-6.5,134.52-14.53Z"/>
      <path class="cls-9" d="M274.04,19.52v47.53c0,3.04-8.67,5.87-23.5,8.2-24.24,3.81-64.92,6.32-111.03,6.32s-86.79-2.5-111.03-6.32c-14.82-2.33-23.5-5.16-23.5-8.2V19.52c0,8.02,60.23,14.53,134.52,14.53s134.52-6.5,134.52-14.53Z"/>
      <path class="cls-7" d="M250.55,75.25c14.82,2.34,23.5,5.16,23.5,8.2,0,8.02-60.23,14.53-134.52,14.53S5,91.48,5,83.45c0-3.04,8.67-5.87,23.5-8.2,24.24,3.81,64.92,6.32,111.03,6.32s86.79-2.5,111.03-6.32Z"/>
      <path class="cls-7" d="M243.32,140.22c19.19,2.5,30.72,5.72,30.72,9.23,0,8.02-60.23,14.52-134.52,14.52S5,157.48,5,149.45c0-3.52,11.53-6.73,30.72-9.23,24.67,3.23,62.01,5.29,103.8,5.29s79.13-2.06,103.8-5.29Z"/>
      <path class="cls-9" d="M139.52,5c74.29,0,134.52,6.5,134.52,14.52s-60.23,14.53-134.52,14.53S5,27.54,5,19.52,65.23,5,139.52,5Z"/>
    </g>
    <g>
      <path class="cls-3" d="M28.5,75.25c-14.82-2.33-23.5-5.16-23.5-8.2"/>
      <path class="cls-3" d="M274.04,67.05c0,3.04-8.67,5.87-23.5,8.2"/>
      <path class="cls-3" d="M274.04,19.52c0,8.02-60.23,14.53-134.52,14.53S5,27.54,5,19.52,65.23,5,139.52,5s134.52,6.5,134.52,14.52Z"/>
      <line class="cls-3" x1="5" y1="67.05" x2="5" y2="19.52"/>
      <line class="cls-3" x1="274.04" y1="67.05" x2="274.04" y2="19.52"/>
      <path class="cls-3" d="M35.72,140.22c-19.19-2.51-30.72-5.72-30.72-9.23"/>
      <path class="cls-3" d="M274.04,130.98c0,3.51-11.53,6.73-30.72,9.23"/>
      <path class="cls-3" d="M274.04,83.45c0,8.02-60.23,14.53-134.52,14.53S5,91.48,5,83.45c0-3.04,8.67-5.87,23.5-8.2,24.24,3.81,64.92,6.32,111.03,6.32s86.79-2.5,111.03-6.32c14.82,2.34,23.5,5.16,23.5,8.2Z"/>
      <line class="cls-3" x1="5" y1="130.98" x2="5" y2="83.45"/>
      <line class="cls-3" x1="274.04" y1="130.98" x2="274.04" y2="83.45"/>
      <path class="cls-3" d="M5,196.98c0,8.02,60.23,14.52,134.52,14.52s134.52-6.5,134.52-14.52"/>
      <path class="cls-3" d="M274.04,149.45c0,8.02-60.23,14.52-134.52,14.52S5,157.48,5,149.45c0-3.52,11.53-6.73,30.72-9.23,24.67,3.23,62.01,5.29,103.8,5.29s79.13-2.06,103.8-5.29c19.19,2.5,30.72,5.72,30.72,9.23Z"/>
      <line class="cls-3" x1="5" y1="196.98" x2="5" y2="149.45"/>
      <line class="cls-3" x1="274.04" y1="196.98" x2="274.04" y2="149.45"/>
    </g>
  </g>
  <ellipse class="cls-10" cx="27.94" cy="53.41" rx="6.27" ry="6.36"/>
  <ellipse class="cls-10" cx="27.94" cy="117.53" rx="6.27" ry="6.36"/>
  <ellipse class="cls-10" cx="27.94" cy="181.65" rx="6.27" ry="6.36"/>
  <g>
    <path class="cls-2" d="M319.95,289.78l21.85-59.5h9.27l21.84,59.5h-9.09l-17.43-49.3-17.51,49.3h-8.93ZM329.81,275.07l2.38-6.8h27.96l2.38,6.8h-32.72Z"/>
    <path class="cls-2" d="M404.1,290.8c-5.78,0-10.79-1.29-15.04-3.87-4.25-2.58-7.51-6.18-9.77-10.79-2.27-4.62-3.4-9.99-3.4-16.11s1.13-11.42,3.4-16.06c2.27-4.65,5.52-8.26,9.77-10.84,4.25-2.58,9.27-3.87,15.04-3.87,6.91,0,12.57,1.67,16.96,5.02,4.39,3.34,7.15,8.05,8.29,14.11h-9.44c-.85-3.51-2.58-6.32-5.19-8.42-2.61-2.1-6.18-3.15-10.71-3.15-4.02,0-7.48.94-10.37,2.81-2.89,1.87-5.13,4.53-6.72,7.99-1.59,3.46-2.38,7.59-2.38,12.41s.79,8.97,2.38,12.45c1.59,3.48,3.83,6.15,6.72,7.99,2.89,1.84,6.35,2.76,10.37,2.76,4.53,0,8.1-1.01,10.71-3.02,2.61-2.01,4.33-4.75,5.19-8.2h9.44c-1.13,5.89-3.9,10.5-8.29,13.81-4.39,3.31-10.04,4.97-16.96,4.97Z"/>
    <path class="cls-2" d="M439.54,289.78v-59.5h8.5v25.84l23.8-25.84h10.62l-22.01,23.63,22.44,35.87h-10.37l-18.19-29.24-6.29,6.72v22.52h-8.5Z"/>
  </g>
  <g>
    <path class="cls-2" d="M247.2,551.28v-59.5h19.98c4.19,0,7.65.68,10.37,2.04,2.72,1.36,4.75,3.17,6.08,5.44,1.33,2.27,2,4.79,2,7.56,0,3.06-.67,5.61-2,7.65-1.33,2.04-3.06,3.6-5.19,4.67-2.12,1.08-4.35,1.76-6.67,2.04l1.1-.85c2.55.06,4.89.74,7.01,2.04,2.12,1.3,3.84,3.05,5.14,5.23,1.3,2.18,1.96,4.66,1.96,7.44,0,2.95-.72,5.65-2.17,8.12-1.45,2.46-3.58,4.43-6.42,5.91-2.83,1.47-6.38,2.21-10.62,2.21h-20.57ZM253.15,518.13h13.85c4.02,0,7.11-.96,9.27-2.89,2.15-1.93,3.23-4.53,3.23-7.82s-1.05-5.74-3.15-7.69c-2.1-1.96-5.3-2.93-9.6-2.93h-13.6v21.33ZM253.15,546.26h14.19c4.31,0,7.64-1.02,9.99-3.06,2.35-2.04,3.53-4.84,3.53-8.42s-1.23-6.42-3.7-8.54c-2.46-2.12-5.82-3.19-10.07-3.19h-13.94v23.21Z"/>
    <path class="cls-2" d="M318.76,552.3c-4.02,0-7.66-.79-10.92-2.38-3.26-1.58-5.85-4.07-7.78-7.44-1.93-3.37-2.89-7.66-2.89-12.88v-37.83h5.95v37.91c0,4.08.67,7.39,2,9.95,1.33,2.55,3.19,4.42,5.57,5.61,2.38,1.19,5.1,1.79,8.16,1.79s5.84-.6,8.16-1.79c2.32-1.19,4.14-3.06,5.44-5.61,1.3-2.55,1.96-5.87,1.96-9.95v-37.91h5.95v37.83c0,5.21-.96,9.51-2.89,12.88-1.93,3.37-4.52,5.85-7.78,7.44-3.26,1.59-6.9,2.38-10.92,2.38Z"/>
    <path class="cls-2" d="M352.93,551.28v-59.5h35.53v4.93h-29.58v22.27h25.5v4.93h-25.5v27.37h-5.95Z"/>
    <path class="cls-2" d="M398.15,551.28v-59.5h35.53v4.93h-29.58v22.27h25.5v4.93h-25.5v27.37h-5.95Z"/>
    <path class="cls-2" d="M443.37,551.28v-59.5h36.12v4.93h-30.17v22.19h27.62v4.93h-27.62v22.53h30.17v4.93h-36.12Z"/>
    <path class="cls-2" d="M491.14,551.28v-59.5h18.36c4.59,0,8.34.77,11.26,2.29,2.92,1.53,5.06,3.58,6.42,6.16,1.36,2.58,2.04,5.51,2.04,8.8s-.69,6.08-2.08,8.71c-1.39,2.64-3.57,4.73-6.54,6.29s-6.79,2.34-11.43,2.34h-12.07v24.9h-5.95ZM497.09,521.53h11.98c4.87,0,8.43-1.16,10.67-3.48,2.24-2.32,3.36-5.33,3.36-9.01s-1.09-6.79-3.27-8.97c-2.18-2.18-5.79-3.27-10.84-3.27h-11.9v24.73ZM522.85,551.28l-13.34-26.78h6.71l13.69,26.78h-7.06Z"/>
  </g>
  <g>
    <path class="cls-2" d="M955.35,551.28l-16.41-59.5h6.38l13.51,52.19,15.21-52.19h6.72l14.79,52.28,13.6-52.28h6.46l-16.83,59.5h-6.72l-14.88-50.75-15.3,50.75h-6.54Z"/>
    <path class="cls-2" d="M1024.45,551.28v-59.5h5.95v59.5h-5.95Z"/>
    <path class="cls-2" d="M1043.66,551.28v-59.5h6.04l32.81,49.55v-49.55h5.95v59.5h-5.95l-32.9-49.64v49.64h-5.95Z"/>
    <path class="cls-2" d="M1101.72,551.28v-59.5h16.83c6.97,0,12.71,1.19,17.21,3.57,4.5,2.38,7.85,5.81,10.03,10.29s3.27,9.83,3.27,16.06-1.09,11.39-3.27,15.81-5.52,7.82-10.03,10.2c-4.51,2.38-10.24,3.57-17.21,3.57h-16.83ZM1107.67,546.35h10.88c5.95,0,10.71-.99,14.28-2.97,3.57-1.98,6.15-4.82,7.74-8.5,1.58-3.68,2.38-8.08,2.38-13.18s-.79-9.61-2.38-13.34c-1.59-3.74-4.17-6.62-7.74-8.63-3.57-2.01-8.33-3.02-14.28-3.02h-10.88v49.64Z"/>
    <path class="cls-2" d="M1186.21,552.3c-5.72,0-10.72-1.29-15-3.87-4.28-2.58-7.62-6.18-10.03-10.79-2.41-4.62-3.61-9.99-3.61-16.11s1.2-11.4,3.61-16.02c2.41-4.62,5.75-8.23,10.03-10.84,4.28-2.61,9.28-3.91,15-3.91s10.81,1.3,15.09,3.91c4.28,2.61,7.62,6.22,10.03,10.84,2.41,4.62,3.61,9.96,3.61,16.02s-1.2,11.49-3.61,16.11c-2.41,4.62-5.75,8.22-10.03,10.79-4.28,2.58-9.31,3.87-15.09,3.87ZM1186.21,547.11c4.47,0,8.41-1.02,11.81-3.06,3.4-2.04,6.05-4.97,7.95-8.8s2.85-8.4,2.85-13.73-.95-9.89-2.85-13.69c-1.9-3.79-4.55-6.71-7.95-8.75-3.4-2.04-7.34-3.06-11.81-3.06s-8.33,1.02-11.73,3.06c-3.4,2.04-6.05,4.96-7.95,8.75-1.9,3.8-2.85,8.36-2.85,13.69s.95,9.9,2.85,13.73c1.9,3.83,4.55,6.76,7.95,8.8,3.4,2.04,7.31,3.06,11.73,3.06Z"/>
    <path class="cls-2" d="M1235.76,551.28l-16.4-59.5h6.38l13.51,52.19,15.21-52.19h6.72l14.79,52.28,13.6-52.28h6.46l-16.83,59.5h-6.71l-14.88-50.75-15.3,50.75h-6.54Z"/>
  </g>
  <g>
    <path class="cls-2" d="M1064.15,291.84c-4.31,0-8.1-.78-11.39-2.34-3.29-1.56-5.84-3.75-7.65-6.59-1.81-2.83-2.72-6.15-2.72-9.95h8.93c0,2.15.51,4.12,1.53,5.91,1.02,1.78,2.48,3.2,4.38,4.25,1.9,1.05,4.21,1.57,6.93,1.57,2.38,0,4.43-.4,6.16-1.19,1.73-.79,3.05-1.88,3.95-3.27.91-1.39,1.36-2.99,1.36-4.8,0-2.1-.47-3.81-1.4-5.14-.93-1.33-2.2-2.44-3.78-3.31-1.59-.88-3.46-1.67-5.61-2.38-2.15-.71-4.39-1.43-6.72-2.17-4.7-1.59-8.2-3.6-10.5-6.03-2.3-2.44-3.44-5.61-3.44-9.52,0-3.34.78-6.25,2.34-8.71,1.56-2.46,3.78-4.39,6.67-5.78,2.89-1.39,6.26-2.08,10.12-2.08s7.29.71,10.16,2.12c2.86,1.42,5.11,3.37,6.76,5.87,1.64,2.49,2.49,5.41,2.55,8.75h-9.01c0-1.53-.4-3.03-1.19-4.5-.79-1.47-1.98-2.68-3.57-3.61-1.59-.94-3.54-1.4-5.87-1.4-1.93-.06-3.65.25-5.19.94-1.53.68-2.73,1.67-3.61,2.98-.88,1.3-1.32,2.86-1.32,4.67s.4,3.27,1.19,4.38c.79,1.1,1.91,2.05,3.36,2.85,1.44.79,3.16,1.52,5.14,2.17,1.98.65,4.17,1.37,6.54,2.17,2.89.96,5.5,2.14,7.82,3.53,2.32,1.39,4.15,3.17,5.48,5.35,1.33,2.18,2,4.97,2,8.37,0,2.95-.76,5.69-2.29,8.25-1.53,2.55-3.8,4.63-6.8,6.25-3,1.61-6.77,2.42-11.31,2.42Z"/>
    <path class="cls-2" d="M1094.66,290.82v-59.5h37.57v6.97h-29.07v19.04h26.52v6.8h-26.52v19.72h29.07v6.97h-37.57Z"/>
    <path class="cls-2" d="M1169.97,291.84c-5.72,0-10.74-1.29-15.04-3.87-4.31-2.58-7.69-6.18-10.16-10.79-2.46-4.62-3.7-9.99-3.7-16.11s1.23-11.4,3.7-16.02c2.47-4.62,5.85-8.23,10.16-10.84,4.31-2.61,9.32-3.91,15.04-3.91s10.87,1.3,15.26,3.91c4.39,2.61,7.79,6.22,10.2,10.84,2.41,4.62,3.61,9.96,3.61,16.02s-1.21,11.49-3.61,16.11c-2.41,4.62-5.81,8.22-10.2,10.79-4.39,2.58-9.48,3.87-15.26,3.87ZM1169.97,284.27c4.14,0,7.74-.94,10.79-2.81,3.06-1.87,5.43-4.53,7.1-7.99,1.67-3.46,2.51-7.59,2.51-12.41s-.84-8.95-2.51-12.41c-1.67-3.46-4.04-6.11-7.1-7.95-3.06-1.84-6.66-2.76-10.79-2.76s-7.55.92-10.58,2.76c-3.03,1.84-5.4,4.49-7.1,7.95-1.7,3.46-2.55,7.59-2.55,12.41s.85,8.95,2.55,12.41c1.7,3.46,4.07,6.12,7.1,7.99,3.03,1.87,6.56,2.81,10.58,2.81ZM1185.27,299.32l-20.49-32.21h9.77l20.66,32.21h-9.95Z"/>
  </g>
  <line class="cls-4" x1="139.81" y1="318.5" x2="1388.81" y2="318.5"/>
  <line class="cls-4" x1="139.81" y1="571.5" x2="1388.81" y2="571.5"/>
  <g>
    <path class="cls-2" d="M236.73,800.3c-4.36,0-8.15-.79-11.35-2.38-3.2-1.58-5.65-3.81-7.35-6.67-1.7-2.86-2.55-6.13-2.55-9.82h6.21c0,2.49.57,4.79,1.7,6.88,1.13,2.1,2.81,3.78,5.02,5.06,2.21,1.28,4.99,1.91,8.33,1.91,2.95,0,5.43-.5,7.44-1.49,2.01-.99,3.56-2.31,4.63-3.95,1.08-1.64,1.62-3.51,1.62-5.61,0-2.49-.52-4.5-1.57-6.04-1.05-1.53-2.48-2.76-4.29-3.7-1.81-.94-3.88-1.77-6.21-2.51-2.32-.74-4.73-1.5-7.23-2.29-4.65-1.59-8.03-3.55-10.16-5.91-2.12-2.35-3.22-5.34-3.27-8.97,0-3.12.72-5.88,2.17-8.29,1.44-2.41,3.56-4.31,6.33-5.7,2.78-1.39,6.06-2.08,9.86-2.08s6.9.69,9.65,2.08c2.75,1.39,4.89,3.31,6.42,5.78,1.53,2.47,2.29,5.29,2.29,8.46h-6.12c0-1.81-.47-3.58-1.4-5.31-.94-1.73-2.32-3.15-4.17-4.25-1.84-1.1-4.18-1.66-7.01-1.66-2.32,0-4.38.41-6.16,1.23-1.79.82-3.19,2.01-4.21,3.57s-1.53,3.39-1.53,5.48.45,3.71,1.36,5.01c.91,1.3,2.18,2.38,3.82,3.23,1.64.85,3.57,1.63,5.78,2.34,2.21.71,4.67,1.52,7.4,2.42,2.78.96,5.24,2.12,7.4,3.49,2.15,1.36,3.85,3.1,5.1,5.23,1.25,2.12,1.87,4.8,1.87,8.03,0,2.78-.72,5.43-2.17,7.95-1.44,2.52-3.64,4.56-6.59,6.12-2.95,1.56-6.63,2.34-11.05,2.34Z"/>
    <path class="cls-2" d="M266.64,799.28v-42.84h5.35l.42,8.24c.91-1.98,2.12-3.65,3.66-5.01,1.53-1.36,3.37-2.41,5.52-3.15,2.15-.74,4.62-1.1,7.4-1.1v6.21h-2.38c-1.81,0-3.57.24-5.27.72-1.7.48-3.2,1.29-4.51,2.42-1.3,1.13-2.34,2.66-3.1,4.59-.76,1.93-1.15,4.33-1.15,7.22v22.7h-5.95Z"/>
    <path class="cls-2" d="M314.16,800.3c-3.91,0-7.42-.93-10.54-2.8-3.12-1.87-5.58-4.49-7.4-7.86-1.81-3.37-2.72-7.24-2.72-11.6,0-4.65.91-8.64,2.72-11.98,1.81-3.34,4.29-5.95,7.44-7.82,3.15-1.87,6.64-2.8,10.5-2.8,5.1,0,9.31,1.29,12.62,3.87,3.31,2.58,5.4,5.99,6.25,10.24h-5.95c-.62-2.89-2.11-5.11-4.46-6.67-2.35-1.56-5.17-2.34-8.46-2.34-2.55,0-4.94.65-7.18,1.96-2.24,1.3-4.02,3.22-5.35,5.74-1.33,2.52-2,5.77-2,9.73,0,2.83.4,5.34,1.19,7.52.79,2.18,1.87,4,3.23,5.44,1.36,1.45,2.92,2.54,4.67,3.27,1.76.74,3.57,1.1,5.44,1.1,2.1,0,4.07-.37,5.91-1.1,1.84-.74,3.37-1.77,4.59-3.1,1.22-1.33,2.03-2.96,2.42-4.89h5.95c-.85,4.14-2.95,7.52-6.29,10.16-3.34,2.63-7.54,3.95-12.58,3.95Z"/>
    <path class="cls-2" d="M345.18,799.7c-1.25,0-2.28-.42-3.1-1.27-.82-.85-1.23-1.9-1.23-3.15s.41-2.28,1.23-3.1c.82-.82,1.88-1.23,3.19-1.23,1.19,0,2.2.41,3.02,1.23.82.82,1.23,1.88,1.23,3.19,0,1.19-.41,2.21-1.23,3.06-.82.85-1.86,1.27-3.1,1.27Z"/>
    <path class="cls-2" d="M382.75,799.28v-59.5h20.31c4.7,0,8.6.79,11.69,2.38,3.09,1.59,5.37,3.71,6.84,6.38,1.47,2.67,2.21,5.7,2.21,9.09s-.72,6.19-2.17,8.88c-1.44,2.69-3.7,4.86-6.76,6.5-3.06,1.64-7,2.47-11.81,2.47h-11.81v23.8h-8.5ZM391.25,768.42h11.48c4.42,0,7.59-.99,9.52-2.97,1.93-1.98,2.89-4.62,2.89-7.9s-.96-6.04-2.89-7.91c-1.93-1.87-5.1-2.8-9.52-2.8h-11.48v21.59Z"/>
    <path class="cls-2" d="M459.76,800.3c-5.72,0-10.74-1.29-15.04-3.87-4.31-2.58-7.69-6.18-10.16-10.79-2.46-4.62-3.7-9.99-3.7-16.11s1.23-11.4,3.7-16.02c2.47-4.62,5.85-8.23,10.16-10.84,4.31-2.61,9.32-3.91,15.04-3.91s10.87,1.3,15.26,3.91c4.39,2.61,7.79,6.22,10.2,10.84,2.41,4.62,3.61,9.96,3.61,16.02s-1.2,11.49-3.61,16.11c-2.41,4.62-5.81,8.22-10.2,10.79-4.39,2.58-9.48,3.87-15.26,3.87ZM459.76,792.73c4.14,0,7.73-.94,10.79-2.8,3.06-1.87,5.43-4.53,7.1-7.99,1.67-3.46,2.51-7.59,2.51-12.41s-.84-8.95-2.51-12.41c-1.67-3.46-4.04-6.11-7.1-7.95-3.06-1.84-6.66-2.76-10.79-2.76s-7.55.92-10.58,2.76c-3.03,1.84-5.4,4.49-7.1,7.95-1.7,3.46-2.55,7.59-2.55,12.41s.85,8.95,2.55,12.41c1.7,3.46,4.07,6.12,7.1,7.99,3.03,1.87,6.56,2.8,10.58,2.8Z"/>
    <path class="cls-2" d="M499.03,799.28v-59.5h20.15c4.7,0,8.56.79,11.56,2.38,3,1.59,5.23,3.7,6.67,6.33s2.17,5.62,2.17,8.97-.72,6.11-2.17,8.8c-1.44,2.69-3.7,4.84-6.76,6.46-3.06,1.62-6.97,2.42-11.73,2.42h-11.39v24.14h-8.5ZM507.53,768.68h11.13c4.19,0,7.27-1.03,9.22-3.1,1.96-2.07,2.93-4.72,2.93-7.95s-.96-5.89-2.89-7.82c-1.93-1.93-5.04-2.89-9.35-2.89h-11.05v21.76ZM530.31,799.28l-12.83-26.44h9.35l13.35,26.44h-9.86Z"/>
    <path class="cls-2" d="M564.48,799.28v-52.53h-17.6v-6.97h43.78v6.97h-17.68v52.53h-8.5Z"/>
  </g>
  <g>
    <path class="cls-2" d="M951.2,798.28v-59.5h16.83c6.97,0,12.71,1.19,17.21,3.57,4.51,2.38,7.85,5.81,10.03,10.29,2.18,4.48,3.27,9.83,3.27,16.06s-1.09,11.39-3.27,15.81c-2.18,4.42-5.53,7.82-10.03,10.2-4.5,2.38-10.24,3.57-17.21,3.57h-16.83ZM957.15,793.35h10.88c5.95,0,10.71-.99,14.28-2.97s6.15-4.82,7.73-8.5c1.59-3.68,2.38-8.08,2.38-13.18s-.79-9.61-2.38-13.34c-1.59-3.74-4.16-6.62-7.73-8.63-3.57-2.01-8.33-3.02-14.28-3.02h-10.88v49.64Z"/>
    <path class="cls-2" d="M1024.64,799.3c-3.46,0-6.46-.57-9.01-1.7s-4.62-2.76-6.21-4.89c-1.59-2.12-2.55-4.66-2.89-7.61h6.21c.28,1.64.92,3.13,1.91,4.46.99,1.33,2.34,2.42,4.04,3.27,1.7.85,3.71,1.27,6.04,1.27,2.15,0,3.92-.33,5.31-.98,1.39-.65,2.44-1.54,3.15-2.68.71-1.13,1.06-2.35,1.06-3.65,0-1.87-.42-3.32-1.28-4.34-.85-1.02-2.1-1.81-3.74-2.38-1.64-.57-3.68-1.05-6.12-1.45-1.81-.34-3.61-.78-5.4-1.32-1.79-.54-3.37-1.27-4.76-2.21-1.39-.94-2.48-2.1-3.27-3.49-.79-1.39-1.19-3.02-1.19-4.89,0-2.44.59-4.58,1.79-6.42,1.19-1.84,2.93-3.29,5.23-4.33s4.94-1.57,7.95-1.57c4.42,0,8.02,1.09,10.8,3.27,2.78,2.18,4.42,5.37,4.93,9.56h-6.03c-.23-2.32-1.19-4.18-2.89-5.57-1.7-1.39-4-2.08-6.88-2.08s-5,.59-6.5,1.78c-1.5,1.19-2.25,2.78-2.25,4.76,0,1.19.4,2.25,1.19,3.19.79.93,1.96,1.74,3.49,2.42,1.53.68,3.46,1.22,5.78,1.62,2.66.51,5.16,1.18,7.48,2,2.32.82,4.21,2.07,5.65,3.74,1.45,1.67,2.17,4.04,2.17,7.1,0,2.55-.64,4.82-1.91,6.8-1.28,1.98-3.1,3.53-5.48,4.63-2.38,1.11-5.16,1.66-8.33,1.66Z"/>
    <path class="cls-2" d="M1065.1,798.28c-2.44,0-4.54-.38-6.29-1.15-1.76-.76-3.1-2.05-4.04-3.87-.94-1.81-1.4-4.25-1.4-7.31v-25.42h-7.48v-5.1h7.48l.85-10.03h5.1v10.03h12.75v5.1h-12.75v25.42c0,2.83.58,4.75,1.74,5.74,1.16.99,3.16,1.49,5.99,1.49h4.42v5.1h-6.38Z"/>
    <path class="cls-2" d="M1083.37,798.7c-1.25,0-2.28-.42-3.1-1.27-.82-.85-1.23-1.9-1.23-3.15s.41-2.28,1.23-3.1,1.88-1.23,3.19-1.23c1.19,0,2.2.41,3.02,1.23.82.82,1.23,1.88,1.23,3.19,0,1.19-.41,2.21-1.23,3.06-.82.85-1.86,1.27-3.1,1.27Z"/>
    <path class="cls-2" d="M1120.94,798.28v-59.5h20.32c4.7,0,8.6.79,11.69,2.38,3.09,1.59,5.37,3.71,6.84,6.38,1.47,2.67,2.21,5.7,2.21,9.09s-.72,6.19-2.17,8.88c-1.44,2.69-3.7,4.86-6.76,6.5-3.06,1.64-7,2.47-11.82,2.47h-11.82v23.8h-8.5ZM1129.44,767.42h11.48c4.42,0,7.59-.99,9.52-2.97,1.93-1.98,2.89-4.62,2.89-7.9s-.96-6.04-2.89-7.91c-1.93-1.87-5.1-2.8-9.52-2.8h-11.48v21.59Z"/>
    <path class="cls-2" d="M1197.95,799.3c-5.72,0-10.74-1.29-15.04-3.87-4.31-2.58-7.69-6.18-10.16-10.79-2.46-4.62-3.7-9.99-3.7-16.11s1.23-11.4,3.7-16.02c2.47-4.62,5.85-8.23,10.16-10.84,4.31-2.61,9.32-3.91,15.04-3.91s10.87,1.3,15.26,3.91c4.39,2.61,7.79,6.22,10.2,10.84,2.41,4.62,3.61,9.96,3.61,16.02s-1.21,11.49-3.61,16.11c-2.41,4.62-5.81,8.22-10.2,10.79-4.39,2.58-9.48,3.87-15.26,3.87ZM1197.95,791.73c4.14,0,7.73-.94,10.79-2.8,3.06-1.87,5.43-4.53,7.1-7.99,1.67-3.46,2.51-7.59,2.51-12.41s-.84-8.95-2.51-12.41c-1.67-3.46-4.04-6.11-7.1-7.95-3.06-1.84-6.66-2.76-10.79-2.76s-7.55.92-10.58,2.76c-3.03,1.84-5.4,4.49-7.1,7.95-1.7,3.46-2.55,7.59-2.55,12.41s.85,8.95,2.55,12.41c1.7,3.46,4.06,6.12,7.1,7.99,3.03,1.87,6.56,2.8,10.58,2.8Z"/>
    <path class="cls-2" d="M1237.22,798.28v-59.5h20.14c4.7,0,8.56.79,11.56,2.38,3,1.59,5.23,3.7,6.67,6.33s2.17,5.62,2.17,8.97-.72,6.11-2.17,8.8c-1.45,2.69-3.7,4.84-6.76,6.46-3.06,1.62-6.97,2.42-11.73,2.42h-11.39v24.14h-8.5ZM1245.72,767.68h11.13c4.19,0,7.27-1.03,9.22-3.1,1.96-2.07,2.93-4.72,2.93-7.95s-.96-5.89-2.89-7.82c-1.93-1.93-5.04-2.89-9.35-2.89h-11.05v21.76ZM1268.5,798.28l-12.83-26.44h9.35l13.34,26.44h-9.86Z"/>
    <path class="cls-2" d="M1302.67,798.28v-52.53h-17.6v-6.97h43.78v6.97h-17.68v52.53h-8.5Z"/>
  </g>
  <line class="cls-4" x1="139.81" y1="824.5" x2="1388.81" y2="824.5"/>
  <g>
    <path class="cls-2" d="M384.9,115.5V30.75h18.16v70.7h36.56v14.04h-54.72Z"/>
    <path class="cls-2" d="M480.06,116.95c-5.89,0-11.2-1.37-15.92-4.12-4.72-2.74-8.43-6.52-11.14-11.32-2.71-4.8-4.06-10.27-4.06-16.4s1.35-11.86,4.06-16.71c2.7-4.84,6.42-8.61,11.14-11.32,4.72-2.7,10.03-4.06,15.92-4.06s11.28,1.35,15.92,4.06c4.64,2.71,8.33,6.46,11.08,11.26,2.74,4.8,4.12,10.35,4.12,16.65s-1.37,11.72-4.12,16.52c-2.74,4.8-6.44,8.58-11.08,11.32-4.64,2.74-9.95,4.12-15.92,4.12ZM480.06,101.21c2.34,0,4.46-.61,6.36-1.82,1.9-1.21,3.41-3.03,4.54-5.45,1.13-2.42,1.69-5.41,1.69-8.96s-.57-6.54-1.69-8.96c-1.13-2.42-2.64-4.24-4.54-5.45-1.9-1.21-4.02-1.82-6.36-1.82s-4.58.6-6.48,1.82c-1.9,1.21-3.39,3.03-4.48,5.45-1.09,2.42-1.63,5.41-1.63,8.96s.54,6.54,1.63,8.96c1.09,2.42,2.58,4.24,4.48,5.45,1.9,1.21,4.06,1.82,6.48,1.82Z"/>
    <path class="cls-2" d="M555.23,116.95c-6.29,0-11.84-1.37-16.65-4.12-4.8-2.74-8.53-6.5-11.2-11.26-2.66-4.76-4-10.17-4-16.22s1.33-11.88,4-16.77c2.66-4.88,6.4-8.7,11.2-11.44,4.8-2.74,10.35-4.12,16.65-4.12,7.99,0,14.71,2.1,20.16,6.29,5.45,4.2,8.9,10.01,10.35,17.43h-19.37c-.57-2.58-1.86-4.6-3.87-6.05-2.02-1.45-4.48-2.18-7.38-2.18-2.74,0-5.1.67-7.08,2-1.98,1.33-3.49,3.23-4.54,5.69-1.05,2.46-1.57,5.39-1.57,8.78,0,2.5.3,4.76.91,6.78.61,2.02,1.47,3.73,2.6,5.15,1.13,1.41,2.52,2.52,4.18,3.33,1.65.81,3.49,1.21,5.51,1.21,1.86,0,3.57-.32,5.15-.97,1.57-.65,2.88-1.59,3.93-2.85,1.05-1.25,1.77-2.72,2.18-4.42h19.37c-1.45,7.26-4.92,13.03-10.41,17.31-5.49,4.28-12.19,6.42-20.1,6.42Z"/>
    <path class="cls-2" d="M620.48,116.95c-5.01,0-9.18-.83-12.53-2.48-3.35-1.65-5.81-3.85-7.38-6.6-1.57-2.74-2.36-5.81-2.36-9.2s.91-6.76,2.72-9.62c1.82-2.86,4.64-5.1,8.47-6.72,3.83-1.61,8.78-2.42,14.83-2.42h14.65c0-2.74-.34-5.02-1.03-6.84-.69-1.82-1.8-3.17-3.33-4.06-1.53-.89-3.63-1.33-6.3-1.33-2.83,0-5.21.59-7.14,1.76-1.94,1.17-3.15,2.97-3.63,5.39h-17.43c.4-4.36,1.82-8.15,4.24-11.38,2.42-3.23,5.71-5.77,9.87-7.63,4.16-1.86,8.9-2.78,14.22-2.78,5.81,0,10.85.93,15.13,2.78,4.28,1.86,7.61,4.62,9.99,8.29,2.38,3.67,3.57,8.21,3.57,13.62v37.77h-15.13l-2.18-8.84c-.89,1.53-1.94,2.93-3.15,4.18-1.21,1.25-2.62,2.34-4.24,3.27-1.62.93-3.39,1.63-5.33,2.12-1.94.48-4.12.73-6.54.73ZM625.08,103.15c1.86,0,3.51-.32,4.96-.97,1.45-.65,2.72-1.53,3.81-2.66,1.09-1.13,1.98-2.44,2.66-3.93.68-1.49,1.19-3.17,1.51-5.02h-11.74c-2.02,0-3.71.26-5.08.79-1.37.53-2.36,1.29-2.97,2.3-.61,1.01-.91,2.12-.91,3.33,0,1.37.34,2.5,1.03,3.39.68.89,1.61,1.57,2.78,2.06,1.17.48,2.48.73,3.93.73Z"/>
    <path class="cls-2" d="M672.29,115.5V28.33h18.16v87.16h-18.16Z"/>
    <path class="cls-2" d="M733.67,115.5V30.75h18.16v70.7h36.56v14.04h-54.72Z"/>
    <path class="cls-2" d="M830.76,116.95c-5.57,0-10.67-1.01-15.31-3.03-4.64-2.02-8.35-5.1-11.14-9.26-2.78-4.16-4.26-9.46-4.42-15.92h17.67c.16,2.5.75,4.74,1.76,6.72,1.01,1.98,2.5,3.53,4.48,4.66,1.98,1.13,4.3,1.69,6.96,1.69,2.5,0,4.66-.5,6.48-1.51,1.82-1.01,3.21-2.34,4.18-4,.97-1.65,1.45-3.57,1.45-5.75,0-2.5-.61-4.6-1.82-6.29-1.21-1.69-2.95-3.01-5.21-3.93-2.26-.93-4.92-1.39-7.99-1.39h-6.29v-14.89h6.29c3.55,0,6.62-.83,9.2-2.48,2.58-1.65,3.87-4.26,3.87-7.81,0-2.82-.93-5.06-2.78-6.72-1.86-1.65-4.36-2.48-7.51-2.48-3.55,0-6.34,1.07-8.35,3.21-2.02,2.14-3.11,4.7-3.27,7.69h-17.55c.24-5.49,1.59-10.19,4.06-14.1,2.46-3.91,5.85-6.9,10.17-8.96,4.32-2.06,9.34-3.09,15.07-3.09s11.06,1.05,15.25,3.15c4.2,2.1,7.36,4.88,9.5,8.35,2.14,3.47,3.21,7.31,3.21,11.5,0,3.47-.65,6.48-1.94,9.02-1.29,2.54-2.99,4.64-5.08,6.29-2.1,1.66-4.36,2.89-6.78,3.69,3.15.57,5.87,1.76,8.17,3.57,2.3,1.82,4.1,4.12,5.39,6.9,1.29,2.78,1.94,5.95,1.94,9.5,0,4.68-1.15,8.98-3.45,12.89-2.3,3.92-5.65,7.02-10.05,9.32-4.4,2.3-9.79,3.45-16.16,3.45Z"/>
    <path class="cls-2" d="M941.77,116.95c-8.47,0-15.8-1.83-21.97-5.51-6.17-3.67-10.92-8.8-14.22-15.37-3.31-6.58-4.96-14.14-4.96-22.7s1.65-16.36,4.96-22.94c3.31-6.58,8.05-11.74,14.22-15.5s13.5-5.63,21.97-5.63c10.41,0,18.96,2.62,25.66,7.87,6.7,5.25,10.81,12.63,12.35,22.15h-19.85c-.97-4.28-3.03-7.61-6.17-9.99-3.15-2.38-7.22-3.57-12.23-3.57s-8.82,1.13-12.17,3.39c-3.35,2.26-5.89,5.43-7.63,9.5-1.74,4.08-2.6,8.98-2.6,14.71s.87,10.39,2.6,14.47c1.74,4.08,4.28,7.22,7.63,9.44,3.35,2.22,7.4,3.33,12.17,3.33,5,0,9.08-1.07,12.23-3.21,3.15-2.14,5.21-5.22,6.17-9.26h19.85c-1.53,8.96-5.65,16-12.35,21.12-6.7,5.13-15.25,7.69-25.66,7.69Z"/>
    <path class="cls-2" d="M1013.8,116.95c-5,0-9.18-.83-12.53-2.48-3.35-1.65-5.81-3.85-7.38-6.6-1.57-2.74-2.36-5.81-2.36-9.2s.91-6.76,2.72-9.62c1.82-2.86,4.64-5.1,8.47-6.72,3.83-1.61,8.78-2.42,14.83-2.42h14.65c0-2.74-.34-5.02-1.03-6.84-.69-1.82-1.8-3.17-3.33-4.06-1.53-.89-3.63-1.33-6.29-1.33-2.83,0-5.21.59-7.14,1.76-1.94,1.17-3.15,2.97-3.63,5.39h-17.43c.4-4.36,1.82-8.15,4.24-11.38,2.42-3.23,5.71-5.77,9.87-7.63,4.16-1.86,8.9-2.78,14.22-2.78,5.81,0,10.85.93,15.13,2.78,4.28,1.86,7.61,4.62,9.99,8.29,2.38,3.67,3.57,8.21,3.57,13.62v37.77h-15.13l-2.18-8.84c-.89,1.53-1.94,2.93-3.15,4.18-1.21,1.25-2.62,2.34-4.24,3.27-1.62.93-3.39,1.63-5.33,2.12-1.94.48-4.12.73-6.54.73ZM1018.4,103.15c1.86,0,3.51-.32,4.96-.97,1.45-.65,2.72-1.53,3.81-2.66,1.09-1.13,1.98-2.44,2.66-3.93.68-1.49,1.19-3.17,1.51-5.02h-11.74c-2.02,0-3.71.26-5.08.79-1.37.53-2.36,1.29-2.97,2.3-.61,1.01-.91,2.12-.91,3.33,0,1.37.34,2.5,1.03,3.39.69.89,1.61,1.57,2.79,2.06,1.17.48,2.48.73,3.93.73Z"/>
    <path class="cls-2" d="M1095.64,116.95c-6.29,0-11.84-1.37-16.65-4.12-4.8-2.74-8.54-6.5-11.2-11.26-2.66-4.76-4-10.17-4-16.22s1.33-11.88,4-16.77c2.66-4.88,6.4-8.7,11.2-11.44,4.8-2.74,10.35-4.12,16.65-4.12,7.99,0,14.71,2.1,20.16,6.29,5.45,4.2,8.9,10.01,10.35,17.43h-19.37c-.57-2.58-1.86-4.6-3.87-6.05-2.02-1.45-4.48-2.18-7.38-2.18-2.74,0-5.11.67-7.08,2-1.98,1.33-3.49,3.23-4.54,5.69-1.05,2.46-1.57,5.39-1.57,8.78,0,2.5.3,4.76.91,6.78.61,2.02,1.47,3.73,2.6,5.15,1.13,1.41,2.52,2.52,4.18,3.33,1.65.81,3.49,1.21,5.51,1.21,1.86,0,3.57-.32,5.15-.97,1.57-.65,2.88-1.59,3.93-2.85,1.05-1.25,1.77-2.72,2.18-4.42h19.37c-1.45,7.26-4.92,13.03-10.41,17.31-5.49,4.28-12.19,6.42-20.1,6.42Z"/>
    <path class="cls-2" d="M1140.31,115.5V28.33h18.16v34.74c1.94-2.91,4.56-5.31,7.87-7.2,3.31-1.9,7.18-2.84,11.62-2.84,5.16,0,9.48,1.09,12.95,3.27,3.47,2.18,6.07,5.33,7.81,9.44,1.73,4.12,2.6,9.16,2.6,15.13v34.62h-18.04v-33.05c0-4.52-.93-8.01-2.79-10.47-1.86-2.46-4.88-3.69-9.08-3.69-2.5,0-4.74.63-6.72,1.88-1.98,1.25-3.51,2.97-4.6,5.15s-1.63,4.8-1.63,7.87v32.32h-18.16Z"/>
    <path class="cls-2" d="M1246.35,116.95c-6.29,0-11.8-1.31-16.52-3.93-4.72-2.62-8.41-6.29-11.08-11.02-2.66-4.72-4-10.15-4-16.28s1.29-11.9,3.87-16.83c2.58-4.92,6.27-8.8,11.08-11.62,4.8-2.82,10.35-4.24,16.65-4.24s11.5,1.31,16.1,3.93c4.6,2.62,8.19,6.23,10.77,10.83,2.58,4.6,3.87,9.89,3.87,15.86,0,.81-.02,1.72-.06,2.72-.04,1.01-.1,2.04-.18,3.09h-49.27v-10.65h31.23c-.24-3.31-1.49-6.01-3.75-8.11-2.26-2.1-5.13-3.15-8.6-3.15-2.66,0-5.04.61-7.14,1.82-2.1,1.21-3.73,3.05-4.9,5.51-1.17,2.46-1.76,5.55-1.76,9.26v3.51c0,2.83.52,5.35,1.57,7.57,1.05,2.22,2.62,3.93,4.72,5.15,2.1,1.21,4.48,1.82,7.14,1.82s4.98-.54,6.72-1.63c1.74-1.09,3.09-2.44,4.06-4.06h18.52c-1.13,3.71-3.07,7.14-5.81,10.29-2.75,3.15-6.07,5.63-9.99,7.45-3.92,1.82-8.33,2.72-13.26,2.72Z"/>
  </g>
  <text class="cls-5" transform="translate(1177.79 128.5)"><tspan class="cls-8" x="0" y="0">L</tspan><tspan x="65.98" y="0">ocal L3</tspan><tspan x="0" y="104">Cache</tspan></text>
</svg>