<?xml version="1.0" encoding="UTF-8"?>
<svg id="Capa_1" data-name="Capa 1" xmlns="http://www.w3.org/2000/svg" viewBox="0 0 942 741">
  <defs>
    <style>
      .cls-1 {
        fill: #4d4d4d;
        stroke: #4d4d4d;
        stroke-linejoin: round;
      }

      .cls-1, .cls-2 {
        stroke-width: 11px;
      }

      .cls-3 {
        fill: #f23333;
      }

      .cls-4, .cls-2 {
        fill: #333;
      }

      .cls-5 {
        fill: #999;
      }

      .cls-6 {
        fill: #a8f431;
      }

      .cls-2 {
        stroke: #333;
        stroke-miterlimit: 10;
      }
    </style>
  </defs>
  <g>
    <rect class="cls-5" x="5.5" y="5.5" width="931" height="166.03" rx="14.27" ry="14.27"/>
    <path class="cls-4" d="M922.23,11c4.84,0,8.77,3.94,8.77,8.77v137.48c0,4.84-3.94,8.77-8.77,8.77H19.77c-4.84,0-8.77-3.94-8.77-8.77V19.77c0-4.84,3.94-8.77,8.77-8.77h902.45M922.23,0H19.77C8.85,0,0,8.85,0,19.77v137.48c0,10.92,8.85,19.77,19.77,19.77h902.45c10.92,0,19.77-8.85,19.77-19.77V19.77c0-10.92-8.85-19.77-19.77-19.77h0Z"/>
  </g>
  <g>
    <rect class="cls-5" x="5.5" y="193.49" width="931" height="166.03" rx="14.27" ry="14.27"/>
    <path class="cls-4" d="M922.23,198.99c4.84,0,8.77,3.94,8.77,8.77v137.48c0,4.84-3.94,8.77-8.77,8.77H19.77c-4.84,0-8.77-3.94-8.77-8.77v-137.48c0-4.84,3.94-8.77,8.77-8.77h902.45M922.23,187.99H19.77c-10.92,0-19.77,8.85-19.77,19.77v137.48c0,10.92,8.85,19.77,19.77,19.77h902.45c10.92,0,19.77-8.85,19.77-19.77v-137.48c0-10.92-8.85-19.77-19.77-19.77h0Z"/>
  </g>
  <g>
    <rect class="cls-5" x="5.5" y="381.48" width="931" height="166.03" rx="14.27" ry="14.27"/>
    <path class="cls-4" d="M922.23,386.98c4.84,0,8.77,3.94,8.77,8.77v137.48c0,4.84-3.94,8.77-8.77,8.77H19.77c-4.84,0-8.77-3.94-8.77-8.77v-137.48c0-4.84,3.94-8.77,8.77-8.77h902.45M922.23,375.98H19.77c-10.92,0-19.77,8.85-19.77,19.77v137.48c0,10.92,8.85,19.77,19.77,19.77h902.45c10.92,0,19.77-8.85,19.77-19.77v-137.48c0-10.92-8.85-19.77-19.77-19.77h0Z"/>
  </g>
  <g>
    <rect class="cls-5" x="5.5" y="569.47" width="931" height="166.03" rx="14.27" ry="14.27"/>
    <path class="cls-4" d="M922.23,574.97c4.84,0,8.77,3.94,8.77,8.77v137.48c0,4.84-3.94,8.77-8.77,8.77H19.77c-4.84,0-8.77-3.94-8.77-8.77v-137.48c0-4.84,3.94-8.77,8.77-8.77h902.45M922.23,563.97H19.77c-10.92,0-19.77,8.85-19.77,19.77v137.48c0,10.92,8.85,19.77,19.77,19.77h902.45c10.92,0,19.77-8.85,19.77-19.77v-137.48c0-10.92-8.85-19.77-19.77-19.77h0Z"/>
  </g>
  <rect class="cls-1" x="638.5" y="35.5" width="18" height="107" rx="2.1" ry="2.1"/>
  <rect class="cls-1" x="681.5" y="35.5" width="18" height="107" rx="2.1" ry="2.1"/>
  <rect class="cls-1" x="723.5" y="35.5" width="18" height="107" rx="2.1" ry="2.1"/>
  <rect class="cls-1" x="767.5" y="35.5" width="18" height="107" rx="2.1" ry="2.1"/>
  <rect class="cls-1" x="812.5" y="35.5" width="18" height="107" rx="2.1" ry="2.1"/>
  <rect class="cls-1" x="855.5" y="35.5" width="18" height="107" rx="2.1" ry="2.1"/>
  <rect class="cls-1" x="638.5" y="223.5" width="18" height="107" rx="2.1" ry="2.1"/>
  <rect class="cls-1" x="681.5" y="223.5" width="18" height="107" rx="2.1" ry="2.1"/>
  <rect class="cls-1" x="723.5" y="223.5" width="18" height="107" rx="2.1" ry="2.1"/>
  <rect class="cls-1" x="767.5" y="223.5" width="18" height="107" rx="2.1" ry="2.1"/>
  <rect class="cls-1" x="812.5" y="223.5" width="18" height="107" rx="2.1" ry="2.1"/>
  <rect class="cls-1" x="855.5" y="223.5" width="18" height="107" rx="2.1" ry="2.1"/>
  <rect class="cls-1" x="638.5" y="411.5" width="18" height="107" rx="2.1" ry="2.1"/>
  <rect class="cls-1" x="681.5" y="411.5" width="18" height="107" rx="2.1" ry="2.1"/>
  <rect class="cls-1" x="723.5" y="411.5" width="18" height="107" rx="2.1" ry="2.1"/>
  <rect class="cls-1" x="767.5" y="411.5" width="18" height="107" rx="2.1" ry="2.1"/>
  <rect class="cls-1" x="812.5" y="411.5" width="18" height="107" rx="2.1" ry="2.1"/>
  <rect class="cls-1" x="855.5" y="411.5" width="18" height="107" rx="2.1" ry="2.1"/>
  <rect class="cls-1" x="638.5" y="599.5" width="18" height="107" rx="2.1" ry="2.1"/>
  <rect class="cls-1" x="681.5" y="599.5" width="18" height="107" rx="2.1" ry="2.1"/>
  <rect class="cls-1" x="723.5" y="599.5" width="18" height="107" rx="2.1" ry="2.1"/>
  <rect class="cls-1" x="767.5" y="599.5" width="18" height="107" rx="2.1" ry="2.1"/>
  <rect class="cls-1" x="812.5" y="599.5" width="18" height="107" rx="2.1" ry="2.1"/>
  <rect class="cls-1" x="855.5" y="599.5" width="18" height="107" rx="2.1" ry="2.1"/>
  <g>
    <circle class="cls-6" cx="86.7" cy="86.7" r="16.26"/>
    <circle class="cls-6" cx="139.36" cy="86.7" r="16.26"/>
    <circle class="cls-6" cx="192.03" cy="86.7" r="16.26"/>
    <circle class="cls-6" cx="247.16" cy="87.01" r="16.26"/>
    <circle class="cls-6" cx="300.16" cy="87.01" r="16.26"/>
  </g>
  <circle class="cls-6" cx="85.7" cy="276.7" r="16.26"/>
  <circle class="cls-6" cx="138.36" cy="276.7" r="16.26"/>
  <circle class="cls-6" cx="191.03" cy="276.7" r="16.26"/>
  <circle class="cls-3" cx="246.16" cy="277.01" r="16.26"/>
  <circle class="cls-3" cx="299.16" cy="277.01" r="16.26"/>
  <g>
    <circle class="cls-6" cx="84.7" cy="464.7" r="16.26"/>
    <circle class="cls-6" cx="137.36" cy="464.7" r="16.26"/>
    <circle class="cls-6" cx="190.03" cy="464.7" r="16.26"/>
    <circle class="cls-6" cx="245.16" cy="465.01" r="16.26"/>
    <circle class="cls-6" cx="298.16" cy="465.01" r="16.26"/>
  </g>
  <circle class="cls-6" cx="85.7" cy="652.7" r="16.26"/>
  <circle class="cls-3" cx="138.36" cy="652.7" r="16.26"/>
  <circle class="cls-6" cx="191.03" cy="652.7" r="16.26"/>
  <circle class="cls-6" cx="246.16" cy="653.01" r="16.26"/>
  <circle class="cls-6" cx="299.16" cy="653.01" r="16.26"/>
  <rect class="cls-2" x="68.5" y="173.5" width="804" height="18"/>
  <rect class="cls-2" x="68.5" y="362.5" width="804" height="18"/>
  <rect class="cls-2" x="68.5" y="550.5" width="804" height="18"/>
</svg>